<svg xmlns="http://www.w3.org/2000/svg" viewBox="0 0 462.34 493.68"><defs><style>.cls-1,.cls-2{fill:#318cf5;}.cls-1{stroke:#000;stroke-linecap:round;stroke-linejoin:round;stroke-width:3.02px;fill-rule:evenodd;}</style></defs><title>Asset 9</title><g id="Layer_2" data-name="Layer 2"><g id="Layer_1-2" data-name="Layer 1"><path class="cls-1" d="M243.14,113.7h66.93V80.5h-80.8L209.93,99.84V261.43l19.34,19.36h80.8V247.57H243.14m-10.09-25.19a10.66,10.66,0,1,1,3.13-7.54A10.6,10.6,0,0,1,233.05,222.38Zm0-42.67a10.66,10.66,0,1,1,3.13-7.54A10.64,10.64,0,0,1,233.05,179.71Z"/><path d="M310.07,249.08H243.14a1.51,1.51,0,0,1-1.51-1.51V222.75a1.51,1.51,0,1,1,3,0v23.31h65.43a1.51,1.51,0,1,1,0,3Z"/><path d="M243.14,140a1.5,1.5,0,0,1-1.51-1.5V113.7a1.51,1.51,0,0,1,1.51-1.51h66.93a1.51,1.51,0,0,1,0,3H244.64v23.33A1.5,1.5,0,0,1,243.14,140Z"/><path class="cls-1" d="M460.83,180.64a59.81,59.81,0,0,0-37.52-55.51,53.67,53.67,0,0,0-46.08-79.88,33.77,33.77,0,0,0-33.31-29.16h-.23a33.75,33.75,0,0,0-33.62,33.73V311.44A33.74,33.74,0,0,0,377.23,316a53.68,53.68,0,0,0,46.08-79.89A59.8,59.8,0,0,0,460.83,180.64Zm-96.72-90a17,17,0,1,1,0,24.08A17.05,17.05,0,0,1,364.11,90.68Zm24.1,179.92a17,17,0,1,1,0-24.09A17,17,0,0,1,388.21,270.6Zm-6.77-72.93a17,17,0,1,1,17-17A17,17,0,0,1,381.44,197.67Z"/><path d="M364.11,248a1.56,1.56,0,0,1-1.06-.43l-23.63-23.15H310.07a1.51,1.51,0,1,1,0-3h30a1.55,1.55,0,0,1,1.06.43l24.07,23.58a1.51,1.51,0,0,1-1.05,2.59Z"/><path d="M340,140.86h-30a1.51,1.51,0,1,1,0-3h29.35l24.16-23.66a1.51,1.51,0,0,1,2.11,2.15l-24.6,24.09A1.51,1.51,0,0,1,340,140.86Z"/><path d="M364.39,182.15H310.07a1.51,1.51,0,1,1,0-3h54.32a1.51,1.51,0,1,1,0,3Z"/><path d="M225.51,184.35a12.18,12.18,0,1,1,12.18-12.18A12.18,12.18,0,0,1,225.51,184.35Zm0-21.33a9.16,9.16,0,1,0,9.16,9.16A9.17,9.17,0,0,0,225.51,163Z"/><path d="M225.51,227a12.18,12.18,0,1,1,12.18-12.18A12.19,12.19,0,0,1,225.51,227Zm0-21.34a9.16,9.16,0,1,0,9.16,9.16A9.17,9.17,0,0,0,225.51,205.68Z"/><path d="M153.81,184.14H116.2a9.22,9.22,0,0,1-9.21-9.21V161.51a1.51,1.51,0,1,1,3,0v13.42a6.22,6.22,0,0,0,6.2,6.2h37.61a6.21,6.21,0,0,0,6.19-6.2V161.51a1.51,1.51,0,0,1,3,0v13.42A9.22,9.22,0,0,1,153.81,184.14Z"/><path d="M86.13,376.36a32.84,32.84,0,0,1-32.79-32.15c0-.47,0-.93,0-1.4V303.72A49.31,49.31,0,0,0,22.82,291,22.45,22.45,0,0,1,0,269.09v-.95a1.52,1.52,0,0,1,.19-.69l53.15-96.3V150.84C53.34,67.67,121,0,204.18,0h43.37a22.16,22.16,0,0,1,22.14,22.14V80.5a1.51,1.51,0,1,1-3,0V22.14A19.15,19.15,0,0,0,247.55,3H204.18C122.67,3,56.35,69.33,56.35,150.84v20.69a1.52,1.52,0,0,1-.18.73L3,268.57V269a19.4,19.4,0,0,0,19.79,19h.11A52.32,52.32,0,0,1,55.87,302a1.51,1.51,0,0,1,.48,1.1v39.79c0,.46,0,.88,0,1.31a29.88,29.88,0,0,0,30.46,29.18h64.51A19.37,19.37,0,0,0,170.67,354V278.84a1.51,1.51,0,1,1,3,0V354a22.39,22.39,0,0,1-22.37,22.36H86.13Z"/><path d="M170.67,406.84c0-30-19-30.49-19.83-30.49h-64a32.89,32.89,0,0,1-33.51-32.14c0-.47,0-.94,0-1.4V303.72A49.31,49.31,0,0,0,22.82,291,22.44,22.44,0,0,1,0,269.09c0-.32,0-.63,0-.95a1.46,1.46,0,0,1,.18-.7l53.15-96.3v-20.3C53.34,67.67,121,0,204.18,0a1.51,1.51,0,0,1,0,3C122.67,3,56.36,69.33,56.36,150.84v20.69a1.53,1.53,0,0,1-.19.73L3,268.57V269a19.4,19.4,0,0,0,19.8,19h.1A52.32,52.32,0,0,1,55.87,302a1.48,1.48,0,0,1,.49,1.1v39.79c0,.46,0,.88,0,1.3a29.89,29.89,0,0,0,30.46,29.19h64c.23,0,22.84.39,22.84,33.51V407a10.42,10.42,0,0,0-3,0Z"/><path d="M451,355.51v8.66a1.53,1.53,0,0,1,0,.3,94.58,94.58,0,0,1-10.85,27.15C429.69,409,415,418.48,397.69,419v73.18a1.51,1.51,0,0,1-1.51,1.51h-224a1.51,1.51,0,0,1-1.51-1.51v-64.1a11.45,11.45,0,0,0,3,0v62.59h221V417.51a1.51,1.51,0,0,1,1.51-1.51c39.91,0,51.18-49,51.82-52v-8.51a1.51,1.51,0,0,1,3,0Z"/><path d="M449.51,357h-160a1.51,1.51,0,0,1,0-3h160a1.51,1.51,0,0,1,0,3Z"/><circle class="cls-2" cx="289.51" cy="355.51" r="21.33"/><path d="M289.51,378.35a22.84,22.84,0,1,1,22.84-22.84A22.87,22.87,0,0,1,289.51,378.35Zm0-42.67a19.83,19.83,0,1,0,19.83,19.83A19.85,19.85,0,0,0,289.51,335.68Z"/><circle class="cls-2" cx="172.18" cy="268.18" r="21.33"/><path d="M172.18,291A22.85,22.85,0,1,1,195,268.18,22.86,22.86,0,0,1,172.18,291Zm0-42.67A19.83,19.83,0,1,0,192,268.18,19.85,19.85,0,0,0,172.18,248.35Z"/><path d="M172.18,429.68a12.18,12.18,0,1,1,12.17-12.17A12.19,12.19,0,0,1,172.18,429.68Zm0-21.33a9.16,9.16,0,1,0,9.16,9.16A9.17,9.17,0,0,0,172.18,408.35Z"/></g></g></svg>