<svg xmlns="http://www.w3.org/2000/svg" viewBox="0 0 394.87 455.48"><defs><style>.cls-1,.cls-3{fill:#318cf5;}.cls-2{fill:none;}.cls-2,.cls-3{stroke:#000;stroke-linecap:round;stroke-linejoin:round;stroke-width:3.02px;}</style></defs><title>Asset 8</title><g id="Layer_2" data-name="Layer 2"><g id="Layer_1-2" data-name="Layer 1"><path d="M367.37,377.65c4.31,7.46,4.37,7.52-1.71,14-3.13,3.34-6.43,6.54-9.84,9.6-2.32,2.08-5,3.82-7.3,5.6-20.39-15.92-40.74-7.66-46.86,19.58-6.24-.23-12.59-.42-19-.7v-1.52c4.25.19,8.47.34,12.61.48l5.18.19c3.32-13.56,10.31-22.85,19.76-26.23,8.67-3.1,18.68-.86,28.29,6.31l1.31-1a61.84,61.84,0,0,0,5-3.87c3.54-3.18,6.82-6.38,9.75-9.51s4.2-4.54,4.35-5.78-.9-3.08-2.81-6.39a27,27,0,0,1-.58-25.69,29,29,0,0,1,22.41-16c.72-.09,1.44-.14,2.3-.2l.24,0a93.92,93.92,0,0,0,.48-29.18,2.63,2.63,0,0,0-1.21-.86c-12.46-2.79-21.17-9.34-24.5-18.45s-1-19.6,6.51-29.92l-20.64-21.28c-9.95,8.11-20,9.89-30.55,5.44C310.13,238,304.23,229.44,303,217a78.66,78.66,0,0,0-20.32-1.39V214.1c7.28-.27,14.55-.11,21.73,1.68.88,11.78,5.87,20.61,16.73,25.18s20.65,2,30.06-6.11c7.67,7.91,15.16,15.62,22.51,23.21-16,21.07-8.44,41.49,16.35,47,.93.21,2.25,1.26,2.36,2.05a94.49,94.49,0,0,1-.69,30.89c-1.51.12-2.57.17-3.62.3C369.19,340.66,358.11,361.66,367.37,377.65Z"/><path class="cls-1" d="M282.69,425.75v2.83A25.39,25.39,0,0,1,257.3,454H26.9A25.39,25.39,0,0,1,1.51,428.58V398.64H282.69v27.11Z"/><path class="cls-1" d="M282.69,354.17a32.79,32.79,0,0,0,4.64.32,34.76,34.76,0,0,0,13-2.53c17.5-7,26.46-27.49,19.58-44.74a35.45,35.45,0,0,0-32.8-22.38,34.36,34.36,0,0,0-4.41.28V215.61A78.66,78.66,0,0,1,303,217c1.22,12.44,7.12,21,17.55,25.35,10.59,4.45,20.6,2.67,30.55-5.44l20.64,21.28c-7.49,10.32-9.8,20.91-6.51,29.92s12,15.66,24.5,18.45a2.63,2.63,0,0,1,1.21.86,93.92,93.92,0,0,1-.48,29.18l-.24,0c-.86.06-1.58.11-2.3.2a29,29,0,0,0-22.41,16,27,27,0,0,0,.58,25.69c1.91,3.31,3,5.13,2.81,6.39s-1.52,2.75-4.35,5.78-6.21,6.33-9.75,9.51a61.84,61.84,0,0,1-5,3.87l-1.31,1c-9.61-7.17-19.62-9.41-28.29-6.31-9.45,3.38-16.44,12.67-19.76,26.23l-5.18-.19c-4.14-.14-8.36-.29-12.61-.48V354.17Z"/><path d="M299.76,350.56a33.18,33.18,0,0,1-17.07,2.08v-1.52a31.57,31.57,0,0,0,16.51-2c16-6.4,24.17-25.09,17.89-40.82a32.31,32.31,0,0,0-34.4-20.17v-1.52a33.89,33.89,0,0,1,35.81,21.13C325.09,324.31,316.54,343.84,299.76,350.56Z"/><path d="M368.67,376.9c4.69,8.11,4.6,8.84-1.9,15.8-3,3.19-6.34,6.45-9.94,9.69a61.28,61.28,0,0,1-5.22,4.07c-.74.54-1.47,1.07-2.18,1.61a1.5,1.5,0,0,1-1.84,0c-9-7.06-18.4-9.38-26.34-6.54-8.72,3.12-15.16,12.09-18.12,25.27a1.51,1.51,0,0,1-1.47,1.18h-.05l-6.41-.23c-4.11-.14-8.3-.29-12.51-.48v-1.5c6.38.28,12.73.47,19,.7,6.12-27.24,26.47-35.5,46.86-19.58,2.34-1.78,5-3.52,7.3-5.6,3.41-3.06,6.71-6.26,9.84-9.6,6.08-6.5,6-6.56,1.71-14-9.26-16,1.82-37,20.75-39.33,1.05-.13,2.11-.18,3.62-.3a94.49,94.49,0,0,0,.69-30.89c-.11-.79-1.43-1.84-2.36-2.05-24.79-5.53-32.38-25.95-16.35-47-7.35-7.59-14.84-15.3-22.51-23.21C341.8,243,332,245.5,321.15,241s-15.85-13.4-16.73-25.18c-7.18-1.79-14.45-1.95-21.73-1.68v-1.51c7.34-.26,14.78-.1,22.1,1.73a1.51,1.51,0,0,1,1.14,1.35c.89,12,6.06,19.8,15.8,23.9s19.14,2.21,28.5-5.86a1.5,1.5,0,0,1,2.06.09L374.81,257a1.49,1.49,0,0,1,.11,2c-7.45,9.8-9.88,19.78-6.84,28.11,3,8.11,10.89,14,22.32,16.53,1.32.3,3.3,1.7,3.52,3.32a96.49,96.49,0,0,1-.7,31.38,1.5,1.5,0,0,1-1.36,1.21l-1.42.11c-.8.06-1.47.1-2.14.19a26,26,0,0,0-20.08,14.3A23.73,23.73,0,0,0,368.67,376.9Z"/><path d="M318.5,307.78a33.89,33.89,0,0,0-35.81-21.13v-1.53a34.36,34.36,0,0,1,4.41-.28,35.45,35.45,0,0,1,32.8,22.38c6.88,17.25-2.08,37.74-19.58,44.74a34.76,34.76,0,0,1-13,2.53,32.79,32.79,0,0,1-4.64-.32v-1.53a33.18,33.18,0,0,0,17.07-2.08C316.54,343.84,325.09,324.31,318.5,307.78Z"/><path class="cls-1" d="M282.69,26.9V56.83H1.51V26.9A25.39,25.39,0,0,1,26.9,1.51H257.3A25.39,25.39,0,0,1,282.69,26.9Z"/><path class="cls-2" d="M282.69,427.25v1.33A25.39,25.39,0,0,1,257.3,454H26.9A25.39,25.39,0,0,1,1.51,428.58V26.9A25.39,25.39,0,0,1,26.9,1.51H257.3A25.39,25.39,0,0,1,282.69,26.9V427.25Z"/><line class="cls-2" x1="282.69" y1="56.83" x2="1.51" y2="56.83"/><line class="cls-2" x1="282.69" y1="398.64" x2="1.51" y2="398.64"/><path class="cls-3" d="M173.93,177.63c-1.29-.56-2.65-.94-4-1.42a2.45,2.45,0,0,1,.32-.33,21.23,21.23,0,0,0,7.56-15.95c.22-5.75-1.67-10.63-6.53-14.06a28.4,28.4,0,0,0-12.87-4.7c-2.14-.28-4.3-.37-6.58-.55v-16.9h-9.73v16.95h-8.41V123.73h-9.77v17.06H100.67V152h13.76v56.43H102.68L100.58,221H124v17h9.75V221h8.35v17h9.8V221l1.15,0a45.84,45.84,0,0,0,16.64-3.68c9.31-4.15,14.72-11.07,15.18-21.48C185.23,187.58,181.17,180.79,173.93,177.63Zm-41.19-25c1.7,0,3.32,0,4.93,0,3.58,0,7.18-.12,10.75.13a11.11,11.11,0,0,1-.85,22.16c-4.69,0-9.38,0-14.07,0a7.42,7.42,0,0,1-.76,0Zm20.46,55.74a14.42,14.42,0,0,1-3.06.4c-5.55,0-11.09,0-16.63,0-.24,0-.47,0-.8-.05V184.07c.32,0,.62-.07.92-.07,5.47,0,11,0,16.42,0a13,13,0,0,1,12.59,9.47A12.35,12.35,0,0,1,153.2,208.35Z"/><path d="M142.73,97a83.86,83.86,0,1,1-83.86,83.86A83.86,83.86,0,0,1,142.73,97m0-3a86.88,86.88,0,1,0,86.88,86.88A87,87,0,0,0,142.73,94Z"/><path d="M199.34,334.53a1.51,1.51,0,0,1-1.51-1.51V244.73a1.51,1.51,0,0,1,3,0V333A1.51,1.51,0,0,1,199.34,334.53Z"/><path d="M134.79,340.63a1.5,1.5,0,0,1-1.51-1.5V267.37a1.51,1.51,0,1,1,3,0v71.76A1.5,1.5,0,0,1,134.79,340.63Z"/><path d="M167.81,351.19a1.52,1.52,0,0,1-1.51-1.51V328.57a1.51,1.51,0,0,1,3,0v21.11A1.52,1.52,0,0,1,167.81,351.19Z"/><path d="M167.81,320.05a1.51,1.51,0,0,1-1.51-1.5V263.4a1.51,1.51,0,0,1,3,0v55.15A1.51,1.51,0,0,1,167.81,320.05Z"/><path d="M71,324.91a1.51,1.51,0,0,1-1.51-1.5V227.3a1.51,1.51,0,1,1,3,0v96.11A1.51,1.51,0,0,1,71,324.91Z"/><path d="M104,342.61a1.52,1.52,0,0,1-1.51-1.51V320a1.51,1.51,0,0,1,3,0V341.1A1.52,1.52,0,0,1,104,342.61Z"/><path d="M104,310.47a1.51,1.51,0,0,1-1.51-1.5V258.26a1.51,1.51,0,1,1,3,0V309A1.51,1.51,0,0,1,104,310.47Z"/><circle class="cls-1" cx="142.73" cy="427.44" r="10.87"/><path d="M142.73,418.09a9.36,9.36,0,1,1-9.35,9.35,9.35,9.35,0,0,1,9.35-9.35m0-3a12.38,12.38,0,1,0,12.38,12.37,12.39,12.39,0,0,0-12.38-12.37Z"/><line class="cls-1" x1="103.06" y1="32.07" x2="180.37" y2="32.07"/><path d="M180.37,33.58H103.06a1.51,1.51,0,0,1,0-3h77.31a1.51,1.51,0,1,1,0,3Z"/></g></g></svg>