<?xml version="1.0" encoding="utf-8"?>
<!-- Generator: Adobe Illustrator 24.0.1, SVG Export Plug-In . SVG Version: 6.00 Build 0)  -->
<svg version="1.1" id="Layer_1" xmlns="http://www.w3.org/2000/svg" xmlns:xlink="http://www.w3.org/1999/xlink" x="0px" y="0px"
	 viewBox="0 0 1226 1077.7" style="enable-background:new 0 0 1226 1077.7;" xml:space="preserve">
<style type="text/css">
	.st0{fill:#13365D;}
	.st1{fill:#0061FF;}
	.st2{fill:#F5F5F5;}
	.st3{clip-path:url(#SVGID_2_);}
	.st4{fill:#DBDBDB;}
	.st5{fill:#B8B8B8;}
	.st6{fill:none;stroke:#000000;stroke-width:2.7143;stroke-linecap:round;stroke-linejoin:round;stroke-miterlimit:10;}
	.st7{fill:none;stroke:#000000;stroke-width:1.6286;stroke-linecap:round;stroke-linejoin:round;stroke-miterlimit:10;}
	.st8{fill:#FFFFFF;}
	.st9{fill:#005EFD;}
	.st10{fill:#8BAFFD;}
	.st11{fill:#D5E2FD;}
	.st12{fill:#EBF1FD;}
	.st13{fill:none;stroke:#005EFD;stroke-width:1.6286;stroke-linecap:round;stroke-linejoin:round;stroke-miterlimit:10;}
	.st14{fill:none;stroke:#005EFD;stroke-width:2.7143;stroke-linecap:round;stroke-linejoin:round;stroke-miterlimit:10;}
</style>
<title>Asset 3</title>
<g id="Layer_2_1_">
	<g id="Layer_1-2">
		<path class="st0" d="M517.4,1064.7c-16.1-0.3-32.4-1.4-48.3-3.2c-3.6-0.4-6.8,2.2-7.2,5.8c-0.4,3.6,2.2,6.8,5.8,7.2l0,0
			c16.3,1.8,33,2.9,49.5,3.3h0.2c3.6,0,6.6-2.9,6.6-6.5S521,1064.7,517.4,1064.7L517.4,1064.7z"/>
		<path class="st0" d="M613.9,1057.8c-15.8,2.6-32,4.5-48.1,5.7c-3.6,0.3-6.3,3.4-6,7c0.3,3.4,3.1,6,6.5,6c0.2,0,0.3,0,0.5,0
			c16.5-1.2,33-3.1,49.3-5.8c3.6-0.6,6-3.9,5.4-7.5S617.4,1057.2,613.9,1057.8L613.9,1057.8L613.9,1057.8z"/>
		<path class="st0" d="M243.2,980.5c-13.5-8.8-26.7-18.3-39.3-28.2c-2.7-2.3-6.9-2-9.2,0.7c-2.3,2.7-2,6.9,0.7,9.2
			c0.1,0.1,0.3,0.2,0.4,0.3c12.9,10.2,26.5,20,40.3,29c3,2,7.1,1.1,9.1-1.9S246.3,982.5,243.2,980.5L243.2,980.5L243.2,980.5z"/>
		<path class="st0" d="M328.8,1025.5c-14.9-6.1-29.6-13-43.9-20.5c-3.3-1.6-7.2-0.2-8.7,3.1c-1.5,3.1-0.3,6.8,2.6,8.5
			c14.6,7.7,29.7,14.8,45,21c0.8,0.3,1.6,0.5,2.5,0.5c3.6,0,6.5-3,6.5-6.6C332.8,1028.8,331.3,1026.5,328.8,1025.5L328.8,1025.5z"/>
		<path class="st0" d="M36.1,719.7c-1.2-3.4-5-5.2-8.4-3.9s-5.2,5-3.9,8.4c5.6,15.5,12,30.9,19,45.8c1.5,3.3,5.4,4.7,8.7,3.1
			c0,0,0,0,0.1,0c3.3-1.5,4.7-5.4,3.1-8.7c0,0,0,0,0,0C47.8,749.8,41.5,734.8,36.1,719.7z"/>
		<path class="st0" d="M77.3,807.1c-1.8-3.1-5.9-4.1-9-2.3c-3.1,1.8-4.1,5.9-2.3,9l0,0c8.4,14.2,17.5,28.1,27.2,41.5
			c2.1,2.9,6.2,3.6,9.1,1.5s3.6-6.2,1.5-9.1C94.3,834.6,85.4,821,77.3,807.1z"/>
		<path class="st0" d="M133.9,885.5c-2.4-2.7-6.6-2.8-9.2-0.4c-2.6,2.4-2.8,6.3-0.6,9c10.8,12.4,22.4,24.5,34.3,35.8
			c2.8,2.3,6.9,2,9.2-0.8c2.1-2.5,2-6.3-0.2-8.7C155.7,909.4,144.4,897.6,133.9,885.5z"/>
		<path class="st0" d="M421.3,1053.9c-15.8-3.3-31.5-7.3-46.9-12c-3.5-1-7.1,1-8.1,4.5c-1,3.4,0.9,7,4.3,8.1
			c15.8,4.8,32,9,48.1,12.3c0.4,0.1,0.9,0.1,1.3,0.1c3.6,0,6.5-2.9,6.5-6.6C426.5,1057.2,424.3,1054.5,421.3,1053.9L421.3,1053.9z"
			/>
		<path class="st0" d="M1036.9,689.8c-3.5-1-7.1,0.9-8.2,4.4c-4.7,15.4-10.1,30.7-16.2,45.6c-1.4,3.3,0.2,7.1,3.5,8.5c0,0,0,0,0,0
			c0.8,0.3,1.6,0.5,2.5,0.5c2.7,0,5.1-1.6,6.1-4.1c6.2-15.3,11.8-31,16.6-46.8C1042.3,694.5,1040.3,690.8,1036.9,689.8z"/>
		<path class="st0" d="M1001,780.9c-3.2-1.7-7.1-0.4-8.8,2.8c-2.4,4.5-4.8,9.1-7.3,13.6l-5.9,9.6c-3.7,6.2-7.5,12.4-11.4,18.5
			c-2,3-1.1,7.1,2,9s7.1,1.1,9-2l0,0c4-6.2,8-12.6,11.6-18.8l5.9-9.6l0.1-0.2c2.6-4.6,5.1-9.3,7.6-14
			C1005.5,786.6,1004.2,782.6,1001,780.9C1001,780.9,1001,780.9,1001,780.9z"/>
		<path class="st0" d="M1055.2,593.5c-3.6-0.4-6.8,2.2-7.2,5.8c-1.7,16-4.2,32.1-7.4,47.8c-0.7,3.5,1.6,7,5.1,7.7
			c0.4,0.1,0.9,0.1,1.3,0.1c3.1,0,5.8-2.2,6.4-5.2c3.3-16.1,5.8-32.6,7.6-49C1061.4,597.2,1058.8,594,1055.2,593.5
			C1055.2,593.5,1055.2,593.5,1055.2,593.5z"/>
		<path class="st0" d="M707.3,1033.2c-15.1,5.5-30.6,10.4-46.2,14.4c-3.5,0.9-5.6,4.5-4.6,8c0.8,2.9,3.3,4.8,6.3,4.9
			c0.6,0,1.1-0.1,1.7-0.2c15.9-4.2,31.9-9.2,47.3-14.8c3.4-1.2,5.2-4.9,4-8.3c-1.2-3.4-4.9-5.2-8.3-4
			C707.5,1033.2,707.4,1033.2,707.3,1033.2L707.3,1033.2z"/>
		<path class="st0" d="M948.6,863.7c-2.8-2.2-6.9-1.8-9.2,1.1c0,0,0,0,0,0c-9.9,12.7-20.6,25-31.6,36.7c-2.5,2.6-2.4,6.8,0.3,9.3
			s6.8,2.4,9.3-0.3c11.3-12,22.2-24.6,32.4-37.6C951.9,870,951.5,865.9,948.6,863.7C948.6,863.7,948.6,863.7,948.6,863.7z"/>
		<path class="st0" d="M794.7,991.8c-13.8,8.2-28.2,15.9-42.7,22.8c-3.3,1.5-4.6,5.4-3.1,8.7c1.1,2.3,3.4,3.7,5.9,3.7
			c1,0,1.9-0.2,2.8-0.6c14.9-7.1,29.6-14.9,43.8-23.3c3.1-1.8,4.1-5.9,2.3-9C801.8,991,797.8,989.9,794.7,991.8z"/>
		<path class="st0" d="M872.9,935c-12.1,10.6-24.8,20.8-37.8,30.2c-2.9,2.1-3.6,6.2-1.5,9.1c2.1,2.9,6.2,3.6,9.1,1.5
			c0,0,0.1,0,0.1-0.1c13.3-9.7,26.4-20.1,38.8-31c2.7-2.4,3-6.5,0.6-9.2C879.8,932.9,875.6,932.6,872.9,935L872.9,935z"/>
		<path class="st1" d="M1226,542.6l-122.6-120.1v107.7h-33.7c-1.8-90.1-26.2-178.4-71-256.6c-0.2-0.7-0.5-1.4-0.9-2
			C848.9,12.3,517.9-77.3,258.6,71.7c-24.3,14-47.5,29.8-69.4,47.3C95,194.6,28,300.6,0.6,417.5c-1,4.2,0.3,8.5,3.3,11.5
			l113.8,112.1L3.7,653.4c-4.8,4.7-4.9,12.5-0.1,17.3s12.5,4.9,17.3,0.1l123-121c4.8-4.7,4.9-12.5,0.1-17.3c0,0-0.1-0.1-0.1-0.1
			l-117.8-116C83.2,186.6,286.7,26.3,524.2,24.6c1.2,0.4,2.6,0.6,3.9,0.6c285.2,0,517.3,232,517.3,517.3c0,6.8,5.5,12.3,12.2,12.3
			c0,0,0,0,0,0h45.8v108L1226,542.6z"/>
		<path class="st2" d="M524.8,77.6c-213.5,0-393.4,143.6-448.5,339.5l133,126.4l-133.9,123c54,197.6,234.7,342.8,449.4,342.8
			c257.3,0,465.8-208.5,465.8-465.8S782.1,77.6,524.8,77.6z"/>
		<g>
			<defs>
				<path id="SVGID_1_" d="M524.8,77.6c-213.5,0-393.4,143.6-448.5,339.5l133,126.4l-133.9,123c54,197.6,234.7,342.8,449.4,342.8
					c257.3,0,465.8-208.5,465.8-465.8S782.1,77.6,524.8,77.6z"/>
			</defs>
			<clipPath id="SVGID_2_">
				<use xlink:href="#SVGID_1_"  style="overflow:visible;"/>
			</clipPath>
			<g class="st3">
				<g>
					<g id="XMLID_23_">
						<g>
							<polygon class="st4" points="916.5,693.1 948.2,736.5 918.8,751.1 							"/>
							<polygon class="st4" points="948.2,670.8 916.5,693.1 860.7,677.8 886.7,624.2 							"/>
							<polygon class="st5" points="918.8,751.1 921.5,796.7 909,798.8 							"/>
							<polygon class="st5" points="918.8,751.1 909,798.8 881.4,820 							"/>
							<polygon class="st4" points="918.8,751.1 881.4,820 827.2,789.2 							"/>
							<polygon class="st4" points="918.8,751.1 827.2,789.2 849.1,742.4 							"/>
							<polygon class="st5" points="916.5,693.1 849.1,742.4 860.7,677.8 							"/>
							<polygon class="st4" points="886.7,624.2 860.7,677.8 798.6,660.7 							"/>
							<polygon class="st4" points="886.7,624.2 798.6,660.7 835.8,613.8 							"/>
							<polygon class="st4" points="886.7,624.2 835.8,613.8 849.1,588 							"/>
							<polygon class="st4" points="881.4,820 880.2,850 827.2,789.2 							"/>
							<polygon class="st4" points="827.2,789.2 880.2,850 803.3,866.3 							"/>
							<polygon class="st5" points="880.2,850 855.7,892.6 803.3,866.3 							"/>
							<polygon class="st4" points="860.7,677.8 849.1,742.4 776.1,734 							"/>
							<polygon class="st4" points="860.7,677.8 776.1,734 784.3,689.2 798.6,660.7 							"/>
							<polygon class="st4" points="846.1,547.3 849.1,588 798.6,552.2 							"/>
							<polygon class="st4" points="849.1,588 835.8,613.8 771.3,606.6 							"/>
							<polygon class="st4" points="849.1,742.4 827.2,789.2 736.5,754.2 							"/>
							<polygon class="st4" points="849.1,588 771.3,606.6 752.8,568.2 							"/>
							<polygon class="st4" points="849.1,588 752.8,568.2 798.6,552.2 							"/>
							<polygon class="st4" points="849.1,742.4 736.5,754.2 776.1,734 							"/>
							<polygon class="st4" points="835.8,613.8 798.6,660.7 776.8,648.4 771.3,606.6 							"/>
							<polygon class="st4" points="827.2,789.2 803.3,866.3 736.5,754.2 							"/>
							<path class="st5" d="M803.3,866.3c0,0,0.1,42.2-3.8,44.6h-0.1l-0.9-0.2c-4.9-4.7-43.4-20.7-43.4-20.7L803.3,866.3z"/>
							<polygon class="st4" points="736.5,754.2 803.3,866.3 731.3,842.5 							"/>
							<polygon class="st4" points="803.3,866.3 755.2,890.1 731.3,842.5 							"/>
							<polygon class="st4" points="780.4,526.2 798.6,552.2 761.3,534 							"/>
							<polygon class="st5" points="798.6,660.7 784.3,689.2 776.8,648.4 							"/>
							<polygon class="st4" points="798.6,552.2 752.8,568.2 761.3,534 							"/>
							<polygon class="st5" points="798.6,910.7 761.3,944.3 731.7,915.9 							"/>
							<path class="st5" d="M798.6,910.7l-66.8,5.2l23.5-25.9C755.2,890.1,793.7,906.1,798.6,910.7z"/>
							<polygon class="st5" points="776.8,648.4 784.3,689.2 701.3,626.5 							"/>
							<polygon class="st5" points="784.3,689.2 736.5,754.2 701.3,626.5 							"/>
							<polygon class="st5" points="752.8,568.2 771.3,606.6 757.4,601 							"/>
							<polygon class="st4" points="761.3,534 752.8,568.2 701.3,512 							"/>
							<polygon class="st4" points="761.3,534 701.3,512 729.4,509.5 							"/>
							<polygon class="st5" points="761.3,944.3 718.1,980.9 654.1,978.6 							"/>
							<polygon class="st5" points="761.3,944.3 654.1,978.6 621.3,951 							"/>
							<polygon class="st5" points="761.3,944.3 621.3,951 731.7,915.9 							"/>
							<polygon class="st5" points="752.8,568.2 757.4,601 715.9,574.7 							"/>
							<polygon class="st5" points="757.4,601 701.3,626.5 705.4,557.2 715.9,574.7 							"/>
							<polygon class="st4" points="731.3,842.5 755.2,890.1 644.1,915.9 							"/>
							<polygon class="st4" points="755.2,890.1 731.7,915.9 644.1,915.9 							"/>
							<polygon class="st4" points="701.3,512 752.8,568.2 715.9,574.7 705.4,557.2 							"/>
							<polygon class="st5" points="701.3,626.5 736.5,754.2 695.4,715.3 							"/>
							<polygon class="st4" points="736.5,754.2 731.3,842.5 691.5,846.8 711,791.6 							"/>
							<polygon class="st5" points="736.5,754.2 711,791.6 679.7,765.7 							"/>
							<polygon class="st5" points="736.5,754.2 679.7,765.7 695.4,715.3 							"/>
							<polygon class="st4" points="731.3,842.5 644.1,915.9 691.5,846.8 							"/>
							<polygon class="st4" points="711,791.6 691.5,846.8 575,829.6 618.8,817.4 							"/>
							<polygon class="st5" points="711,791.6 618.8,817.4 575,829.6 566.3,817.2 679.7,765.7 							"/>
							<polygon class="st4" points="701.3,512 705.4,557.2 663.6,489.7 							"/>
							<polygon class="st4" points="663.6,489.7 705.4,557.2 654.1,511.5 							"/>
							<polygon class="st4" points="705.4,557.2 701.3,626.5 591.7,626.5 							"/>
							<polygon class="st5" points="705.4,557.2 571.4,535.6 635.9,532.1 							"/>
							<polygon class="st4" points="705.4,557.2 635.9,532.1 654.1,511.5 							"/>
							<polygon class="st5" points="695.4,715.3 679.7,765.7 566.3,817.2 							"/>
							<polygon class="st4" points="691.5,846.8 644.1,915.9 575,829.6 							"/>
							<polygon class="st5" points="663.6,489.7 654.1,511.5 616,488.2 							"/>
							<polygon class="st4" points="654.1,511.5 635.9,532.1 616,488.2 							"/>
							<polygon class="st4" points="654.1,978.6 637.8,1006.6 610.3,987.4 							"/>
							<polygon class="st4" points="654.1,978.6 610.3,987.4 621.3,951 							"/>
							<polygon class="st4" points="575,829.6 644.1,915.9 565.3,889.7 							"/>
							<polygon class="st4" points="644.1,915.9 621.3,951 538.7,915.9 							"/>
							<polygon class="st4" points="616,488.2 635.9,532.1 571.4,535.6 							"/>
							<polygon class="st5" points="621.3,951 610.3,987.4 552.4,988.9 							"/>
							<polygon class="st5" points="621.3,951 552.4,988.9 523.9,953.9 							"/>
							<polygon class="st5" points="621.3,951 523.9,953.9 538.7,915.9 							"/>
							<polygon class="st4" points="616,488.2 571.4,535.6 558.5,470.8 							"/>
							<polygon class="st4" points="610.3,987.4 575,1013.4 552.4,988.9 							"/>
							<polygon class="st4" points="575,829.6 565.3,889.7 542.7,854.6 							"/>
							<polygon class="st4" points="558.5,470.8 571.4,535.6 546.9,552.2 							"/>
							<polygon class="st4" points="542.7,854.6 565.3,889.7 472.5,879.2 							"/>
							<polygon class="st4" points="565.3,889.7 538.7,915.9 472.5,879.2 							"/>
							<polygon class="st4" points="558.5,470.8 546.9,552.2 506.9,525.9 							"/>
							<polygon class="st4" points="558.5,470.8 506.9,525.9 512.4,490.9 							"/>
							<polygon class="st4" points="546.9,552.2 553.5,596.2 486.1,534 506.9,525.9 							"/>
							<polygon class="st4" points="523.9,953.9 552.4,988.9 463.9,993.4 							"/>
							<polygon class="st4" points="552.4,988.9 477.9,1016 463.9,993.4 							"/>
							<polygon class="st4" points="542.7,854.6 472.5,879.2 497.5,825.4 							"/>
							<polygon class="st4" points="538.7,915.9 523.9,953.9 482.6,909.6 							"/>
							<polygon class="st5" points="482.6,909.6 523.9,953.9 424.2,975.5 							"/>
							<polygon class="st4" points="523.9,953.9 463.9,993.4 424.2,975.5 							"/>
							<polygon class="st4" points="497.5,467.1 512.4,490.9 506.9,525.9 							"/>
							<polygon class="st4" points="497.5,467.1 506.9,525.9 458.4,479 							"/>
							<polygon class="st4" points="506.9,525.9 486.1,534 445.3,525.9 458.4,479 							"/>
							<polygon class="st5" points="478.7,789.2 497.5,825.4 401.5,775.1 							"/>
							<polygon class="st4" points="497.5,825.4 472.5,879.2 424.2,900.2 							"/>
							<polygon class="st4" points="497.5,825.4 424.2,900.2 420.2,835.5 							"/>
							<polygon class="st4" points="486.1,534 427.6,552.2 445.3,525.9 							"/>
							<polygon class="st4" points="482.6,909.6 435.8,927.1 424.2,900.2 							"/>
							<polygon class="st5" points="463.9,993.4 436.6,1005.1 424.2,975.5 							"/>
							<polygon class="st4" points="458.4,479 445.3,525.9 425.3,488.4 430,455.9 							"/>
							<polygon class="st5" points="445.3,525.9 427.6,552.2 401.5,552.2 							"/>
							<polygon class="st4" points="445.3,525.9 401.5,552.2 401.5,509.5 							"/>
							<polygon class="st5" points="435.8,927.1 424.2,975.5 354.4,923.7 							"/>
							<polygon class="st5" points="425.3,488.4 401.5,509.5 392.6,488.4 							"/>
							<polygon class="st4" points="420.2,835.5 424.2,900.2 354,829.6 							"/>
							<polygon class="st4" points="354,829.6 424.2,900.2 305.7,883.9 							"/>
							<polygon class="st4" points="424.2,900.2 354.4,923.7 305.7,883.9 							"/>
							<polygon class="st4" points="424.2,975.5 349.3,963.8 354.4,923.7 							"/>
							<polygon class="st4" points="422.3,672.9 373.5,736.5 357.9,651 							"/>
							<polygon class="st4" points="401.5,509.5 401.5,552.2 337.6,535.1 							"/>
							<polygon class="st5" points="401.5,552.2 370,586.8 343.8,585.7 323.6,581.6 							"/>
							<polygon class="st5" points="373.5,736.5 401.5,775.1 374.7,783.9 							"/>
							<polygon class="st5" points="401.5,509.5 337.6,535.1 361.6,509.5 							"/>
							<polygon class="st5" points="401.5,552.2 323.6,581.6 337.6,535.1 							"/>
							<polygon class="st5" points="373.5,736.5 374.7,783.9 332.7,724.8 							"/>
							<polygon class="st4" points="332.7,724.8 374.7,783.9 343.8,765.7 							"/>
							<polygon class="st5" points="357.9,651 373.5,736.5 332.7,724.8 							"/>
							<polygon class="st5" points="370,586.8 357.9,651 298.8,605.9 							"/>
							<polygon class="st5" points="370,586.8 298.8,605.9 323.6,581.6 343.8,585.7 							"/>
							<polygon class="st5" points="357.9,651 332.7,724.8 298.8,605.9 							"/>
							<polygon class="st5" points="354.4,923.7 349.3,963.8 332.7,980.4 327.5,969.8 							"/>
							<polygon class="st5" points="354.4,923.7 327.5,969.8 289.3,953.9 							"/>
							<polygon class="st4" points="354.4,923.7 289.3,953.9 242.5,915.9 							"/>
							<polygon class="st4" points="343.8,765.7 354,829.6 251.8,835.5 332.7,769 							"/>
							<polygon class="st4" points="354,829.6 305.7,883.9 251.8,835.5 							"/>
							<polygon class="st5" points="337.6,535.1 323.6,581.6 298.8,605.9 							"/>
							<polygon class="st4" points="337.6,535.1 298.8,605.9 268.4,535.1 							"/>
							<polygon class="st4" points="332.7,724.8 332.7,769 289.1,721.3 							"/>
							<polygon class="st4" points="298.8,605.9 332.7,724.8 275.9,698.7 277.5,680.8 							"/>
							<polygon class="st4" points="289.1,721.3 332.7,769 246.4,761.9 							"/>
							<polygon class="st4" points="332.7,724.8 289.1,721.3 275.9,698.7 							"/>
							<polygon class="st4" points="332.7,769 251.8,835.5 246.4,761.9 							"/>
							<polygon class="st4" points="268.4,535.1 298.8,605.9 254.1,563.5 							"/>
							<polygon class="st4" points="298.8,605.9 269.3,638.8 259.4,656.4 242.5,615.9 							"/>
							<polygon class="st5" points="298.8,605.9 242.5,615.9 254.1,563.5 							"/>
							<polygon class="st5" points="289.3,953.9 270.6,978.6 242.5,915.9 							"/>
							<polygon class="st4" points="275.9,698.7 289.1,721.3 246.4,761.9 							"/>
							<polygon class="st4" points="267.2,893 242.5,915.9 224.9,927.2 218.1,907.3 							"/>
							<polygon class="st4" points="242.5,615.9 259.4,656.4 147.7,643.4 							"/>
							<polygon class="st5" points="259.4,656.4 201.3,693.3 136.5,677.8 							"/>
							<polygon class="st4" points="259.4,656.4 136.5,677.8 147.7,643.4 							"/>
							<polygon class="st5" points="254.1,563.5 242.5,615.9 227.6,582.7 240,560.4 							"/>
							<polygon class="st5" points="251.8,686.2 220.7,729.9 201.3,693.3 							"/>
							<polygon class="st5" points="246.4,761.9 251.8,835.5 213.7,807.9 							"/>
							<polygon class="st5" points="220.7,729.9 246.4,761.9 213.7,807.9 							"/>
							<polygon class="st5" points="227.6,582.7 242.5,615.9 161.9,615.9 203.7,577.2 							"/>
							<polygon class="st5" points="242.5,615.9 147.7,643.4 161.9,615.9 							"/>
							<polygon class="st5" points="221,854 218.1,907.3 190.6,924.8 187.6,902.6 							"/>
							<polygon class="st5" points="221,854 187.6,902.6 172.4,842.5 							"/>
							<polygon class="st5" points="201.3,693.3 220.7,729.9 142.5,728.7 							"/>
							<polygon class="st5" points="220.7,729.9 213.7,807.9 182,805.3 							"/>
							<polygon class="st5" points="220.7,729.9 182,805.3 129.4,769 							"/>
							<polygon class="st5" points="220.7,729.9 129.4,769 142.5,728.7 							"/>
							<polygon class="st5" points="172.4,842.5 187.6,902.6 172.4,888.2 							"/>
						</g>
						<g>
							<polygon class="st6" points="571.4,535.6 635.9,532.1 705.4,557.2 715.9,574.7 752.8,568.2 757.4,601 771.3,606.6 
								776.8,648.4 798.6,660.7 784.3,689.2 776.1,734 736.5,754.2 711,791.6 618.8,817.4 575,829.6 566.3,817.2 497.5,825.4 
								431.8,807.3 374.7,783.9 343.8,765.7 332.7,769 332.7,724.8 289.1,721.3 275.9,698.7 251.8,686.2 277.5,680.8 259.4,656.4 
								269.3,638.8 298.8,605.9 323.6,581.6 343.8,585.7 370,586.8 401.5,552.2 427.6,552.2 445.3,525.9 486.1,534 506.9,525.9 
								546.9,552.2 							"/>
							<path class="st6" d="M799.5,910.9c-0.2,0.2-0.6,0.1-0.9-0.2c-4.9-4.7-43.4-20.7-43.4-20.7l-23.5,25.9h-87.6L621.3,951
								l-82.6-35.1l-14.8,38l-41.3-44.3l-46.8,17.5l-11.7-26.8l-69.7,23.5l-48.8-39.8l-38.5,9.1l-15.4-57.5L221,854l-7.3-46.2
								l-31.7-2.6L129.4,769l-5.4-43.5l18.5,3.3l-24.8-30.1l18.8-20.9l-8.2-23.1l19.4-11.3l-1.7-27.8l15.9,0.2l41.8-38.6l23.9,5.5
								l12.5-22.3l14.1,3.1l14.3-28.4h69.2l24-25.6h39.9l-8.9-21.1h32.7l4.7-32.5l28.4,23.1l39.1-11.9l14.9,23.9l46.1-20.2
								l57.5,17.5l47.6,1.5l37.6,22.3l28.1-2.5l32,24.6l19.1-7.8l18.1,26l47.5-4.9l3,40.7l39.3,13l-1.7,23.2l61.5,46.6l-31.7,22.3
								l31.7,43.4l-29.4,14.6l2.7,45.6l-12.5,2.1l13.7,19.9l-41.3,1.3l-1.2,29.9l-76.9,16.4C803.3,866.3,803.4,908.5,799.5,910.9"/>
							<polyline class="st7" points="497.5,467.1 506.9,525.9 458.4,479 445.3,525.9 401.5,509.5 337.6,535.1 							"/>
							<polyline class="st7" points="558.5,470.8 571.4,535.6 616,488.2 635.9,532.1 654.1,511.5 616,488.2 							"/>
							<polygon class="st7" points="654.1,511.5 663.6,489.7 705.4,557.2 							"/>
							<polyline class="st7" points="761.3,534 798.6,552.2 752.8,568.2 771.3,606.6 849.1,588 752.8,568.2 							"/>
							<polyline class="st7" points="798.6,552.2 849.1,588 886.7,624.2 798.6,660.7 835.8,613.8 886.7,624.2 							"/>
							<polyline class="st7" points="849.1,588 835.8,613.8 771.3,606.6 							"/>
							<polyline class="st7" points="886.7,624.2 860.7,677.8 798.6,660.7 							"/>
							<polyline class="st7" points="916.5,693.1 849.1,742.4 918.8,751.1 916.5,693.1 860.7,677.8 776.1,734 849.1,742.4 							
								"/>
							<polyline class="st7" points="860.7,677.8 849.1,742.4 736.5,754.2 827.2,789.2 849.1,742.4 							"/>
							<polyline class="st7" points="803.3,866.3 731.3,842.5 736.5,754.2 803.3,866.3 827.2,789.2 880.2,850 855.7,892.6 
								905.9,851.5 881.4,820 827.2,789.2 918.8,751.1 909,798.8 881.4,820 918.8,751.1 							"/>
							<polyline class="st7" points="755.2,890.1 644.1,915.9 731.3,842.5 755.2,890.1 803.3,866.3 822,915.9 855.7,892.6 
								803.3,866.3 							"/>
							<polygon class="st7" points="691.5,846.8 575,829.6 644.1,915.9 							"/>
							<polyline class="st7" points="575,829.6 542.7,854.6 497.5,825.4 575,829.6 565.3,889.7 644.1,915.9 538.7,915.9 
								565.3,889.7 472.5,879.2 538.7,915.9 482.6,909.6 472.5,879.2 							"/>
							<polyline class="st7" points="565.3,889.7 542.7,854.6 472.5,879.2 497.5,825.4 424.2,900.2 472.5,879.2 							"/>
							<polyline class="st7" points="332.7,769 289.1,721.3 246.4,761.9 332.7,769 251.8,835.5 213.7,807.9 246.4,761.9 
								251.8,835.5 							"/>
							<polygon class="st7" points="275.9,698.7 220.7,729.9 246.4,761.9 							"/>
							<polyline class="st7" points="213.7,807.9 220.7,729.9 182,805.3 159.1,819.2 221,854 172.4,842.5 187.6,902.6 221,854 
															"/>
							<polygon class="st7" points="129.4,769 220.7,729.9 142.5,728.7 							"/>
							<polyline class="st7" points="201.3,693.3 251.8,686.2 220.7,729.9 201.3,693.3 142.5,728.7 136.5,677.8 201.3,693.3 
								259.4,656.4 136.5,677.8 147.7,643.4 161.9,615.9 242.5,615.9 147.7,643.4 							"/>
							<polyline class="st7" points="227.6,582.7 242.5,615.9 259.4,656.4 147.7,643.4 							"/>
							<polygon class="st7" points="254.1,563.5 242.5,615.9 298.8,605.9 							"/>
							<polyline class="st7" points="268.4,535.1 298.8,605.9 337.6,535.1 323.6,581.6 401.5,552.2 337.6,535.1 							"/>
							<polygon class="st7" points="401.5,509.5 401.5,552.2 445.3,525.9 425.3,488.4 							"/>
							<polyline class="st6" points="129.4,769 147.8,825.2 159.1,819.2 162.2,842.5 172.4,842.5 172.4,888.2 187.6,902.6 
								190.6,924.8 218.1,907.3 224.9,927.2 242.5,915.9 270.6,978.6 289.3,953.9 307.8,978.6 327.5,969.8 332.7,980.4 349.3,963.8 
								370,1009 397.6,1009 424.2,975.5 436.6,1005.1 463.9,993.4 477.9,1016 552.4,988.9 575,1013.4 610.3,987.4 637.8,1006.6 
								654.1,978.6 701.3,1000.4 718.1,980.9 731.3,988.7 761.3,944.3 782.4,969.1 805.7,948.3 822,953.9 822,915.9 855.7,915.2 
								855.7,892.6 883.3,889 905.9,879.2 905.9,851.5 918.8,842.5 922.7,818.7 							"/>
							<polygon class="st6" points="221,854 267.2,893 218.1,907.3 							"/>
							<polyline class="st7" points="267.2,893 242.5,915.9 305.7,883.9 251.8,835.5 354,829.6 							"/>
							<polygon class="st7" points="354.4,923.7 289.3,953.9 242.5,915.9 							"/>
							<polyline class="st7" points="289.3,953.9 327.5,969.8 354.4,923.7 435.8,927.1 424.2,975.5 482.6,909.6 424.2,900.2 
								420.2,835.5 497.5,825.4 401.5,775.1 							"/>
							<polygon class="st7" points="349.3,963.8 354.4,923.7 424.2,975.5 							"/>
							<line class="st7" x1="397.6" y1="1009" x2="349.3" y2="963.8"/>
							<polygon class="st7" points="463.9,993.4 424.2,975.5 523.9,953.9 							"/>
							<polyline class="st7" points="463.9,993.4 552.4,988.9 523.9,953.9 621.3,951 552.4,988.9 610.3,987.4 621.3,951 							"/>
							<polygon class="st7" points="621.3,951 731.7,915.9 761.3,944.3 							"/>
							<polyline class="st7" points="610.3,987.4 654.1,978.6 621.3,951 							"/>
							<polygon class="st7" points="761.3,944.3 718.1,980.9 654.1,978.6 							"/>
							<line class="st7" x1="799.5" y1="910.9" x2="798.6" y2="910.7"/>
							<line class="st6" x1="799.5" y1="910.9" x2="799.5" y2="910.9"/>
							<polyline class="st7" points="731.7,915.9 798.6,910.7 761.3,944.3 805.7,948.3 822,915.9 799.5,910.9 							"/>
							<line class="st7" x1="798.6" y1="910.7" x2="805.7" y2="948.3"/>
							<polyline class="st7" points="401.5,552.2 546.6,690.1 370,586.8 298.8,605.9 277.5,680.8 275.9,698.7 332.7,724.8 
								343.8,765.7 354,829.6 374.7,783.9 420.2,835.5 354,829.6 424.2,900.2 305.7,883.9 354,829.6 							"/>
							<polyline class="st7" points="357.9,651 298.8,605.9 332.7,724.8 374.7,783.9 401.5,775.1 373.5,736.5 357.9,651 
								422.3,672.9 478.7,789.2 695.4,715.3 701.3,626.5 591.7,626.5 546.6,690.1 553.5,736.5 478.7,789.2 							"/>
							<polyline class="st7" points="374.7,783.9 373.5,736.5 332.7,724.8 357.9,651 370,586.8 422.3,672.9 373.5,736.5 							"/>
							<polyline class="st7" points="422.3,672.9 401.5,775.1 478.7,789.2 497.5,825.4 695.4,715.3 566.3,817.2 679.7,765.7 
								711,791.6 691.5,846.8 731.3,842.5 							"/>
							<polygon class="st7" points="695.4,715.3 679.7,765.7 736.5,754.2 							"/>
							<polygon class="st7" points="591.7,626.5 695.4,715.3 553.5,736.5 							"/>
							<polygon class="st7" points="546.6,690.1 472.5,685.3 478.7,789.2 							"/>
							<line class="st7" x1="370" y1="586.8" x2="472.5" y2="685.3"/>
							<polygon class="st7" points="427.6,552.2 546.6,690.1 553.5,596.2 							"/>
							<polyline class="st7" points="427.6,552.2 486.1,534 553.5,596.2 546.9,552.2 558.5,470.8 506.9,525.9 512.4,490.9 							
								"/>
							<polyline class="st7" points="701.3,512 752.8,568.2 761.3,534 701.3,512 705.4,557.2 571.4,535.6 553.5,596.2 591.7,626.5 
								571.4,535.6 							"/>
							<polyline class="st7" points="591.7,626.5 705.4,557.2 701.3,626.5 757.4,601 715.9,574.7 							"/>
							<polygon class="st7" points="776.8,648.4 701.3,626.5 784.3,689.2 							"/>
							<line class="st7" x1="757.4" y1="601" x2="776.8" y2="648.4"/>
							<polyline class="st7" points="784.3,689.2 736.5,754.2 701.3,626.5 							"/>
						</g>
					</g>
				</g>
				<g>
					<g>
						<polygon class="st8" points="328,564.7 325.9,598.7 341.1,690.3 391.4,765.1 445.2,801 500.6,819.9 511.5,818.5 562.9,813.7 
							625.7,787.2 648.7,763.3 673.5,739.4 709.2,662.4 719.3,568.7 714.2,541.8 704.1,489.6 683.4,425.9 655.9,368.7 655.9,368.7 
							655.9,368.6 655.9,368.5 655.9,368.5 654.8,366.4 648.7,354.1 624,323.1 605.6,300.9 558.3,272.2 493.4,269.1 427.9,307.3 
							385.8,366.4 357.7,417.2 346.1,444.5 336.1,493.5 330.6,524.4 						"/>
					</g>
					<g>
						<g>
							<g id="XMLID_24_">
								<g>
									<path class="st9" d="M719.3,568.7l-0.7-4c3,0.3,5.4,2.9,5.4,6c0,3.2-2.5,5.8-5.6,6L719.3,568.7z"/>
									<path class="st9" d="M718.5,564.7l0.7,4l-7.5,1.4c0.2-3.1,2.8-5.5,6-5.5C718.1,564.6,718.3,564.6,718.5,564.7z"/>
									<path class="st9" d="M719.3,568.7l-0.9,8c-0.2,0.1-0.4,0.1-0.6,0.1c-0.8,0-1.5-0.1-2.3-0.4L719.3,568.7z"/>
									<path class="st9" d="M719.3,568.7l-3.7,7.7c-1-0.4-1.9-1-2.4-1.9L719.3,568.7z"/>
									<path class="st9" d="M719.3,568.7l-6.1,5.8c-0.9-1-1.4-2.3-1.4-3.8c0-0.2,0-0.4,0.1-0.6L719.3,568.7z"/>
									<path class="st10" d="M714.2,541.8l4.3,22.9c-0.2-0.1-0.4-0.1-0.7-0.1c-3.2,0-5.8,2.4-6,5.5l-23,4.4l-0.4-0.1l10.8-27.2
										L714.2,541.8z"/>
									<path class="st11" d="M718.4,576.7l-8.3,77.2c-0.3-0.1-0.6-0.1-0.9-0.1c-2.6,0-4.9,1.1-6.4,2.9l-15.7-14
										c0.6-0.6,1-1.5,1-2.5c0-1.5-0.9-2.7-2.1-3.3l29.6-60.5c0.7,0.3,1.5,0.4,2.3,0.4C718,576.8,718.2,576.8,718.4,576.7z"/>
									<path class="st11" d="M715.5,576.4L686,636.9c-0.5-0.3-1-0.4-1.6-0.4c-0.5,0-0.9,0.1-1.4,0.2l-9.6-24.7l39.7-37.5
										C713.7,575.3,714.6,576,715.5,576.4z"/>
									<path class="st10" d="M713.1,574.5L673.5,612l14.9-37.5l0.4,0.1l23-4.4c-0.1,0.2-0.1,0.4-0.1,0.6
										C711.7,572.2,712.2,573.5,713.1,574.5z"/>
									<path class="st9" d="M710.1,653.9c4.3,0.4,7.7,4,7.7,8.5c0,4.8-3.9,8.6-8.6,8.6c-1.3,0-2.5-0.3-3.6-0.8l3.6-7.8
										L710.1,653.9z"/>
									<path class="st9" d="M710.1,653.9l-0.9,8.5l-6.4-5.7c1.5-1.8,3.8-2.9,6.4-2.9C709.5,653.8,709.8,653.8,710.1,653.9z"/>
									<path class="st9" d="M709.2,662.5l-3.6,7.8c-0.4-0.2-0.7-0.4-1.1-0.6L709.2,662.5z"/>
									<path class="st9" d="M709.2,662.5l-4.7,7.2c-2.3-1.5-3.9-4.2-3.9-7.2c0-2.2,0.8-4.2,2.2-5.7L709.2,662.5z"/>
									<path class="st11" d="M705.6,670.2l-32.2,69.2l8.1-34.9l22.9-34.9C704.9,669.9,705.2,670,705.6,670.2z"/>
									<path class="st11" d="M704.5,669.6l-22.9,34.9l2.6-60.6c0.1,0,0.1,0,0.2,0c1,0,2-0.5,2.7-1.2l15.7,14
										c-1.4,1.5-2.2,3.5-2.2,5.7C700.6,665.4,702.2,668.1,704.5,669.6z"/>
									<polygon class="st10" points="704.1,489.6 700.6,530.4 680.3,516.3 									"/>
									<path class="st10" d="M704.1,489.6l-23.8,26.7l-5.7-4l3.3-34.6c2.7-0.2,5-1.9,6.3-4.1L704.1,489.6z"/>
									<polygon class="st10" points="700.6,530.4 699.2,547.4 673.5,524 680.3,516.3 									"/>
									<path class="st10" d="M699.2,547.4l-10.8,27.2l-36.3-6.1c0-0.9-0.4-1.8-0.9-2.5L699.2,547.4z"/>
									<path class="st10" d="M699.2,547.4l-48,18.6c-0.9-1.3-2.4-2.2-4.1-2.2c-0.7,0-1.4,0.1-2,0.4l-13.4-22.5
										c0.6-0.4,1-0.9,1.2-1.4L699.2,547.4z"/>
									<path class="st10" d="M699.2,547.4l-66.2-7.2c0.2-0.3,0.3-0.7,0.4-1l40.1-15.2L699.2,547.4z"/>
									<path class="st10" d="M688.1,640.2c0,1-0.4,1.9-1,2.5l-2.7-2.5l1.6-3.3C687.2,637.5,688.1,638.7,688.1,640.2z"/>
									<path class="st10" d="M684.4,640.2l2.7,2.5c-0.7,0.7-1.7,1.2-2.7,1.2c-0.1,0-0.1,0-0.2,0L684.4,640.2z"/>
									<path class="st9" d="M686,636.9l-1.6,3.3l-1.4-3.5c0.4-0.2,0.9-0.2,1.4-0.2C684.9,636.5,685.5,636.6,686,636.9z"/>
									<path class="st10" d="M685.5,469.2c0,1.6-0.4,3.1-1.3,4.4l-5.5-4.4l0.9-8.1C683,462.1,685.5,465.3,685.5,469.2z"/>
									<path class="st9" d="M683,636.7l1.4,3.5l-3.4,1.5c-0.2-0.5-0.4-1-0.4-1.5C680.6,638.6,681.6,637.3,683,636.7z"/>
									<path class="st9" d="M684.4,640.2l-0.2,3.7c-1.5-0.1-2.7-1-3.2-2.2L684.4,640.2z"/>
									<path class="st11" d="M684.2,643.9l-2.6,60.6l-32.9-48.6l32.3-14.2C681.5,643,682.7,643.9,684.2,643.9z"/>
									<path class="st10" d="M678.7,469.2l5.5,4.4c-1.3,2.2-3.6,3.8-6.3,4.1L678.7,469.2z"/>
									<polygon class="st11" points="655.9,368.7 683.4,425.9 644.8,428.7 655.9,368.7 									"/>
									<path class="st10" d="M683.4,425.9l-3.8,35.1c-0.8-0.4-1.7-0.5-2.7-0.5c-1.6,0-3.1,0.4-4.4,1.2l-27.6-33L683.4,425.9z"/>
									<path class="st11" d="M648.7,655.9l32.9,48.6l-24.6-6.4c0.2-0.7,0.3-1.4,0.3-2.2c0-4.8-3.8-8.6-8.6-8.6V655.9z"/>
									<polygon class="st11" points="681.6,704.5 673.5,739.4 636.8,754.6 655.7,734.7 									"/>
									<path class="st11" d="M681.6,704.5l-26.1,29.1l-5.2-29.3c3.3-0.6,5.9-3,6.7-6.2L681.6,704.5z"/>
									<path class="st11" d="M679.6,461l-0.9,8.1l-6.2-7.4c1.3-0.8,2.8-1.2,4.4-1.2C677.8,460.5,678.8,460.6,679.6,461z"/>
									<path class="st9" d="M672.5,461.8l6.2,7.4l-3.3,4.9l-2,3c-3-1.3-5.1-4.3-5.1-7.8C668.3,466,669.9,463.2,672.5,461.8z"/>
									<path class="st9" d="M678.7,469.2l-0.8,8.5c-0.3,0.1-0.6,0.1-1,0.1c-1.2,0-2.5-0.2-3.5-0.7l2-3L678.7,469.2z"/>
									<path class="st11" d="M677.9,477.7l-3.3,34.6l-41.2,26.1c0-0.6-0.2-1.1-0.4-1.6l40.4-59.7c1,0.5,2.3,0.7,3.5,0.7
										C677.3,477.8,677.6,477.8,677.9,477.7z"/>
									<polygon class="st9" points="675.4,474 673.4,477.1 673.3,477 									"/>
									<path class="st12" d="M650.2,572.8l23.3,39.2l-45.6,8.1c-1.1-3-3.8-5.1-7.1-5.4l1.7-12.9l21.2-29.4
										c0.9,0.9,2.1,1.5,3.5,1.5C648.3,573.8,649.3,573.5,650.2,572.8z"/>
									<path class="st11" d="M673.5,612l-24.7,43.9L626.1,629c1.5-1.5,2.3-3.6,2.3-5.8c0-1.1-0.2-2.2-0.6-3.1L673.5,612z"/>
									<path class="st11" d="M673.3,477l-40.7,59.2c-0.3-0.4-0.7-0.8-1.2-1l13.5-106.5l27.6,33c-2.5,1.5-4.2,4.3-4.2,7.4
										C668.3,472.7,670.3,475.7,673.3,477z"/>
									<path class="st9" d="M657.3,696c0,0.8-0.1,1.5-0.3,2.2l-8.3-2.2v-8.6C653.5,687.4,657.3,691.2,657.3,696z"/>
									<path class="st9" d="M648.7,696l8.3,2.2c-0.9,3.2-3.5,5.7-6.7,6.2L648.7,696z"/>
									<polygon class="st10" points="655.9,368.6 655.9,368.7 654.2,370.4 654.8,366.4 655.9,368.6 									"/>
									<path class="st11" d="M650.3,704.4l5.2,29.3l-0.9,1l-48,0.9c0-1.5-0.6-2.9-1.5-3.9l37-30.2c1.5,1.9,3.9,3.1,6.6,3.1
										C649.3,704.6,649.8,704.5,650.3,704.4z"/>
									<polygon class="st10" points="648.7,354.1 654.8,366.4 654.2,370.4 648.7,376.2 									"/>
									<path class="st10" d="M654.6,734.7l-17.8,19.9l-30.9-15.9c0.5-0.9,0.7-1.9,0.7-3c0-0.1,0-0.1,0-0.1L654.6,734.7z"/>
									<polygon class="st11" points="654.2,370.4 644.8,428.7 619.8,403.4 648.7,376.2 									"/>
									<path class="st9" d="M652.1,568.4c0.1,0.1,0.1,0.2,0.1,0.4c0,1.6-0.8,3.1-2,4l-3.1-5.2L652.1,568.4z"/>
									<path class="st9" d="M652.1,568.4l-5-0.9l4.1-1.6C651.7,566.6,652.1,567.5,652.1,568.4z"/>
									<path class="st9" d="M651.2,565.9l-4.1,1.6l-2-3.4c0.6-0.2,1.3-0.4,2-0.4C648.8,563.8,650.3,564.6,651.2,565.9z"/>
									<path class="st9" d="M650.3,704.4c-0.5,0.1-1,0.2-1.5,0.2c-2.7,0-5.1-1.2-6.6-3.1l6.6-5.4L650.3,704.4z"/>
									<path class="st9" d="M647.1,567.5l3.1,5.2c-0.9,0.7-1.9,1-3.1,1c-1.4,0-2.6-0.6-3.5-1.5L647.1,567.5z"/>
									<path class="st9" d="M648.7,687.4v8.6l-8.6-0.2C640.1,691.2,644,687.4,648.7,687.4z"/>
									<path class="st11" d="M648.7,655.9v31.5c-4.7,0-8.6,3.8-8.6,8.5l-33.5-0.8L648.7,655.9z"/>
									<polygon class="st10" points="648.7,354.1 648.7,376.2 624,323.1 									"/>
									<polygon class="st11" points="624,323.1 648.7,376.2 619.8,403.4 									"/>
									<path class="st11" d="M626.1,629l22.6,26.9l-64.7,8.6l29.6-35.5c1.5,1.7,3.7,2.8,6.2,2.8
										C622.4,631.8,624.6,630.7,626.1,629z"/>
									<polygon class="st11" points="648.7,763.4 625.7,787.2 636.8,754.6 									"/>
									<path class="st9" d="M648.7,696l-6.6,5.4c-1.3-1.5-2-3.4-2-5.5c0-0.1,0-0.1,0-0.1L648.7,696z"/>
									<path class="st9" d="M645.1,564.1l2,3.4l-3.5,4.8c-1-0.9-1.5-2.2-1.5-3.6C642.1,566.7,643.3,564.9,645.1,564.1z"/>
									<path class="st10" d="M631.7,541.6l13.4,22.5c-1.8,0.8-3,2.5-3,4.6c0,1.4,0.6,2.7,1.5,3.6l-21.2,29.4l8-59.4v-0.2
										C630.9,542,631.4,541.9,631.7,541.6z"/>
									<path class="st11" d="M619.8,403.4l25,25.3l-86.5,45.9L536,486.5c-0.2-0.6-0.6-1-1-1.5L619.8,403.4z"/>
									<path class="st12" d="M644.8,428.7l-13.5,106.5c-0.5-0.3-1-0.4-1.7-0.4c-1.2,0-2.4,0.6-3,1.6l-68.4-61.7L644.8,428.7z"/>
									<polygon class="st10" points="636.8,754.6 625.7,787.2 612.4,770.8 									"/>
									<path class="st11" d="M636.8,754.6l-24.4,16.2l-10.2-29.1c1.6-0.5,2.8-1.6,3.6-3.1L636.8,754.6z"/>
									<path class="st9" d="M633.4,538.3c0,0.1,0,0.1,0,0.1c0,0.2,0,0.4-0.1,0.6l-2.4,0.9L633.4,538.3z"/>
									<path class="st9" d="M633.4,538.3l-2.5,1.6h-0.1v0.1h-0.1h-0.1V540l2.2-3.2C633.2,537.2,633.4,537.8,633.4,538.3z"/>
									<path class="st9" d="M633.3,539c0,0.1,0,0.1,0,0.1L631,540h-0.1h-0.1V540h0.1L633.3,539z"/>
									<path class="st9" d="M631,540l2.3-0.9c-0.1,0.4-0.2,0.7-0.4,1L631,540z"/>
									<path class="st9" d="M633,536.7l-2.2,3.2l0.2-1.2v-0.1l1.7-2.5C632.8,536.4,632.9,536.6,633,536.7z"/>
									<path class="st9" d="M631,540l2,0.2c-0.2,0.6-0.7,1-1.2,1.4l-0.9-1.5v-0.1l0.1-0.1H631L631,540z"/>
									<path class="st9" d="M632.6,536.2l-1.7,2.5l0.4-3.5C631.9,535.4,632.3,535.8,632.6,536.2z"/>
									<path class="st9" d="M630.8,540.1l0.9,1.5c-0.4,0.2-0.8,0.4-1.3,0.6L630.8,540.1L630.8,540.1z"/>
									<path class="st9" d="M631.4,535.2l-0.4,3.5v0.1l-0.6,0.9l-3.6-3.3c0.6-1,1.8-1.6,3-1.6
										C630.3,534.8,630.9,534.9,631.4,535.2z"/>
									<polygon class="st9" points="630.9,538.8 630.8,540 630.8,540 630.7,540 630.6,540 630.3,539.6 									"/>
									<polygon class="st9" points="630.9,540 630.8,540.1 630.8,540 630.8,540 									"/>
									<polygon class="st9" points="630.8,540.1 630.8,540.1 630.8,540.1 630.8,540 									"/>
									<polygon class="st9" points="630.8,540 630.8,540.1 629.8,540.4 630.7,540 									"/>
									<path class="st9" d="M630.8,540.1l-0.3,2c-0.2,0.1-0.5,0.1-0.7,0.1c-0.8,0-1.5-0.2-2.2-0.7l2.2-1l0.1-0.1L630.8,540.1z"/>
									<polygon class="st9" points="630.6,540 630.7,540 629.8,540.4 629.7,540.5 630.2,539.8 630.3,539.8 									"/>
									<polygon class="st9" points="630.3,539.6 630.6,540 630.3,539.8 									"/>
									<path class="st10" d="M630.4,542.2v0.2l-8,59.4l-16.8-33l24.1-26.6C629.9,542.2,630.2,542.2,630.4,542.2z"/>
									<path class="st9" d="M630.3,539.6l-0.1,0.1h-0.1l-4.1-2v-0.1c0.1-0.5,0.3-0.9,0.6-1.3L630.3,539.6z"/>
									<path class="st9" d="M630.2,539.8l-0.5,0.7l-2.2,1c-0.9-0.6-1.5-1.7-1.5-3c0-0.2,0-0.5,0.1-0.7L630.2,539.8z"/>
									<path class="st10" d="M629.7,542.2l-24.1,26.6l-65.5,12l48.1-21.7l39.3-17.7C628.2,542,628.9,542.2,629.7,542.2z"/>
									<path class="st9" d="M627.9,620.1c0.4,0.9,0.6,2,0.6,3.1c0,2.2-0.9,4.3-2.3,5.8l-6.3-7.5L627.9,620.1z"/>
									<path class="st9" d="M627.9,620.1l-8,1.4l0.9-6.8C624,615,626.7,617.1,627.9,620.1z"/>
									<path class="st12" d="M558.3,474.7l68.4,61.7c-0.3,0.4-0.5,0.8-0.6,1.3l-19.1-9.6l-70.7-35.5c0.4-0.9,0.7-1.9,0.7-2.8
										c0-1.2-0.3-2.3-0.9-3.3L558.3,474.7z"/>
									<path class="st9" d="M619.8,621.5l6.3,7.5c-1.5,1.7-3.8,2.8-6.3,2.8c-2.5,0-4.8-1-6.2-2.8L619.8,621.5z"/>
									<path class="st11" d="M612.4,770.8l13.3,16.4l-32.7,6.4c0-1-0.4-2-0.9-2.8L612.4,770.8z"/>
									<path class="st10" d="M625.7,787.2l-62.8,26.5l22.2-16.8c0.9,0.8,2,1.3,3.3,1.3c2.6,0,4.7-2.1,4.7-4.7L625.7,787.2z"/>
									<path class="st11" d="M624,323.1l-4.1,80.3l-5.7-5.2c1.7-1.8,2.7-4.1,2.7-6.7c0-4.8-3.3-8.7-7.7-9.8L624,323.1z"/>
									<path class="st10" d="M624,323.1l-14.9,58.6c-0.8-0.2-1.6-0.3-2.5-0.3v-74.1L624,323.1z"/>
									<polygon class="st10" points="605.6,568.8 622.5,601.8 540.2,580.9 									"/>
									<path class="st12" d="M620.8,614.7l-0.9,6.8l-7.5-2.3c1.4-2.7,4.2-4.6,7.5-4.6C620.1,614.6,620.4,614.6,620.8,614.7z"/>
									<path class="st9" d="M619.8,621.5l-6.2,7.5c-0.6-0.6-1-1.2-1.4-1.9L619.8,621.5z"/>
									<path class="st11" d="M619.8,403.4L535,485c-0.2-0.2-0.5-0.4-0.7-0.6l66.2-84.9c1.7,1.4,3.9,2.2,6.2,2.2
										c3,0,5.7-1.3,7.5-3.4L619.8,403.4z"/>
									<path class="st9" d="M619.8,621.5l-7.6,5.6c-0.7-1.2-1-2.5-1-3.9c0-1.4,0.4-2.8,1-4L619.8,621.5z"/>
									<path class="st9" d="M616.7,391.5c0,2.6-1,4.9-2.7,6.7l-7.5-6.7l2.5-9.8C613.5,382.8,616.7,386.8,616.7,391.5z"/>
									<path class="st9" d="M606.6,391.5l7.5,6.7c-1.8,2.1-4.5,3.4-7.5,3.4c-2.3,0-4.5-0.8-6.2-2.2L606.6,391.5z"/>
									<path class="st11" d="M613.6,629L584,664.6l-35.9,9.7l64.1-47.2C612.5,627.8,613,628.5,613.6,629z"/>
									<path class="st11" d="M602.2,741.8l10.2,29.1l-31.7-2.5l16.1-27.2c0.9,0.6,2.1,0.9,3.3,0.9
										C600.9,742.1,601.6,742,602.2,741.8z"/>
									<path class="st11" d="M612.4,770.8l-20.4,19.9c-0.9-1.1-2.2-1.9-3.8-1.9c-1.4,0-2.6,0.6-3.5,1.5l-5.2-6.2L612.4,770.8z"/>
									<polygon class="st11" points="612.4,770.8 579.6,784.2 580.8,768.4 									"/>
									<path class="st12" d="M543.7,598l68.6,21.2c-0.7,1.2-1,2.6-1,4c0,1.4,0.3,2.7,1,3.9l-64.1,47.2l-24.3-69.9L543.7,598
										L543.7,598z"/>
									<path class="st9" d="M609.1,381.7l-2.5,9.8v-10.1C607.5,381.4,608.3,381.5,609.1,381.7z"/>
									<path class="st11" d="M607,528.1l-18.7,31l-66.2,5.6l-0.2-0.1l7.6-68.1c0.2,0.1,0.5,0.1,0.8,0.1c2.7,0,5.1-1.6,6-3.9
										L607,528.1z"/>
									<path class="st9" d="M606.6,381.4v10.1l-8.3-5.9C600.1,383.1,603.2,381.4,606.6,381.4z"/>
									<path class="st11" d="M606.6,307.3v74.1c-3.4,0-6.5,1.7-8.3,4.3L516,328c0.6-0.9,1-1.9,1-3.1c0-0.3,0-0.7-0.1-1
										L606.6,307.3z"/>
									<path class="st11" d="M605.6,300.9l1,6.4l-43.9-31.9c0.2-0.1,0.2-0.2,0.2-0.4L605.6,300.9z"/>
									<path class="st11" d="M606.6,391.5l-6.2,8c-2.1-1.6-3.5-3.9-3.8-6.6L606.6,391.5z"/>
									<path class="st10" d="M606.6,695l-5.5,34.3c-0.3-0.1-0.6-0.1-1-0.1c-3.5,0-6.4,2.9-6.4,6.5h-32.3L606.6,695z"/>
									<path class="st9" d="M606.6,735.6c0,0.1,0,0.1,0,0.1c0,1-0.2,2.1-0.7,3l-5.7-3L606.6,735.6z"/>
									<path class="st10" d="M606.6,307.3l-89.8,16.5c-0.2-1.2-0.8-2.3-1.7-3.1l39.4-44.4c1,0.9,2.3,1.4,3.7,1.4
										c1.9,0,3.5-0.9,4.4-2.3L606.6,307.3z"/>
									<path class="st9" d="M606.6,391.5l-10.1,1.4c-0.1-0.4-0.1-0.9-0.1-1.4c0-2.2,0.7-4.2,1.9-5.9L606.6,391.5z"/>
									<path class="st9" d="M606.6,735.6l-6.5,0.1l5-4.1C606.1,732.7,606.6,734.1,606.6,735.6z"/>
									<path class="st9" d="M600.1,735.7l5.7,3c-0.8,1.5-2,2.6-3.6,3.1L600.1,735.7z"/>
									<path class="st9" d="M605.1,731.6l-5,4.1l1-6.4C602.7,729.5,604.2,730.4,605.1,731.6z"/>
									<path class="st9" d="M600.1,735.7l2.1,6c-0.7,0.2-1.4,0.4-2.1,0.4c-1.2,0-2.3-0.3-3.3-0.9L600.1,735.7z"/>
									<path class="st9" d="M601.1,729.4l-1,6.4h-6.4c0-3.6,2.9-6.5,6.4-6.5C600.5,729.2,600.8,729.2,601.1,729.4z"/>
									<path class="st12" d="M600.4,399.5l-66.2,84.9c-1.1-0.9-2.5-1.4-4-1.4c-1,0-2,0.2-2.9,0.7l-35.7-72.5
										c2-0.8,3.4-2.7,3.5-4.9l101.5-13.4C596.9,395.5,598.3,397.9,600.4,399.5z"/>
									<path class="st9" d="M600.1,735.7l-3.3,5.5c-0.7-0.4-1.4-1-1.9-1.7L600.1,735.7z"/>
									<path class="st9" d="M600.1,735.7l-5.1,3.8c-0.8-1-1.3-2.3-1.3-3.8H600.1z"/>
									<path class="st11" d="M516,328l82.3,57.7c-1.2,1.7-1.9,3.6-1.9,5.9c0,0.4,0.1,0.9,0.1,1.4l-101.5,13.4c0-0.1,0-0.1,0-0.2
										c0-2.5-1.6-4.6-3.9-5.2l18.9-70.7c0.4,0.1,0.9,0.2,1.4,0.2C513.4,330.3,515,329.4,516,328z"/>
									<path class="st9" d="M593,793.5l-4.7,0.9l3.8-3.7C592.6,791.6,593,792.5,593,793.5z"/>
									<path class="st10" d="M588.3,794.5l4.7-0.9c0,2.6-2.1,4.7-4.7,4.7c-1.3,0-2.4-0.5-3.3-1.3L588.3,794.5z"/>
									<path class="st9" d="M592.1,790.8l-3.8,3.7l-3.5-4.1c0.9-0.9,2.1-1.5,3.5-1.5C589.8,788.9,591.2,789.7,592.1,790.8z"/>
									<path class="st9" d="M584.8,790.4l3.5,4.1l-4.1,1.2c-0.4-0.7-0.6-1.4-0.6-2.2C583.6,792.3,584.1,791.2,584.8,790.4z"/>
									<path class="st10" d="M588.3,559.1l-48.1,21.7l-15.4,7c-0.3-0.7-0.7-1.4-1.3-1.9l13.5-13.7L588.3,559.1z"/>
									<polygon class="st10" points="588.3,559.1 536.9,572.2 522.1,564.8 									"/>
									<path class="st9" d="M588.3,794.5l-3.3,2.5c-0.4-0.4-0.7-0.8-0.9-1.2L588.3,794.5z"/>
									<path class="st10" d="M585,796.9l-22.2,16.8l-9-8.9l30.3-9.1C584.3,796.1,584.6,796.6,585,796.9z"/>
									<path class="st11" d="M579.6,784.2l5.2,6.2c-0.7,0.8-1.2,1.9-1.2,3.1c0,0.8,0.2,1.5,0.6,2.2l-30.3,9.1L579.6,784.2z"/>
									<path class="st11" d="M584,664.6l-36,49.1c-1-0.7-2.2-1.2-3.6-1.2l3.8-38.1L584,664.6z"/>
									<polygon class="st11" points="580.8,768.4 579.6,784.2 546.1,784.8 									"/>
									<polygon class="st10" points="579.6,784.2 553.9,804.8 546.1,784.8 									"/>
									<polygon class="st11" points="561.4,735.7 571.6,756.8 546.1,784.8 									"/>
									<path class="st9" d="M563.9,272.2c0,1-0.3,2-0.9,2.8l-4.7-2.8l-5.6-0.2c0.1-3,2.5-5.3,5.6-5.3
										C561.3,266.7,563.9,269.1,563.9,272.2z"/>
									<path class="st9" d="M558.3,272.2l4.7,2.8c0,0.1-0.1,0.2-0.2,0.4L558.3,272.2z"/>
									<path class="st9" d="M558.3,272.2l4.4,3.2c-0.9,1.4-2.6,2.3-4.4,2.3c-1.4,0-2.7-0.6-3.7-1.4L558.3,272.2z"/>
									<path class="st10" d="M561.4,735.7l-42.5,36.4l21.8-46.3c1,0.6,2,0.8,3.2,0.8c2,0,3.8-0.9,5.1-2.2L561.4,735.7z"/>
									<path class="st9" d="M558.3,272.2l-3.7,4.1c-1.2-1-1.9-2.5-1.9-4.1c0-0.1,0-0.2,0-0.2L558.3,272.2z"/>
									<path class="st11" d="M554.6,276.4l-39.4,44.4c-1-0.9-2.2-1.4-3.6-1.4c-0.6,0-1.1,0.1-1.7,0.3l-16.5-50.6l59.4,2.9
										c0,0.1,0,0.2,0,0.2C552.7,273.9,553.4,275.4,554.6,276.4z"/>
									<polygon class="st11" points="546.1,784.8 553.9,804.8 531.8,799 									"/>
									<polygon class="st10" points="553.9,804.8 525,811.8 531.8,799 									"/>
									<path class="st9" d="M550.5,716.8c0.3,0.8,0.5,1.7,0.5,2.7c0,1.9-0.7,3.6-2,4.9l-5.4-4.9L550.5,716.8z"/>
									<path class="st9" d="M550.5,716.8l-6.9,2.7l4.3-5.8C549.1,714.4,550,715.5,550.5,716.8z"/>
									<path class="st9" d="M543.7,719.4l5.4,4.9c-1.3,1.3-3.1,2.2-5.1,2.2c-1.2,0-2.2-0.2-3.2-0.8L543.7,719.4z"/>
									<polygon class="st12" points="523.8,604.4 548.1,674.2 510.5,643.1 514.5,618.3 523.6,604.4 									"/>
									<path class="st9" d="M547.9,713.6l-4.3,5.8l0.7-7C545.7,712.4,546.9,712.9,547.9,713.6z"/>
									<polygon class="st11" points="546.1,784.8 531.8,799 518.9,772.1 									"/>
									<path class="st9" d="M544.3,712.4l-0.7,7l-4.6-5.1c1.3-1.2,3-2,4.9-2C544,712.3,544.2,712.3,544.3,712.4z"/>
									<path class="st9" d="M539,714.3l4.6,5.1l-6.8-0.4C536.9,717.1,537.7,715.5,539,714.3L539,714.3z"/>
									<path class="st9" d="M543.7,719.4l-3,6.3c-1.1-0.5-2-1.3-2.7-2.3c-0.1-0.1,0-0.1,0-0.1L543.7,719.4z"/>
									<path class="st9" d="M543.7,719.4l-5.6,3.9c-0.8-1.2-1.2-2.5-1.2-3.9c0-0.1,0-0.3,0.1-0.4L543.7,719.4z"/>
									<path class="st11" d="M540.7,725.7l-21.8,46.3l-17-23.2l36.1-25.4C538.7,724.4,539.6,725.2,540.7,725.7z"/>
									<path class="st10" d="M538.1,723.4C538.1,723.4,538,723.4,538.1,723.4L502,748.9l-2.5-32.2l37.5,2.3
										c-0.1,0.1-0.1,0.3-0.1,0.4C536.8,720.9,537.3,722.2,538.1,723.4z"/>
									<path class="st9" d="M536,486.5c0.6,0.9,0.9,2.1,0.9,3.3c0,1-0.2,2-0.7,2.8l-6-3L536,486.5z"/>
									<path class="st9" d="M530.2,489.6l6,3c-1,2.3-3.3,3.9-6,3.9c-0.3,0-0.6,0-0.8-0.1L530.2,489.6z"/>
									<path class="st9" d="M536,486.5l-5.8,3.1l4.8-4.6C535.4,485.5,535.8,485.9,536,486.5z"/>
									<path class="st9" d="M535,485l-4.8,4.6l4-5.2C534.5,484.6,534.7,484.8,535,485z"/>
									<path class="st9" d="M534.2,484.4l-4,5.2l-2.9-5.9c0.9-0.4,1.9-0.7,2.9-0.7C531.7,483,533.1,483.5,534.2,484.4z"/>
									<polygon class="st10" points="531.8,799 525,811.8 510.5,809 									"/>
									<path class="st10" d="M531.8,799l-21.3,9.9l0.9-7.2c0.2,0.1,0.4,0.1,0.6,0.1c3.9,0,7-3.1,7-7L531.8,799z"/>
									<path class="st9" d="M527.3,483.7l2.9,5.9l-6.6-1.4C524.1,486.2,525.5,484.5,527.3,483.7z"/>
									<path class="st9" d="M530.2,489.6l-0.8,6.9c-2-0.2-3.6-1.3-4.8-2.8L530.2,489.6z"/>
									<path class="st9" d="M530.2,489.6l-5.6,4.1c-0.8-1.1-1.2-2.5-1.2-3.9c0-0.6,0.1-1,0.2-1.5L530.2,489.6z"/>
									<path class="st11" d="M529.4,496.5l-7.6,68.1l-35.2-14.7h-0.1l-13.9-17.5l52-38.7C525.8,495.2,527.4,496.3,529.4,496.5z"/>
									<path class="st12" d="M491.6,411.2l35.7,72.5c-1.9,0.8-3.2,2.5-3.7,4.5l-94-19.7c0.1-0.6,0.2-1.2,0.2-1.9
										c0-2.2-0.8-4.1-2.2-5.6l58.2-50.8c1,0.9,2.3,1.4,3.7,1.4C490.3,411.6,491,411.5,491.6,411.2z"/>
									<path class="st9" d="M525.3,590.4c0,0.6-0.1,1.3-0.3,1.9l-6-1.9l5.8-2.6C525.1,588.6,525.3,589.5,525.3,590.4z"/>
									<path class="st9" d="M518.9,590.4l6,1.9c-0.7,2.6-3.2,4.5-6,4.5c-0.3,0-0.7,0-1-0.1L518.9,590.4z"/>
									<path class="st9" d="M524.7,587.8l-5.8,2.6l4.5-4.5C524,586.5,524.4,587.1,524.7,587.8z"/>
									<path class="st11" d="M524.7,493.7l-52,38.7l-46.2-59c1.6-1.2,2.8-2.9,3.2-4.9l94,19.7c-0.1,0.5-0.2,1-0.2,1.5
										C523.4,491.3,523.9,492.6,524.7,493.7z"/>
									<path class="st11" d="M506.8,678.5l16.7,18.8l-24.1,19.3l3.1-36.7c0.2,0.1,0.3,0.1,0.5,0.1
										C504.5,680,505.8,679.4,506.8,678.5z"/>
									<path class="st9" d="M523.4,585.9l-4.5,4.5l0.7-6.3C521.1,584.3,522.4,584.9,523.4,585.9z"/>
									<path class="st10" d="M521.8,564.6l-2.2,19.5c-0.2-0.1-0.4-0.1-0.7-0.1c-1.5,0-2.8,0.5-3.9,1.4L486.6,550v-0.1L521.8,564.6
										z"/>
									<path class="st9" d="M519.6,584.1l-0.7,6.3l-3.9-4.9c1.1-0.9,2.5-1.4,3.9-1.4C519.2,584.1,519.4,584.1,519.6,584.1z"/>
									<path class="st9" d="M515,585.5l3.9,4.9l-6-2C513.3,587.2,514,586.2,515,585.5z"/>
									<path class="st9" d="M518.9,590.4l-1,6.2c-2.3-0.3-4.2-1.9-4.9-4L518.9,590.4z"/>
									<path class="st9" d="M518.9,590.4l-5.9,2.2c-0.3-0.7-0.4-1.4-0.4-2.2c0-0.7,0.1-1.4,0.4-2L518.9,590.4z"/>
									<path class="st9" d="M518.9,794.8l-6.5-2.1l1.5-4.6C516.8,789,518.9,791.6,518.9,794.8z"/>
									<path class="st9" d="M512.4,792.7l6.5,2.1c0,3.9-3.1,7-7,7c-0.2,0-0.4,0-0.6-0.1L512.4,792.7z"/>
									<path class="st9" d="M516.8,323.9c0.1,0.3,0.1,0.7,0.1,1c0,1.2-0.4,2.2-1,3.1l-4.4-3.1L516.8,323.9z"/>
									<path class="st9" d="M516.8,323.9l-5.3,1l3.6-4.1C516,321.6,516.6,322.6,516.8,323.9z"/>
									<path class="st9" d="M511.5,324.9l4.4,3.1c-0.9,1.4-2.6,2.3-4.4,2.3c-0.5,0-1-0.1-1.4-0.2L511.5,324.9z"/>
									<path class="st11" d="M515.2,320.8l-3.6,4.1l-1.7-5.2c0.6-0.2,1.1-0.3,1.7-0.3C512.9,319.4,514.2,319.9,515.2,320.8z"/>
									<path class="st10" d="M486.6,550l28.3,35.5c-0.9,0.7-1.7,1.7-2,2.9l-26.3-8.8V550z"/>
									<polygon class="st12" points="495.6,599.3 514.5,618.3 510.5,643.1 469.7,609 									"/>
									<path class="st9" d="M513.9,788.1l-1.5,4.6l-1.2-4.9c0.2-0.1,0.4-0.1,0.7-0.1C512.6,787.8,513.2,787.9,513.9,788.1z"/>
									<path class="st9" d="M511.2,787.9l1.2,4.9l-7.1-0.2C506.1,790,508.4,788.1,511.2,787.9z"/>
									<path class="st9" d="M512.4,792.7l-1,9.1c-3.4-0.2-6.1-2.9-6.4-6.2L512.4,792.7z"/>
									<path class="st9" d="M512.4,792.7l-7.5,2.8c-0.1-0.2-0.1-0.5-0.1-0.7c0-0.9,0.1-1.6,0.4-2.3L512.4,792.7z"/>
									<path class="st11" d="M509.8,319.7l1.7,5.2l-5.4-1.1C506.5,321.8,508,320.2,509.8,319.7z"/>
									<path class="st9" d="M511.5,324.9l-1.4,5.2c-1.5-0.4-2.8-1.4-3.5-2.8L511.5,324.9z"/>
									<polygon class="st11" points="510.5,809 511.5,818.5 500.6,819.9 									"/>
									<path class="st9" d="M511.5,324.9l-4.9,2.4c-0.4-0.7-0.6-1.5-0.6-2.4c0-0.4,0.1-0.7,0.1-1.1L511.5,324.9z"/>
									<path class="st10" d="M511.3,801.8l-0.9,7.2l-27-5.2l21.5-8.1C505.2,798.9,507.9,801.6,511.3,801.8z"/>
									<path class="st11" d="M502,748.9l9.3,39c-2.8,0.2-5.1,2.1-5.9,4.6l-38.6-1.2L502,748.9z"/>
									<path class="st12" d="M510.5,643.1l-6.1,25.5c-0.4-0.1-0.9-0.2-1.4-0.2c-1,0-1.9,0.2-2.7,0.7L469.7,609L510.5,643.1z"/>
									<polygon class="st11" points="510.5,809 500.6,819.9 483.4,803.7 									"/>
									<path class="st11" d="M510.1,330.1l-18.9,70.7c-0.5-0.2-1-0.3-1.7-0.3c-2.2,0-4.1,1.4-5,3.2l-51.8-34.1
										c0.6-0.9,1-2.1,1-3.3c0-0.9-0.2-1.7-0.6-2.5l73.5-36.5C507.3,328.7,508.6,329.7,510.1,330.1z"/>
									<path class="st11" d="M493.4,269.1l16.5,50.6c-1.9,0.6-3.3,2.1-3.7,4.1l-78.3-16.4L493.4,269.1z"/>
									<path class="st9" d="M508.8,674.2L508.8,674.2l-5.8,0.1l1.4-5.6C506.9,669.2,508.8,671.5,508.8,674.2z"/>
									<path class="st9" d="M503,674.2h5.8c0,1.7-0.7,3.2-2,4.3L503,674.2z"/>
									<path class="st9" d="M503,674.2l3.8,4.3c-1,0.9-2.3,1.5-3.8,1.5c-0.2,0-0.3,0-0.5-0.1L503,674.2z"/>
									<path class="st11" d="M506.6,327.3l-73.5,36.5c-0.9-1.9-3-3.3-5.2-3.3v-53.2l78.3,16.4c-0.1,0.4-0.1,0.7-0.1,1.1
										C506,325.7,506.2,326.5,506.6,327.3z"/>
									<path class="st9" d="M504.4,668.6l-1.4,5.6l-2.7-5.1c0.8-0.4,1.7-0.7,2.7-0.7C503.5,668.4,503.9,668.5,504.4,668.6z"/>
									<path class="st9" d="M500.3,669.1l2.7,5.1l-4.8-3.1C498.7,670.3,499.5,669.6,500.3,669.1z"/>
									<path class="st9" d="M503,674.2l-0.5,5.7c-0.7,0-1.4-0.2-2-0.5L503,674.2z"/>
									<path class="st9" d="M503,674.2l-2.5,5.2c-1.5-0.7-2.7-2.1-3.1-3.8L503,674.2z"/>
									<path class="st9" d="M503,674.2l-5.6,1.4c-0.1-0.5-0.2-1-0.2-1.5c0-1.1,0.3-2.2,0.9-3.1L503,674.2z"/>
									<path class="st11" d="M502.5,679.9l-3.1,36.7h-16.6l0.6-0.8l17.1-36.4C501.1,679.7,501.8,679.9,502.5,679.9z"/>
									<polygon class="st10" points="499.4,716.6 502,748.9 489.3,726.6 									"/>
									<polygon class="st11" points="489.3,726.6 502,748.9 456,752.9 									"/>
									<polygon class="st11" points="500.6,819.9 445.2,801 483.4,803.7 									"/>
									<path class="st12" d="M469.7,609l30.7,60.1c-0.9,0.4-1.7,1.2-2.2,2l-69.4-45.5c0.3-0.7,0.4-1.5,0.4-2.3
										c0-1.2-0.3-2.3-0.9-3.3L469.7,609z"/>
									<path class="st11" d="M428.8,625.6l69.4,45.5c-0.6,0.9-0.9,2-0.9,3.1c0,0.5,0.1,1,0.2,1.5l-58.1,14.6l-14.8-60.8
										C426.5,628.9,428.1,627.4,428.8,625.6z"/>
									<path class="st9" d="M495.1,406.1c0,0.1,0,0.1,0,0.2l-5.6,0.7l1.7-6.2C493.5,401.5,495.1,403.6,495.1,406.1z"/>
									<path class="st9" d="M489.5,407l5.6-0.7c-0.1,2.3-1.5,4.1-3.5,4.9L489.5,407z"/>
									<path class="st9" d="M489.5,407l2.1,4.2c-0.6,0.3-1.4,0.4-2.1,0.4c-1.4,0-2.7-0.6-3.7-1.4L489.5,407z"/>
									<path class="st9" d="M491.2,400.8l-1.7,6.2l-5-3.3c0.9-1.9,2.8-3.2,5-3.2C490.2,400.5,490.7,400.6,491.2,400.8z"/>
									<path class="st9" d="M489.5,407l-3.7,3.2c-1.2-1-1.9-2.5-1.9-4.1c0-0.3,0.1-0.7,0.1-1L489.5,407z"/>
									<path class="st9" d="M489.5,407l-5.4-1.9c0.1-0.5,0.2-0.9,0.4-1.4L489.5,407z"/>
									<polygon class="st10" points="486.6,550 486.6,579.6 472.1,547.5 472.1,547.4 472.1,547.4 486.6,549.9 486.6,549.9 
																			"/>
									<polygon class="st10" points="472.1,547.5 486.6,579.6 469.7,609 									"/>
									<path class="st11" d="M485.8,410.2L427.6,461c-1.4-1.7-3.5-2.8-5.8-2.9l6-73l56.2,20c-0.1,0.3-0.1,0.7-0.1,1
										C484,407.7,484.7,409.2,485.8,410.2z"/>
									<path class="st11" d="M432.7,369.6l51.8,34.1c-0.2,0.4-0.4,0.9-0.4,1.4l-56.2-20v-13C429.9,372.1,431.7,371.2,432.7,369.6z
										"/>
									<path class="st11" d="M483.3,715.7l-0.1,0.2l-33.3,13.9c-1-1.5-2.7-2.6-4.6-2.6c-0.2,0-0.4,0-0.6,0.1l-5.2-37.1
										L483.3,715.7z"/>
									<path class="st10" d="M483.1,716l-0.3,0.7L456,752.9l-8-15.6c1.6-0.9,2.7-2.6,2.7-4.6c0-1-0.3-2-0.8-2.8L483.1,716z"/>
									<path class="st12" d="M426.4,473.4l46.2,59l-26.1,18.3c-1.1-1.5-2.8-2.4-4.8-2.4c-2.3,0-4.4,1.4-5.3,3.4l-14.1-6.4l-1-70
										C423.2,475.3,425,474.6,426.4,473.4z"/>
									<polygon class="st10" points="472.1,547.4 472.1,547.5 469.7,609 456,580.7 472,547.4 									"/>
									<path class="st10" d="M472,547.4l-16,33.4l-33.3-13.2l14.2-10c1,1.5,2.8,2.6,4.9,2.6c3.3,0,5.9-2.7,5.9-5.9
										c0-0.5-0.1-1-0.2-1.4L472,547.4z"/>
									<polygon class="st10" points="456,580.7 469.7,609 422.6,567.5 									"/>
									<path class="st12" d="M469.7,609l-41.3,10.9c-1.1-2-3.3-3.4-5.7-3.4v-49L469.7,609z"/>
									<polygon class="st11" points="466.6,791.3 445.2,801 437.5,781.3 									"/>
									<path class="st9" d="M449.9,729.9c0.5,0.8,0.8,1.8,0.8,2.8c0,2-1,3.6-2.7,4.6l-2.8-5.5L449.9,729.9z"/>
									<path class="st9" d="M449.9,729.9l-4.6,1.9l-0.6-4.4c0.2-0.1,0.4-0.1,0.6-0.1C447.1,727.3,448.9,728.4,449.9,729.9z"/>
									<path class="st9" d="M445.2,731.8l2.8,5.5c-0.8,0.5-1.8,0.8-2.8,0.8c-0.2,0-0.4,0-0.6-0.1L445.2,731.8z"/>
									<path class="st11" d="M447.5,552.8c0.1,0.4,0.2,0.9,0.2,1.4c0,3.2-2.7,5.9-5.9,5.9c-2,0-3.8-1-4.9-2.6l4.9-3.4L447.5,552.8
										z"/>
									<path class="st9" d="M447.5,552.8l-5.7,1.3l4.8-3.4C447,551.4,447.3,552,447.5,552.8z"/>
									<path class="st9" d="M446.5,550.8l-4.8,3.4l-5.3-2.4c0.9-2,3-3.4,5.3-3.4C443.7,548.3,445.4,549.3,446.5,550.8z"/>
									<path class="st9" d="M444.6,727.4l0.6,4.4l-3.8-2.9C442.3,728.1,443.4,727.5,444.6,727.4z"/>
									<path class="st9" d="M445.2,731.8l-0.6,6.2c-2.2-0.2-3.9-1.7-4.6-3.8L445.2,731.8z"/>
									<path class="st9" d="M445.2,731.8l-5.2,2.5c-0.2-0.5-0.2-1-0.2-1.5c0-0.4,0.1-0.8,0.1-1.2L445.2,731.8z"/>
									<polygon class="st9" points="445.2,731.8 439.9,731.6 440,731.5 									"/>
									<path class="st9" d="M445.2,731.8l-5.2-0.3c0.2-1,0.7-1.9,1.4-2.6L445.2,731.8z"/>
									<path class="st11" d="M439.4,690.3l5.2,37.1c-1.2,0.1-2.3,0.7-3.2,1.5l-28.8-21.8L439.4,690.3z"/>
									<path class="st11" d="M444.6,738.1l-2.9,27.8l-35.2-15.4l33.5-16.2C440.7,736.3,442.5,737.8,444.6,738.1z"/>
									<polygon class="st11" points="441.7,765.9 437.5,781.3 406.5,750.5 									"/>
									<path class="st9" d="M441.7,554.1l-4.9,3.4c-0.6-0.9-1-2-1-3.3c0-0.9,0.2-1.8,0.6-2.5L441.7,554.1z"/>
									<path class="st11" d="M440,734.3l-33.5,16.2L395,729.4l44.9,2.2c-0.1,0.4-0.1,0.7-0.1,1.2
										C439.8,733.3,439.9,733.8,440,734.3z"/>
									<path class="st11" d="M424.6,629.5l14.8,60.8h-60.8c-0.4-1.4-1.4-2.6-2.8-3.2L418,628c1.2,1.2,2.8,1.9,4.6,1.9
										C423.3,629.8,424,629.7,424.6,629.5z"/>
									<polygon class="st11" points="439.4,690.3 412.6,707.1 402.2,702.5 									"/>
									<path class="st11" d="M436.8,557.5l-14.2,10l-0.3-22.2l14.1,6.4c-0.4,0.7-0.6,1.6-0.6,2.5
										C435.9,555.5,436.2,556.6,436.8,557.5z"/>
									<path class="st9" d="M433.1,363.8c0.4,0.8,0.6,1.6,0.6,2.5c0,1.2-0.4,2.3-1,3.3l-4.8-3.2L433.1,363.8z"/>
									<path class="st11" d="M433.1,363.8l-5.2,2.6v-5.9C430.2,360.5,432.2,361.9,433.1,363.8z"/>
									<path class="st9" d="M427.9,366.4l4.8,3.2c-1,1.5-2.8,2.5-4.8,2.5V366.4z"/>
									<path class="st9" d="M429.8,466.6c0,0.6-0.1,1.3-0.2,1.9l-8.5-1.8l6.5-5.7C429,462.5,429.8,464.5,429.8,466.6z"/>
									<path class="st9" d="M421.2,466.7l8.5,1.8c-0.4,2-1.6,3.8-3.2,4.9L421.2,466.7z"/>
									<path class="st9" d="M429.2,623.2c0,0.8-0.1,1.6-0.4,2.3l-6.2-4.1l5.7-1.5C428.9,620.9,429.2,622,429.2,623.2z"/>
									<path class="st9" d="M422.6,621.5l6.2,4.1c-0.7,1.9-2.3,3.3-4.2,3.9L422.6,621.5z"/>
									<path class="st9" d="M428.4,619.9l-5.7,1.5v-4.9C425.1,616.5,427.3,617.9,428.4,619.9z"/>
									<path class="st10" d="M427.9,372.1v13l-42.1-18.7h36.3C422.2,369.6,424.7,372.1,427.9,372.1z"/>
									<path class="st9" d="M427.9,366.4v5.7c-3.2,0-5.7-2.5-5.8-5.7H427.9z"/>
									<path class="st9" d="M427.9,360.5v5.9h-5.8v-0.1C422.1,363.1,424.7,360.5,427.9,360.5z"/>
									<path class="st10" d="M427.9,307.3v53.2c-3.2,0-5.8,2.6-5.8,5.8v0.1h-36.3L427.9,307.3z"/>
									<path class="st11" d="M427.9,385.1l-6,73c-0.2-0.1-0.4-0.1-0.7-0.1c-2.8,0-5.3,1.3-6.9,3.4l-28.5-22L427.9,385.1z"/>
									<polygon class="st11" points="427.9,385.1 385.8,439.5 385.8,366.4 									"/>
									<path class="st9" d="M427.6,461l-6.5,5.7l0.7-8.6C424.2,458.2,426.2,459.4,427.6,461z"/>
									<path class="st9" d="M421.2,466.7l5.2,6.7c-1.4,1.2-3.2,1.9-5.1,1.9L421.2,466.7z"/>
									<path class="st9" d="M422.6,621.5l2,8c-0.6,0.2-1.3,0.3-2,0.3c-1.8,0-3.5-0.7-4.6-1.9L422.6,621.5z"/>
									<path class="st9" d="M422.6,616.5v4.9l-1-4.8C422,616.5,422.3,616.5,422.6,616.5z"/>
									<polygon class="st10" points="422.3,545.3 422.6,567.5 409.2,555.3 422.3,545.3 									"/>
									<path class="st9" d="M421.6,616.7l1,4.8l-2.4-4.5C420.7,616.8,421.1,616.7,421.6,616.7z"/>
									<path class="st9" d="M420.2,617l2.4,4.5l-3.9-3.6C419.2,617.5,419.7,617.2,420.2,617z"/>
									<path class="st9" d="M422.6,621.5L418,628c-1.2-1.2-2-2.9-2-4.8c0-1.3,0.4-2.5,1-3.6L422.6,621.5z"/>
									<polygon class="st10" points="422.6,567.5 412.5,573.8 376.9,535.7 376.9,535.6 409.2,555.3 									"/>
									<path class="st9" d="M422.6,621.5l-5.6-1.9c0.2-0.4,0.6-0.8,0.9-1.2L422.6,621.5z"/>
									<path class="st9" d="M422.6,621.5l-4.7-3c0.2-0.2,0.5-0.4,0.7-0.6L422.6,621.5z"/>
									<path class="st12" d="M421.3,475.3l1,70h-0.1l-13.1,9.9l-38.4-35.1c0,0,0,0,0-0.1c0.6-0.9,0.9-1.9,0.9-3c0-1.6-0.7-3-1.8-4
										l44.9-40.6c1.5,1.8,3.8,2.8,6.4,2.8C421.2,475.3,421.2,475.3,421.3,475.3z"/>
									<path class="st9" d="M421.8,458.1l-0.7,8.6l-6.9-5.2c1.5-2.1,4.1-3.4,6.9-3.4C421.4,458.1,421.7,458.1,421.8,458.1z"/>
									<path class="st10" d="M412.5,573.8l9.1,42.8c-0.5,0.1-0.9,0.2-1.4,0.3l-43.3-81.3L412.5,573.8z"/>
									<path class="st9" d="M421.2,466.7l0.1,8.6c-0.1,0-0.1,0-0.1,0c-2.5,0-4.8-1-6.4-2.8L421.2,466.7z"/>
									<path class="st9" d="M421.2,466.7l-6.4,5.7c-1.4-1.5-2.3-3.5-2.3-5.8c0-2,0.7-3.8,1.8-5.2L421.2,466.7z"/>
									<path class="st10" d="M376.9,535.7l43.3,81.3c-0.6,0.2-1,0.5-1.5,0.9l-39.8-37.1L376.9,535.7z"/>
									<path class="st11" d="M418,628l-42.2,59.1c-0.7-0.3-1.5-0.5-2.3-0.5c-0.2,0-0.5,0-0.7,0.1l-18.4-87.9l62.6,20.9
										c-0.7,1-1,2.3-1,3.6C416,625.1,416.8,626.8,418,628z"/>
									<path class="st11" d="M414.8,472.4L369.9,513c-0.6-0.7-1.4-1.1-2.3-1.4l18.2-72.2l28.5,22c-1.1,1.4-1.8,3.2-1.8,5.2
										C412.5,468.9,413.4,471,414.8,472.4z"/>
									<path class="st11" d="M406.5,750.5l-9,8.7c-1.5-1.7-3.7-2.7-6.2-2.7c-0.7,0-1.4,0.1-2,0.2l-6.5-28L406.5,750.5z"/>
									<path class="st11" d="M402.2,702.5l-19.3,26.2l-7.7-31.7c2-0.6,3.5-2.3,3.6-4.5L402.2,702.5z"/>
									<path class="st9" d="M399.9,765.1c0,1-0.2,2-0.6,2.9l-8-2.8l6.2-5.9C399.1,760.8,399.9,762.8,399.9,765.1z"/>
									<path class="st9" d="M391.4,765.2l8,2.8c-0.2,0.7-0.5,1.3-0.9,1.9L391.4,765.2z"/>
									<path class="st10" d="M391.4,765.2l7.2,4.8c-1.5,2.3-4.1,3.8-7.2,3.8c-4.8,0-8.6-3.8-8.6-8.6c0-3,1.5-5.6,3.8-7.1
										L391.4,765.2z"/>
									<path class="st9" d="M397.5,759.2l-6.2,5.9l-2-8.4c0.6-0.2,1.3-0.2,2-0.2C393.8,756.5,396,757.6,397.5,759.2z"/>
									<path class="st9" d="M389.4,756.8l2,8.4l-4.8-7.2C387.4,757.4,388.3,757,389.4,756.8z"/>
									<path class="st10" d="M382.8,728.7l6.5,28c-1,0.2-2,0.6-2.8,1.2l-45.5-67.7L382.8,728.7z"/>
									<polygon class="st11" points="385.8,366.4 385.8,439.5 357.7,417.3 									"/>
									<path class="st11" d="M385.8,439.5l-18.2,72.2c-0.4-0.1-0.9-0.2-1.4-0.2c-0.1,0-0.1,0-0.1,0l-8.3-94.2L385.8,439.5z"/>
									<path class="st10" d="M375.2,697.1l7.7,31.7l-41.8-38.4h27.4c-0.2,0.6-0.3,1.1-0.3,1.7c0,3,2.4,5.4,5.4,5.4
										C374.1,697.4,374.6,697.3,375.2,697.1z"/>
									<polygon class="st10" points="376.9,535.7 378.9,580.7 357.2,579.6 357.2,579.6 357.2,579.6 									"/>
									<path class="st9" d="M378.9,692c0,0.2,0,0.4-0.1,0.6l-5.3-2.3h5.1C378.8,690.8,378.9,691.4,378.9,692z"/>
									<path class="st9" d="M373.5,690.3l5.3,2.3c-0.2,2.2-1.7,3.9-3.6,4.5L373.5,690.3z"/>
									<path class="st9" d="M378.6,690.3h-5.1l2.3-3.2C377.2,687.7,378.1,688.9,378.6,690.3z"/>
									<polygon class="st10" points="376.9,535.6 376.9,535.7 357.2,579.6 361.4,550.6 361.5,550.6 									"/>
									<path class="st9" d="M375.8,687.1l-2.3,3.2l-0.7-3.6c0.2-0.1,0.5-0.1,0.7-0.1C374.3,686.6,375.1,686.8,375.8,687.1z"/>
									<path class="st9" d="M373.5,690.3l1.7,6.8c-0.6,0.2-1.1,0.3-1.7,0.3c-3,0-5.4-2.4-5.4-5.4c0-0.6,0.1-1.1,0.3-1.7H373.5z"/>
									<path class="st9" d="M372.8,686.7l0.7,3.6l-1.7-3.4C372.1,686.8,372.5,686.7,372.8,686.7z"/>
									<path class="st9" d="M371.8,686.9l1.7,3.4h-5.1C369,688.7,370.2,687.4,371.8,686.9z"/>
									<path class="st11" d="M354.4,598.7l18.4,87.9c-0.3,0.1-0.7,0.1-1,0.2l-45.9-88.2H354.4z"/>
									<path class="st10" d="M325.9,598.7l45.9,88.2c-1.6,0.5-2.8,1.8-3.3,3.4h-27.4L325.9,598.7z"/>
									<path class="st9" d="M371.7,517.1c0,1.1-0.3,2.2-0.9,3l-4.3-3.9l3.5-3.1C371.1,514,371.7,515.5,371.7,517.1z"/>
									<path class="st9" d="M370.8,520.1C370.8,520.1,370.8,520.1,370.8,520.1c-0.4,0.6-0.9,1.1-1.4,1.5l-2.9-5.4L370.8,520.1z"/>
									<path class="st9" d="M369.9,513l-3.5,3.1l1.1-4.4C368.5,511.9,369.3,512.4,369.9,513z"/>
									<path class="st9" d="M366.5,516.1l2.9,5.4c-0.9,0.7-2,1-3.2,1c-0.2,0-0.4,0-0.6-0.1L366.5,516.1z"/>
									<path class="st9" d="M367.6,511.7l-1.1,4.4l-0.4-4.6c0.1,0,0.1,0,0.1,0C366.7,511.5,367.2,511.6,367.6,511.7z"/>
									<path class="st9" d="M366.1,511.5l0.4,4.6l-1.3-4.5C365.5,511.6,365.7,511.5,366.1,511.5z"/>
									<path class="st9" d="M365.2,511.6l1.3,4.5l-4.1-3C363.2,512.3,364.1,511.8,365.2,511.6z"/>
									<path class="st9" d="M366.5,516.1l-0.9,6.4c-2.6-0.2-4.7-2.4-4.9-5.1L366.5,516.1z"/>
									<path class="st9" d="M366.5,516.1l-5.8,1.4c-0.1-0.1-0.1-0.3-0.1-0.4c0-1.5,0.7-3,1.8-3.9L366.5,516.1z"/>
									<path class="st11" d="M357.7,417.3l8.3,94.2c-0.3,0-0.6,0.1-0.9,0.1l-19.1-67.1L357.7,417.3z"/>
									<path class="st10" d="M365.6,522.5l-4.1,28l-30.9-26.1l30.1-6.9C360.9,520.1,363,522.3,365.6,522.5z"/>
									<path class="st10" d="M346.1,444.5l19.1,67.1c-1,0.2-2,0.7-2.8,1.5l-26.3-19.6L346.1,444.5z"/>
									<path class="st11" d="M336.1,493.5l26.3,19.6c-1.1,0.9-1.8,2.4-1.8,3.9c0,0.1,0,0.3,0.1,0.4l-30.1,6.9L336.1,493.5z"/>
									<polygon class="st10" points="361.4,550.5 361.4,550.6 357.2,579.6 341.1,554.3 									"/>
									<path class="st11" d="M361.4,550.5l-20.4,3.8l16.1,25.3v0.1v0.1l-1.4,0.9c-0.7-1.7-2.5-2.9-4.4-2.9c-1.2,0-2.4,0.4-3.3,1.2
										l-7.8-24.4l-9.7-30.1L361.4,550.5z"/>
									<path class="st11" d="M355.7,580.6c0.3,0.6,0.5,1.4,0.5,2.1c0,2.7-2.2,4.9-4.9,4.9c-0.2,0-0.4,0-0.5-0.1l-1.1-3.4h0.1
										L355.7,580.6z"/>
									<path class="st9" d="M355.7,580.6l-6,3.6h-0.1v-0.1l-1.7-5.2c0.9-0.8,2-1.2,3.3-1.2C353.3,577.7,355,578.8,355.7,580.6z"/>
									<path class="st11" d="M350.8,587.5l3.6,11.2h-28.5l2.1-33.9l18.5,16.5c-0.2,0.4-0.2,0.9-0.2,1.4
										C346.3,585.2,348.3,587.3,350.8,587.5z"/>
									<path class="st9" d="M349.7,584.1l1.1,3.4c-2.5-0.2-4.5-2.3-4.5-4.9c0-0.5,0.1-1,0.2-1.4L349.7,584.1L349.7,584.1z"/>
									<path class="st9" d="M348,578.9l1.7,5.2l-3.1-2.8C346.8,580.3,347.3,579.5,348,578.9z"/>
									<path class="st11" d="M340.3,554.5l7.8,24.4c-0.7,0.6-1.2,1.4-1.5,2.3L328,564.8l2.5-40.4L340.3,554.5z"/>
								</g>
								<g>
									<line class="st13" x1="509.8" y1="319.7" x2="493.4" y2="269.1"/>
									<line class="st13" x1="427.9" y1="307.3" x2="506.1" y2="323.8"/>
									<line class="st13" x1="427.9" y1="360.5" x2="427.9" y2="307.3"/>
									<polyline class="st13" points="427.9,385.1 385.8,366.4 422.1,366.4 									"/>
									<line class="st13" x1="385.8" y1="366.4" x2="385.8" y2="439.5"/>
									<line class="st13" x1="385.8" y1="439.5" x2="357.7" y2="417.3"/>
									<line class="st13" x1="366.1" y1="511.5" x2="357.7" y2="417.3"/>
									<line class="st13" x1="365.2" y1="511.6" x2="346.1" y2="444.5"/>
									<line class="st13" x1="336.1" y1="493.5" x2="362.4" y2="513.1"/>
									<line class="st13" x1="330.6" y1="524.4" x2="360.7" y2="517.5"/>
									<line class="st13" x1="354.4" y1="598.7" x2="350.8" y2="587.5"/>
									<line class="st13" x1="354.4" y1="598.7" x2="325.9" y2="598.7"/>
									<line class="st13" x1="325.9" y1="598.7" x2="371.8" y2="686.9"/>
									<line class="st13" x1="368.5" y1="690.3" x2="341.1" y2="690.3"/>
									<polyline class="st13" points="389.4,756.8 382.8,728.7 341.1,690.3 									"/>
									<line class="st13" x1="397.5" y1="759.2" x2="406.5" y2="750.5"/>
									<line class="st13" x1="437.5" y1="781.3" x2="406.5" y2="750.5"/>
									<line class="st13" x1="406.5" y1="750.5" x2="441.7" y2="765.9"/>
									<line class="st13" x1="440" y1="734.3" x2="406.5" y2="750.5"/>
									<line class="st13" x1="394.7" y1="728.7" x2="440" y2="731.5"/>
									<polygon class="st13" points="382.8,728.7 394.7,728.7 395,729.4 406.5,750.5 									"/>
									<line class="st13" x1="382.8" y1="728.7" x2="375.2" y2="697.1"/>
									<line class="st13" x1="402.2" y1="702.5" x2="382.8" y2="728.7"/>
									<polyline class="st13" points="412.6,707.1 382.8,728.7 395,729.4 439.9,731.6 									"/>
									<line class="st13" x1="402.2" y1="702.5" x2="378.8" y2="692.6"/>
									<polyline class="st13" points="439.4,690.3 402.2,702.5 412.6,707.1 									"/>
									<line class="st13" x1="439.4" y1="690.3" x2="378.6" y2="690.3"/>
									<line class="st13" x1="372.8" y1="686.7" x2="354.4" y2="598.7"/>
									<line class="st13" x1="418" y1="628" x2="375.8" y2="687.1"/>
									<line class="st13" x1="361.4" y1="550.5" x2="365.6" y2="522.5"/>
									<polyline class="st13" points="417,619.6 354.4,598.7 357.2,579.7 									"/>
									<line class="st13" x1="367.6" y1="511.7" x2="385.8" y2="439.5"/>
									<line class="st13" x1="414.8" y1="472.4" x2="369.9" y2="513"/>
									<line class="st13" x1="369.4" y1="521.6" x2="376.9" y2="535.6"/>
									<line class="st13" x1="409.2" y1="555.3" x2="370.8" y2="520.1"/>
									<line class="st13" x1="424.6" y1="629.5" x2="439.4" y2="690.3"/>
									<line class="st13" x1="497.4" y1="675.7" x2="439.4" y2="690.3"/>
									<line class="st13" x1="483.4" y1="715.8" x2="500.5" y2="679.4"/>
									<polyline class="st13" points="439.4,690.3 483.3,715.7 483.4,715.8 									"/>
									<polyline class="st13" points="441.4,728.9 412.6,707.1 439.4,690.3 444.6,727.4 									"/>
									<line class="st13" x1="449.9" y1="729.9" x2="483.1" y2="716"/>
									<line class="st13" x1="483.4" y1="715.8" x2="482.8" y2="716.6"/>
									<line class="st13" x1="444.6" y1="738.1" x2="441.7" y2="765.9"/>
									<line class="st13" x1="456" y1="752.9" x2="448" y2="737.3"/>
									<line class="st13" x1="441.7" y1="765.9" x2="437.5" y2="781.3"/>
									<polyline class="st13" points="466.6,791.3 441.7,765.9 456,752.9 									"/>
									<line class="st13" x1="456" y1="752.9" x2="482.8" y2="716.6"/>
									<line class="st13" x1="506.8" y1="678.5" x2="523.6" y2="697.3"/>
									<polyline class="st13" points="500.5,679.4 483.3,715.7 483.1,716 482.8,716.6 									"/>
									<line class="st13" x1="499.4" y1="716.6" x2="502.5" y2="679.9"/>
									<polyline class="st13" points="499.4,716.6 482.8,716.6 489.3,726.6 									"/>
									<polyline class="st13" points="499.4,716.6 523.6,697.3 539,714.3 									"/>
									<line class="st13" x1="499.4" y1="716.6" x2="489.3" y2="726.6"/>
									<polyline class="st13" points="502,748.9 499.4,716.6 536.9,719 									"/>
									<polyline class="st13" points="502,748.9 489.3,726.6 456,752.9 									"/>
									<polyline class="st13" points="502,748.9 456,752.9 466.6,791.3 									"/>
									<line class="st13" x1="502" y1="748.9" x2="538.1" y2="723.4"/>
									<line class="st13" x1="502" y1="748.9" x2="518.9" y2="772.1"/>
									<polyline class="st13" points="511.2,787.9 502,748.9 466.6,791.3 									"/>
									<line class="st13" x1="515.2" y1="320.8" x2="554.6" y2="276.4"/>
									<line class="st13" x1="606.6" y1="307.3" x2="562.7" y2="275.4"/>
									<line class="st13" x1="606.6" y1="307.3" x2="605.6" y2="300.9"/>
									<line class="st13" x1="606.6" y1="307.3" x2="624" y2="323.1"/>
									<line class="st13" x1="609.1" y1="381.7" x2="624" y2="323.1"/>
									<line class="st13" x1="624" y1="323.1" x2="619.8" y2="403.4"/>
									<line class="st13" x1="648.7" y1="376.2" x2="624" y2="323.1"/>
									<polyline class="st13" points="648.7,376.2 648.7,354.1 655.9,368.5 									"/>
									<polyline class="st13" points="516.8,323.9 606.6,307.3 606.6,381.4 									"/>
									<line class="st13" x1="516" y1="328" x2="598.3" y2="385.7"/>
									<line class="st13" x1="506.6" y1="327.3" x2="433.1" y2="363.8"/>
									<line class="st13" x1="491.2" y1="400.8" x2="510.1" y2="330.1"/>
									<line class="st13" x1="427.9" y1="372.1" x2="427.9" y2="385.1"/>
									<line class="st13" x1="484.5" y1="403.7" x2="432.7" y2="369.6"/>
									<polyline class="st13" points="427.9,385.1 385.8,439.5 414.3,461.4 									"/>
									<polyline class="st13" points="421.8,458.1 427.9,385.1 484.1,405.1 									"/>
									<line class="st13" x1="427.6" y1="461" x2="485.8" y2="410.2"/>
									<line class="st13" x1="495.1" y1="406.3" x2="596.6" y2="392.9"/>
									<line class="st13" x1="527.3" y1="483.7" x2="491.6" y2="411.2"/>
									<line class="st13" x1="614.1" y1="398.3" x2="619.8" y2="403.4"/>
									<line class="st13" x1="534.2" y1="484.4" x2="600.4" y2="399.5"/>
									<polyline class="st13" points="655.9,368.6 654.8,366.4 654.2,370.4 644.8,428.7 									"/>
									<polyline class="st13" points="655.9,368.7 654.2,370.4 648.7,376.2 619.8,403.4 									"/>
									<line class="st13" x1="655.9" y1="368.7" x2="655.9" y2="368.6"/>
									<line class="st13" x1="644.8" y1="428.7" x2="655.9" y2="368.7"/>
									<line class="st13" x1="429.6" y1="468.5" x2="523.6" y2="488.2"/>
									<line class="st13" x1="421.3" y1="475.3" x2="422.3" y2="545.3"/>
									<line class="st13" x1="472.6" y1="532.4" x2="426.4" y2="473.4"/>
									<line class="st13" x1="446.5" y1="550.8" x2="472.6" y2="532.4"/>
									<line class="st13" x1="472.6" y1="532.4" x2="472.1" y2="547.4"/>
									<polyline class="st13" points="486.6,549.9 472.6,532.4 524.7,493.7 									"/>
									<polyline class="st13" points="535,485 619.8,403.4 644.8,428.7 									"/>
									<line class="st13" x1="558.3" y1="474.7" x2="536" y2="486.5"/>
									<polyline class="st13" points="626.7,536.4 558.3,474.7 644.8,428.7 									"/>
									<line class="st13" x1="529.4" y1="496.5" x2="521.8" y2="564.6"/>
									<line class="st13" x1="607" y1="528.1" x2="536.3" y2="492.6"/>
									<line class="st13" x1="631.4" y1="535.2" x2="644.8" y2="428.7"/>
									<line class="st13" x1="673.4" y1="477.1" x2="633" y2="536.7"/>
									<polyline class="st13" points="672.5,461.8 644.8,428.7 683.4,425.9 									"/>
									<line class="st13" x1="679.6" y1="461" x2="683.4" y2="425.9"/>
									<polyline class="st13" points="680.3,516.3 704.1,489.6 684.2,473.6 									"/>
									<line class="st13" x1="677.9" y1="477.7" x2="674.6" y2="512.2"/>
									<line class="st13" x1="632.6" y1="536.2" x2="673.3" y2="477"/>
									<line class="st13" x1="498.2" y1="671.1" x2="428.8" y2="625.6"/>
									<line class="st13" x1="622.5" y1="601.8" x2="620.8" y2="614.7"/>
									<line class="st13" x1="673.5" y1="612" x2="650.2" y2="572.8"/>
									<line class="st13" x1="514.5" y1="618.3" x2="510.5" y2="643.1"/>
									<line class="st13" x1="543.7" y1="598" x2="612.3" y2="619.2"/>
									<line class="st13" x1="548.1" y1="674.2" x2="523.8" y2="604.4"/>
									<line class="st13" x1="548.1" y1="674.2" x2="510.5" y2="643.1"/>
									<polyline class="st13" points="500.3,669.1 469.7,609 510.5,643.1 504.4,668.6 									"/>
									<line class="st13" x1="508.8" y1="674.2" x2="548.1" y2="674.2"/>
									<line class="st13" x1="539" y1="714.3" x2="506.8" y2="678.5"/>
									<line class="st13" x1="548.1" y1="674.2" x2="612.2" y2="627.1"/>
									<line class="st13" x1="627.9" y1="620.1" x2="673.5" y2="612"/>
									<line class="st13" x1="613.6" y1="629" x2="584" y2="664.6"/>
									<line class="st13" x1="648.7" y1="655.9" x2="626.1" y2="629"/>
									<polyline class="st13" points="584,664.6 548.1,674.2 544.3,712.4 									"/>
									<line class="st13" x1="584" y1="664.6" x2="648.7" y2="655.9"/>
									<polyline class="st13" points="606.6,695 584,664.6 547.9,713.6 									"/>
									<line class="st13" x1="437.5" y1="781.3" x2="399.4" y2="768"/>
									<polyline class="st13" points="445.2,801 437.5,781.3 466.6,791.3 									"/>
									<line class="st13" x1="466.6" y1="791.3" x2="505.3" y2="792.5"/>
									<polyline class="st13" points="483.4,803.7 466.6,791.3 445.2,801 									"/>
									<line class="st13" x1="483.4" y1="803.7" x2="445.2" y2="801"/>
									<line class="st13" x1="483.4" y1="803.7" x2="500.6" y2="819.9"/>
									<polyline class="st13" points="510.5,809 483.4,803.7 504.9,795.6 									"/>
									<line class="st13" x1="518.9" y1="772.1" x2="540.7" y2="725.7"/>
									<line class="st13" x1="550.5" y1="716.8" x2="606.6" y2="695"/>
									<line class="st13" x1="561.4" y1="735.7" x2="549" y2="724.4"/>
									<line class="st13" x1="518.9" y1="772.1" x2="561.4" y2="735.7"/>
									<line class="st13" x1="518.9" y1="772.1" x2="513.9" y2="788.1"/>
									<polyline class="st13" points="531.8,799 518.9,772.1 546.1,784.8 									"/>
									<line class="st13" x1="511.3" y1="801.8" x2="510.5" y2="809"/>
									<line class="st13" x1="531.8" y1="799" x2="518.9" y2="794.8"/>
									<line class="st13" x1="510.5" y1="809" x2="500.6" y2="819.9"/>
									<line class="st13" x1="510.5" y1="809" x2="531.8" y2="799"/>
									<polyline class="st13" points="525,811.8 510.5,809 511.5,818.5 									"/>
									<line class="st13" x1="525" y1="811.8" x2="531.8" y2="799"/>
									<polyline class="st13" points="553.9,804.8 531.8,799 546.1,784.8 									"/>
									<line class="st13" x1="546.1" y1="784.8" x2="561.4" y2="735.7"/>
									<line class="st13" x1="561.4" y1="735.7" x2="606.6" y2="695"/>
									<polyline class="st13" points="593.7,735.7 561.4,735.7 571.6,756.8 									"/>
									<polyline class="st13" points="580.8,768.4 546.1,784.8 571.6,756.8 									"/>
									<polyline class="st13" points="580.8,768.4 571.6,756.8 595,739.5 									"/>
									<line class="st13" x1="606.6" y1="695" x2="601.1" y2="729.4"/>
									<polyline class="st13" points="640.1,695.8 606.6,695 648.7,655.9 									"/>
									<line class="st13" x1="700.6" y1="530.4" x2="704.1" y2="489.6"/>
									<line class="st13" x1="688.4" y1="574.5" x2="673.5" y2="612"/>
									<line class="st13" x1="713.1" y1="574.5" x2="673.5" y2="612"/>
									<polyline class="st13" points="683,636.7 673.5,612 648.7,655.9 									"/>
									<line class="st13" x1="686" y1="636.9" x2="715.5" y2="576.4"/>
									<line class="st13" x1="687.1" y1="642.7" x2="702.8" y2="656.7"/>
									<line class="st13" x1="648.7" y1="655.9" x2="648.7" y2="687.4"/>
									<polyline class="st13" points="681,641.7 648.7,655.9 681.6,704.5 684.2,643.9 									"/>
									<line class="st13" x1="642.1" y1="701.5" x2="605.1" y2="731.6"/>
									<line class="st13" x1="596.9" y1="741.2" x2="580.8" y2="768.4"/>
									<polyline class="st13" points="612.4,770.8 580.8,768.4 579.6,784.2 									"/>
									<polyline class="st13" points="579.6,784.2 546.1,784.8 553.9,804.8 									"/>
									<line class="st13" x1="553.9" y1="804.8" x2="525" y2="811.8"/>
									<polyline class="st13" points="562.9,813.7 525,811.8 511.5,818.5 									"/>
									<line class="st13" x1="553.9" y1="804.8" x2="579.6" y2="784.2"/>
									<polyline class="st13" points="584.2,795.7 553.9,804.8 562.9,813.7 									"/>
									<polyline class="st13" points="606.6,735.6 654.6,734.7 655.7,734.7 636.8,754.6 									"/>
									<polyline class="st13" points="657,698.2 681.6,704.5 655.7,734.7 655.5,733.7 650.3,704.4 									"/>
									<line class="st13" x1="681.6" y1="704.5" x2="704.5" y2="669.6"/>
									<polyline class="st13" points="673.5,739.4 681.6,704.5 655.5,733.7 654.6,734.7 636.8,754.6 									"/>
									<line class="st13" x1="602.2" y1="741.8" x2="612.4" y2="770.8"/>
									<line class="st13" x1="636.8" y1="754.6" x2="605.9" y2="738.7"/>
									<polyline class="st13" points="584.8,790.4 579.6,784.2 612.4,770.8 									"/>
									<line class="st13" x1="636.8" y1="754.6" x2="673.5" y2="739.4"/>
									<line class="st13" x1="636.8" y1="754.6" x2="648.7" y2="763.4"/>
									<polyline class="st13" points="625.7,787.2 636.8,754.6 612.4,770.8 									"/>
									<polyline class="st13" points="592.1,790.8 612.4,770.8 625.7,787.2 									"/>
									<line class="st13" x1="585" y1="796.9" x2="562.9" y2="813.7"/>
									<line class="st13" x1="625.7" y1="787.2" x2="593" y2="793.5"/>
									<line class="st14" x1="710.1" y1="653.9" x2="718.4" y2="576.7"/>
									<polyline class="st14" points="398.5,769.9 445.2,801 500.6,819.9 511.5,818.5 562.9,813.7 625.7,787.2 648.7,763.4 
										673.5,739.4 705.6,670.2 									"/>
									<polyline class="st14" points="328,564.8 325.9,598.7 341.1,690.3 386.5,758 									"/>
									<polyline class="st14" points="552.7,272 493.4,269.1 427.9,307.3 385.8,366.4 357.7,417.3 346.1,444.5 336.1,493.5 
										330.6,524.4 									"/>
									<polyline class="st14" points="714.2,541.8 704.1,489.6 683.4,425.9 655.9,368.7 655.9,368.7 655.9,368.6 655.9,368.6 
										655.9,368.6 655.9,368.5 654.8,366.4 648.7,354.1 624,323.1 605.6,300.9 563,275.1 									"/>
									<polyline class="st13" points="348,578.9 340.3,554.5 330.6,524.4 									"/>
									<line class="st13" x1="357.2" y1="579.6" x2="361.4" y2="550.6"/>
									<line class="st13" x1="409.2" y1="555.3" x2="422.6" y2="567.5"/>
									<line class="st13" x1="420.2" y1="617" x2="376.9" y2="535.7"/>
									<line class="st13" x1="422.6" y1="567.5" x2="422.3" y2="545.3"/>
									<line class="st13" x1="422.6" y1="616.5" x2="422.6" y2="567.5"/>
									<polyline class="st13" points="469.7,609 422.6,567.5 436.8,557.5 									"/>
									<line class="st13" x1="472.1" y1="547.4" x2="472.1" y2="547.4"/>
									<line class="st13" x1="469.7" y1="609" x2="472.1" y2="547.5"/>
									<line class="st13" x1="515" y1="585.5" x2="486.6" y2="550"/>
									<line class="st13" x1="519.6" y1="584.1" x2="521.8" y2="564.6"/>
									<polyline class="st13" points="699.2,547.4 673.5,524 633.3,539 									"/>
									<line class="st13" x1="680.3" y1="516.3" x2="673.5" y2="524"/>
									<polyline class="st13" points="674.6,512.2 673.5,524 633.3,539.1 									"/>
									<line class="st13" x1="495.6" y1="599.3" x2="513" y2="592.7"/>
									<line class="st13" x1="524.7" y1="587.8" x2="540.2" y2="580.9"/>
									<polyline class="st13" points="540.2,580.9 588.3,559.1 627.5,541.5 									"/>
									<line class="st13" x1="633" y1="540.2" x2="699.2" y2="547.4"/>
									<line class="st13" x1="631.7" y1="541.6" x2="645.1" y2="564.1"/>
									<polyline class="st13" points="622.5,601.8 630.4,542.4 630.4,542.2 									"/>
									<line class="st13" x1="514.5" y1="618.3" x2="517.9" y2="596.7"/>
									<line class="st13" x1="525" y1="592.3" x2="543.6" y2="598"/>
									<line class="st13" x1="699.2" y1="547.4" x2="700.6" y2="530.4"/>
									<line class="st13" x1="688.4" y1="574.5" x2="699.2" y2="547.4"/>
									<line class="st13" x1="699.2" y1="547.4" x2="714.2" y2="541.8"/>
									<polyline class="st14" points="633.4,538.3 674.6,512.2 680.3,516.3 700.6,530.4 714.2,541.8 718.5,564.7 									"/>
									<polyline class="st14" points="522.1,564.8 588.3,559.1 607,528.1 626.1,537.7 									"/>
									<polyline class="st14" points="447.5,552.8 472,547.4 472.1,547.4 486.6,549.9 486.6,549.9 521.8,564.6 									"/>
									<polyline class="st14" points="328,564.8 330.6,524.4 361.4,550.5 361.4,550.6 361.5,550.6 376.9,535.6 409.2,555.3 
										422.3,545.3 422.3,545.3 436.4,551.7 									"/>
									<line class="st14" x1="346.5" y1="581.2" x2="328" y2="564.8"/>
									<polyline class="st14" points="357.2,579.6 357.2,579.7 355.7,580.6 									"/>
									<line class="st14" x1="418" y1="618.5" x2="357.2" y2="579.6"/>
									<polyline class="st14" points="643.7,572.4 622.5,601.8 540.2,580.9 543.7,598 543.6,598 523.8,604.4 523.6,604.4 
										514.5,618.3 495.6,599.3 469.7,609 428.4,619.9 									"/>
									<polyline class="st14" points="711.8,570.1 688.8,574.6 688.4,574.5 652.1,568.4 									"/>
									<polyline class="st13" points="523.4,585.9 536.9,572.2 522.1,564.8 521.8,564.6 									"/>
									<polyline class="st13" points="376.9,535.7 412.5,573.8 422.6,567.5 456,580.7 472,547.4 472.1,547.4 472.1,547.5 
										486.6,579.6 512.9,588.4 									"/>
									<polyline class="st13" points="357.2,579.6 357.2,579.6 376.9,535.7 									"/>
									<polyline class="st13" points="361.4,550.5 341.1,554.3 357.2,579.6 									"/>
									<polyline class="st13" points="486.6,549.9 486.6,550 486.6,579.6 469.7,609 456,580.7 									"/>
									<line class="st13" x1="588.3" y1="559.1" x2="536.9" y2="572.2"/>
									<polyline class="st13" points="622.5,601.8 605.6,568.8 540.2,580.9 									"/>
									<line class="st13" x1="629.7" y1="542.2" x2="605.6" y2="568.8"/>
									<line class="st13" x1="651.2" y1="565.9" x2="699.2" y2="547.4"/>
									<polyline class="st13" points="418.7,617.8 378.9,580.7 376.9,535.7 376.9,535.6 									"/>
									<line class="st13" x1="412.5" y1="573.8" x2="421.6" y2="616.7"/>
									<polyline class="st13" points="357.2,579.6 357.2,579.6 378.9,580.7 									"/>
								</g>
							</g>
						</g>
					</g>
				</g>
				<g>
					<circle cx="776.1" cy="731.8" r="5.2"/>
					<circle cx="802.1" cy="660.7" r="6.9"/>
					<circle cx="825.1" cy="788.9" r="8.6"/>
					<circle cx="566.3" cy="817.2" r="8.6"/>
					<circle cx="433.5" cy="929.6" r="4.8"/>
					<circle cx="354" cy="829.6" r="8.6"/>
					<circle cx="298.8" cy="605.9" r="8.6"/>
					<circle cx="254.3" cy="835.5" r="4.9"/>
					<circle cx="248.3" cy="763.3" r="5.5"/>
					<circle cx="279.3" cy="680" r="5.7"/>
					<circle cx="268.4" cy="535.1" r="4.2"/>
					<circle cx="147.7" cy="643" r="4.4"/>
					<circle cx="129.4" cy="769" r="5.6"/>
					<circle cx="159.1" cy="821.9" r="5.6"/>
					<circle cx="186.6" cy="900.2" r="5.4"/>
					<circle cx="288.8" cy="957.8" r="8.6"/>
					<circle cx="523.9" cy="951" r="4.4"/>
					<circle cx="654.1" cy="977.8" r="8.6"/>
					<circle cx="461.4" cy="993.4" r="8.6"/>
					<circle cx="644.2" cy="915.9" r="6.1"/>
					<circle cx="731.7" cy="842.5" r="4.2"/>
					<circle cx="798.6" cy="910.8" r="8.6"/>
					<circle cx="886.7" cy="818.5" r="8.6"/>
					<circle cx="918.8" cy="695" r="8.6"/>
					<circle cx="771.7" cy="604.1" r="5"/>
					<circle cx="761.3" cy="534" r="6"/>
					<circle cx="695.4" cy="715.3" r="8.6"/>
				</g>
			</g>
		</g>
	</g>
</g>
</svg>
