<?xml version="1.0" encoding="utf-8"?>
<!-- Generator: Adobe Illustrator 23.0.1, SVG Export Plug-In . SVG Version: 6.00 Build 0)  -->
<svg version="1.1" id="Layer_1" xmlns="http://www.w3.org/2000/svg" xmlns:xlink="http://www.w3.org/1999/xlink" x="0px" y="0px"
	 viewBox="0 0 1226 1077.7" style="enable-background:new 0 0 1226 1077.7;" xml:space="preserve">
<style type="text/css">
	.st0{fill:#13365D;}
	.st1{fill:#0061FF;}
	.st2{fill:#F5F5F5;}
	.st3{clip-path:url(#SVGID_2_);}
	.st4{fill:#8BAFFD;}
	.st5{fill:#D5E2FD;}
	.st6{fill:#575757;}
	.st7{fill:#B1B1B1;}
	.st8{fill:#DBDBDB;}
	.st9{fill:none;stroke:#000000;stroke-width:2.1743;stroke-linecap:round;stroke-linejoin:round;stroke-miterlimit:10;}
	.st10{fill:none;stroke:#000000;stroke-width:3.6239;stroke-linecap:round;stroke-linejoin:round;stroke-miterlimit:10;}
	.st11{fill:none;stroke:#000000;stroke-width:2.1752;stroke-linecap:round;stroke-linejoin:round;stroke-miterlimit:10;}
	.st12{fill:none;stroke:#005EFD;stroke-width:3.6239;stroke-linecap:round;stroke-linejoin:round;stroke-miterlimit:10;}
	.st13{fill:none;stroke:#005EFD;stroke-width:2.1743;stroke-linecap:round;stroke-linejoin:round;stroke-miterlimit:10;}
	.st14{fill:#005EFD;}
</style>
<title>Asset 1</title>
<g id="Layer_2_1_">
	<g id="Layer_1-2">
		<path class="st0" d="M517.4,1064.7c-16.1-0.3-32.4-1.4-48.3-3.2c-3.6-0.4-6.8,2.2-7.2,5.8c-0.4,3.6,2.2,6.8,5.8,7.2l0,0
			c16.3,1.8,33,2.9,49.5,3.3h0.2c3.6,0,6.6-2.9,6.6-6.5S521,1064.7,517.4,1064.7L517.4,1064.7z"/>
		<path class="st0" d="M613.9,1057.8c-15.8,2.6-32,4.5-48.1,5.7c-3.6,0.3-6.3,3.4-6,7c0.3,3.4,3.1,6,6.5,6c0.2,0,0.3,0,0.5,0
			c16.5-1.2,33-3.1,49.3-5.8c3.6-0.6,6-3.9,5.4-7.5S617.4,1057.2,613.9,1057.8L613.9,1057.8L613.9,1057.8z"/>
		<path class="st0" d="M243.2,980.5c-13.5-8.8-26.7-18.3-39.3-28.2c-2.7-2.3-6.9-2-9.2,0.7s-2,6.9,0.7,9.2c0.1,0.1,0.3,0.2,0.4,0.3
			c12.9,10.2,26.5,20,40.3,29c3,2,7.1,1.1,9.1-1.9S246.3,982.5,243.2,980.5L243.2,980.5L243.2,980.5z"/>
		<path class="st0" d="M328.8,1025.5c-14.9-6.1-29.6-13-43.9-20.5c-3.3-1.6-7.2-0.2-8.7,3.1c-1.5,3.1-0.3,6.8,2.6,8.5
			c14.6,7.7,29.7,14.8,45,21c0.8,0.3,1.6,0.5,2.5,0.5c3.6,0,6.5-3,6.5-6.6C332.8,1028.8,331.3,1026.5,328.8,1025.5L328.8,1025.5z"/>
		<path class="st0" d="M36.1,719.7c-1.2-3.4-5-5.2-8.4-3.9s-5.2,5-3.9,8.4c5.6,15.5,12,30.9,19,45.8c1.5,3.3,5.4,4.7,8.7,3.1
			c0,0,0,0,0.1,0c3.3-1.5,4.7-5.4,3.1-8.7l0,0C47.8,749.8,41.5,734.8,36.1,719.7z"/>
		<path class="st0" d="M77.3,807.1c-1.8-3.1-5.9-4.1-9-2.3s-4.1,5.9-2.3,9l0,0c8.4,14.2,17.5,28.1,27.2,41.5
			c2.1,2.9,6.2,3.6,9.1,1.5s3.6-6.2,1.5-9.1C94.3,834.6,85.4,821,77.3,807.1z"/>
		<path class="st0" d="M133.9,885.5c-2.4-2.7-6.6-2.8-9.2-0.4c-2.6,2.4-2.8,6.3-0.6,9c10.8,12.4,22.4,24.5,34.3,35.8
			c2.8,2.3,6.9,2,9.2-0.8c2.1-2.5,2-6.3-0.2-8.7C155.7,909.4,144.4,897.6,133.9,885.5z"/>
		<path class="st0" d="M421.3,1053.9c-15.8-3.3-31.5-7.3-46.9-12c-3.5-1-7.1,1-8.1,4.5c-1,3.4,0.9,7,4.3,8.1
			c15.8,4.8,32,9,48.1,12.3c0.4,0.1,0.9,0.1,1.3,0.1c3.6,0,6.5-2.9,6.5-6.6C426.5,1057.2,424.3,1054.5,421.3,1053.9L421.3,1053.9z"
			/>
		<path class="st0" d="M1036.9,689.8c-3.5-1-7.1,0.9-8.2,4.4c-4.7,15.4-10.1,30.7-16.2,45.6c-1.4,3.3,0.2,7.1,3.5,8.5l0,0
			c0.8,0.3,1.6,0.5,2.5,0.5c2.7,0,5.1-1.6,6.1-4.1c6.2-15.3,11.8-31,16.6-46.8C1042.3,694.5,1040.3,690.8,1036.9,689.8z"/>
		<path class="st0" d="M1001,780.9c-3.2-1.7-7.1-0.4-8.8,2.8c-2.4,4.5-4.8,9.1-7.3,13.6l-5.9,9.6c-3.7,6.2-7.5,12.4-11.4,18.5
			c-2,3-1.1,7.1,2,9s7.1,1.1,9-2l0,0c4-6.2,8-12.6,11.6-18.8l5.9-9.6l0.1-0.2c2.6-4.6,5.1-9.3,7.6-14
			C1005.5,786.6,1004.2,782.6,1001,780.9L1001,780.9z"/>
		<path class="st0" d="M1055.2,593.5c-3.6-0.4-6.8,2.2-7.2,5.8c-1.7,16-4.2,32.1-7.4,47.8c-0.7,3.5,1.6,7,5.1,7.7
			c0.4,0.1,0.9,0.1,1.3,0.1c3.1,0,5.8-2.2,6.4-5.2c3.3-16.1,5.8-32.6,7.6-49C1061.4,597.2,1058.8,594,1055.2,593.5L1055.2,593.5z"/>
		<path class="st0" d="M707.3,1033.2c-15.1,5.5-30.6,10.4-46.2,14.4c-3.5,0.9-5.6,4.5-4.6,8c0.8,2.9,3.3,4.8,6.3,4.9
			c0.6,0,1.1-0.1,1.7-0.2c15.9-4.2,31.9-9.2,47.3-14.8c3.4-1.2,5.2-4.9,4-8.3s-4.9-5.2-8.3-4
			C707.5,1033.2,707.4,1033.2,707.3,1033.2L707.3,1033.2z"/>
		<path class="st0" d="M948.6,863.7c-2.8-2.2-6.9-1.8-9.2,1.1l0,0c-9.9,12.7-20.6,25-31.6,36.7c-2.5,2.6-2.4,6.8,0.3,9.3
			s6.8,2.4,9.3-0.3c11.3-12,22.2-24.6,32.4-37.6C951.9,870,951.5,865.9,948.6,863.7L948.6,863.7z"/>
		<path class="st0" d="M794.7,991.8c-13.8,8.2-28.2,15.9-42.7,22.8c-3.3,1.5-4.6,5.4-3.1,8.7c1.1,2.3,3.4,3.7,5.9,3.7
			c1,0,1.9-0.2,2.8-0.6c14.9-7.1,29.6-14.9,43.8-23.3c3.1-1.8,4.1-5.9,2.3-9C801.8,991,797.8,989.9,794.7,991.8z"/>
		<path class="st0" d="M872.9,935c-12.1,10.6-24.8,20.8-37.8,30.2c-2.9,2.1-3.6,6.2-1.5,9.1c2.1,2.9,6.2,3.6,9.1,1.5
			c0,0,0.1,0,0.1-0.1c13.3-9.7,26.4-20.1,38.8-31c2.7-2.4,3-6.5,0.6-9.2C879.8,932.9,875.6,932.6,872.9,935L872.9,935z"/>
		<path class="st1" d="M1226,542.6l-122.6-120.1v107.7h-33.7c-1.8-90.1-26.2-178.4-71-256.6c-0.2-0.7-0.5-1.4-0.9-2
			C848.9,12.3,517.9-77.3,258.6,71.7c-24.3,14-47.5,29.8-69.4,47.3C95,194.6,28,300.6,0.6,417.5c-1,4.2,0.3,8.5,3.3,11.5
			l113.8,112.1L3.7,653.4c-4.8,4.7-4.9,12.5-0.1,17.3s12.5,4.9,17.3,0.1l123-121c4.8-4.7,4.9-12.5,0.1-17.3l-0.1-0.1l-117.8-116
			C83.2,186.6,286.7,26.3,524.2,24.6c1.2,0.4,2.6,0.6,3.9,0.6c285.2,0,517.3,232,517.3,517.3c0,6.8,5.5,12.3,12.2,12.3l0,0h45.8v108
			L1226,542.6z"/>
		<path class="st2" d="M524.8,77.6c-213.5,0-393.4,143.6-448.5,339.5l133,126.4l-133.9,123c54,197.6,234.7,342.8,449.4,342.8
			c257.3,0,465.8-208.5,465.8-465.8S782.1,77.6,524.8,77.6z"/>
	</g>
</g>
<g>
	<g>
		<g>
			<defs>
				<path id="SVGID_1_" d="M526.1,75.6c-213.5,0-393.4,143.6-448.5,339.5l133,126.4l-133.9,123c54,197.6,234.7,342.8,449.4,342.8
					c257.3,0,465.8-208.5,465.8-465.8S783.4,75.6,526.1,75.6z"/>
			</defs>
			<clipPath id="SVGID_2_">
				<use xlink:href="#SVGID_1_"  style="overflow:visible;"/>
			</clipPath>
			<g class="st3">
				<g>
					<g>
						<g>
							<g id="XMLID_13_">
								<g>
									<polygon class="st4" points="740.9,598.2 714.9,639 714.7,602.2 									"/>
									<polygon class="st5" points="702.7,549.8 737.9,478.3 745.2,523.2 									"/>
									<polygon class="st5" points="737.9,478.3 702.7,549.8 672.5,409.3 681.8,413.9 711.4,433.5 									"/>
									<polygon class="st4" points="655.6,575.7 617.6,566.3 702.7,549.8 704.9,583.5 									"/>
									<polygon class="st4" points="672.5,409.3 634.7,512.8 628,386.9 									"/>
									<polygon class="st4" points="601,439.2 619,426.2 623.4,439 									"/>
									<polygon class="st6" points="617.6,566.3 616.4,634.3 609.5,637.1 582.9,594.5 									"/>
									<polygon class="st4" points="601,439.2 564.4,401.4 628,386.9 									"/>
									<polygon class="st5" points="601,439.2 577.5,449.3 577.4,441.1 									"/>
									<polygon class="st7" points="603.6,989.6 563.5,919.4 593.6,895.1 									"/>
									<polygon class="st6" points="580.8,665.1 609.5,637.1 600.1,675.7 									"/>
									<polygon class="st4" points="617.6,566.3 582.9,594.5 576.3,560.3 									"/>
									<polygon class="st4" points="576.3,560.3 597.7,543.6 617.6,566.3 									"/>
									<polygon class="st7" points="580.8,665.1 576.3,722.4 560.2,713.4 									"/>
									<polygon class="st6" points="579.2,749.7 568.2,795.2 564.6,733.7 									"/>
									<path class="st7" d="M568.2,795.2l41.1,55.4c0,0-31.3,0.5-32.1,1.3L568.2,795.2z"/>
									<path class="st6" d="M563.5,919.4l3.8-18.5l9.8-48.6c0.2,3.5,8.3,33,8.3,33l8.2,9.8L563.5,919.4z"/>
									<polygon class="st7" points="549.3,866.7 568.2,795.2 577.2,851.9 									"/>
									<path class="st7" d="M567.3,901l-18-34.3l27.9-14.7c0,0-0.1,0.2-0.1,0.4L567.3,901z"/>
									<polygon class="st7" points="549.3,646.4 582.9,594.5 609.5,637.1 580.8,665.1 									"/>
									<polygon class="st7" points="580.8,665.1 560.2,713.4 549.3,646.4 									"/>
									<polygon class="st7" points="500.1,383.7 569.6,290.9 606.8,306.4 611.2,325.5 635.9,378.2 628,386.9 564.4,401.4 
																			"/>
									<polygon class="st8" points="549.3,866.7 501,800.9 568.2,795.2 									"/>
									<polygon class="st6" points="560.4,939.8 536.1,901.2 567.3,901 563.5,919.4 									"/>
									<polygon class="st5" points="519.6,560.7 544.8,521.1 597.7,543.6 576.3,560.3 									"/>
									<polygon class="st7" points="536.1,901.2 549.3,866.7 567.3,901 									"/>
									<polygon class="st7" points="522.2,875.7 549.3,866.7 536.1,901.2 									"/>
									<polygon class="st6" points="515.2,900 536.1,901.2 530.5,940 									"/>
									<polygon class="st8" points="522.2,875.7 501,800.9 549.3,866.7 									"/>
									<polygon class="st7" points="515.2,900 522.2,875.7 536.1,901.2 									"/>
									<polygon class="st7" points="569.6,290.9 455.7,276.7 553.8,266.7 									"/>
									<polygon class="st7" points="553.8,266.7 455.7,276.7 497.2,245 505.8,235.6 									"/>
									<polygon class="st7" points="515.2,900 479,879.9 522.2,875.7 									"/>
									<polygon class="st6" points="510.1,977.9 479,879.9 515.2,900 									"/>
									<polygon class="st8" points="582.9,594.5 462.9,565.8 519.6,560.7 576.3,560.3 									"/>
									<polygon class="st8" points="479,879.9 501,800.9 522.2,875.7 									"/>
									<polygon class="st8" points="549.3,646.4 462.9,565.8 582.9,594.5 									"/>
									<polygon class="st8" points="468.5,453.4 500.1,383.7 564.4,401.4 									"/>
									<polygon class="st6" points="455.7,276.7 449.3,220.3 497.2,245 									"/>
									<polygon class="st8" points="479,879.9 432.7,809.8 501,800.9 									"/>
									<polygon class="st4" points="564.4,401.4 483.3,498.8 468.5,453.4 									"/>
									<polygon class="st7" points="564.6,733.7 462.9,565.8 549.3,646.4 560.2,713.4 									"/>
									<polygon class="st6" points="462.9,565.8 564.6,733.7 568.2,795.2 									"/>
									<polygon class="st8" points="568.2,795.2 425.6,598.8 462.9,565.8 									"/>
									<polygon class="st7" points="497.2,245 449.3,220.3 454.8,207.5 									"/>
									<polygon class="st4" points="445.2,562.3 470.6,524 519.6,560.7 462.9,565.8 									"/>
									<polygon class="st5" points="483.3,498.8 437.8,499.1 457,470.5 468.5,453.4 									"/>
									<polygon class="st8" points="434.7,435.4 500.1,383.7 468.5,453.4 457,470.5 									"/>
									<polygon class="st7" points="440.3,416.4 420.4,392.5 433.5,377.1 459.9,405.6 									"/>
									<polygon class="st7" points="425.6,434.4 440.3,416.4 459.9,405.6 500.1,383.7 434.7,435.4 									"/>
									<polygon class="st8" points="425,221.3 421.3,202.8 449.3,220.3 455.7,276.7 									"/>
									<polygon class="st6" points="416,575.2 462.9,565.8 425.6,598.8 									"/>
									<path class="st6" d="M436.1,868.7c0,0.8-25-22.4-25-22.4l21.7-36.5C432.7,809.8,436.1,867.9,436.1,868.7z"/>
									<polygon class="st7" points="457,470.5 406,470.4 434.7,435.4 									"/>
									<polygon class="st8" points="455.7,276.7 382.8,288.1 425,221.3 									"/>
									<polygon class="st7" points="410.1,438.6 396.4,427.7 424.4,421.3 									"/>
									<polygon class="st4" points="437.8,499.1 406,470.4 457,470.5 									"/>
									<polygon class="st7" points="401.4,417.7 419.5,402.4 424.4,421.3 									"/>
									<polygon class="st5" points="445.2,562.3 368.9,524.7 439.1,524.3 470.6,524 									"/>
									<polygon class="st4" points="437.8,499.1 381.1,499.5 406,470.4 									"/>
									<path class="st6" d="M401,937.9c0,0-51.3-90-52.4-90l62.4-1.6L401,937.9z"/>
									<polygon class="st7" points="424.4,421.3 396.4,427.7 401.4,417.7 									"/>
									<polygon class="st7" points="406,470.4 381.1,499.5 397.4,463.6 									"/>
									<polygon class="st7" points="383.6,402.6 405,382.3 399.7,407.1 									"/>
									<polygon class="st6" points="425.6,598.8 344.4,545.3 416,575.2 									"/>
									<polygon class="st8" points="382.8,288.1 380.6,207.2 425,221.3 									"/>
									<polygon class="st6" points="382.8,288.1 320.9,222 380.6,207.2 									"/>
									<polygon class="st5" points="368.9,524.7 381.1,499.5 439.1,524.3 									"/>
									<polygon class="st7" points="453.6,746.3 344.4,545.3 568.2,795.2 									"/>
									<polygon class="st6" points="386,429.9 377.6,427.8 372.9,412.8 383.6,402.6 399.7,407.1 401.4,417.7 396.4,427.7 
																			"/>
									<polygon class="st7" points="383.6,402.6 372.9,412.8 376,379.4 									"/>
									<polygon class="st7" points="370.2,447.1 377.6,427.8 393.3,448.8 									"/>
									<polygon class="st7" points="370.2,447.1 347.5,419.8 377.6,427.8 									"/>
									<polygon class="st4" points="350.6,514.7 381.1,499.5 368.9,524.7 									"/>
									<polygon class="st6" points="370.4,484.9 364.2,463.8 389.3,456.6 397.4,463.6 381.1,499.5 									"/>
									<polygon class="st6" points="343.9,475.2 364.2,463.8 370.4,484.9 									"/>
									<polygon class="st6" points="350.6,514.7 343.9,475.2 370.4,484.9 									"/>
									<polygon class="st7" points="317.3,412.1 338.5,364.4 390.3,369.9 392.7,370.1 392.7,370.2 376,379.4 375.9,379.4 
																			"/>
									<polygon class="st7" points="364.2,463.8 343.9,475.2 339.1,451.6 									"/>
									<polygon class="st7" points="348.6,847.9 325.3,855.8 386.5,746.7 411,846.3 									"/>
									<polygon class="st7" points="339.1,451.6 317.3,412.1 375.9,379.4 354.8,399.8 347.5,419.8 									"/>
									<path class="st7" d="M348.5,848.1c-1,2.7-0.3,41.3-0.3,41.3l-17.9-9.2L348.5,848.1z"/>
									<path class="st6" d="M330.3,880.2l-58.2-8.9l53.2-15.5l23.4-7.9c0,0-0.1,0.1-0.1,0.2L330.3,880.2z"/>
									<polygon class="st7" points="328.4,951.6 272.1,871.3 330.3,880.2 									"/>
									<polygon class="st7" points="317.3,412.1 339.1,451.6 296.7,441.9 									"/>
									<polygon class="st7" points="343.9,475.2 296.7,441.9 339.1,451.6 									"/>
									<polygon class="st7" points="382.8,288.1 254.5,223.8 320.9,222 									"/>
									<polygon class="st7" points="338.2,325.3 220.8,300.4 382.8,288.1 									"/>
									<polygon class="st7" points="254.5,223.8 382.8,288.1 295.5,270.6 248.1,233.1 									"/>
									<polygon class="st8" points="186.3,476.2 207.8,448.2 350.6,514.7 									"/>
									<polygon class="st7" points="250.2,969.3 206.6,894.1 272.1,871.3 									"/>
									<polygon class="st6" points="250.2,969.3 247,1013.2 226.8,977.6 									"/>
									<polygon class="st8" points="344.4,545.3 186.3,476.2 350.6,514.7 									"/>
									<polygon class="st8" points="350.6,514.7 207.8,448.2 343.9,475.2 									"/>
									<polygon class="st7" points="295.5,270.6 220.8,300.4 220.7,300.4 209.8,266.9 248.1,233.1 									"/>
									<polygon class="st7" points="206.6,894.1 250.2,969.3 226.8,977.6 									"/>
									<polygon class="st7" points="217.8,1020.8 206.6,894.1 226.8,977.6 									"/>
									<polygon class="st6" points="206.6,894.1 217.8,1020.8 199.3,987.4 									"/>
									<polygon class="st8" points="338.2,325.3 193.6,406.6 177.2,360.1 									"/>
									<polygon class="st8" points="206.6,894.1 156.2,666.3 272.1,871.3 									"/>
									<polygon class="st6" points="220.7,300.4 149.2,267.3 196.1,236.4 225.3,237.6 225.3,233.3 248.1,233.1 209.8,266.9 
																			"/>
									<polygon class="st7" points="177.2,360.1 165.4,321.2 149.2,267.3 220.7,300.4 									"/>
									<polygon class="st8" points="156.2,666.3 206.6,894.1 149.4,896.9 									"/>
									<polygon class="st6" points="199.3,987.4 149.4,896.9 206.6,894.1 									"/>
									<polygon class="st8" points="165.4,321.2 114.2,271.9 149.2,267.3 									"/>
									<polygon class="st8" points="156.2,666.3 149.4,896.9 136.6,911.9 									"/>
									<polygon class="st7" points="165.4,321.2 102.3,397.6 112.3,321.5 									"/>
									<polygon class="st8" points="186.3,476.2 102.5,429.7 102.3,397.6 									"/>
									<polygon class="st8" points="136.6,911.9 111.1,859.9 156.2,666.3 									"/>
									<polygon class="st8" points="165.4,321.2 112.3,321.5 114.3,289 114.2,271.9 									"/>
									<polygon class="st7" points="193.6,406.6 102.3,397.6 177.2,360.1 									"/>
									<polygon class="st7" points="136.6,911.9 149.5,922.1 123.1,938.8 111.1,859.9 									"/>
									<polygon class="st7" points="111.1,859.9 123.1,938.8 111.9,984.4 									"/>
									<polygon class="st7" points="97,939.2 111.1,859.9 111.9,984.4 103,955.6 									"/>
									<polygon class="st8" points="102.3,397.6 90.9,302.8 114.3,289 112.3,321.5 									"/>
									<polygon class="st7" points="97,939.2 103,955.6 70.8,988.7 									"/>
									<polygon class="st6" points="97,939.2 70.8,988.7 68.5,894 100.4,869.7 111.1,859.9 									"/>
									<polygon class="st8" points="102.3,397.6 66.7,322.2 59.5,303.7 90.9,302.8 									"/>
									<polygon class="st8" points="100.4,869.7 78.9,850.2 94.3,768.1 156.2,666.3 111.1,859.9 									"/>
									<polygon class="st7" points="102.5,429.7 75.9,415.9 102.3,397.6 									"/>
									<polygon class="st6" points="75.9,415.9 66.7,322.2 102.3,397.6 									"/>
									<polygon class="st7" points="66.7,322.2 75.9,415.9 35.7,386.8 									"/>
									<polygon class="st8" points="68.3,864.5 78.9,850.2 100.4,869.7 68.5,894 55.9,895.6 									"/>
									<polygon class="st8" points="36,877.9 55.9,895.6 39.2,925.8 									"/>
									<polygon class="st8" points="35.4,854.8 91.3,773 94.3,768.1 78.9,850.2 68.3,864.5 									"/>
									<polygon class="st7" points="55.9,895.6 36,877.9 68.3,864.5 									"/>
									<polygon class="st8" points="186.3,476.2 27.7,443.8 75.9,415.9 102.5,429.7 									"/>
									<polygon class="st7" points="75.9,415.9 27.7,443.8 19.3,378.9 35.7,386.8 									"/>
									<polygon class="st7" points="68.3,864.5 36,877.9 35.4,854.8 									"/>
									<polygon class="st6" points="35.4,854.8 -8.8,854.3 30.2,810.5 									"/>
									<polygon class="st6" points="-8.8,854.3 35.4,854.8 4,886.6 									"/>
									<polygon class="st8" points="35.4,854.8 36,877.9 5.3,926 4,886.6 									"/>
									<polygon class="st7" points="30.2,810.5 -8.8,854.3 -22.1,799.5 									"/>
									<polygon class="st7" points="27.7,443.8 -42,489.2 -44.3,460.6 									"/>
									<polygon class="st7" points="27.7,443.8 -44.3,460.6 -1.1,416.8 									"/>
									<polygon class="st6" points="19.3,378.9 0,369.7 66.7,322.2 35.7,386.8 									"/>
									<polygon class="st8" points="-26.7,536.2 156.2,666.3 -35.6,588.4 									"/>
									<polygon class="st8" points="194.5,534.7 -26.7,536.2 102.9,486.8 172.5,523.2 									"/>
									<polygon class="st8" points="156.2,666.3 -26.7,536.2 194.5,534.7 									"/>
									<polygon class="st8" points="-8.8,854.3 4,886.6 -18.4,910.1 									"/>
									<polygon class="st8" points="0.4,633.8 156.2,666.3 94.3,768.1 91.3,773 35.4,854.8 30.2,810.5 									"/>
									<polygon class="st8" points="0.4,633.8 30.2,810.5 -22.1,799.5 -27.8,799.5 									"/>
									<polygon class="st6" points="-18.4,406.2 19.3,378.9 27.7,443.8 -1.1,416.8 									"/>
									<polygon class="st7" points="0.4,633.8 -32.8,688.9 -52.6,720.5 -33.4,603.3 									"/>
									<polygon class="st7" points="0.4,633.8 -27.8,799.5 -32.8,688.9 									"/>
									<polygon class="st7" points="-22.1,799.5 -8.8,854.3 -29.3,880.2 									"/>
									<polygon class="st7" points="27.7,443.8 -53.8,544.9 -42,489.2 									"/>
									<polygon class="st7" points="102.9,486.8 -26.7,536.2 -53.8,544.9 27.7,443.8 									"/>
									<polygon class="st8" points="156.2,666.3 0.4,633.8 -33.4,603.3 -35.6,588.4 									"/>
									<polygon class="st7" points="-35.6,588.4 -33.4,603.3 -65.2,649.9 -44.9,591.3 									"/>
									<polygon class="st7" points="-35.6,588.4 -44.9,591.3 -65.6,581.5 -26.7,536.2 									"/>
									<polygon class="st6" points="-44.3,460.6 -42,489.2 -58.4,502.2 									"/>
								</g>
								<g>
									<polyline class="st9" points="338.5,364.4 283.8,378.1 338.2,325.3 500.1,383.7 468.5,453.4 564.4,401.4 500.1,383.7 
																			"/>
									<polyline class="st9" points="382.8,288.1 480.5,329.7 338.2,325.3 									"/>
									<polyline class="st9" points="220.8,300.4 338.2,325.3 382.8,288.1 220.8,300.4 									"/>
									<polygon class="st9" points="283.8,378.1 246.2,414.8 317.3,412.1 									"/>
									<polygon class="st9" points="177.2,360.1 220.7,300.4 149.2,267.3 165.4,321.2 									"/>
									<polyline class="st9" points="114.2,271.9 165.4,321.2 112.3,321.5 114.3,289 									"/>
									<polyline class="st9" points="165.4,321.2 102.3,397.6 177.2,360.1 									"/>
									<polyline class="st9" points="90.9,302.8 102.3,397.6 75.9,415.9 35.7,386.8 66.7,322.2 102.3,397.6 112.3,321.5 									
										"/>
									<polyline class="st9" points="66.7,322.2 75.9,415.9 27.7,443.8 19.3,378.9 35.7,386.8 									"/>
									<polyline class="st9" points="-1.1,416.8 27.7,443.8 -44.3,460.6 -42,489.2 27.7,443.8 -53.8,544.9 									"/>
									<polyline class="st9" points="-32.8,688.9 0.4,633.8 -33.4,603.3 -35.6,588.4 156.2,666.3 0.4,633.8 									"/>
									<polygon class="st9" points="-26.7,536.2 156.2,666.3 194.5,534.7 									"/>
									<polyline class="st9" points="-44.9,591.3 -35.6,588.4 -26.7,536.2 102.9,486.8 27.7,443.8 186.3,476.2 172.5,523.2 
																			"/>
									<polyline class="st9" points="75.9,415.9 102.5,429.7 102.3,397.6 186.3,476.2 102.5,429.7 									"/>
									<polygon class="st9" points="339.1,451.6 296.7,441.9 343.9,475.2 									"/>
									<polygon class="st9" points="370.4,484.9 364.2,463.8 343.9,475.2 									"/>
									<polygon class="st9" points="397.4,463.6 381.1,499.5 406,470.4 									"/>
									<polygon class="st9" points="457,470.5 434.7,435.4 406,470.4 									"/>
									<polygon class="st9" points="480.5,329.7 500.1,383.7 569.6,290.9 455.7,276.7 									"/>
									<line class="st9" x1="569.6" y1="290.9" x2="480.5" y2="329.7"/>
									<polyline class="st9" points="553.8,266.7 455.7,276.7 382.8,288.1 254.5,223.8 									"/>
									<polygon class="st9" points="248.1,233.1 209.8,266.9 220.7,300.4 220.8,300.4 295.5,270.6 									"/>
									<polyline class="st9" points="295.5,270.6 382.8,288.1 320.9,222 									"/>
									<polyline class="st9" points="380.6,207.2 382.8,288.1 425,221.3 455.7,276.7 449.3,220.3 497.2,245 455.7,276.7 									
										"/>
									<polyline class="st9" points="296.7,441.9 207.8,448.2 186.3,476.2 193.6,406.6 102.3,397.6 									"/>
									<polyline class="st9" points="102.9,486.8 172.5,523.2 194.5,534.7 279.5,592.7 186.3,476.2 344.4,545.3 297.8,611.9 
										279.5,592.7 									"/>
									<polyline class="st9" points="279.5,592.7 221.2,687.2 386.5,746.7 297.8,611.9 									"/>
									<polyline class="st9" points="194.5,534.7 221.2,687.2 156.2,666.3 272.1,871.3 325.3,855.8 156.2,666.3 									"/>
									<polyline class="st9" points="206.6,894.1 156.2,666.3 111.1,859.9 111.9,984.4 									"/>
									<polyline class="st9" points="123.1,938.8 111.1,859.9 136.6,911.9 156.2,666.3 149.4,896.9 206.6,894.1 217.8,1020.8 
																			"/>
									<polyline class="st9" points="156.2,666.3 94.3,768.1 91.3,773 35.4,854.8 36,877.9 55.9,895.6 68.3,864.5 36,877.9 
																			"/>
									<polygon class="st9" points="35.4,854.8 4,886.6 -8.8,854.3 									"/>
									<polyline class="st9" points="-27.8,799.5 0.4,633.8 30.2,810.5 -22.1,799.5 -8.8,854.3 30.2,810.5 35.4,854.8 68.3,864.5 
										78.9,850.2 94.3,768.1 									"/>
									<polyline class="st9" points="78.9,850.2 100.4,869.7 111.1,859.9 97,939.2 103,955.6 									"/>
									<line class="st9" x1="100.4" y1="869.7" x2="68.5" y2="894"/>
									<line class="st9" x1="97" y1="939.2" x2="70.8" y2="988.7"/>
									<line class="st9" x1="350.6" y1="514.7" x2="186.3" y2="476.2"/>
									<polyline class="st9" points="381.1,499.5 370.4,484.9 350.6,514.7 									"/>
									<polygon class="st9" points="350.6,514.7 207.8,448.2 343.9,475.2 									"/>
									<polyline class="st9" points="350.6,514.7 344.4,545.3 368.9,524.7 445.2,562.3 344.4,545.3 									"/>
									<polyline class="st9" points="348.6,847.9 325.3,855.8 386.5,746.7 453.6,746.3 344.4,545.3 386.5,746.7 									"/>
									<polyline class="st9" points="199.3,987.4 206.6,894.1 250.2,969.3 226.8,977.6 206.6,894.1 272.1,871.3 330.3,880.2 
										348.5,848.1 									"/>
									<polyline class="st9" points="580.8,665.1 549.3,646.4 560.2,713.4 580.8,665.1 609.5,637.1 582.9,594.5 462.9,565.8 
										416,575.2 344.4,545.3 568.2,795.2 453.6,746.3 432.7,809.8 411,846.3 									"/>
									<polyline class="st9" points="582.9,594.5 549.3,646.4 462.9,565.8 425.6,598.8 416,575.2 									"/>
									<polyline class="st9" points="348.6,847.9 411,846.3 386.5,746.7 									"/>
									<polyline class="st9" points="453.6,746.3 501,800.9 568.2,795.2 462.9,565.8 564.6,733.7 568.2,795.2 425.6,598.8 
										344.4,545.3 									"/>
									<polygon class="st9" points="577.2,851.9 568.2,795.2 549.3,866.7 									"/>
									<polyline class="st9" points="593.6,895.1 563.5,919.4 567.3,901 577.1,852.3 									"/>
									<polygon class="st9" points="549.3,866.7 522.2,875.7 536.1,901.2 567.3,901 									"/>
									<polyline class="st9" points="432.7,809.8 501,800.9 479,879.9 522.2,875.7 501,800.9 549.3,866.7 536.1,901.2 515.2,900 
																			"/>
									<polyline class="st9" points="479,879.9 515.2,900 522.2,875.7 									"/>
									<polyline class="st9" points="375.9,379.4 317.3,412.1 296.7,441.9 246.2,414.8 207.8,448.2 193.6,406.6 338.2,325.3 
										177.2,360.1 193.6,406.6 									"/>
									<polyline class="st9" points="433.5,377.1 420.4,392.5 405,382.3 392.7,370.2 376,379.4 									"/>
									<polygon class="st9" points="420.4,392.5 440.3,416.4 424.4,421.3 									"/>
									<polyline class="st9" points="347.5,419.8 339.1,451.6 370.2,447.1 364.2,463.8 									"/>
									<polyline class="st9" points="393.3,448.8 389.3,456.6 425.6,434.4 440.3,416.4 459.9,405.6 500.1,383.7 433.5,377.1 
										459.9,405.6 									"/>
									<line class="st9" x1="410.1" y1="438.6" x2="425.6" y2="434.4"/>
									<path class="st10" d="M628,386.9l7.8-8.6l-24.6-52.7l-4.4-19.2l-37.2-15.5l-15.9-24.2l-48-31.1l-8.5,9.3l-42.4-37.5
										l-5.6,12.8l-28-17.6l3.7,18.5l-44.4-14L320.9,222l-66.4,1.8l-6.4,9.3l-22.8,0.2v4.3l-29.3-1.2l-46.9,31l-35,4.5l0.1,17.2
										l-23.4,13.7l-31.4,0.9l7.2,18.5L0,369.7l19.3,9.1l-37.7,27.4l17.2,10.6l-43.2,43.8l-14.1,41.6l16.4-13l-11.8,55.7l27.1-8.7
										l-38.8,45.3l20.7,9.8l-20.3,58.6l31.8-46.6l-19.2,117.2l19.8-31.5l5,110.6h5.7l-7.3,80.7l20.5-25.9l-9.6,55.8L4,886.6
										L5.3,926L36,877.9l3.3,47.9L56,895.6l12.6-1.6l2.3,94.7l32.2-33.1l9,28.8l11.2-45.5l26.4-16.8l-12.9-10.2l12.8-15l50,90.5
										l18.5,33.4l9-43.2l20.2,35.6l3.2-43.9l21.9-98l56.2,80.3l1.9-71.4l17.9,9.2c0,0-0.7-38.5,0.3-41.3c0-0.1,0.1-0.2,0.1-0.2
										c1.1,0,52.4,90,52.4,90l10-91.6c0,0,25,23.1,25,22.4s-3.3-58.9-3.3-58.9l46.2,70.1l31.1,98l5.1-78l15.3,40.1l5.6-38.9
										l24.4,38.7l3.1-20.4l40.1,70.2l-10-94.5l-8.2-9.8c0,0-8.1-29.5-8.3-33c0-0.2,0.1-0.4,0.1-0.4c0.8-0.8,32.1-1.3,32.1-1.3
										l-41.1-55.4l11-45.5l-14.6-16l-4.3-20.3l16.1,9l4.5-57.3l19.3,10.6l9.4-38.6l6.9-2.8l1.2-68"/>
									<polygon class="st10" points="500.1,383.7 431.6,373.4 392.7,370.1 390.3,369.9 338.5,364.4 317.3,412.1 339.1,451.6 
										364.2,463.8 389.3,456.6 397.4,463.6 425.6,434.4 434.7,435.4 									"/>
									<polyline class="st10" points="376,379.4 405,382.3 419.5,402.4 424.4,421.3 410.1,438.6 393.3,448.8 370.2,447.1 
										347.5,419.8 354.8,399.8 375.9,379.4 									"/>
									<line class="st9" x1="375.9" y1="379.4" x2="376" y2="379.4"/>
									<polygon class="st11" points="399.7,407.1 383.6,402.6 372.9,412.8 377.6,427.8 386,429.9 396.4,427.7 401.4,417.7 
																			"/>
									<polyline class="st11" points="370.2,447.1 377.6,427.8 393.3,448.8 386,429.9 410.1,438.6 396.4,427.7 424.4,421.3 
										401.4,417.7 419.5,402.4 399.7,407.1 405,382.3 383.6,402.6 376,379.4 372.9,412.8 354.8,399.8 377.6,427.8 347.5,419.8 
																			"/>
									<polyline class="st12" points="617.6,566.3 655.6,575.7 704.9,583.5 714.7,602.2 714.9,639 740.9,598.2 745.2,523.2 
										737.9,478.3 711.4,433.5 681.8,413.9 672.5,409.3 628,386.9 									"/>
									<polyline class="st13" points="406,470.4 437.8,499.1 483.3,498.8 									"/>
									<polyline class="st13" points="539,498.4 483.3,498.8 439.1,524.3 381.1,499.5 									"/>
									<line class="st13" x1="564.4" y1="401.4" x2="565.1" y2="498.2"/>
									<line class="st13" x1="368.9" y1="524.7" x2="381.1" y2="499.5"/>
									<polygon class="st13" points="565.1,498.2 597.7,543.6 544.8,521.1 539,498.4 									"/>
									<polyline class="st13" points="539,498.4 597.7,543.6 576.3,560.3 									"/>
									<polygon class="st13" points="544.8,521.1 519.6,560.7 470.6,524 									"/>
									<line class="st13" x1="483.3" y1="498.8" x2="544.8" y2="521.1"/>
									<polyline class="st13" points="576.3,560.3 617.6,566.3 702.7,549.8 704.9,583.5 									"/>
									<line class="st13" x1="577.4" y1="441.1" x2="564.4" y2="401.4"/>
									<polyline class="st13" points="745.2,523.2 702.7,549.8 672.5,409.3 634.7,512.8 577.5,449.3 									"/>
									<polyline class="st13" points="565.1,498.2 634.7,512.8 628,386.9 564.4,401.4 483.3,498.8 468.5,453.4 457,470.5 
										437.8,499.1 381.1,499.5 350.6,514.7 368.9,524.7 439.1,524.3 470.6,524 445.2,562.3 462.9,565.8 519.6,560.7 576.3,560.3 
										582.9,594.5 617.6,566.3 597.7,543.6 702.7,549.8 634.7,512.8 597.7,543.6 									"/>
									<polyline class="st13" points="737.9,478.3 702.7,549.8 740.9,598.2 714.7,602.2 702.7,549.8 									"/>
									<polygon class="st13" points="601,439.2 619,426.2 623.4,439 									"/>
									<polygon class="st13" points="577.5,449.3 577.4,441.1 601,439.2 									"/>
									<polyline class="st13" points="628,386.9 601,439.2 634.7,512.8 									"/>
									<line class="st13" x1="601" y1="439.2" x2="564.4" y2="401.4"/>
								</g>
							</g>
						</g>
					</g>
				</g>
				<g>
					<circle cx="570.8" cy="292.5" r="5.8"/>
				</g>
				<g>
					<circle cx="460.6" cy="277.5" r="5.8"/>
				</g>
				<g>
					<circle cx="324.7" cy="223.3" r="13.4"/>
				</g>
				<g>
					<circle cx="385" cy="402.9" r="10.2"/>
				</g>
				<g>
					<circle cx="371.3" cy="447.3" r="5.8"/>
				</g>
				<g>
					<circle cx="340.2" cy="364.4" r="5.8"/>
				</g>
				<g>
					<circle cx="340.2" cy="325.3" r="5.8"/>
				</g>
				<g>
					<circle cx="222.9" cy="299.6" r="5.8"/>
				</g>
				<g>
					<circle cx="179" cy="359" r="5.8"/>
				</g>
				<g>
					<circle cx="194.9" cy="404.1" r="5.8"/>
				</g>
				<g>
					<circle cx="187.2" cy="474.5" r="5.8"/>
				</g>
				<g>
					<circle cx="208.9" cy="445.9" r="8.1"/>
				</g>
				<g>
					<circle cx="278.3" cy="592.4" r="5.8"/>
				</g>
				<g>
					<circle cx="385" cy="745.7" r="5.8"/>
				</g>
				<g>
					<circle cx="323.5" cy="853.6" r="5.8"/>
				</g>
				<g>
					<circle cx="324.7" cy="948.1" r="5.8"/>
				</g>
				<g>
					<circle cx="215" cy="1017.4" r="5.8"/>
				</g>
				<g>
					<circle cx="204.7" cy="893.7" r="5.8"/>
				</g>
				<g>
					<circle cx="109.4" cy="862.6" r="5.8"/>
				</g>
				<g>
					<circle cx="499.7" cy="802" r="5.8"/>
				</g>
				<g>
					<circle cx="535.1" cy="902.5" r="5.8"/>
				</g>
				<g>
					<circle cx="567" cy="796.8" r="5.8"/>
				</g>
				<g>
					<circle cx="452.6" cy="747.1" r="10.2"/>
				</g>
				<g>
					<circle cx="425.7" cy="599.3" r="5.8"/>
				</g>
				<g>
					<circle class="st14" cx="471.2" cy="524.9" r="5.8"/>
				</g>
				<g>
					<circle class="st14" cx="484" cy="500" r="5.8"/>
				</g>
				<g>
					<circle class="st14" cx="539.7" cy="499.8" r="10.2"/>
				</g>
				<g>
					<circle class="st14" cx="471.2" cy="453.7" r="5.8"/>
				</g>
				<g>
					<circle class="st14" cx="382.7" cy="500" r="5.8"/>
				</g>
				<g>
					<circle class="st14" cx="602.1" cy="440.3" r="10.6"/>
				</g>
				<g>
					<circle class="st14" cx="629.6" cy="389.8" r="5.8"/>
				</g>
				<g>
					<circle class="st14" cx="712.5" cy="435.9" r="9.5"/>
				</g>
				<g>
					<circle class="st14" cx="565.9" cy="402.9" r="5.8"/>
				</g>
				<g>
					<circle class="st14" cx="635.3" cy="515.2" r="5.8"/>
				</g>
				<g>
					<circle class="st14" cx="703.1" cy="551.1" r="8.9"/>
				</g>
				<g>
					<circle class="st14" cx="714.8" cy="604.7" r="10.4"/>
				</g>
				<g>
					<circle class="st14" cx="576.6" cy="561.9" r="5.8"/>
				</g>
				<g>
					<circle cx="344.9" cy="545.3" r="5.8"/>
				</g>
				<g>
					<circle cx="-26.2" cy="533.7" r="5.8"/>
				</g>
				<g>
					<circle cx="-42.4" cy="485.2" r="9"/>
				</g>
				<g>
					<circle cx="-43.3" cy="458.4" r="5.8"/>
				</g>
				<g>
					<circle cx="28.8" cy="441.6" r="5.8"/>
				</g>
				<g>
					<circle cx="-0.2" cy="414.2" r="5.8"/>
				</g>
				<g>
					<circle cx="68.3" cy="320" r="11.2"/>
				</g>
				<g>
					<circle cx="103.7" cy="393.1" r="5.8"/>
				</g>
				<g>
					<circle cx="1.4" cy="632.2" r="5.8"/>
				</g>
				<g>
					<circle cx="-27.8" cy="797.8" r="5.8"/>
				</g>
				<g>
					<circle cx="27.9" cy="807.9" r="12.5"/>
				</g>
				<g>
					<circle cx="155.8" cy="665" r="5.8"/>
				</g>
				<g>
					<circle cx="193" cy="533.7" r="5.8"/>
				</g>
				<g>
					<circle cx="103.7" cy="485.2" r="13.1"/>
				</g>
			</g>
		</g>
	</g>
</g>
</svg>
