<?xml version="1.0" encoding="utf-8"?>
<!-- Generator: Adobe Illustrator 24.0.1, SVG Export Plug-In . SVG Version: 6.00 Build 0)  -->
<svg version="1.1" id="Layer_1" xmlns="http://www.w3.org/2000/svg" xmlns:xlink="http://www.w3.org/1999/xlink" x="0px" y="0px"
	 viewBox="0 0 1226 1077.7" style="enable-background:new 0 0 1226 1077.7;" xml:space="preserve">
<style type="text/css">
	.st0{fill:#13365D;}
	.st1{fill:#0061FF;}
	.st2{fill:#F5F5F5;}
	.st3{clip-path:url(#SVGID_2_);}
	.st4{fill:#C5C5C5;}
	.st5{fill:#797979;}
	.st6{fill:#D5E2FD;}
	.st7{fill:#8BAFFD;}
	.st8{fill:none;stroke:#000000;stroke-width:2.1758;stroke-linecap:round;stroke-linejoin:round;stroke-miterlimit:10;}
	.st9{fill:none;stroke:#000000;stroke-width:1.3055;stroke-linecap:round;stroke-linejoin:round;stroke-miterlimit:10;}
	.st10{fill:none;stroke:#005EFD;stroke-width:1.3055;stroke-linecap:round;stroke-linejoin:round;stroke-miterlimit:10;}
	.st11{fill:none;stroke:#005EFD;stroke-width:2.1786;stroke-linecap:round;stroke-linejoin:round;stroke-miterlimit:10;}
	.st12{fill:#005EFD;}
</style>
<title>Asset 1</title>
<g id="Layer_2_1_">
	<g id="Layer_1-2">
		<path class="st0" d="M517.4,1064.7c-16.1-0.3-32.4-1.4-48.3-3.2c-3.6-0.4-6.8,2.2-7.2,5.8c-0.4,3.6,2.2,6.8,5.8,7.2l0,0
			c16.3,1.8,33,2.9,49.5,3.3h0.2c3.6,0,6.6-2.9,6.6-6.5S521,1064.7,517.4,1064.7L517.4,1064.7z"/>
		<path class="st0" d="M613.9,1057.8c-15.8,2.6-32,4.5-48.1,5.7c-3.6,0.3-6.3,3.4-6,7c0.3,3.4,3.1,6,6.5,6c0.2,0,0.3,0,0.5,0
			c16.5-1.2,33-3.1,49.3-5.8c3.6-0.6,6-3.9,5.4-7.5S617.4,1057.2,613.9,1057.8L613.9,1057.8L613.9,1057.8z"/>
		<path class="st0" d="M243.2,980.5c-13.5-8.8-26.7-18.3-39.3-28.2c-2.7-2.3-6.9-2-9.2,0.7c-2.3,2.7-2,6.9,0.7,9.2
			c0.1,0.1,0.3,0.2,0.4,0.3c12.9,10.2,26.5,20,40.3,29c3,2,7.1,1.1,9.1-1.9S246.3,982.5,243.2,980.5L243.2,980.5L243.2,980.5z"/>
		<path class="st0" d="M328.8,1025.5c-14.9-6.1-29.6-13-43.9-20.5c-3.3-1.6-7.2-0.2-8.7,3.1c-1.5,3.1-0.3,6.8,2.6,8.5
			c14.6,7.7,29.7,14.8,45,21c0.8,0.3,1.6,0.5,2.5,0.5c3.6,0,6.5-3,6.5-6.6C332.8,1028.8,331.3,1026.5,328.8,1025.5L328.8,1025.5z"/>
		<path class="st0" d="M36.1,719.7c-1.2-3.4-5-5.2-8.4-3.9s-5.2,5-3.9,8.4c5.6,15.5,12,30.9,19,45.8c1.5,3.3,5.4,4.7,8.7,3.1
			c0,0,0,0,0.1,0c3.3-1.5,4.7-5.4,3.1-8.7c0,0,0,0,0,0C47.8,749.8,41.5,734.8,36.1,719.7z"/>
		<path class="st0" d="M77.3,807.1c-1.8-3.1-5.9-4.1-9-2.3c-3.1,1.8-4.1,5.9-2.3,9l0,0c8.4,14.2,17.5,28.1,27.2,41.5
			c2.1,2.9,6.2,3.6,9.1,1.5s3.6-6.2,1.5-9.1C94.3,834.6,85.4,821,77.3,807.1z"/>
		<path class="st0" d="M133.9,885.5c-2.4-2.7-6.6-2.8-9.2-0.4c-2.6,2.4-2.8,6.3-0.6,9c10.8,12.4,22.4,24.5,34.3,35.8
			c2.8,2.3,6.9,2,9.2-0.8c2.1-2.5,2-6.3-0.2-8.7C155.7,909.4,144.4,897.6,133.9,885.5z"/>
		<path class="st0" d="M421.3,1053.9c-15.8-3.3-31.5-7.3-46.9-12c-3.5-1-7.1,1-8.1,4.5c-1,3.4,0.9,7,4.3,8.1
			c15.8,4.8,32,9,48.1,12.3c0.4,0.1,0.9,0.1,1.3,0.1c3.6,0,6.5-2.9,6.5-6.6C426.5,1057.2,424.3,1054.5,421.3,1053.9L421.3,1053.9z"
			/>
		<path class="st0" d="M1036.9,689.8c-3.5-1-7.1,0.9-8.2,4.4c-4.7,15.4-10.1,30.7-16.2,45.6c-1.4,3.3,0.2,7.1,3.5,8.5c0,0,0,0,0,0
			c0.8,0.3,1.6,0.5,2.5,0.5c2.7,0,5.1-1.6,6.1-4.1c6.2-15.3,11.8-31,16.6-46.8C1042.3,694.5,1040.3,690.8,1036.9,689.8z"/>
		<path class="st0" d="M1001,780.9c-3.2-1.7-7.1-0.4-8.8,2.8c-2.4,4.5-4.8,9.1-7.3,13.6l-5.9,9.6c-3.7,6.2-7.5,12.4-11.4,18.5
			c-2,3-1.1,7.1,2,9s7.1,1.1,9-2l0,0c4-6.2,8-12.6,11.6-18.8l5.9-9.6l0.1-0.2c2.6-4.6,5.1-9.3,7.6-14
			C1005.5,786.6,1004.2,782.6,1001,780.9C1001,780.9,1001,780.9,1001,780.9z"/>
		<path class="st0" d="M1055.2,593.5c-3.6-0.4-6.8,2.2-7.2,5.8c-1.7,16-4.2,32.1-7.4,47.8c-0.7,3.5,1.6,7,5.1,7.7
			c0.4,0.1,0.9,0.1,1.3,0.1c3.1,0,5.8-2.2,6.4-5.2c3.3-16.1,5.8-32.6,7.6-49C1061.4,597.2,1058.8,594,1055.2,593.5
			C1055.2,593.5,1055.2,593.5,1055.2,593.5z"/>
		<path class="st0" d="M707.3,1033.2c-15.1,5.5-30.6,10.4-46.2,14.4c-3.5,0.9-5.6,4.5-4.6,8c0.8,2.9,3.3,4.8,6.3,4.9
			c0.6,0,1.1-0.1,1.7-0.2c15.9-4.2,31.9-9.2,47.3-14.8c3.4-1.2,5.2-4.9,4-8.3c-1.2-3.4-4.9-5.2-8.3-4
			C707.5,1033.2,707.4,1033.2,707.3,1033.2L707.3,1033.2z"/>
		<path class="st0" d="M948.6,863.7c-2.8-2.2-6.9-1.8-9.2,1.1c0,0,0,0,0,0c-9.9,12.7-20.6,25-31.6,36.7c-2.5,2.6-2.4,6.8,0.3,9.3
			s6.8,2.4,9.3-0.3c11.3-12,22.2-24.6,32.4-37.6C951.9,870,951.5,865.9,948.6,863.7C948.6,863.7,948.6,863.7,948.6,863.7z"/>
		<path class="st0" d="M794.7,991.8c-13.8,8.2-28.2,15.9-42.7,22.8c-3.3,1.5-4.6,5.4-3.1,8.7c1.1,2.3,3.4,3.7,5.9,3.7
			c1,0,1.9-0.2,2.8-0.6c14.9-7.1,29.6-14.9,43.8-23.3c3.1-1.8,4.1-5.9,2.3-9C801.8,991,797.8,989.9,794.7,991.8z"/>
		<path class="st0" d="M872.9,935c-12.1,10.6-24.8,20.8-37.8,30.2c-2.9,2.1-3.6,6.2-1.5,9.1c2.1,2.9,6.2,3.6,9.1,1.5
			c0,0,0.1,0,0.1-0.1c13.3-9.7,26.4-20.1,38.8-31c2.7-2.4,3-6.5,0.6-9.2C879.8,932.9,875.6,932.6,872.9,935L872.9,935z"/>
		<path class="st1" d="M1226,542.6l-122.6-120.1v107.7h-33.7c-1.8-90.1-26.2-178.4-71-256.6c-0.2-0.7-0.5-1.4-0.9-2
			C848.9,12.3,517.9-77.3,258.6,71.7c-24.3,14-47.5,29.8-69.4,47.3C95,194.6,28,300.6,0.6,417.5c-1,4.2,0.3,8.5,3.3,11.5
			l113.8,112.1L3.7,653.4c-4.8,4.7-4.9,12.5-0.1,17.3s12.5,4.9,17.3,0.1l123-121c4.8-4.7,4.9-12.5,0.1-17.3c0,0-0.1-0.1-0.1-0.1
			l-117.8-116C83.2,186.6,286.7,26.3,524.2,24.6c1.2,0.4,2.6,0.6,3.9,0.6c285.2,0,517.3,232,517.3,517.3c0,6.8,5.5,12.3,12.2,12.3
			c0,0,0,0,0,0h45.8v108L1226,542.6z"/>
		<path class="st2" d="M524.8,77.6c-213.5,0-393.4,143.6-448.5,339.5l133,126.4l-133.9,123c54,197.6,234.7,342.8,449.4,342.8
			c257.3,0,465.8-208.5,465.8-465.8S782.1,77.6,524.8,77.6z"/>
		<g>
			<defs>
				<path id="SVGID_1_" d="M524.8,77.6c-213.5,0-393.4,143.6-448.5,339.5l133,126.4l-133.9,123c54,197.6,234.7,342.8,449.4,342.8
					c257.3,0,465.8-208.5,465.8-465.8S782.1,77.6,524.8,77.6z"/>
			</defs>
			<clipPath id="SVGID_2_">
				<use xlink:href="#SVGID_1_"  style="overflow:visible;"/>
			</clipPath>
			<g class="st3">
				<g>
					<g>
						<g id="XMLID_22_">
							<g>
								<polygon class="st4" points="848.4,564.6 793.6,680.7 745.1,618.2 								"/>
								<polygon class="st4" points="848.4,564.6 745.1,618.2 668.7,625.9 756.4,590.9 								"/>
								<polygon class="st5" points="828.6,546 778.3,555.8 629.3,575.5 778.3,520.8 								"/>
								<polygon class="st4" points="745.1,618.2 793.6,680.7 668.7,625.9 								"/>
								<polygon class="st4" points="793.6,680.7 758.5,792.4 716.9,713.5 								"/>
								<polygon class="st4" points="793.6,680.7 716.9,713.5 691.2,676.8 								"/>
								<polygon class="st4" points="793.6,680.7 691.2,676.8 668.7,625.9 								"/>
								<polygon class="st5" points="778.3,520.8 629.3,575.5 660,525.2 								"/>
								<polygon class="st5" points="747.6,424.4 629.3,446.3 620.6,406.9 								"/>
								<polygon class="st4" points="701.6,496.6 660,525.2 557,536.1 557,498.9 607.4,498.9 								"/>
								<polygon class="st5" points="668.7,625.9 691.2,676.8 600.8,772.7 631.5,700.4 								"/>
								<polygon class="st6" points="668.7,625.9 629.3,676.8 644.6,612.8 								"/>
								<polygon class="st7" points="629.3,575.5 644.6,612.8 568,575.5 								"/>
								<polygon class="st6" points="644.6,612.8 629.3,676.8 588.8,661 629.3,629.2 								"/>
								<polygon class="st7" points="644.6,612.8 577.9,612.8 568,575.5 								"/>
								<polygon class="st6" points="629.3,676.8 668.7,625.9 631.5,700.4 								"/>
								<polygon class="st6" points="629.3,676.8 631.5,700.4 561.4,720.1 								"/>
								<polygon class="st4" points="631.5,700.4 600.8,772.7 561.4,720.1 								"/>
								<polygon class="st7" points="629.3,629.2 588.8,661 577.9,612.8 644.6,612.8 								"/>
								<polygon class="st4" points="620.6,406.9 629.3,446.3 557,498.9 								"/>
								<polygon class="st7" points="629.3,575.5 568,575.5 557,536.1 								"/>
								<polygon class="st6" points="629.3,676.8 561.4,720.1 568,680.7 								"/>
								<polygon class="st6" points="629.3,676.8 568,680.7 588.8,661 								"/>
								<polygon class="st4" points="620.6,406.9 557,498.9 493.5,420 								"/>
								<polygon class="st5" points="561.4,720.1 600.8,772.7 532.9,792.4 								"/>
								<polygon class="st7" points="577.9,612.8 588.8,661 511,612.8 								"/>
								<polygon class="st6" points="588.8,661 568,680.7 552.6,661 								"/>
								<polygon class="st7" points="568,575.5 577.9,612.8 511,612.8 								"/>
								<polygon class="st7" points="557,536.1 568,575.5 516.5,562.4 								"/>
								<polygon class="st6" points="552.6,661 568,680.7 462.8,671.9 								"/>
								<polygon class="st6" points="568,680.7 561.4,720.1 462.8,671.9 								"/>
								<polygon class="st7" points="568,575.5 511,612.8 516.5,562.4 								"/>
								<polygon class="st6" points="552.6,661 462.8,671.9 492,643.1 								"/>
								<polygon class="st4" points="462.8,671.9 532.9,792.4 414.6,759.5 								"/>
								<polygon class="st4" points="493.5,420 447.5,505.4 414.6,520.8 292,512 								"/>
								<polygon class="st4" points="493.5,420 292,512 432.1,374 								"/>
								<polygon class="st6" points="453,562.4 492,643.1 462.8,671.9 								"/>
								<polygon class="st6" points="453,562.4 462.8,671.9 414.6,604 								"/>
								<polygon class="st4" points="414.6,604 462.8,671.9 370.8,604 								"/>
								<polygon class="st4" points="462.8,671.9 414.6,759.5 331.4,643.4 								"/>
								<polygon class="st4" points="462.8,671.9 331.4,643.4 370.8,604 								"/>
								<polygon class="st6" points="453,522.9 447.5,505.4 557,536.1 								"/>
								<polygon class="st6" points="453,522.9 414.6,604 414.6,520.8 								"/>
								<polygon class="st6" points="453,562.4 414.6,604 453,522.9 								"/>
								<polygon class="st7" points="447.5,505.4 453,522.9 414.6,520.8 								"/>
								<polygon class="st4" points="432.1,374 292,512 342.4,376.2 								"/>
								<polygon class="st5" points="430,299.5 364.3,334.6 342.4,376.2 292,312.7 								"/>
								<polygon class="st4" points="414.6,520.8 414.6,604 370.8,604 								"/>
								<polygon class="st4" points="292,512 370.8,604 331.4,643.4 								"/>
								<polygon class="st4" points="292,312.7 342.4,376.2 256.9,374 								"/>
								<polygon class="st4" points="342.4,376.2 292,512 274.4,446.3 								"/>
								<polygon class="st4" points="292,312.7 256.9,374 202.2,328 								"/>
								<polygon class="st5" points="274.4,446.3 292,512 184.6,446.3 								"/>
								<polygon class="st4" points="256.9,374 274.4,446.3 202.2,398.1 								"/>
							</g>
							<g>
								<polygon class="st8" points="342.4,376.2 364.3,334.6 430,299.5 292,312.7 202.2,328 256.9,374 202.2,398.1 274.4,446.3 
									184.6,446.3 292,512 331.4,643.4 414.6,759.5 532.9,792.4 600.8,772.7 716.9,713.5 758.5,792.4 793.6,680.7 848.4,564.6 
									756.4,590.9 778.3,555.8 828.6,546 778.3,520.8 660,525.2 701.6,496.6 607.4,498.9 557,498.9 629.3,446.3 747.6,424.4 
									620.6,406.9 493.5,420 541.7,371.8 432.1,374 								"/>
								<polyline class="st9" points="756.4,590.9 668.7,625.9 691.2,676.8 793.6,680.7 668.7,625.9 								"/>
								<polyline class="st9" points="631.5,700.4 600.8,772.7 561.4,720.1 532.9,792.4 462.8,671.9 414.6,759.5 								"/>
								<polyline class="st9" points="414.6,604 370.8,604 462.8,671.9 331.4,643.4 370.8,604 								"/>
								<polygon class="st9" points="292,512 370.8,604 414.6,520.8 								"/>
								<polygon class="st9" points="274.4,446.3 292,512 342.4,376.2 								"/>
								<polygon class="st9" points="256.9,374 292,312.7 342.4,376.2 								"/>
								<line class="st9" x1="274.4" y1="446.3" x2="256.9" y2="374"/>
								<polygon class="st9" points="493.5,420 432.1,374 292,512 								"/>
								<polyline class="st9" points="629.3,446.3 620.6,406.9 557,498.9 								"/>
								<polyline class="st9" points="600.8,772.7 691.2,676.8 716.9,713.5 793.6,680.7 745.1,618.2 848.4,564.6 								"/>
								<polyline class="st10" points="557,536.1 516.5,562.4 511,612.8 552.6,661 588.8,661 629.3,629.2 644.6,612.8 629.3,575.5 
																	"/>
								<polyline class="st9" points="447.5,505.4 493.5,420 557,498.9 557,536.1 660,525.2 629.3,575.5 778.3,555.8 668.7,625.9 
									745.1,618.2 								"/>
								<polygon class="st11" points="414.6,520.8 447.5,505.4 557,536.1 629.3,575.5 668.7,625.9 631.5,700.4 561.4,720.1 
									462.8,671.9 414.6,604 								"/>
								<polygon class="st10" points="557,536.1 453,522.9 516.5,562.4 568,575.5 								"/>
								<polyline class="st10" points="414.6,520.8 453,522.9 447.5,505.4 								"/>
								<polyline class="st10" points="453,522.9 453,562.4 511,612.8 453,522.9 414.6,604 453,562.4 462.8,671.9 492,643.1 
									453,562.4 								"/>
								<polyline class="st10" points="631.5,700.4 629.3,676.8 568,680.7 588.8,661 629.3,676.8 								"/>
								<line class="st10" x1="552.6" y1="661" x2="568" y2="680.7"/>
								<polygon class="st10" points="577.9,612.8 568,575.5 511,612.8 								"/>
								<polyline class="st10" points="629.3,575.5 568,575.5 644.6,612.8 577.9,612.8 588.8,661 511,612.8 492,643.1 552.6,661 
									462.8,671.9 568,680.7 561.4,720.1 629.3,676.8 644.6,612.8 668.7,625.9 629.3,676.8 								"/>
								<line class="st9" x1="778.3" y1="520.8" x2="629.3" y2="575.5"/>
							</g>
						</g>
					</g>
					<g>
						<circle class="st12" cx="568" cy="575.5" r="11.3"/>
					</g>
					<g>
						<circle class="st12" cx="588.8" cy="660.9" r="6.9"/>
					</g>
					<g>
						<circle class="st12" cx="511" cy="612.8" r="6.9"/>
					</g>
					<g>
						<circle class="st12" cx="453" cy="525.4" r="7.3"/>
					</g>
					<g>
						<g>
							<g>
								<circle cx="493.5" cy="420" r="8.4"/>
							</g>
						</g>
					</g>
					<g>
						<g>
							<g>
								<circle cx="433.8" cy="373.5" r="5"/>
							</g>
						</g>
					</g>
					<g>
						<g>
							<g>
								<circle cx="342.4" cy="376.2" r="7.7"/>
							</g>
						</g>
					</g>
					<g>
						<g>
							<g>
								<circle cx="331.4" cy="642" r="7.7"/>
							</g>
						</g>
					</g>
					<g>
						<g>
							<g>
								<circle cx="292" cy="512" r="6.1"/>
							</g>
						</g>
					</g>
					<g>
						<g>
							<g>
								<circle cx="629.3" cy="448.9" r="11.3"/>
							</g>
						</g>
					</g>
					<g>
						<circle class="st12" cx="464.2" cy="672.6" r="7.1"/>
					</g>
					<g>
						<g>
							<g>
								<circle cx="533.5" cy="792.4" r="8.2"/>
							</g>
						</g>
					</g>
					<g>
						<g>
							<g>
								<circle cx="793.6" cy="683.8" r="7.8"/>
							</g>
						</g>
					</g>
					<g>
						<g>
							<g>
								<circle cx="778.3" cy="558" r="11.3"/>
							</g>
						</g>
					</g>
					<g>
						<g>
							<g>
								<circle cx="698.5" cy="496.1" r="5.9"/>
							</g>
						</g>
					</g>
					<g>
						<g>
							<g>
								<circle cx="256.9" cy="374" r="7"/>
							</g>
						</g>
					</g>
					<g>
						<g>
							<g>
								<circle cx="184.6" cy="444.1" r="8.8"/>
							</g>
						</g>
					</g>
					<g>
						<g>
							<g>
								<circle cx="556.7" cy="500.7" r="6.6"/>
							</g>
						</g>
					</g>
				</g>
			</g>
		</g>
	</g>
</g>
</svg>
