<svg xmlns="http://www.w3.org/2000/svg" viewBox="0 0 467.38 363.18"><defs><style>.cls-1{fill:none;stroke:#318cf5;stroke-width:21px;}.cls-1,.cls-2{stroke-linecap:round;stroke-linejoin:round;}.cls-2,.cls-4{fill:#318cf5;}.cls-2{stroke:#000;stroke-width:4px;}.cls-3{fill:#fff;}</style></defs><title>Asset 4</title><g id="Layer_2" data-name="Layer 2"><g id="Layer_1-2" data-name="Layer 1"><path class="cls-1" d="M378.5,115.28H349.68A74,74,0,1,0,212.33,60.81a70.68,70.68,0,0,0-108,60,71.11,71.11,0,0,0,1.19,13H79.64a69.14,69.14,0,1,0,0,138.27H378.5a78.38,78.38,0,0,0,0-156.76Z"/><path class="cls-2" d="M103.31,268.72v72.76s-11.73,19.7,130.36,19.7S364,341.48,364,341.48V268.72"/><path class="cls-2" d="M103.31,197.49v72.75S91.58,290,233.67,290,364,270.24,364,270.24V197.49"/><path class="cls-2" d="M103.31,193.27s-11.73-20.5,130.36-20.5S364,193.27,364,193.27s11.73,20.5-130.36,20.5S103.31,193.27,103.31,193.27Z"/><path class="cls-3" d="M136.87,252.45a12.8,12.8,0,1,1,12.8-12.8A12.81,12.81,0,0,1,136.87,252.45Z"/><path class="cls-4" d="M136.87,233.35a6.3,6.3,0,1,1-6.3,6.3,6.3,6.3,0,0,1,6.3-6.3m0-13a19.3,19.3,0,1,0,19.3,19.3,19.32,19.32,0,0,0-19.3-19.3Z"/><path class="cls-2" d="M187.19,243.72s13.72,1.54,64.13,1.28c59.65-.3,72.29-4.07,72.29-4.07"/><path class="cls-3" d="M136.87,330.75a12.8,12.8,0,1,1,12.8-12.8A12.81,12.81,0,0,1,136.87,330.75Z"/><path class="cls-4" d="M136.87,311.65a6.3,6.3,0,1,1-6.3,6.3,6.3,6.3,0,0,1,6.3-6.3m0-13a19.3,19.3,0,1,0,19.3,19.3,19.32,19.32,0,0,0-19.3-19.3Z"/><path class="cls-2" d="M187.19,322s13.72,1.53,64.13,1.28c59.65-.3,72.29-4.07,72.29-4.07"/><path class="cls-1" d="M265.1,53.81c16.82-6,51-.26,51,31.47"/></g></g></svg>