<svg xmlns="http://www.w3.org/2000/svg" viewBox="0 0 633.8 379.56"><defs><style>.cls-1,.cls-3{fill:none;}.cls-1{stroke:#318cf5;stroke-width:21px;}.cls-1,.cls-2,.cls-3{stroke-linecap:round;stroke-linejoin:round;}.cls-2{fill:#318cf5;}.cls-2,.cls-3{stroke:#000;stroke-width:4px;}</style></defs><title>Asset 5</title><g id="Layer_2" data-name="Layer 2"><g id="Layer_1-2" data-name="Layer 1"><circle class="cls-1" cx="316.9" cy="189.78" r="179.28"/><path class="cls-2" d="M349,52.12h1.23c13.53,4.57,27.24,8.74,39,17.2-4.7,14.94-2.9,28.26,8.24,39.22s24.45,12.62,40,7.25c5.57,13.51,11,26.68,16.33,39.64-30.09,18.08-30.78,47-3,65.95,1,.71,2.15,2.65,1.9,3.68a125.28,125.28,0,0,1-16,37.7c-1.92-.59-3.25-1.05-4.61-1.41-24.46-6.42-48.42,14-44.88,38.26,1.65,11.3,1.7,11.4-9,16.42-5.5,2.58-11.14,4.9-16.84,7-3.88,1.43-8,2.27-11.74,3.31-17.29-29.62-46.41-29.44-67.33,1.11-11.85-5.25-24.06-10.5-36.06-16.21-1.19-.56-1.86-4-1.45-5.86,3.7-16.24-1.94-31.24-15.39-39.83-10.34-6.59-21.34-7-32.46-2.87-5.67-7.13-15.22-28.08-16.3-36.74-.2-1.65,1.53-4.3,3.11-5.28,13.62-8.4,20.07-21.82,17.48-37.19-2.15-12.68-10-21-21.33-26.84,2.69-12.69,7.78-24.3,13.77-35.61,1.79-3.39,3.32-4.4,7.49-3.23a34.83,34.83,0,0,0,44-26.69c1.42-6.87.23-14.27.23-23.78,9.82-3.86,21.66-8.43,33.41-13.21,3.58-1.46,5.19-.47,7.09,2.85,7.22,12.56,18.46,19,32.85,18C333.39,73.9,343.79,66.15,349,52.12Zm-31.89,79.44c-31.6,0-57.25,25.36-57.23,56.63,0,32.2,25.58,57.94,57.47,57.9,31,0,57.11-25.77,57.11-56.35C374.46,157.72,348.69,131.58,317.12,131.56Z"/><polyline class="cls-3" points="467.47 94.62 511 50.51 593.05 50.51"/><line class="cls-3" x1="499.1" y1="189.78" x2="561.21" y2="189.78"/><polygon class="cls-2" points="613.95 211.5 613.95 169.84 575.73 147.44 537.5 169.84 537.5 211.5 575.73 233.89 613.95 211.5"/><polygon class="cls-2" points="631.8 71.63 631.8 29.96 593.58 7.57 555.35 29.96 555.35 71.63 593.58 94.02 631.8 71.63"/><polyline class="cls-3" points="467.47 287.32 511 331.43 593.05 331.43"/><polygon class="cls-2" points="631.8 310.31 631.8 351.97 593.58 374.37 555.35 351.97 555.35 310.31 593.58 287.92 631.8 310.31"/><polyline class="cls-3" points="166.33 94.62 122.8 50.51 40.76 50.51"/><line class="cls-3" x1="134.7" y1="189.78" x2="72.59" y2="189.78"/><polygon class="cls-2" points="19.85 211.5 19.85 169.84 58.08 147.44 96.3 169.84 96.3 211.5 58.08 233.89 19.85 211.5"/><polygon class="cls-2" points="2 71.63 2 29.96 40.23 7.57 78.45 29.96 78.45 71.63 40.23 94.02 2 71.63"/><polyline class="cls-3" points="166.33 287.32 122.8 331.43 40.76 331.43"/><polygon class="cls-2" points="2 310.31 2 351.97 40.23 374.37 78.45 351.97 78.45 310.31 40.23 287.92 2 310.31"/><circle class="cls-2" cx="316.9" cy="189.78" r="35.5"/></g></g></svg>