<?xml version="1.0" encoding="utf-8"?>
<!-- Generator: Adobe Illustrator 24.0.1, SVG Export Plug-In . SVG Version: 6.00 Build 0)  -->
<svg version="1.1" id="Layer_1" xmlns="http://www.w3.org/2000/svg" xmlns:xlink="http://www.w3.org/1999/xlink" x="0px" y="0px"
	 viewBox="0 0 1226 1077.8" style="enable-background:new 0 0 1226 1077.8;" xml:space="preserve">
<style type="text/css">
	.st0{fill:#13365D;}
	.st1{fill:#0061FF;}
	.st2{fill:#F5F5F5;}
	.st3{clip-path:url(#SVGID_2_);}
	.st4{fill:#B1B1B1;}
	.st5{fill:#575757;}
	.st6{fill:#787878;}
	.st7{fill:#8BAFFD;}
	.st8{fill:#D5E2FD;}
	.st9{fill:#636363;}
	.st10{fill:#A3A3A3;}
	.st11{fill:#BED2FD;}
	.st12{fill:none;stroke:#000000;stroke-width:3.0111;stroke-linecap:round;stroke-linejoin:round;stroke-miterlimit:10;}
	.st13{fill:none;stroke:#000000;stroke-width:1.8067;stroke-linecap:round;stroke-linejoin:round;stroke-miterlimit:10;}
	.st14{fill:none;stroke:#005EFD;stroke-width:3.0111;stroke-linecap:round;stroke-linejoin:round;stroke-miterlimit:10;}
	.st15{fill:none;stroke:#005EFD;stroke-width:1.8067;stroke-linecap:round;stroke-linejoin:round;stroke-miterlimit:10;}
	.st16{fill:#005EFD;}
</style>
<title>Asset 5</title>
<g id="Layer_2_1_">
	<g id="Layer_1-2">
		<path class="st0" d="M517.4,1064.7c-16.1-0.3-32.4-1.4-48.3-3.2c-3.6-0.4-6.8,2.2-7.2,5.8c-0.4,3.6,2.2,6.8,5.8,7.2l0,0
			c16.3,1.8,33,2.9,49.5,3.3h0.2c3.6,0,6.6-2.9,6.6-6.5S521,1064.7,517.4,1064.7L517.4,1064.7z"/>
		<path class="st0" d="M613.9,1057.8c-15.8,2.6-32,4.5-48.1,5.7c-3.6,0.3-6.3,3.4-6,7c0.3,3.4,3.1,6,6.5,6c0.2,0,0.3,0,0.5,0
			c16.5-1.2,33-3.1,49.3-5.8c3.6-0.6,6-3.9,5.4-7.5S617.4,1057.2,613.9,1057.8L613.9,1057.8L613.9,1057.8z"/>
		<path class="st0" d="M243.2,980.5c-13.5-8.8-26.7-18.3-39.3-28.2c-2.7-2.3-6.9-2-9.2,0.7c-2.3,2.7-2,6.9,0.7,9.2
			c0.1,0.1,0.3,0.2,0.4,0.3c12.9,10.2,26.5,20,40.3,29c3,2,7.1,1.1,9.1-1.9S246.3,982.5,243.2,980.5L243.2,980.5L243.2,980.5z"/>
		<path class="st0" d="M328.8,1025.5c-14.9-6.1-29.6-13-43.9-20.5c-3.3-1.6-7.2-0.2-8.7,3.1c-1.5,3.1-0.3,6.8,2.6,8.5
			c14.6,7.7,29.7,14.8,45,21c0.8,0.3,1.6,0.5,2.5,0.5c3.6,0,6.5-3,6.5-6.6C332.8,1028.8,331.3,1026.5,328.8,1025.5L328.8,1025.5z"/>
		<path class="st0" d="M36.1,719.7c-1.2-3.4-5-5.2-8.4-3.9s-5.2,5-3.9,8.4c5.6,15.5,12,30.9,19,45.8c1.5,3.3,5.4,4.7,8.7,3.1
			c0,0,0,0,0.1,0c3.3-1.5,4.7-5.4,3.1-8.7c0,0,0,0,0,0C47.8,749.8,41.5,734.8,36.1,719.7z"/>
		<path class="st0" d="M77.3,807.1c-1.8-3.1-5.9-4.1-9-2.3c-3.1,1.8-4.1,5.9-2.3,9l0,0c8.4,14.2,17.5,28.1,27.2,41.5
			c2.1,2.9,6.2,3.6,9.1,1.5s3.6-6.2,1.5-9.1C94.3,834.6,85.4,821,77.3,807.1z"/>
		<path class="st0" d="M133.9,885.5c-2.4-2.7-6.6-2.8-9.2-0.4c-2.6,2.4-2.8,6.3-0.6,9c10.8,12.4,22.4,24.5,34.3,35.8
			c2.8,2.3,6.9,2,9.2-0.8c2.1-2.5,2-6.3-0.2-8.7C155.7,909.4,144.4,897.6,133.9,885.5z"/>
		<path class="st0" d="M421.3,1053.9c-15.8-3.3-31.5-7.3-46.9-12c-3.5-1-7.1,1-8.1,4.5c-1,3.4,0.9,7,4.3,8.1
			c15.8,4.8,32,9,48.1,12.3c0.4,0.1,0.9,0.1,1.3,0.1c3.6,0,6.5-2.9,6.5-6.6C426.5,1057.2,424.3,1054.5,421.3,1053.9L421.3,1053.9z"
			/>
		<path class="st0" d="M1036.9,689.8c-3.5-1-7.1,0.9-8.2,4.4c-4.7,15.4-10.1,30.7-16.2,45.6c-1.4,3.3,0.2,7.1,3.5,8.5c0,0,0,0,0,0
			c0.8,0.3,1.6,0.5,2.5,0.5c2.7,0,5.1-1.6,6.1-4.1c6.2-15.3,11.8-31,16.6-46.8C1042.3,694.5,1040.3,690.8,1036.9,689.8z"/>
		<path class="st0" d="M1001,780.9c-3.2-1.7-7.1-0.4-8.8,2.8c-2.4,4.5-4.8,9.1-7.3,13.6l-5.9,9.6c-3.7,6.2-7.5,12.4-11.4,18.5
			c-2,3-1.1,7.1,2,9s7.1,1.1,9-2l0,0c4-6.2,8-12.6,11.6-18.8l5.9-9.6l0.1-0.2c2.6-4.6,5.1-9.3,7.6-14
			C1005.5,786.6,1004.2,782.6,1001,780.9C1001,780.9,1001,780.9,1001,780.9z"/>
		<path class="st0" d="M1055.2,593.5c-3.6-0.4-6.8,2.2-7.2,5.8c-1.7,16-4.2,32.1-7.4,47.8c-0.7,3.5,1.6,7,5.1,7.7
			c0.4,0.1,0.9,0.1,1.3,0.1c3.1,0,5.8-2.2,6.4-5.2c3.3-16.1,5.8-32.6,7.6-49C1061.4,597.2,1058.8,594,1055.2,593.5
			C1055.2,593.5,1055.2,593.5,1055.2,593.5z"/>
		<path class="st0" d="M707.3,1033.2c-15.1,5.5-30.6,10.4-46.2,14.4c-3.5,0.9-5.6,4.5-4.6,8c0.8,2.9,3.3,4.8,6.3,4.9
			c0.6,0,1.1-0.1,1.7-0.2c15.9-4.2,31.9-9.2,47.3-14.8c3.4-1.2,5.2-4.9,4-8.3c-1.2-3.4-4.9-5.2-8.3-4
			C707.5,1033.2,707.4,1033.2,707.3,1033.2L707.3,1033.2z"/>
		<path class="st0" d="M948.6,863.7c-2.8-2.2-6.9-1.8-9.2,1.1c0,0,0,0,0,0c-9.9,12.7-20.6,25-31.6,36.7c-2.5,2.6-2.4,6.8,0.3,9.3
			s6.8,2.4,9.3-0.3c11.3-12,22.2-24.6,32.4-37.6C951.9,870,951.5,865.9,948.6,863.7C948.6,863.7,948.6,863.7,948.6,863.7z"/>
		<path class="st0" d="M794.7,991.8c-13.8,8.2-28.2,15.9-42.7,22.8c-3.3,1.5-4.6,5.4-3.1,8.7c1.1,2.3,3.4,3.7,5.9,3.7
			c1,0,1.9-0.2,2.8-0.6c14.9-7.1,29.6-14.9,43.8-23.3c3.1-1.8,4.1-5.9,2.3-9C801.8,991,797.8,989.9,794.7,991.8z"/>
		<path class="st0" d="M872.9,935c-12.1,10.6-24.8,20.8-37.8,30.2c-2.9,2.1-3.6,6.2-1.5,9.1c2.1,2.9,6.2,3.6,9.1,1.5
			c0,0,0.1,0,0.1-0.1c13.3-9.7,26.4-20.1,38.8-31c2.7-2.4,3-6.5,0.6-9.2C879.8,932.9,875.6,932.6,872.9,935L872.9,935z"/>
		<path class="st1" d="M1226,542.6l-122.6-120.1v107.7h-33.7c-1.8-90.1-26.2-178.4-71-256.6c-0.2-0.7-0.5-1.4-0.9-2
			C848.9,12.3,517.9-77.3,258.6,71.7c-24.3,14-47.5,29.8-69.4,47.3C95,194.6,28,300.6,0.6,417.5c-1,4.2,0.3,8.5,3.3,11.5
			l113.8,112.1L3.7,653.4c-4.8,4.7-4.9,12.5-0.1,17.3s12.5,4.9,17.3,0.1l123-121c4.8-4.7,4.9-12.5,0.1-17.3c0,0-0.1-0.1-0.1-0.1
			l-117.8-116C83.2,186.6,286.7,26.3,524.2,24.6c1.2,0.4,2.6,0.6,3.9,0.6c285.2,0,517.3,232,517.3,517.3c0,6.8,5.5,12.3,12.2,12.3
			c0,0,0,0,0,0h45.8v108L1226,542.6z"/>
		<path class="st2" d="M524.8,77.6c-213.5,0-393.4,143.6-448.5,339.5l133,126.4l-133.9,123c54,197.6,234.7,342.8,449.4,342.8
			c257.3,0,465.8-208.5,465.8-465.8S782.1,77.6,524.8,77.6z"/>
		<g>
			<defs>
				<path id="SVGID_1_" d="M524.8,77.6c-213.5,0-393.4,143.6-448.5,339.5l133,126.4l-133.9,123c54,197.6,234.7,342.8,449.4,342.8
					c257.3,0,465.8-208.5,465.8-465.8S782.1,77.6,524.8,77.6z"/>
			</defs>
			<clipPath id="SVGID_2_">
				<use xlink:href="#SVGID_1_"  style="overflow:visible;"/>
			</clipPath>
			<g class="st3">
				<g>
					<g>
						<g id="XMLID_17_">
							<g>
								<polygon class="st4" points="65.8,328.6 65.8,381.3 74.2,367 								"/>
								<polygon class="st5" points="65.8,328.6 85.3,366.4 100.3,327.6 								"/>
								<polygon class="st5" points="74.2,367 88.6,401.1 85.3,366.4 								"/>
								<polygon class="st6" points="85.3,366.4 65.8,328.6 74.2,367 								"/>
								<polygon class="st6" points="85.3,366.4 88.6,401.1 102.4,391.5 								"/>
								<polygon class="st5" points="102.4,442.2 102.4,391.5 88.6,401.1 								"/>
								<polygon class="st4" points="88.6,401.1 92.8,499.3 102.4,442.2 								"/>
								<polygon class="st6" points="102.4,442.2 92.8,499.3 113.4,453.8 								"/>
								<polygon class="st4" points="85.3,366.4 102.4,391.5 107.7,373.4 								"/>
								<polygon class="st4" points="100.3,327.6 85.3,366.4 121.1,321.7 								"/>
								<polygon class="st6" points="102.4,391.5 102.4,442.2 114.1,406.5 								"/>
								<polygon class="st6" points="107.7,373.4 102.4,391.5 114.1,406.5 								"/>
								<polygon class="st6" points="114.1,406.5 102.4,442.2 125.8,435.8 								"/>
								<polygon class="st4" points="121.1,321.7 85.3,366.4 107.7,373.4 								"/>
								<polygon class="st4" points="144,426.8 107.7,373.4 114.1,406.5 								"/>
								<polygon class="st4" points="121.1,321.7 192.1,338.1 191.2,297.4 								"/>
								<polygon class="st6" points="125.8,435.8 154.7,491.9 154.1,450.8 								"/>
								<polygon class="st5" points="102.4,442.2 113.4,453.8 151.9,551.3 137.1,494 125.8,435.8 								"/>
								<polygon class="st4" points="137.1,494 151.9,551.3 154.7,491.9 								"/>
								<polygon class="st6" points="154.7,491.9 125.8,435.8 137.1,494 								"/>
								<polygon class="st4" points="107.7,373.4 168.5,430.5 164.8,398.5 								"/>
								<polygon class="st5" points="154.7,491.9 151.9,551.3 176.7,477.3 								"/>
								<polygon class="st4" points="164.8,398.5 232.6,398.5 234.3,346.7 								"/>
								<polygon class="st4" points="183.3,456.4 154.1,450.8 154.7,491.9 176.7,477.3 								"/>
								<polygon class="st6" points="176.7,477.3 186.7,506.4 193.8,504 								"/>
								<polygon class="st5" points="223.7,534.9 193.8,504 186.7,506.4 223.7,554.9 								"/>
								<polygon class="st5" points="234.3,286.7 192.1,338.1 234.3,346.7 								"/>
								<polygon class="st6" points="223.5,526.6 193.8,504 223.7,534.9 								"/>
								<polygon class="st6" points="235.2,509.5 223.5,526.6 223.7,534.9 								"/>
								<polygon class="st5" points="223.7,534.9 263,546.9 235.2,509.5 								"/>
								<polygon class="st5" points="234.3,346.7 232.6,398.5 260.7,402.6 242,363 								"/>
								<polygon class="st5" points="257.1,277.3 258,281.7 272,348.8 280.6,335.2 								"/>
								<polygon class="st4" points="263,546.9 223.7,534.9 246.5,547 270.6,563.3 								"/>
								<polygon class="st4" points="272,533.5 263,546.9 280.6,547 298.4,534.1 								"/>
								<polygon class="st6" points="263,546.9 270.6,563.3 280.6,547 								"/>
								<polygon class="st4" points="298.4,295.5 257.1,277.3 280.6,335.2 								"/>
								<polygon class="st5" points="280.6,335.2 272,348.8 333.1,348.8 								"/>
								<polygon class="st5" points="272,348.8 356,382 333.1,348.8 								"/>
								<polygon class="st6" points="298.4,295.5 280.6,335.2 366,330.1 								"/>
								<polygon class="st4" points="280.6,335.2 333.1,348.8 356,382 366,330.1 								"/>
								<polygon class="st4" points="272,456.4 306.2,482.2 232.6,398.5 								"/>
								<polygon class="st4" points="298.4,295.5 370.3,263.5 257.1,277.3 								"/>
								<polygon class="st7" points="323.3,538.8 299.8,499.3 298.4,534.1 								"/>
								<polygon class="st7" points="299.8,499.3 323.3,538.8 325.4,512.8 								"/>
								<polygon class="st7" points="298.4,534.1 319.7,557.7 323.3,538.8 								"/>
								<polygon class="st8" points="319.7,557.7 334.3,592.1 344.9,591.6 								"/>
								<polygon class="st8" points="325.4,512.8 323.3,538.8 369.1,539.9 								"/>
								<polygon class="st4" points="355.3,516.5 306.2,482.2 325.4,512.8 								"/>
								<polygon class="st5" points="260.7,402.6 306.2,482.2 355.3,516.5 334.7,492.2 310.5,462.4 								"/>
								<polygon class="st8" points="334.3,592.1 342.9,621.3 344.9,591.6 								"/>
								<polygon class="st8" points="342.9,621.3 347.5,652 366.7,614.6 								"/>
								<polygon class="st8" points="366.7,614.6 347.5,652 366,660.4 								"/>
								<polygon class="st5" points="356,382 299.1,386.2 371.8,410.8 								"/>
								<polygon class="st6" points="371.8,410.8 366,330.1 356,382 								"/>
								<polygon class="st7" points="366,660.4 347.5,652 372,679.7 								"/>
								<polygon class="st8" points="369.1,539.9 366,553.4 400.1,539.9 								"/>
								<polygon class="st8" points="374.1,641.3 366,660.4 399,643.4 								"/>
								<polygon class="st8" points="366,660.4 410.8,676.5 399,643.4 								"/>
								<polygon class="st5" points="371.8,410.8 299.1,386.2 377.7,426.8 								"/>
								<polygon class="st6" points="411.3,418.2 371.8,410.8 377.7,426.8 								"/>
								<polygon class="st4" points="385.7,307.7 478.1,362.2 466.8,307.3 								"/>
								<polygon class="st5" points="411.3,418.2 377.7,426.8 447.8,489.4 								"/>
								<polygon class="st8" points="399,643.4 410.8,676.5 416.4,660.1 								"/>
								<polygon class="st7" points="366,660.4 372,679.7 394,676.5 401.9,676.5 410.8,676.5 								"/>
								<polygon class="st8" points="404.7,718.4 437.9,735.5 437.9,722.4 								"/>
								<polygon class="st4" points="409.1,233 429.4,278.4 472.7,194.1 								"/>
								<polygon class="st8" points="431.4,526.4 400.1,539.9 419.2,559 								"/>
								<polygon class="st4" points="411.3,418.2 447.8,489.4 474.2,450.8 								"/>
								<polygon class="st7" points="415.8,604.3 427.8,618.8 454.2,622.4 411.5,590.3 								"/>
								<polygon class="st5" points="472.7,194.1 429.4,278.4 489.8,284.9 								"/>
								<polygon class="st8" points="456.7,557.3 434.5,573.7 473.8,581.4 								"/>
								<polygon class="st8" points="480.1,523.9 431.4,526.4 437.9,536.4 								"/>
								<polygon class="st8" points="437.9,722.4 437.9,735.5 466.2,722.4 								"/>
								<polygon class="st8" points="437.9,536.4 499.7,533.1 480.1,523.9 								"/>
								<polygon class="st7" points="411.5,590.3 454.2,622.4 438.5,601.7 424,593.3 								"/>
								<polygon class="st7" points="455.6,584.4 438.5,601.7 465.2,609.3 								"/>
								<polygon class="st7" points="438.5,601.7 454.2,622.4 454.5,611.4 								"/>
								<polygon class="st8" points="465.2,609.3 438.5,601.7 454.5,611.4 								"/>
								<polygon class="st7" points="454.5,611.4 454.2,622.4 465.2,609.3 								"/>
								<polygon class="st8" points="473.8,581.4 434.5,573.7 455.6,584.4 								"/>
								<polygon class="st6" points="429.4,278.4 423.5,293.9 466.8,307.3 489.8,284.9 								"/>
								<polygon class="st6" points="466.8,307.3 478.1,362.2 489.8,284.9 								"/>
								<polygon class="st6" points="474.2,450.8 467,474.4 502.1,465.8 								"/>
								<polygon class="st8" points="481.2,553.1 470.5,553.1 487.6,563.3 								"/>
								<polygon class="st8" points="486.9,572.2 456.7,557.3 473.8,581.4 								"/>
								<polygon class="st7" points="473.8,581.4 489,598.9 500.8,581.4 								"/>
								<polygon class="st7" points="473.8,581.4 500.8,581.4 486.9,572.2 								"/>
								<polygon class="st6" points="489.8,284.9 478.1,362.2 524.2,352.1 								"/>
								<polygon class="st7" points="489,598.9 455.6,584.4 476.9,601 498.3,622.4 								"/>
								<polygon class="st7" points="483.4,539.9 508.9,546.3 499.7,533.1 								"/>
								<polygon class="st8" points="485.7,630.6 491.4,673 500.8,646.9 								"/>
								<polygon class="st5" points="489.8,284.9 524.2,352.1 539.9,351 								"/>
								<polygon class="st8" points="481.2,553.1 509.3,572.2 483.4,539.9 								"/>
								<polygon class="st7" points="483.4,539.9 509.3,572.2 508.9,546.3 								"/>
								<polygon class="st7" points="480.1,523.9 499.7,533.1 508.9,526.4 								"/>
								<polygon class="st7" points="500.8,581.4 489,598.9 502.5,598.6 								"/>
								<polygon class="st4" points="519.6,374.5 524.2,352.1 478.1,362.2 524.2,413.4 								"/>
								<polygon class="st7" points="509.3,572.2 481.2,553.1 487.6,563.3 								"/>
								<polygon class="st7" points="524.2,546.3 509.3,572.2 524.2,565.1 								"/>
								<polygon class="st7" points="508.9,546.3 509.3,572.2 524.2,546.3 								"/>
								<polygon class="st5" points="539.9,351 519.6,374.5 628.4,403.2 								"/>
								<polygon class="st6" points="519.6,374.5 524.2,413.4 628.4,403.2 								"/>
								<polygon class="st4" points="524.2,352.1 519.6,374.5 539.9,351 								"/>
								<polygon class="st6" points="524.2,413.4 606,419.8 628.4,403.2 								"/>
								<polygon class="st9" points="502.1,465.8 467,474.4 531.3,485.5 575.6,472.1 								"/>
								<polygon class="st5" points="531.3,485.5 557.5,491.7 590,499.3 575.6,472.1 								"/>
								<polygon class="st8" points="552.7,546.9 596.5,575.1 580.5,540.9 								"/>
								<polygon class="st8" points="561.8,629 561.2,668 575.6,617.3 								"/>
								<polygon class="st8" points="575.6,617.3 561.2,668 575.6,649.8 								"/>
								<polygon class="st5" points="575.6,472.1 590,499.3 627.4,475.9 								"/>
								<polygon class="st4" points="606,419.8 579.9,450.2 633.8,444.9 								"/>
								<polygon class="st10" points="628.4,403.2 606,419.8 633.8,444.9 								"/>
								<polygon class="st7" points="627.4,475.9 652.3,485.1 685,452 								"/>
								<polygon class="st4" points="628.4,403.2 633.8,444.9 658,433.8 661.6,432.1 								"/>
								<polygon class="st7" points="633.8,444.9 627.4,475.9 658,433.8 								"/>
								<polygon class="st8" points="661.6,499.3 661.6,527.8 694.3,526.4 								"/>
								<polygon class="st8" points="696,492.8 652.3,485.1 661.6,499.3 								"/>
								<polygon class="st8" points="661.6,527.8 674.4,540.9 705.7,534.1 								"/>
								<polygon class="st7" points="661.6,499.3 694.3,526.4 696,492.8 								"/>
								<polygon class="st8" points="674.4,540.9 678.7,563.3 700.3,550.6 								"/>
								<polygon class="st7" points="700.3,550.6 678.7,563.3 719.9,584.7 								"/>
								<polygon class="st8" points="685,452 696.4,474.4 719.2,458.1 								"/>
								<polygon class="st8" points="696.4,474.4 696,492.8 719.2,458.1 								"/>
								<polygon class="st8" points="700.3,550.6 739.8,582.9 725.5,552.7 								"/>
								<polygon class="st8" points="719.9,584.7 678.7,563.3 707.1,592.5 								"/>
								<polygon class="st8" points="741.2,444.9 719.2,458.1 754.4,456.4 								"/>
								<polygon class="st7" points="725.5,552.7 739.8,582.9 739.8,563.3 								"/>
								<polygon class="st8" points="729.5,504.6 734.9,516.8 759.3,511 								"/>
								<polygon class="st7" points="749.1,497.5 729.5,504.6 759.3,511 								"/>
								<polygon class="st8" points="719.2,458.1 729.5,504.6 749.1,497.5 								"/>
								<polygon class="st7" points="739.8,582.9 700.3,550.6 719.9,584.7 734.8,583.4 								"/>
								<polygon class="st7" points="734.9,516.8 751.9,529.2 759.3,511 								"/>
								<polygon class="st8" points="741.2,444.9 754.4,456.4 786.8,448.4 								"/>
								<polygon class="st8" points="754.4,456.4 719.2,458.1 762.3,484.4 								"/>
								<polygon class="st8" points="762.3,484.4 719.2,458.1 749.1,497.5 								"/>
								<polygon class="st7" points="749.1,497.5 759.3,511 762.3,484.4 								"/>
								<polygon class="st7" points="759.3,511 751.9,529.2 773.3,524.2 								"/>
								<polygon class="st8" points="752.6,634.5 781.1,637.7 778.3,630.2 								"/>
								<polygon class="st8" points="761.9,440 741.2,444.9 786.8,448.4 								"/>
								<polygon class="st8" points="777.1,484.7 762.3,484.4 780.4,508.6 								"/>
								<polygon class="st8" points="797.1,478.8 754.4,456.4 777.1,484.7 								"/>
								<polygon class="st8" points="778.3,630.2 781.1,637.7 792.4,625.9 								"/>
								<polygon class="st8" points="786.8,448.4 797.1,478.8 823.1,475.9 								"/>
								<polygon class="st11" points="777.1,484.7 804.2,524.9 818,520.3 791,490.4 								"/>
								<polygon class="st11" points="797.1,478.8 818,520.3 819.8,489.4 								"/>
								<polygon class="st7" points="819.8,489.4 818,520.3 829.8,501.1 								"/>
								<polygon class="st8" points="823.1,475.9 797.1,478.8 819.8,489.4 								"/>
								<polygon class="st7" points="819.8,489.4 829.8,501.1 845.8,499.3 823.1,475.9 								"/>
								<polygon class="st8" points="823.1,475.9 830.5,473.3 786.8,448.4 								"/>
								<polygon class="st8" points="866.5,511 895.3,549.5 891,517.5 								"/>
								<polygon class="st8" points="901.9,499.3 895.3,508.9 905.7,533.5 								"/>
							</g>
							<g>
								<polyline class="st12" points="627.4,475.9 590,499.3 557.5,491.7 531.3,485.5 467,474.4 474.2,450.8 447.8,489.4 
									377.7,426.8 299.1,386.2 356,382 272,348.8 258,281.7 257.1,277.3 								"/>
								<polyline class="st12" points="472.7,194.1 489.8,284.9 539.9,351 628.4,403.2 661.6,432.1 658,433.8 								"/>
								<polyline class="st12" points="298.4,534.1 280.6,547 270.6,563.3 246.5,547 223.7,534.9 223.7,554.9 186.7,506.4 
									176.7,477.3 151.9,551.3 113.4,453.8 92.8,499.3 88.6,401.1 74.2,367 65.8,381.3 65.8,328.6 								"/>
								<polyline class="st12" points="234.3,286.7 234.3,346.7 242,363 260.7,402.6 310.5,462.4 334.7,492.2 355.3,516.5 
									325.4,512.8 								"/>
								<polygon class="st13" points="472.7,194.1 429.4,278.4 489.8,284.9 524.2,352.1 539.9,351 519.6,374.5 628.4,403.2 
									633.8,444.9 579.9,450.2 606,419.8 524.2,413.4 478.1,362.2 466.8,307.3 385.7,307.7 445.5,416.7 483.4,441.7 575.6,472.1 
									502.1,465.8 474.2,450.8 411.3,418.2 371.8,410.8 366,330.1 298.4,295.5 280.6,335.2 257.1,277.3 370.3,263.5 423.5,293.9 
									409.1,233 								"/>
								<polyline class="st13" points="590,499.3 575.6,472.1 579.9,450.2 524.2,413.4 483.4,441.7 579.9,450.2 								"/>
								<polyline class="st13" points="423.5,293.9 385.7,307.7 370.3,263.5 409.1,233 429.4,278.4 423.5,293.9 466.8,307.3 
									489.8,284.9 478.1,362.2 524.2,352.1 519.6,374.5 524.2,413.4 628.4,403.2 606,419.8 633.8,444.9 575.6,472.1 627.4,475.9 
																	"/>
								<polyline class="st13" points="409.1,233 385.7,227.8 370.3,263.5 298.4,295.5 257.1,277.3 								"/>
								<polygon class="st13" points="280.6,335.2 272,348.8 333.1,348.8 								"/>
								<polyline class="st13" points="333.1,348.8 356,382 366,330.1 280.6,335.2 								"/>
								<polyline class="st13" points="370.3,263.5 366,330.1 385.7,307.7 411.3,418.2 366,330.1 								"/>
								<polyline class="st13" points="445.5,416.7 474.2,450.8 483.4,441.7 502.1,465.8 467,474.4 								"/>
								<line class="st13" x1="531.3" y1="485.5" x2="575.6" y2="472.1"/>
								<polyline class="st13" points="447.8,489.4 411.3,418.2 445.5,416.7 429.4,363.3 483.4,441.7 478.1,362.2 385.7,307.7 
									429.4,363.3 478.1,362.2 								"/>
								<polyline class="st13" points="356,382 371.8,410.8 377.7,426.8 411.3,418.2 								"/>
								<line class="st13" x1="299.1" y1="386.2" x2="371.8" y2="410.8"/>
								<polyline class="st13" points="234.3,286.7 192.1,338.1 234.3,346.7 164.8,398.5 148.8,377.7 121.1,321.7 107.7,373.4 
									168.5,430.5 228.3,418.2 232.6,398.5 306.2,482.2 264.6,482.2 265.6,460.9 283.3,472.1 272,456.4 210.5,456.4 267.2,499.3 
									285.4,525.5 290.2,499.3 298.4,534.1 272,533.5 263,546.9 235.2,509.5 257.1,512.6 210.5,482.8 206.9,505.2 223.5,526.6 
									193.8,504 176.7,477.3 183.3,456.4 154.1,450.8 154.7,491.9 137.1,494 125.8,435.8 144,426.8 114.1,406.5 102.4,442.2 
									102.4,391.5 85.3,366.4 65.8,328.6 100.3,327.6 109.2,317.8 121.1,321.7 191.2,297.4 192.1,338.1 164.8,398.5 								"/>
								<polygon class="st13" points="100.3,327.6 121.1,321.7 85.3,366.4 								"/>
								<polyline class="st13" points="113.4,453.8 102.4,442.2 88.6,401.1 								"/>
								<polyline class="st13" points="65.8,328.6 74.2,367 85.3,366.4 88.6,401.1 102.4,391.5 114.1,406.5 125.8,435.8 
									102.4,442.2 92.8,499.3 								"/>
								<polyline class="st13" points="102.4,391.5 107.7,373.4 85.3,366.4 								"/>
								<polyline class="st13" points="114.1,406.5 107.7,373.4 144,426.8 168.5,430.5 154.1,450.8 125.8,435.8 168.5,430.5 
																	"/>
								<polyline class="st13" points="355.3,516.5 306.2,482.2 272,456.4 228.3,418.2 220.3,432.6 210.5,456.4 168.5,430.5 
																	"/>
								<polyline class="st13" points="164.8,398.5 168.5,430.5 220.3,432.6 272,456.4 232.6,398.5 164.8,398.5 107.7,373.4 
									148.8,377.7 164.8,351 121.1,321.7 192.1,338.1 164.8,351 164.8,398.5 								"/>
								<polyline class="st13" points="232.6,398.5 168.5,430.5 183.3,456.4 210.5,456.4 210.5,482.8 183.3,456.4 								"/>
								<polyline class="st13" points="125.8,435.8 154.7,491.9 151.9,551.3 137.1,494 								"/>
								<polyline class="st13" points="210.5,482.8 235.2,509.5 206.9,505.2 193.8,504 210.5,482.8 176.7,477.3 154.7,491.9 
																	"/>
								<polyline class="st13" points="210.5,482.8 267.2,499.3 257.1,512.6 272,533.5 285.4,525.5 264.6,482.2 210.5,456.4 
									265.6,460.9 								"/>
								<polyline class="st13" points="298.4,534.1 285.4,525.5 257.1,512.6 263,546.9 280.6,547 								"/>
								<polyline class="st13" points="264.6,482.2 290.2,499.3 299.8,499.3 306.2,482.2 260.7,402.6 232.6,398.5 234.3,346.7 
																	"/>
								<line class="st13" x1="325.4" y1="512.8" x2="306.2" y2="482.2"/>
								<polyline class="st13" points="270.6,563.3 263,546.9 223.7,534.9 223.5,526.6 235.2,509.5 223.7,534.9 								"/>
								<polyline class="st13" points="223.7,534.9 193.8,504 186.7,506.4 								"/>
								<polyline class="st14" points="372,679.7 347.5,652 342.9,621.3 334.3,592.1 319.7,557.7 298.4,534.1 299.8,499.3 
									325.4,512.8 369.1,539.9 400.1,539.9 431.4,526.4 480.1,523.9 508.9,526.4 								"/>
								<polyline class="st14" points="465.2,609.3 454.2,622.4 427.8,618.8 415.8,604.3 411.5,590.3 394.8,590 378.4,607.1 
									366.7,614.6 379.8,626.6 374.1,641.3 399,643.4 416.4,660.1 410.8,676.5 401.9,676.5 								"/>
								<line class="st14" x1="508.6" y1="613.6" x2="498.3" y2="622.4"/>
								<polyline class="st14" points="524.2,546.3 524.2,565.1 509.3,572.2 487.6,563.3 470.5,553.1 456.7,557.3 486.9,572.2 
									500.8,581.4 								"/>
								<polyline class="st14" points="823.1,475.9 830.5,473.3 786.8,448.4 761.9,440 741.2,444.9 719.2,458.1 685,452 658,433.8 
									633.8,444.9 627.4,475.9 652.3,485.1 661.6,499.3 661.6,527.8 674.4,540.9 678.7,563.3 707.1,592.5 								"/>
								<polyline class="st14" points="818,520.3 842.2,517.5 845.8,499.3 								"/>
								<polyline class="st14" points="734.8,583.4 739.8,582.9 739.8,563.3 725.5,552.7 700.3,550.6 705.7,534.1 694.3,526.4 
									714.9,506.4 729.5,504.6 734.9,516.8 751.9,529.2 773.3,524.2 780.4,508.6 								"/>
								<polyline class="st14" points="870.7,489.8 891,517.5 895.3,549.5 866.5,511 845.8,499.3 829.8,501.1 819.8,489.4 
									823.1,475.9 								"/>
								<polygon class="st14" points="780.4,508.6 804.2,524.9 824.1,555.2 818,520.3 791,490.4 777.1,484.7 762.3,484.4 
									749.1,497.5 759.3,511 								"/>
								<polygon class="st14" points="734.8,583.4 738.4,599.6 756.5,621 778.3,630.2 792.4,625.9 781.1,637.7 752.6,634.5 
									726.7,615.2 707.1,592.5 719.9,584.7 								"/>
								<polygon class="st14" points="870.7,489.8 895.3,508.9 905.7,533.5 901.9,499.3 881.1,482.8 823.1,475.9 								"/>
								<polygon class="st14" points="508.9,526.4 550,523.3 580.5,540.9 596.5,575.1 552.7,546.9 524.2,546.3 508.9,546.3 
									499.7,533.1 								"/>
								<polygon class="st14" points="500.8,581.4 548.1,589.4 575.6,617.3 575.6,649.8 561.2,668 561.8,629 538.2,610.5 
									508.6,613.6 502.5,598.6 								"/>
								<polygon class="st14" points="498.3,622.4 500.8,646.9 491.4,673 485.7,630.6 465.2,609.3 454.5,611.4 438.5,601.7 
									437.9,590 455.6,584.4 476.9,601 								"/>
								<polygon class="st14" points="401.9,676.5 411.3,699.9 437.9,722.4 466.2,722.4 437.9,735.5 404.7,718.4 386.6,697.5 
									372,679.7 394,676.5 								"/>
								<polyline class="st15" points="299.8,499.3 323.3,538.8 366,553.4 419.2,559 437.9,536.4 483.4,539.9 442.1,552.7 
									434.5,573.7 473.8,581.4 489,598.9 455.6,584.4 404.1,575.1 424,593.3 411.5,590.3 388.4,570 372.7,589.4 366.7,614.6 
									366,660.4 410.8,676.5 399,643.4 366,660.4 								"/>
								<polyline class="st15" points="366,660.4 374.1,641.3 366.7,614.6 347.5,652 366,660.4 372,679.7 								"/>
								<polyline class="st15" points="366.7,614.6 342.9,621.3 372.7,589.4 394.8,590 388.4,570 323.3,538.8 319.7,557.7 
									388.4,570 								"/>
								<polyline class="st15" points="342.9,621.3 344.9,591.6 372.7,589.4 319.7,557.7 344.9,591.6 334.3,592.1 								"/>
								<polyline class="st15" points="454.2,622.4 438.5,601.7 424,593.3 437.9,590 404.1,575.1 411.5,590.3 454.2,622.4 
									454.5,611.4 								"/>
								<polyline class="st15" points="489,598.9 498.3,622.4 502.5,598.6 489,598.9 500.8,581.4 473.8,581.4 455.6,584.4 
									434.5,573.7 456.7,557.3 473.8,581.4 486.9,572.2 								"/>
								<polyline class="st15" points="524.2,546.3 509.3,572.2 508.9,546.3 483.4,539.9 456.7,557.3 442.1,552.7 437.9,536.4 
									431.4,526.4 419.2,559 434.5,573.7 437.9,536.4 								"/>
								<polygon class="st15" points="499.7,533.1 480.1,523.9 437.9,536.4 								"/>
								<polyline class="st15" points="470.5,553.1 481.2,553.1 487.6,563.3 								"/>
								<polyline class="st15" points="483.4,539.9 481.2,553.1 509.3,572.2 483.4,539.9 499.7,533.1 580.5,540.9 552.7,546.9 
																	"/>
								<polyline class="st15" points="388.4,570 404.1,575.1 434.5,573.7 408.7,565.2 419.2,559 400.1,539.9 366,553.4 
									369.1,539.9 323.3,538.8 325.4,512.8 								"/>
								<line class="st15" x1="298.4" y1="534.1" x2="323.3" y2="538.8"/>
								<line class="st15" x1="550" y1="523.3" x2="499.7" y2="533.1"/>
								<polygon class="st15" points="500.8,581.4 575.6,617.3 538.2,610.5 								"/>
								<polyline class="st15" points="561.8,629 575.6,617.3 561.2,668 								"/>
								<polygon class="st15" points="438.5,601.7 455.6,584.4 465.2,609.3 								"/>
								<polyline class="st15" points="465.2,609.3 498.3,622.4 485.7,630.6 500.8,646.9 								"/>
								<polyline class="st15" points="411.3,699.9 392.7,692.2 404.7,718.4 437.9,722.4 437.9,735.5 								"/>
								<polyline class="st15" points="401.9,676.5 392.7,692.2 372,679.7 								"/>
								<polyline class="st15" points="658,433.8 627.4,475.9 685,452 696.4,474.4 719.2,458.1 754.4,456.4 741.2,444.9 
									786.8,448.4 823.1,475.9 797.1,478.8 786.8,448.4 								"/>
								<polyline class="st15" points="786.8,448.4 754.4,456.4 797.1,478.8 819.8,489.4 818,520.3 829.8,501.1 								"/>
								<polyline class="st15" points="773.3,524.2 759.3,511 734.9,516.8 								"/>
								<polyline class="st15" points="719.2,458.1 714.9,506.4 696,492.8 719.2,458.1 729.5,504.6 								"/>
								<polyline class="st15" points="652.3,485.1 696,492.8 694.3,526.4 661.6,499.3 696,492.8 696.4,474.4 652.3,485.1 685,452 
																	"/>
								<polyline class="st15" points="694.3,526.4 661.6,527.8 705.7,534.1 674.4,540.9 700.3,550.6 719.9,584.7 678.7,563.3 
									700.3,550.6 								"/>
								<polyline class="st14" points="725.5,552.7 739.8,582.9 700.3,550.6 								"/>
								<polyline class="st14" points="707.1,592.5 738.4,599.6 726.7,615.2 756.5,621 752.6,634.5 778.3,630.2 781.1,637.7 
																	"/>
								<polyline class="st15" points="759.3,511 762.3,484.4 780.4,508.6 777.1,484.7 804.2,524.9 818,520.3 797.1,478.8 
									777.1,484.7 754.4,456.4 762.3,484.4 719.2,458.1 749.1,497.5 729.5,504.6 759.3,511 751.9,529.2 								"/>
								<polyline class="st15" points="823.1,475.9 845.8,499.3 870.7,489.8 866.5,511 891,517.5 								"/>
								<polyline class="st15" points="901.9,499.3 895.3,508.9 881.1,482.8 870.7,489.8 								"/>
							</g>
						</g>
					</g>
					<g>
						<g>
							<g>
								<circle class="st16" cx="696.4" cy="474.4" r="4.8"/>
							</g>
							<g>
								<circle class="st16" cx="719.2" cy="458.9" r="4.8"/>
							</g>
							<g>
								<circle class="st16" cx="755.3" cy="456.3" r="4.8"/>
							</g>
							<g>
								<circle class="st16" cx="796.9" cy="478.8" r="4.8"/>
							</g>
							<g>
								<circle class="st16" cx="758.9" cy="511.1" r="10.2"/>
							</g>
							<g>
								<circle class="st16" cx="895.3" cy="549.2" r="4.8"/>
							</g>
							<g>
								<circle class="st16" cx="865.9" cy="511.1" r="8.9"/>
							</g>
							<g>
								<circle class="st16" cx="901.6" cy="501.1" r="4.8"/>
							</g>
							<g>
								<circle class="st16" cx="818.1" cy="520.3" r="4.8"/>
							</g>
							<g>
								<circle class="st16" cx="819.8" cy="489.4" r="4.8"/>
							</g>
							<g>
								<circle class="st16" cx="719.2" cy="583.4" r="4.8"/>
							</g>
							<g>
								<circle class="st16" cx="727.1" cy="615.1" r="4.8"/>
							</g>
							<g>
								<circle class="st16" cx="792.1" cy="626.2" r="11.5"/>
							</g>
							<g>
								<circle class="st16" cx="762.2" cy="484.4" r="4.8"/>
							</g>
							<g>
								<circle class="st16" cx="654.1" cy="484.4" r="4.8"/>
							</g>
							<g>
								<circle class="st16" cx="684.8" cy="453.3" r="4.8"/>
							</g>
							<g>
								<circle class="st16" cx="694.5" cy="524.2" r="4.8"/>
							</g>
							<g>
								<circle class="st16" cx="674.4" cy="541.3" r="4.8"/>
							</g>
							<g>
								<circle class="st16" cx="700.3" cy="550.5" r="4.8"/>
							</g>
						</g>
						<g>
							<g>
								<circle class="st16" cx="319.7" cy="557.7" r="4.8"/>
							</g>
							<g>
								<circle class="st16" cx="366" cy="553.4" r="4.8"/>
							</g>
							<g>
								<circle class="st16" cx="398.9" cy="539.7" r="4.8"/>
							</g>
							<g>
								<circle class="st16" cx="450.3" cy="551.2" r="4.8"/>
							</g>
							<g>
								<circle class="st16" cx="406.5" cy="575.1" r="4.8"/>
							</g>
							<g>
								<circle class="st16" cx="548.6" cy="621.6" r="4.8"/>
							</g>
							<g>
								<circle class="st16" cx="502" cy="581.5" r="4.8"/>
							</g>
							<g>
								<circle class="st16" cx="551.7" cy="523.9" r="4.8"/>
							</g>
							<g>
								<circle class="st16" cx="561.2" cy="667.9" r="4.8"/>
							</g>
							<g>
								<circle class="st16" cx="575.7" cy="617.2" r="4.8"/>
							</g>
							<g>
								<circle class="st16" cx="438.5" cy="601.8" r="7.1"/>
							</g>
							<g>
								<circle class="st16" cx="497.7" cy="621.3" r="4.8"/>
							</g>
							<g>
								<circle class="st16" cx="508.8" cy="545.2" r="4.8"/>
							</g>
							<g>
								<circle class="st16" cx="508.8" cy="570.3" r="4.8"/>
							</g>
							<g>
								<circle class="st16" cx="367.2" cy="660.6" r="4.8"/>
							</g>
							<g>
								<circle class="st16" cx="410.8" cy="676.5" r="4.8"/>
							</g>
							<g>
								<circle class="st16" cx="411.3" cy="699.9" r="4.8"/>
							</g>
							<g>
								<circle class="st16" cx="420.3" cy="556.8" r="4.8"/>
							</g>
							<g>
								<circle class="st16" cx="323.3" cy="538.8" r="10.2"/>
							</g>
							<g>
								<circle class="st16" cx="325.4" cy="512.8" r="4.8"/>
							</g>
							<g>
								<circle cx="306.2" cy="482.3" r="4.8"/>
							</g>
							<g>
								<circle cx="272.1" cy="456.4" r="6.9"/>
							</g>
							<g>
								<circle cx="232.6" cy="398.5" r="4.8"/>
							</g>
							<g>
								<circle cx="235.2" cy="346.7" r="4.8"/>
							</g>
							<g>
								<circle cx="191.5" cy="337.2" r="9.3"/>
							</g>
							<g>
								<circle cx="163.7" cy="351.2" r="4.8"/>
							</g>
							<g>
								<circle cx="163.7" cy="398.6" r="11.6"/>
							</g>
							<g>
								<circle cx="170.4" cy="429.8" r="4.8"/>
							</g>
							<g>
								<circle cx="210.5" cy="456.4" r="4.8"/>
							</g>
							<g>
								<circle cx="267.3" cy="499.3" r="4.8"/>
							</g>
							<g>
								<circle cx="272.1" cy="533.5" r="4.8"/>
							</g>
							<g>
								<circle cx="235.2" cy="509.5" r="4.8"/>
							</g>
							<g>
								<circle cx="210.5" cy="482.8" r="4.8"/>
							</g>
							<g>
								<circle cx="176.7" cy="477.3" r="4.8"/>
							</g>
							<g>
								<circle cx="154.7" cy="493.4" r="4.8"/>
							</g>
							<g>
								<circle cx="125.9" cy="435.8" r="4.8"/>
							</g>
							<g>
								<circle cx="107.7" cy="373.4" r="4.8"/>
							</g>
							<g>
								<circle cx="121.1" cy="321.6" r="4.8"/>
							</g>
							<g>
								<circle cx="355.3" cy="516.4" r="4.8"/>
							</g>
							<g>
								<circle cx="93.3" cy="497.5" r="4.8"/>
							</g>
							<g>
								<circle cx="65.7" cy="379" r="4.8"/>
							</g>
							<g>
								<circle cx="234.4" cy="286.6" r="4.8"/>
							</g>
							<g>
								<circle cx="257.1" cy="277.4" r="4.8"/>
							</g>
							<g>
								<circle cx="298.4" cy="296.3" r="4.8"/>
							</g>
							<g>
								<circle cx="370.2" cy="263.5" r="4.8"/>
							</g>
							<g>
								<circle cx="472.2" cy="194.1" r="10.1"/>
							</g>
							<g>
								<circle cx="489" cy="286.6" r="4.8"/>
							</g>
							<g>
								<circle cx="466.8" cy="307.2" r="4.8"/>
							</g>
							<g>
								<circle cx="386.9" cy="307.8" r="4.8"/>
							</g>
							<g>
								<circle cx="366" cy="330.2" r="4.8"/>
							</g>
							<g>
								<circle cx="356" cy="381.9" r="4.8"/>
							</g>
							<g>
								<circle cx="272.1" cy="348.9" r="4.8"/>
							</g>
							<g>
								<circle cx="378.9" cy="426.8" r="4.8"/>
							</g>
							<g>
								<circle cx="447.6" cy="487.6" r="4.8"/>
							</g>
							<g>
								<circle cx="473.7" cy="450.8" r="4.8"/>
							</g>
							<g>
								<circle cx="524.3" cy="414" r="4.8"/>
							</g>
							<g>
								<circle cx="627.4" cy="401.1" r="4.8"/>
							</g>
							<g>
								<circle cx="632.2" cy="443.6" r="4.8"/>
							</g>
							<g>
								<circle cx="575.7" cy="472.1" r="4.8"/>
							</g>
							<g>
								<circle cx="431.7" cy="364.5" r="11.4"/>
							</g>
							<g>
								<circle cx="524.3" cy="352.7" r="4.8"/>
							</g>
							<g>
								<circle cx="445.5" cy="416.6" r="4.8"/>
							</g>
							<g>
								<circle cx="429.7" cy="278.4" r="4.8"/>
							</g>
							<g>
								<circle cx="409.2" cy="234.2" r="4.8"/>
							</g>
							<g>
								<circle class="st16" cx="372" cy="589.9" r="4.8"/>
							</g>
							<g>
								<circle class="st16" cx="343.5" cy="591.9" r="6.9"/>
							</g>
							<g>
								<circle class="st16" cx="367.2" cy="613.7" r="4.8"/>
							</g>
						</g>
					</g>
				</g>
				<g>
					<g id="XMLID_25_">
						<g>
							<polygon class="st4" points="-95.6,77.7 -75.7,159.1 -46,71.2 							"/>
							<polygon class="st4" points="-75.7,159.1 -77.2,215.9 -39.6,154.8 							"/>
							<polygon class="st4" points="-39.6,154.8 -77.2,215.9 -13.8,225.9 							"/>
							<polygon class="st4" points="-77.2,215.9 -41.9,277.4 -13.8,225.9 							"/>
							<polygon class="st4" points="-46,71.2 -75.7,159.1 -39.6,154.8 							"/>
							<polygon class="st5" points="51.8,-9.8 -95.6,77.7 -46,71.2 							"/>
							<polygon class="st4" points="-46,71.2 -39.6,154.8 22.1,170.9 							"/>
							<polygon class="st4" points="-44,72 -46,71.2 22.1,170.9 18.8,121.1 							"/>
							<polygon class="st4" points="-46,71.2 195,123.8 51.8,-9.8 							"/>
							<polygon class="st4" points="-13.8,225.9 -41.9,277.4 16.5,277.4 							"/>
							<polygon class="st4" points="-39.6,154.8 -13.8,225.9 22.1,170.9 							"/>
							<polygon class="st4" points="22.1,170.9 -13.8,225.9 16.5,277.4 							"/>
							<polygon class="st4" points="16.5,277.4 -41.9,277.4 48.8,316.8 							"/>
							<polygon class="st4" points="22.1,170.9 16.5,277.4 62.1,244.4 							"/>
							<polygon class="st4" points="16.5,277.4 65.8,328.6 109.2,317.8 							"/>
							<polygon class="st4" points="16.5,277.4 109.2,317.8 121.1,321.6 							"/>
							<polygon class="st4" points="16.5,277.4 121.1,321.6 87.5,263.5 							"/>
							<polygon class="st4" points="16.5,277.4 87.5,263.5 62.1,244.4 							"/>
							<polygon class="st4" points="22.1,170.9 62.1,244.4 112.8,244.4 							"/>
							<polygon class="st5" points="65.8,328.6 16.5,277.4 48.8,316.8 							"/>
							<polygon class="st4" points="51.8,-9.8 195,123.8 149.8,24 							"/>
							<polygon class="st5" points="51.8,-9.8 149.8,24 140.3,-19 							"/>
							<polygon class="st4" points="69.3,117.7 191.6,124.7 195,123.8 -46,71.2 -44,72 							"/>
							<polygon class="st4" points="87.5,263.5 121.1,321.6 112.8,244.4 							"/>
							<polygon class="st4" points="175.2,148.2 135.9,190.4 182.2,254.8 							"/>
							<polygon class="st4" points="140.3,-19 149.8,24 175.3,42.4 							"/>
							<polygon class="st5" points="140.3,-19 175.3,42.4 163.7,-23.6 							"/>
							<polygon class="st5" points="175.3,42.4 149.8,24 195,123.8 							"/>
							<polygon class="st5" points="163.7,-23.6 175.3,42.4 186,-0.6 							"/>
							<polygon class="st5" points="193.9,125.1 175.2,148.2 215.3,195.4 195.3,124.9 194.9,124.9 							"/>
							<polygon class="st4" points="175.2,148.2 182.2,254.8 180.6,222.1 							"/>
							<polygon class="st5" points="175.2,148.2 180.6,222.1 215.3,195.5 215.3,195.4 							"/>
							<polygon class="st5" points="175.3,42.4 195,123.8 215.4,77.7 							"/>
							<polygon class="st4" points="180.6,222.1 205.7,240.8 215.3,195.5 							"/>
							<polygon class="st5" points="180.6,222.1 182.2,254.8 205.7,240.8 							"/>
							<polygon class="st4" points="186,-0.6 267.2,94.6 243.8,-37.4 							"/>
							<polygon class="st4" points="188.1,125.6 193.9,125.1 194.1,124.8 191.6,124.7 							"/>
							<polygon class="st5" points="205.7,240.8 191.2,297.4 234.4,286.6 							"/>
							<polygon class="st4" points="191.6,124.7 194.1,124.8 195,123.8 							"/>
							<polygon class="st5" points="194.1,124.8 193.9,125.1 194.9,124.9 							"/>
							<polygon class="st5" points="195,123.8 194.1,124.8 194.9,124.9 195.3,124.9 							"/>
							<polygon class="st4" points="215.4,77.7 195,123.8 243.8,108.4 							"/>
							<polygon class="st4" points="195,123.8 195.3,124.9 215.3,195.4 243.8,108.4 							"/>
							<polygon class="st5" points="224.5,239.3 215.3,195.5 205.7,240.8 							"/>
							<polygon class="st5" points="215.3,195.4 215.3,195.5 215.4,195.5 232.6,204.2 243.8,108.4 							"/>
							<polygon class="st5" points="223.7,-77.4 243.8,-37.4 310.6,20.9 							"/>
							<polygon class="st5" points="257.1,277.4 232.6,204.2 227.7,239 							"/>
							<polygon class="st4" points="258.8,167.5 232.6,204.2 280.6,199.8 							"/>
							<polygon class="st4" points="232.6,204.2 257.1,277.4 272.1,218.3 							"/>
							<polygon class="st4" points="243.8,108.4 232.6,204.2 258.8,167.5 							"/>
							<polygon class="st4" points="267.2,94.6 215.4,77.7 243.8,108.4 							"/>
							<polygon class="st5" points="267.2,-62.8 223.7,-77.4 310.6,20.9 							"/>
							<polygon class="st4" points="272.1,218.3 257.1,277.4 311.4,244.4 							"/>
							<polygon class="st4" points="257.1,277.4 370.2,263.5 311.4,244.4 							"/>
							<polygon class="st4" points="243.8,-37.4 267.2,94.6 276.9,47.8 							"/>
							<polygon class="st4" points="267.2,-62.8 310.6,20.9 323.3,-25.9 							"/>
							<polygon class="st4" points="267.2,94.6 280.6,199.8 293.5,86.2 							"/>
							<polygon class="st5" points="267.2,-62.8 323.3,-25.9 306.2,-88.1 							"/>
							<polygon class="st4" points="280.6,199.8 232.6,204.2 272.1,218.3 							"/>
							<polygon class="st4" points="312.1,136.9 280.6,199.8 346.7,239 							"/>
							<polygon class="st4" points="293.5,86.2 280.6,199.8 312.1,136.9 							"/>
							<polygon class="st4" points="293.5,86.2 312.1,136.9 346.7,162.6 							"/>
							<polygon class="st4" points="310.6,20.9 319.8,60.1 370.2,70 							"/>
							<polygon class="st4" points="346.7,239 280.6,199.8 311.4,244.4 							"/>
							<polygon class="st5" points="323.3,-25.9 370.2,70 385.7,18.6 							"/>
							<polygon class="st5" points="385.7,18.6 306.2,-88.1 323.3,-25.9 							"/>
							<polygon class="st4" points="360.8,165.3 293.5,86.2 346.7,162.6 							"/>
							<polygon class="st4" points="360.8,165.3 404.3,189.1 411.3,136.9 							"/>
							<polygon class="st4" points="346.7,162.6 370.2,263.5 385.7,227.7 							"/>
							<polygon class="st4" points="370.2,70 319.8,60.1 402,101.6 							"/>
							<polygon class="st4" points="385.7,18.6 370.2,70 402,101.6 							"/>
							<polygon class="st4" points="385.7,227.7 409.2,233.1 472.7,194.1 							"/>
							<polygon class="st4" points="424.8,123.8 385.7,18.6 402,101.6 							"/>
							<polygon class="st4" points="411.3,136.9 404.3,189.1 443.1,182.3 							"/>
							<polygon class="st4" points="443.1,182.3 402,101.6 411.3,136.9 							"/>
							<polygon class="st4" points="402,101.6 443.1,182.3 424.8,123.8 							"/>
							<polygon class="st4" points="404.3,189.1 472.2,194.1 472.1,193.9 443.1,182.3 							"/>
							<polygon class="st5" points="472.1,193.9 424.8,123.8 443.1,182.3 							"/>
							<polygon class="st4" points="472.2,194.1 404.3,189.1 385.7,227.7 472.7,194.1 							"/>
						</g>
						<g>
							<polyline class="st13" points="276.9,47.8 319.8,60.1 310.6,20.9 323.3,-25.9 306.2,-88.1 267.2,-62.8 223.7,-77.4 
								310.6,20.9 243.8,-37.4 223.7,-77.4 							"/>
							<polyline class="st13" points="310.6,20.9 370.2,70 385.7,18.6 323.3,-25.9 							"/>
							<polyline class="st13" points="385.7,18.6 402,101.6 370.2,70 							"/>
							<polyline class="st13" points="472.7,194.1 472.2,194.1 404.3,189.1 385.7,227.7 346.7,162.6 							"/>
							<polyline class="st13" points="404.3,189.1 360.8,165.3 293.5,86.2 411.3,136.9 							"/>
							<polyline class="st13" points="402,101.6 411.3,136.9 443.1,182.3 							"/>
							<polyline class="st13" points="370.2,263.5 346.7,239 346.7,162.6 							"/>
							<polyline class="st13" points="346.7,239 311.4,244.4 280.6,199.8 272.1,218.3 311.4,244.4 							"/>
							<polyline class="st12" points="140.3,-19 223.7,-77.4 306.2,-88.1 385.7,18.6 424.8,123.8 472.1,193.9 472.2,194.1 							
								"/>
							<polyline class="st12" points="257.1,277.4 227.7,239 215.4,195.5 							"/>
							<polyline class="st12" points="215.3,195.4 195.3,124.9 195,123.8 149.8,24 140.3,-19 51.8,-9.8 -95.6,77.7 -75.7,159.1 
								-77.2,215.9 -41.9,277.4 48.8,316.8 65.8,328.6 							"/>
							<polyline class="st12" points="234.4,286.6 224.5,239.3 215.3,195.5 							"/>
							<line class="st13" x1="215.4" y1="195.5" x2="232.6" y2="204.2"/>
							<line class="st12" x1="215.3" y1="195.5" x2="215.4" y2="195.5"/>
							<polyline class="st13" points="223.7,-77.4 163.7,-23.6 140.3,-19 175.3,42.4 149.8,24 51.8,-9.8 195,123.8 243.8,108.4 
								215.3,195.4 							"/>
							<polyline class="st13" points="215.4,77.7 267.2,94.6 243.8,-37.4 186,-0.6 163.7,-23.6 							"/>
							<line class="st13" x1="175.3" y1="42.4" x2="186" y2="-0.6"/>
							<polygon class="st13" points="276.9,47.8 267.2,94.6 293.5,86.2 							"/>
							<polyline class="st13" points="319.8,60.1 402,101.6 424.8,123.8 443.1,182.3 472.1,193.9 472.7,194.1 385.7,227.7 
								360.8,165.3 411.3,136.9 404.3,189.1 443.1,182.3 402,101.6 293.5,86.2 280.6,199.8 346.7,239 312.1,136.9 346.7,162.6 
								370.2,263.5 311.4,244.4 257.1,277.4 272.1,218.3 232.6,204.2 243.8,108.4 267.2,94.6 186,-0.6 215.4,77.7 175.3,42.4 
								163.7,-23.6 243.8,-37.4 276.9,47.8 310.6,20.9 267.2,-62.8 323.3,-25.9 370.2,70 319.8,60.1 293.5,86.2 							"/>
							<polyline class="st13" points="360.8,165.3 346.7,162.6 293.5,86.2 312.1,136.9 280.6,199.8 232.6,204.2 258.8,167.5 
								280.6,199.8 							"/>
							<polyline class="st13" points="175.3,42.4 195,123.8 215.4,77.7 243.8,108.4 258.8,167.5 267.2,94.6 280.6,199.8 							"/>
							<polyline class="st13" points="-95.6,77.7 -46,71.2 51.8,-9.8 							"/>
							<polyline class="st13" points="188.1,125.6 91,135.7 69.3,117.7 191.6,124.7 							"/>
							<polyline class="st13" points="91,135.7 22.1,170.9 18.8,121.1 							"/>
							<polyline class="st13" points="-44,72 18.8,121.1 69.3,117.7 							"/>
							<polyline class="st13" points="175.2,148.2 135.9,190.4 22.1,170.9 112.8,244.4 62.1,244.4 22.1,170.9 							"/>
							<polygon class="st13" points="62.1,244.4 16.5,277.4 87.5,263.5 							"/>
							<polyline class="st13" points="112.8,244.4 87.5,263.5 121.1,321.6 112.8,244.4 182.2,254.8 135.9,190.4 							"/>
							<polyline class="st13" points="195,123.8 191.6,124.7 188.1,125.6 22.1,170.9 175.2,148.2 193.9,125.1 194.1,124.8 
								195,123.8 -46,71.2 -75.7,159.1 -39.6,154.8 -46,71.2 							"/>
							<polygon class="st13" points="234.4,286.6 205.7,240.8 191.2,297.4 							"/>
							<polyline class="st13" points="215.3,195.5 180.6,222.1 175.2,148.2 							"/>
							<polygon class="st13" points="-39.6,154.8 22.1,170.9 -13.8,225.9 							"/>
							<polyline class="st13" points="-39.6,154.8 -77.2,215.9 -13.8,225.9 -41.9,277.4 16.5,277.4 -13.8,225.9 							"/>
							<polyline class="st13" points="472.7,194.1 409.2,233.1 385.7,227.7 370.2,263.5 257.1,277.4 232.6,204.2 227.7,239 
								224.5,239.3 205.7,240.8 215.3,195.5 215.3,195.4 175.2,148.2 182.2,254.8 205.7,240.8 180.6,222.1 182.2,254.8 22.1,170.9 
								-46,71.2 -44,72 69.3,117.7 22.1,170.9 							"/>
							<polyline class="st13" points="16.5,277.4 109.2,317.8 121.1,321.6 191.2,297.4 182.2,254.8 121.1,321.6 16.5,277.4 
								22.1,170.9 							"/>
							<line class="st13" x1="65.8" y1="328.6" x2="109.2" y2="317.8"/>
							<polyline class="st13" points="48.8,316.8 16.5,277.4 65.8,328.6 							"/>
						</g>
					</g>
				</g>
				<g>
					<g>
						<circle cx="295.1" cy="86.2" r="6.4"/>
					</g>
					<g>
						<circle cx="310.6" cy="20.9" r="7.6"/>
					</g>
					<g>
						<circle cx="425.6" cy="121.1" r="6.1"/>
					</g>
					<g>
						<circle cx="404.3" cy="189.1" r="6.1"/>
					</g>
					<g>
						<circle cx="346.7" cy="162.6" r="6.1"/>
					</g>
					<g>
						<circle cx="280.6" cy="199.8" r="6.1"/>
					</g>
					<g>
						<circle cx="243.8" cy="108.4" r="6.1"/>
					</g>
					<g>
						<circle cx="306.2" cy="-88.1" r="6.1"/>
					</g>
					<g>
						<circle cx="195" cy="121.1" r="6.1"/>
					</g>
					<g>
						<circle cx="217.7" cy="195.9" r="6.1"/>
					</g>
					<g>
						<circle cx="346.7" cy="239" r="6.1"/>
					</g>
					<g>
						<circle cx="51.8" cy="-9.8" r="6.1"/>
					</g>
					<g>
						<circle cx="69.4" cy="117.7" r="8"/>
					</g>
					<g>
						<circle cx="18.8" cy="121.1" r="6.1"/>
					</g>
					<g>
						<circle cx="134.8" cy="190.4" r="6.1"/>
					</g>
					<g>
						<circle cx="112.8" cy="244.4" r="6.1"/>
					</g>
					<g>
						<circle cx="16.5" cy="278.4" r="6.1"/>
					</g>
					<g>
						<circle cx="-39.6" cy="156.5" r="6.1"/>
					</g>
					<g>
						<circle cx="-75.6" cy="216.1" r="6.1"/>
					</g>
					<g>
						<circle cx="-44" cy="72" r="6.1"/>
					</g>
					<g>
						<circle cx="182.2" cy="254.8" r="6.1"/>
					</g>
					<g>
						<circle cx="63.3" cy="327.9" r="6.1"/>
					</g>
					<g>
						<circle cx="186" cy="-0.6" r="6.1"/>
					</g>
					<g>
						<circle cx="139.3" cy="-15.9" r="6.1"/>
					</g>
					<g>
						<circle cx="243.8" cy="-37.4" r="6.1"/>
					</g>
					<g>
						<circle cx="323.3" cy="-25.9" r="6.1"/>
					</g>
				</g>
			</g>
		</g>
	</g>
</g>
</svg>
