<svg xmlns="http://www.w3.org/2000/svg" viewBox="0 0 501.83 440.3"><defs><style>.cls-1{fill:#318cf5;}.cls-1,.cls-2{stroke:#000;stroke-linecap:round;stroke-linejoin:round;stroke-width:4px;}.cls-2{fill:none;}</style></defs><title>Asset 11</title><g id="Layer_2" data-name="Layer 2"><g id="Layer_1-2" data-name="Layer 1"><path class="cls-1" d="M499.33,359.91,482.5,244.52a47.52,47.52,0,0,0-47-40.66H66.37a47.52,47.52,0,0,0-47,40.66L2.51,359.91a47.53,47.53,0,0,0,47,54.39h17v24h83.87a16.17,16.17,0,0,0,16.17-16.17V414.3H335.3v7.83a16.17,16.17,0,0,0,16.17,16.17h83.87v-24h17A47.53,47.53,0,0,0,499.33,359.91ZM140.21,341.34a17.06,17.06,0,0,1-34.11,0V276.82a17.06,17.06,0,0,1,34.11,0Zm64.67,0a17.06,17.06,0,0,1-34.11,0V276.82a17.06,17.06,0,0,1,34.11,0Zm64.67,0a17.05,17.05,0,1,1-34.1,0V276.82a17.05,17.05,0,1,1,34.1,0Zm126.19,0a17.05,17.05,0,0,1-17.05,17.05H349A17.06,17.06,0,0,1,332,341.34V276.82A17.05,17.05,0,0,1,349,259.77h29.68a17,17,0,0,1,17.05,17.05Z"/><line class="cls-1" x1="250.92" y1="114.18" x2="250.92" y2="203.85"/><circle class="cls-1" cx="250.92" cy="69.36" r="44.85"/><path class="cls-2" d="M396.31,2c8.92,21.41,11.37,40.56,11.37,65.68a119.45,119.45,0,0,1-11.36,51.21"/><path class="cls-2" d="M341.75,24.3a105.54,105.54,0,0,1,6.19,43.62c-.61,9.66-3.43,18.87-6.25,27.4"/><path class="cls-2" d="M112.81,2c-8.92,21.41-11.37,40.56-11.37,65.68a119.45,119.45,0,0,0,11.35,51.21"/><path class="cls-2" d="M167.36,24.3a105.54,105.54,0,0,0-6.19,43.62c.61,9.66,3.43,18.87,6.26,27.4"/></g></g></svg>