<?xml version="1.0" encoding="utf-8"?>
<!-- Generator: Adobe Illustrator 24.0.1, SVG Export Plug-In . SVG Version: 6.00 Build 0)  -->
<svg version="1.1" id="Layer_1" xmlns="http://www.w3.org/2000/svg" xmlns:xlink="http://www.w3.org/1999/xlink" x="0px" y="0px"
	 viewBox="0 0 1226 1077.7" style="enable-background:new 0 0 1226 1077.7;" xml:space="preserve">
<style type="text/css">
	.st0{fill:#13365D;}
	.st1{fill:#0061FF;}
	.st2{fill:#F5F5F5;}
	.st3{clip-path:url(#SVGID_2_);}
	.st4{fill:#DBDBDB;}
	.st5{fill:#B8B8B8;}
	.st6{fill:#8BAFFD;}
	.st7{fill:#D5E2FD;}
	.st8{fill:none;stroke:#000000;stroke-width:2.7694;stroke-linecap:round;stroke-linejoin:round;stroke-miterlimit:10;}
	.st9{fill:none;stroke:#000000;stroke-width:1.6617;stroke-linecap:round;stroke-linejoin:round;stroke-miterlimit:10;}
	.st10{fill:none;stroke:#005EFD;stroke-width:2.7694;stroke-linecap:round;stroke-linejoin:round;stroke-miterlimit:10;}
	.st11{fill:none;stroke:#005EFD;stroke-width:1.6617;stroke-linecap:round;stroke-linejoin:round;stroke-miterlimit:10;}
	.st12{fill:#005EFD;}
</style>
<title>Asset 4</title>
<g id="Layer_2_1_">
	<g id="Layer_1-2">
		<path class="st0" d="M517.4,1064.7c-16.1-0.3-32.4-1.4-48.3-3.2c-3.6-0.4-6.8,2.2-7.2,5.8c-0.4,3.6,2.2,6.8,5.8,7.2l0,0
			c16.3,1.8,33,2.9,49.5,3.3h0.2c3.6,0,6.6-2.9,6.6-6.5S521,1064.7,517.4,1064.7L517.4,1064.7z"/>
		<path class="st0" d="M613.9,1057.8c-15.8,2.6-32,4.5-48.1,5.7c-3.6,0.3-6.3,3.4-6,7c0.3,3.4,3.1,6,6.5,6c0.2,0,0.3,0,0.5,0
			c16.5-1.2,33-3.1,49.3-5.8c3.6-0.6,6-3.9,5.4-7.5S617.4,1057.2,613.9,1057.8L613.9,1057.8L613.9,1057.8z"/>
		<path class="st0" d="M243.2,980.5c-13.5-8.8-26.7-18.3-39.3-28.2c-2.7-2.3-6.9-2-9.2,0.7c-2.3,2.7-2,6.9,0.7,9.2
			c0.1,0.1,0.3,0.2,0.4,0.3c12.9,10.2,26.5,20,40.3,29c3,2,7.1,1.1,9.1-1.9S246.3,982.5,243.2,980.5L243.2,980.5L243.2,980.5z"/>
		<path class="st0" d="M328.8,1025.5c-14.9-6.1-29.6-13-43.9-20.5c-3.3-1.6-7.2-0.2-8.7,3.1c-1.5,3.1-0.3,6.8,2.6,8.5
			c14.6,7.7,29.7,14.8,45,21c0.8,0.3,1.6,0.5,2.5,0.5c3.6,0,6.5-3,6.5-6.6C332.8,1028.8,331.3,1026.5,328.8,1025.5L328.8,1025.5z"/>
		<path class="st0" d="M36.1,719.7c-1.2-3.4-5-5.2-8.4-3.9s-5.2,5-3.9,8.4c5.6,15.5,12,30.9,19,45.8c1.5,3.3,5.4,4.7,8.7,3.1
			c0,0,0,0,0.1,0c3.3-1.5,4.7-5.4,3.1-8.7c0,0,0,0,0,0C47.8,749.8,41.5,734.8,36.1,719.7z"/>
		<path class="st0" d="M77.3,807.1c-1.8-3.1-5.9-4.1-9-2.3c-3.1,1.8-4.1,5.9-2.3,9l0,0c8.4,14.2,17.5,28.1,27.2,41.5
			c2.1,2.9,6.2,3.6,9.1,1.5s3.6-6.2,1.5-9.1C94.3,834.6,85.4,821,77.3,807.1z"/>
		<path class="st0" d="M133.9,885.5c-2.4-2.7-6.6-2.8-9.2-0.4c-2.6,2.4-2.8,6.3-0.6,9c10.8,12.4,22.4,24.5,34.3,35.8
			c2.8,2.3,6.9,2,9.2-0.8c2.1-2.5,2-6.3-0.2-8.7C155.7,909.4,144.4,897.6,133.9,885.5z"/>
		<path class="st0" d="M421.3,1053.9c-15.8-3.3-31.5-7.3-46.9-12c-3.5-1-7.1,1-8.1,4.5c-1,3.4,0.9,7,4.3,8.1
			c15.8,4.8,32,9,48.1,12.3c0.4,0.1,0.9,0.1,1.3,0.1c3.6,0,6.5-2.9,6.5-6.6C426.5,1057.2,424.3,1054.5,421.3,1053.9L421.3,1053.9z"
			/>
		<path class="st0" d="M1036.9,689.8c-3.5-1-7.1,0.9-8.2,4.4c-4.7,15.4-10.1,30.7-16.2,45.6c-1.4,3.3,0.2,7.1,3.5,8.5c0,0,0,0,0,0
			c0.8,0.3,1.6,0.5,2.5,0.5c2.7,0,5.1-1.6,6.1-4.1c6.2-15.3,11.8-31,16.6-46.8C1042.3,694.5,1040.3,690.8,1036.9,689.8z"/>
		<path class="st0" d="M1001,780.9c-3.2-1.7-7.1-0.4-8.8,2.8c-2.4,4.5-4.8,9.1-7.3,13.6l-5.9,9.6c-3.7,6.2-7.5,12.4-11.4,18.5
			c-2,3-1.1,7.1,2,9s7.1,1.1,9-2l0,0c4-6.2,8-12.6,11.6-18.8l5.9-9.6l0.1-0.2c2.6-4.6,5.1-9.3,7.6-14
			C1005.5,786.6,1004.2,782.6,1001,780.9C1001,780.9,1001,780.9,1001,780.9z"/>
		<path class="st0" d="M1055.2,593.5c-3.6-0.4-6.8,2.2-7.2,5.8c-1.7,16-4.2,32.1-7.4,47.8c-0.7,3.5,1.6,7,5.1,7.7
			c0.4,0.1,0.9,0.1,1.3,0.1c3.1,0,5.8-2.2,6.4-5.2c3.3-16.1,5.8-32.6,7.6-49C1061.4,597.2,1058.8,594,1055.2,593.5
			C1055.2,593.5,1055.2,593.5,1055.2,593.5z"/>
		<path class="st0" d="M707.3,1033.2c-15.1,5.5-30.6,10.4-46.2,14.4c-3.5,0.9-5.6,4.5-4.6,8c0.8,2.9,3.3,4.8,6.3,4.9
			c0.6,0,1.1-0.1,1.7-0.2c15.9-4.2,31.9-9.2,47.3-14.8c3.4-1.2,5.2-4.9,4-8.3c-1.2-3.4-4.9-5.2-8.3-4
			C707.5,1033.2,707.4,1033.2,707.3,1033.2L707.3,1033.2z"/>
		<path class="st0" d="M948.6,863.7c-2.8-2.2-6.9-1.8-9.2,1.1c0,0,0,0,0,0c-9.9,12.7-20.6,25-31.6,36.7c-2.5,2.6-2.4,6.8,0.3,9.3
			s6.8,2.4,9.3-0.3c11.3-12,22.2-24.6,32.4-37.6C951.9,870,951.5,865.9,948.6,863.7C948.6,863.7,948.6,863.7,948.6,863.7z"/>
		<path class="st0" d="M794.7,991.8c-13.8,8.2-28.2,15.9-42.7,22.8c-3.3,1.5-4.6,5.4-3.1,8.7c1.1,2.3,3.4,3.7,5.9,3.7
			c1,0,1.9-0.2,2.8-0.6c14.9-7.1,29.6-14.9,43.8-23.3c3.1-1.8,4.1-5.9,2.3-9C801.8,991,797.8,989.9,794.7,991.8z"/>
		<path class="st0" d="M872.9,935c-12.1,10.6-24.8,20.8-37.8,30.2c-2.9,2.1-3.6,6.2-1.5,9.1c2.1,2.9,6.2,3.6,9.1,1.5
			c0,0,0.1,0,0.1-0.1c13.3-9.7,26.4-20.1,38.8-31c2.7-2.4,3-6.5,0.6-9.2C879.8,932.9,875.6,932.6,872.9,935L872.9,935z"/>
		<path class="st1" d="M1226,542.6l-122.6-120.1v107.7h-33.7c-1.8-90.1-26.2-178.4-71-256.6c-0.2-0.7-0.5-1.4-0.9-2
			C848.9,12.3,517.9-77.3,258.6,71.7c-24.3,14-47.5,29.8-69.4,47.3C95,194.6,28,300.6,0.6,417.5c-1,4.2,0.3,8.5,3.3,11.5
			l113.8,112.1L3.7,653.4c-4.8,4.7-4.9,12.5-0.1,17.3s12.5,4.9,17.3,0.1l123-121c4.8-4.7,4.9-12.5,0.1-17.3c0,0-0.1-0.1-0.1-0.1
			l-117.8-116C83.2,186.6,286.7,26.3,524.2,24.6c1.2,0.4,2.6,0.6,3.9,0.6c285.2,0,517.3,232,517.3,517.3c0,6.8,5.5,12.3,12.2,12.3
			c0,0,0,0,0,0h45.8v108L1226,542.6z"/>
		<path class="st2" d="M524.8,77.6c-213.5,0-393.4,143.6-448.5,339.5l133,126.4l-133.9,123c54,197.6,234.7,342.8,449.4,342.8
			c257.3,0,465.8-208.5,465.8-465.8S782.1,77.6,524.8,77.6z"/>
		<g>
			<defs>
				<path id="SVGID_1_" d="M524.8,77.6c-213.5,0-393.4,143.6-448.5,339.5l133,126.4l-133.9,123c54,197.6,234.7,342.8,449.4,342.8
					c257.3,0,465.8-208.5,465.8-465.8S782.1,77.6,524.8,77.6z"/>
			</defs>
			<clipPath id="SVGID_2_">
				<use xlink:href="#SVGID_1_"  style="overflow:visible;"/>
			</clipPath>
			<g class="st3">
				<g>
					<g>
						<g id="XMLID_12_">
							<g>
								<polygon class="st4" points="814,921.7 825.8,939.6 819.4,963.8 								"/>
								<polygon class="st5" points="814,921.7 819.4,963.8 794.2,945.1 								"/>
								<polygon class="st4" points="814,921.7 794.2,945.1 763.4,924.1 								"/>
								<polygon class="st5" points="794.2,945.1 788.7,987 769.8,975 								"/>
								<polygon class="st4" points="794.2,945.1 750.6,950.3 707,932.1 								"/>
								<polygon class="st4" points="794.2,945.1 707,932.1 763.4,924.1 								"/>
								<polygon class="st4" points="792.7,916.2 814,921.7 763.4,924.1 								"/>
								<polygon class="st5" points="792.7,916.2 763.4,924.1 730.8,916.2 								"/>
								<polygon class="st5" points="790.3,988.3 789,988.5 788.7,987 794.2,945.1 819.4,963.8 								"/>
								<polygon class="st5" points="788.7,987 789,988.5 732.5,997.4 769.8,975 								"/>
								<polygon class="st5" points="763.4,924.1 707,932.1 730.8,916.2 								"/>
								<polygon class="st4" points="748.4,966.4 707,932.1 750.6,950.3 								"/>
								<polygon class="st4" points="748.4,966.4 714.4,987.9 696.1,952.8 								"/>
								<polygon class="st4" points="748.4,966.4 696.1,952.8 707,932.1 								"/>
								<polygon class="st6" points="792.7,916.2 699.6,894.4 760.5,871.4 814,921.7 								"/>
								<polygon class="st5" points="714.4,987.9 769.8,975 732.5,997.4 								"/>
								<polygon class="st5" points="730.8,916.2 707,932.1 689.5,920.5 								"/>
								<polygon class="st7" points="642.2,926.6 605,935 699.6,894.4 792.7,916.2 730.8,916.2 689.5,920.5 								"/>
								<polygon class="st7" points="719.3,808.8 699.6,645 714.4,571 717.5,642.6 715.1,702.7 								"/>
								<polygon class="st5" points="732.5,997.4 687.4,997.4 714.4,987.9 								"/>
								<polygon class="st4" points="696.1,952.8 714.4,987.9 679.8,969.7 								"/>
								<polygon class="st6" points="699.6,830.7 719.3,808.8 760.5,871.4 								"/>
								<polygon class="st5" points="707,932.1 696.1,952.8 653.8,938.8 								"/>
								<polygon class="st5" points="707,932.1 653.8,938.8 689.5,920.5 								"/>
								<polygon class="st6" points="699.6,645 674.4,606.8 714.4,571 								"/>
								<polygon class="st6" points="714.4,571 669.5,553.4 693.2,503.7 								"/>
								<polygon class="st6" points="719.3,808.8 679.8,665.6 699.6,645 								"/>
								<polygon class="st4" points="696.1,952.8 679.8,969.7 653.8,938.8 								"/>
								<polygon class="st5" points="695.2,1011.5 687.4,997.4 732.5,997.4 								"/>
								<polygon class="st5" points="687.4,997.4 695.2,1011.5 665.1,1002.4 								"/>
								<polygon class="st5" points="695.2,1011.5 615.5,1021.1 665.1,1002.4 								"/>
								<polygon class="st6" points="669.5,553.4 714.4,571 674.4,606.8 								"/>
								<polygon class="st4" points="653.8,938.8 679.8,969.7 635.5,976.9 								"/>
								<polygon class="st6" points="699.6,645 664.1,634.7 674.4,606.8 								"/>
								<polygon class="st6" points="679.8,665.6 664.1,634.7 699.6,645 								"/>
								<polygon class="st6" points="677.7,803 666.5,749.7 719.3,808.8 								"/>
								<polygon class="st7" points="677.7,803 620.1,793.7 664.1,747 666.5,749.7 								"/>
								<polygon class="st7" points="719.3,808.8 666.5,749.7 664.1,747 679.8,665.6 								"/>
								<polygon class="st5" points="665.1,1002.4 615.5,1021.1 620.1,1002.4 								"/>
								<polygon class="st6" points="719.3,808.8 640.4,830.7 677.7,803 								"/>
								<polygon class="st7" points="596,938.8 653.8,890.2 699.6,894.4 605,935 599.1,936.3 								"/>
								<polygon class="st4" points="653.8,938.8 635.5,976.9 617.3,952.8 								"/>
								<polygon class="st5" points="653.8,938.8 617.3,952.8 596,938.8 								"/>
								<polygon class="st6" points="669.5,553.4 632.5,520 693.2,503.7 								"/>
								<polygon class="st6" points="760.5,871.4 640.4,830.7 699.6,830.7 								"/>
								<polygon class="st7" points="674.4,606.8 630.1,558.8 669.5,553.4 								"/>
								<polygon class="st6" points="693.2,503.7 599.8,459.4 636.2,421.7 665.3,455.7 								"/>
								<polygon class="st6" points="640.4,830.7 760.5,871.4 637.6,884.1 								"/>
								<polygon class="st5" points="653.8,938.8 596,938.8 605,935 642.2,926.6 689.5,920.5 								"/>
								<polygon class="st7" points="653.8,890.2 637.6,884.1 760.5,871.4 699.6,894.4 								"/>
								<polygon class="st7" points="664.1,634.7 576.1,606.8 674.4,606.8 								"/>
								<polygon class="st7" points="630.1,715.4 679.8,665.6 664.1,747 								"/>
								<polygon class="st7" points="679.8,665.6 583.4,665.6 664.1,634.7 								"/>
								<polygon class="st7" points="640.4,830.7 552.4,884.1 592.5,835.5 								"/>
								<polygon class="st4" points="617.3,952.8 635.5,976.9 594.6,959.2 								"/>
								<polygon class="st4" points="635.5,976.9 620.1,1002.4 588.7,983.3 								"/>
								<polygon class="st4" points="635.5,976.9 588.7,983.3 594.6,959.2 								"/>
								<polygon class="st7" points="674.4,606.8 577.3,562.5 630.1,558.8 								"/>
								<polygon class="st7" points="664.1,747 580.9,782.2 630.1,715.4 								"/>
								<polygon class="st7" points="664.1,747 620.1,793.7 580.9,782.2 								"/>
								<polygon class="st6" points="637.6,884.1 552.4,884.1 640.4,830.7 								"/>
								<polygon class="st7" points="640.4,830.7 620.1,793.7 677.7,803 								"/>
								<polygon class="st6" points="637.6,884.1 580.9,916.5 552.4,884.1 								"/>
								<polygon class="st7" points="640.4,830.7 592.5,835.5 620.1,793.7 								"/>
								<polygon class="st6" points="603.4,524.9 669.5,553.4 630.1,558.8 								"/>
								<polygon class="st6" points="599.8,459.4 693.2,503.7 632.5,520 								"/>
								<polygon class="st5" points="620.1,1002.4 615.5,1021.1 596,1012.4 								"/>
								<polygon class="st4" points="620.1,1002.4 572.3,1002.4 588.7,983.3 								"/>
								<polygon class="st5" points="617.3,952.8 594.6,959.2 596,938.8 								"/>
								<polygon class="st5" points="615.5,1021.1 540.9,1028.4 596,1012.4 								"/>
								<polygon class="st7" points="577.3,562.5 603.4,524.9 630.1,558.8 								"/>
								<polygon class="st7" points="669.5,553.4 603.4,524.9 632.5,520 								"/>
								<polygon class="st7" points="664.1,634.7 583.4,665.6 576.1,606.8 								"/>
								<polygon class="st7" points="620.1,793.7 592.5,835.5 552.4,838.2 								"/>
								<polygon class="st7" points="576.1,606.8 577.3,562.5 674.4,606.8 								"/>
								<polygon class="st7" points="580.9,782.2 588.7,737.6 630.1,715.4 								"/>
								<polygon class="st6" points="596,938.8 551.8,950.3 580.9,916.5 591.8,928.9 								"/>
								<polygon class="st5" points="596,938.8 565.2,963.6 540.9,980.6 551.8,950.3 								"/>
								<polygon class="st5" points="596,938.8 594.6,959.2 545.8,993.9 								"/>
								<polygon class="st5" points="596,1012.4 540.9,1028.4 572.3,1002.4 								"/>
								<polygon class="st4" points="588.7,983.3 572.3,1002.4 576.1,980.6 								"/>
								<polygon class="st5" points="576.1,980.6 594.6,959.2 588.7,983.3 								"/>
								<polygon class="st7" points="630.1,715.4 583.4,665.6 679.8,665.6 								"/>
								<polygon class="st7" points="632.5,520 564.6,487.3 599.8,459.4 								"/>
								<polygon class="st7" points="583.4,665.6 630.1,715.4 588.7,737.6 								"/>
								<polygon class="st6" points="588.7,737.6 522.7,737.6 583.4,665.6 								"/>
								<polygon class="st7" points="552.4,884.1 580.9,916.5 551.8,950.3 								"/>
								<polygon class="st6" points="583.4,665.6 528.9,615.1 576.1,606.8 								"/>
								<polygon class="st7" points="528.9,615.1 577.3,562.5 576.1,606.8 								"/>
								<polygon class="st5" points="576.1,980.6 545.8,993.9 594.6,959.2 								"/>
								<polygon class="st4" points="576.1,980.6 572.3,1002.4 545.8,993.9 								"/>
								<polygon class="st4" points="572.3,1002.4 540.9,1028.4 519.1,1017 								"/>
								<polygon class="st4" points="572.3,1002.4 519.1,1017 545.8,993.9 								"/>
								<polygon class="st6" points="519.1,782.2 580.9,782.2 552.4,838.2 								"/>
								<polygon class="st7" points="572.4,375.6 563.4,322.8 607.6,376.2 636.2,421.7 								"/>
								<polygon class="st6" points="577.3,562.5 531.3,576.1 564.6,520 								"/>
								<polygon class="st6" points="564.6,487.3 632.5,520 603.4,524.9 								"/>
								<polygon class="st7" points="563.4,322.8 530,352.6 552.4,316.1 								"/>
								<polygon class="st7" points="530,392.6 530,352.6 563.4,322.8 								"/>
								<polygon class="st7" points="552.4,884.1 551.8,950.3 514.8,932.1 								"/>
								<polygon class="st7" points="552.4,884.1 514.8,932.1 515.9,881.4 								"/>
								<polygon class="st6" points="551.8,950.3 533.6,955.7 498.4,961.2 514.8,932.1 								"/>
								<polygon class="st5" points="540.9,980.6 565.2,963.6 596,938.8 545.8,993.9 								"/>
								<polygon class="st7" points="541.2,438.1 636.2,421.7 599.8,459.4 								"/>
								<polygon class="st7" points="541.2,438.1 572.4,375.6 636.2,421.7 								"/>
								<polygon class="st5" points="545.8,993.9 519.1,1017 540.9,980.6 								"/>
								<polygon class="st7" points="530,612.8 530,578.3 531.3,576.1 577.3,562.5 528.9,615.1 								"/>
								<polygon class="st7" points="536,665.6 528.9,615.1 583.4,665.6 								"/>
								<polygon class="st7" points="599.8,459.4 564.6,487.3 541.2,438.1 								"/>
								<polygon class="st6" points="522.7,737.6 536,665.6 583.4,665.6 								"/>
								<polygon class="st7" points="563.4,322.8 572.4,375.6 541.2,438.1 								"/>
								<polygon class="st6" points="530,392.6 563.4,322.8 541.2,438.1 								"/>
								<polygon class="st6" points="519.1,782.2 552.4,838.2 510.4,834.5 								"/>
								<polygon class="st6" points="522.7,737.6 588.7,737.6 519.1,782.2 								"/>
								<polygon class="st6" points="504.5,665.6 528.9,615.1 536,665.6 								"/>
								<polygon class="st6" points="522.7,737.6 504.5,665.6 536,665.6 								"/>
								<polygon class="st6" points="564.6,520 430.8,562.5 519.1,475.4 								"/>
								<polygon class="st4" points="513.6,1003.8 540.9,980.6 519.1,1017 								"/>
								<polygon class="st7" points="519.1,782.2 510.4,834.5 376.4,839.8 								"/>
								<polygon class="st4" points="513.6,1003.8 519.1,1017 504.5,1024.3 								"/>
								<polygon class="st4" points="540.9,1028.4 504.5,1024.3 519.1,1017 								"/>
								<polygon class="st7" points="519.1,782.2 376.4,839.8 374,805.8 								"/>
								<polygon class="st7" points="519.1,782.2 374,805.8 397.5,774.9 								"/>
								<polygon class="st7" points="397.5,774.9 522.7,737.6 519.1,782.2 								"/>
								<polygon class="st7" points="510.4,834.5 515.9,881.4 435.3,894.4 								"/>
								<polygon class="st7" points="515.9,881.4 514.8,932.1 435.3,894.4 								"/>
								<polygon class="st6" points="514.8,932.1 486.9,940.6 460.2,940.6 455.3,927.2 								"/>
								<polygon class="st6" points="528.9,615.1 469.9,615.1 530,578.3 530,612.8 								"/>
								<polygon class="st7" points="510.4,834.5 435.3,894.4 388.6,872 								"/>
								<polygon class="st6" points="510.4,834.5 388.6,872 376.4,839.8 								"/>
								<polygon class="st6" points="504.5,665.6 469.9,615.1 528.9,615.1 								"/>
								<polygon class="st7" points="522.7,737.6 395.3,716.6 415.1,676.3 417.1,675.4 419.3,675.1 								"/>
								<polygon class="st7" points="504.5,665.6 406.8,641.4 469.9,615.1 								"/>
								<polygon class="st7" points="522.7,737.6 397.5,774.9 375.9,762.7 								"/>
								<polygon class="st7" points="522.7,737.6 375.9,762.7 395.3,716.6 								"/>
								<polygon class="st7" points="430.8,562.5 469.9,615.1 395.3,606.2 								"/>
								<polygon class="st7" points="469.9,615.1 406.8,641.4 395.3,606.2 								"/>
								<polygon class="st7" points="504.5,665.6 419.3,675.1 416.5,673.4 416.5,673.4 406.8,641.4 								"/>
								<polygon class="st7" points="530,392.6 458.1,417.2 342.5,345.3 								"/>
								<polygon class="st7" points="436.5,189.3 483.2,240.9 539.7,308.2 552.4,316.1 530,352.6 								"/>
								<polygon class="st7" points="458.1,417.2 409.2,503.7 355.2,493.3 								"/>
								<polygon class="st7" points="458.1,417.2 355.2,493.3 342.5,442.6 								"/>
								<polygon class="st7" points="458.1,417.2 342.5,442.6 341.8,404.1 								"/>
								<polygon class="st7" points="458.1,417.2 341.8,404.1 364.3,380.5 								"/>
								<polygon class="st7" points="458.1,417.2 364.3,380.5 342.5,345.3 								"/>
								<polygon class="st6" points="455.3,927.2 397.7,933.3 405.6,914.4 								"/>
								<polygon class="st7" points="530,392.6 342.5,345.3 435.3,310.7 								"/>
								<polygon class="st7" points="530,392.6 435.3,310.7 530,352.6 								"/>
								<polygon class="st7" points="530,352.6 388,199 387.2,194.9 436.5,189.3 								"/>
								<polygon class="st7" points="363.7,227 435.3,310.7 352.8,287.6 								"/>
								<polygon class="st7" points="435.3,310.7 342.5,345.3 352.8,287.6 								"/>
								<polygon class="st7" points="436.5,189.3 387.2,194.9 377.6,144.4 								"/>
								<polygon class="st7" points="430.8,562.5 395.3,606.2 390.4,575.2 								"/>
								<polygon class="st7" points="388,199 435.3,310.7 363.7,227 334.6,154.1 								"/>
								<polygon class="st7" points="430.8,562.5 390.4,575.2 390.4,535.2 								"/>
								<polygon class="st7" points="388,199 530,352.6 435.3,310.7 								"/>
								<polygon class="st7" points="409.2,503.7 390.4,535.2 342.5,520.6 								"/>
								<polygon class="st7" points="409.2,503.7 342.5,520.6 355.2,493.3 								"/>
								<polygon class="st6" points="388.6,872 400.1,901.1 366.1,893.8 								"/>
								<polygon class="st6" points="397.5,774.9 354,805.8 375.9,762.7 								"/>
								<polygon class="st6" points="395.3,716.6 375.9,762.7 349.1,745.1 								"/>
								<polygon class="st6" points="395.3,716.6 354,712.4 367.4,698.4 								"/>
								<polygon class="st7" points="390.4,535.2 390.4,575.2 358.2,564.3 								"/>
								<polygon class="st6" points="390.4,535.2 358.2,564.3 345.5,548.6 								"/>
								<polygon class="st6" points="376.4,839.8 388.6,872 357,872 								"/>
								<polygon class="st6" points="374,805.8 376.4,839.8 354,839.8 								"/>
								<polygon class="st6" points="376.4,839.8 357,872 345.5,854.4 								"/>
								<polygon class="st6" points="375.9,762.7 354,805.8 341.3,790.7 								"/>
								<polygon class="st6" points="375.9,762.7 349.7,762.7 349.1,745.1 								"/>
								<polygon class="st6" points="354,805.8 397.5,774.9 374,805.8 								"/>
								<polygon class="st6" points="374,805.8 354,839.8 338.2,825.3 								"/>
								<polygon class="st6" points="342.5,345.3 364.3,380.5 303.6,370.7 								"/>
								<polygon class="st6" points="364.3,380.5 341.8,404.1 303.6,370.7 								"/>
								<polygon class="st6" points="363.7,227 352.8,287.6 306.7,217.8 								"/>
								<polygon class="st6" points="363.7,227 306.7,217.8 306.7,185.7 								"/>
								<polygon class="st6" points="352.8,287.6 342.5,345.3 293.9,257.9 								"/>
								<polygon class="st6" points="339.4,443 307.3,419.9 341.8,404.1 342.5,442.6 341.8,444.1 341.8,444.1 								"/>
								<polygon class="st6" points="342.5,345.3 303.6,370.7 290.9,341 								"/>
								<polygon class="st6" points="341.8,404.1 307.3,419.9 302.4,397.4 								"/>
								<polygon class="st6" points="341.8,444.1 325.5,480 310.9,454.5 339.4,443 								"/>
								<polygon class="st6" points="293.9,257.9 342.5,345.3 290.9,279.7 								"/>
							</g>
							<g>
								<polyline class="st8" points="540.9,980.6 513.6,1003.8 504.5,1024.3 540.9,1028.4 615.5,1021.1 695.2,1011.5 732.5,997.4 
									789,988.5 790.3,988.3 819.4,963.8 825.8,939.6 814,921.7 								"/>
								<polyline class="st9" points="513.6,1003.8 519.1,1017 540.9,980.6 545.8,993.9 519.1,1017 								"/>
								<polygon class="st9" points="596,938.8 545.8,993.9 594.6,959.2 								"/>
								<polyline class="st9" points="617.3,952.8 594.6,959.2 635.5,976.9 588.7,983.3 594.6,959.2 								"/>
								<polyline class="st9" points="732.5,997.4 714.4,987.9 696.1,952.8 653.8,938.8 707,932.1 689.5,920.5 653.8,938.8 
									596,938.8 617.3,952.8 653.8,938.8 679.8,969.7 687.4,997.4 714.4,987.9 679.8,969.7 696.1,952.8 								"/>
								<polygon class="st9" points="730.8,916.2 707,932.1 763.4,924.1 								"/>
								<polyline class="st9" points="596,1012.4 540.9,1028.4 519.1,1017 504.5,1024.3 								"/>
								<polyline class="st9" points="792.7,916.2 763.4,924.1 814,921.7 819.4,963.8 794.2,945.1 788.7,987 769.8,975 732.5,997.4 
									687.4,997.4 695.2,1011.5 665.1,1002.4 615.5,1021.1 								"/>
								<polyline class="st9" points="763.4,924.1 794.2,945.1 814,921.7 								"/>
								<polyline class="st9" points="794.2,945.1 750.6,950.3 707,932.1 794.2,945.1 769.8,975 748.4,966.4 714.4,987.9 769.8,975 
																	"/>
								<polyline class="st9" points="750.6,950.3 748.4,966.4 794.2,945.1 								"/>
								<polygon class="st9" points="707,932.1 748.4,966.4 696.1,952.8 								"/>
								<polyline class="st9" points="653.8,938.8 635.5,976.9 679.8,969.7 665.1,1002.4 687.4,997.4 								"/>
								<polyline class="st9" points="617.3,952.8 635.5,976.9 665.1,1002.4 620.1,1002.4 635.5,976.9 								"/>
								<polygon class="st9" points="620.1,1002.4 596,1012.4 615.5,1021.1 								"/>
								<polygon class="st9" points="588.7,983.3 620.1,1002.4 572.3,1002.4 								"/>
								<polyline class="st9" points="594.6,959.2 576.1,980.6 545.8,993.9 572.3,1002.4 576.1,980.6 588.7,983.3 								"/>
								<polyline class="st9" points="519.1,1017 572.3,1002.4 540.9,1028.4 								"/>
								<line class="st9" x1="596" y1="1012.4" x2="572.3" y2="1002.4"/>
								<polyline class="st10" points="374.3,601.8 375.9,603.1 395.3,606.2 367.9,629.8 406.8,641.4 368.6,662 378.9,672.3 
									415.6,675.2 417.1,675.4 415.1,676.3 367.4,698.4 354,712.4 395.3,716.6 349.1,745.1 349.7,762.7 375.9,762.7 341.3,790.7 
									354,805.8 374,805.8 338.2,825.3 354,839.8 376.4,839.8 345.5,854.4 357,872 388.6,872 366.1,893.8 400.1,901.1 
									435.3,894.4 405.6,914.4 397.7,933.3 455.3,927.2 460.2,940.6 486.9,940.6 514.8,932.1 498.4,961.2 533.6,955.7 
									551.8,950.3 540.9,980.6 565.2,963.6 596,938.8 599.1,936.3 605,935 642.2,926.6 689.5,920.5 730.8,916.2 792.7,916.2 
									814,921.7 760.5,871.4 719.3,808.8 715.1,702.7 717.5,642.6 714.4,571 693.2,503.7 665.3,455.7 636.2,421.7 607.6,376.2 
									563.4,322.8 552.4,316.1 539.7,308.2 483.2,240.9 436.5,189.3 377.6,144.4 387.2,194.9 388,199 334.6,154.1 363.7,227 
									306.7,185.7 306.7,217.8 352.8,287.6 293.9,257.9 290.9,279.7 342.5,345.3 290.9,341 303.6,370.7 341.8,404.1 302.4,397.4 
									307.3,419.9 339.4,443 310.9,454.5 325.5,480 355.2,493.3 323.1,503 342.5,520.6 390.4,535.2 345.5,548.6 358.2,564.3 
									390.4,575.2 356.4,585.6 374.3,601.7 								"/>
								<polyline class="st10" points="552.4,316.1 530,352.6 530,392.6 541.2,438.1 564.6,487.3 564.6,520 577.3,562.5 
									531.3,576.1 530,576.5 530,578.3 530,612.8 528.9,615.1 504.5,665.6 522.7,737.6 519.1,782.2 552.4,838.2 552.4,884.1 
									580.9,916.5 591.8,928.9 596,938.8 								"/>
								<polygon class="st11" points="541.2,438.1 572.4,375.6 563.4,322.8 								"/>
								<polyline class="st11" points="636.2,421.7 599.8,459.4 693.2,503.7 632.5,520 599.8,459.4 								"/>
								<polyline class="st11" points="572.4,375.6 636.2,421.7 541.2,438.1 599.8,459.4 564.6,487.3 632.5,520 603.4,524.9 
																	"/>
								<polyline class="st11" points="693.2,503.7 669.5,553.4 714.4,571 674.4,606.8 669.5,553.4 								"/>
								<polyline class="st11" points="603.4,524.9 630.1,558.8 577.3,562.5 603.4,524.9 564.6,520 519.1,475.4 430.8,562.5 
									564.6,520 								"/>
								<polyline class="st11" points="669.5,553.4 630.1,558.8 674.4,606.8 577.3,562.5 528.9,615.1 576.1,606.8 577.3,562.5 
																	"/>
								<polygon class="st11" points="674.4,606.8 576.1,606.8 664.1,634.7 								"/>
								<polygon class="st11" points="719.3,808.8 679.8,665.6 699.6,645 								"/>
								<polyline class="st11" points="714.4,571 699.6,645 674.4,606.8 								"/>
								<polyline class="st11" points="699.6,645 664.1,634.7 679.8,665.6 583.4,665.6 528.9,615.1 536,665.6 583.4,665.6 								
									"/>
								<polyline class="st11" points="576.1,606.8 583.4,665.6 664.1,634.7 								"/>
								<polyline class="st11" points="522.7,737.6 588.7,737.6 519.1,782.2 580.9,782.2 588.7,737.6 								"/>
								<polyline class="st11" points="583.4,665.6 588.7,737.6 630.1,715.4 580.9,782.2 664.1,747 630.1,715.4 								"/>
								<polyline class="st11" points="665.1,743.3 666.5,749.7 677.7,803 719.3,808.8 666.5,749.7 664.1,747 679.8,665.6 
									630.1,715.4 583.4,665.6 522.7,737.6 536,665.6 504.5,665.6 469.9,615.1 								"/>
								<polygon class="st11" points="580.9,782.2 620.1,793.7 552.4,838.2 								"/>
								<polygon class="st11" points="552.4,884.1 640.4,830.7 592.5,835.5 								"/>
								<polyline class="st11" points="699.6,830.7 719.3,808.8 640.4,830.7 760.5,871.4 699.6,830.7 640.4,830.7 637.6,884.1 
									552.4,884.1 510.4,834.5 								"/>
								<polyline class="st11" points="792.7,916.2 699.6,894.4 760.5,871.4 637.6,884.1 								"/>
								<polyline class="st11" points="653.8,890.2 637.6,884.1 580.9,916.5 551.8,950.3 596,938.8 637.6,884.1 								"/>
								<polygon class="st11" points="699.6,894.4 605,935 596,938.8 653.8,890.2 								"/>
								<polyline class="st11" points="388,199 530,352.6 563.4,322.8 530,392.6 435.3,310.7 352.8,287.6 363.7,227 								"/>
								<line class="st11" x1="388" y1="199" x2="435.3" y2="310.7"/>
								<polyline class="st11" points="306.7,217.8 363.7,227 435.3,310.7 530,352.6 436.5,189.3 387.2,194.9 								"/>
								<polyline class="st11" points="352.8,287.6 342.5,345.3 293.9,257.9 								"/>
								<polyline class="st11" points="435.3,310.7 342.5,345.3 530,392.6 458.1,417.2 342.5,345.3 								"/>
								<polygon class="st11" points="303.6,370.7 342.5,345.3 364.3,380.5 								"/>
								<polygon class="st11" points="341.8,404.1 364.3,380.5 458.1,417.2 								"/>
								<polygon class="st11" points="541.2,438.1 458.1,417.2 519.1,475.4 								"/>
								<polyline class="st11" points="307.3,419.9 341.8,404.1 342.5,442.6 458.1,417.2 355.2,493.3 342.5,442.6 								"/>
								<polyline class="st11" points="342.5,442.6 341.8,444.1 341.8,444.1 325.5,480 								"/>
								<polyline class="st11" points="409.2,503.7 342.5,520.6 355.2,493.3 409.2,503.7 458.1,417.2 435.3,520 519.1,475.4 
									564.6,487.3 603.4,524.9 669.5,553.4 632.5,520 								"/>
								<polygon class="st11" points="409.2,503.7 435.3,520 390.4,535.2 								"/>
								<polyline class="st11" points="564.6,520 531.3,576.1 530,578.3 430.8,562.5 435.3,520 								"/>
								<polygon class="st11" points="390.4,535.2 430.8,562.5 390.4,575.2 								"/>
								<line class="st11" x1="358.2" y1="564.3" x2="390.4" y2="535.2"/>
								<polyline class="st11" points="374.3,601.7 390.4,575.2 395.3,606.2 430.8,562.5 469.9,615.1 530,578.3 								"/>
								<line class="st10" x1="374.3" y1="601.8" x2="374.3" y2="601.7"/>
								<polyline class="st11" points="528.9,615.1 469.9,615.1 395.3,606.2 406.8,641.4 469.9,615.1 								"/>
								<line class="st11" x1="416.5" y1="673.4" x2="406.8" y2="641.4"/>
								<polyline class="st11" points="378.9,672.3 406.8,641.4 504.5,665.6 419.3,675.1 417.1,675.4 416.5,673.4 								"/>
								<polygon class="st11" points="416.5,673.4 416.5,673.4 419.3,675.1 522.7,737.6 395.3,716.6 415.1,676.3 415.6,675.2 
																	"/>
								<polyline class="st11" points="367.4,698.4 395.3,716.6 375.9,762.7 349.1,745.1 								"/>
								<polyline class="st11" points="375.9,762.7 397.5,774.9 354,805.8 375.9,762.7 522.7,737.6 397.5,774.9 								"/>
								<polygon class="st11" points="374,805.8 397.5,774.9 519.1,782.2 								"/>
								<polyline class="st11" points="354,839.8 374,805.8 376.4,839.8 519.1,782.2 510.4,834.5 552.4,838.2 592.5,835.5 
									620.1,793.7 640.4,830.7 677.7,803 620.1,793.7 664.1,747 								"/>
								<polyline class="st11" points="357,872 376.4,839.8 388.6,872 510.4,834.5 376.4,839.8 								"/>
								<polyline class="st11" points="405.6,914.4 455.3,927.2 435.3,894.4 515.9,881.4 510.4,834.5 435.3,894.4 388.6,872 
									400.1,901.1 								"/>
								<polygon class="st11" points="515.9,881.4 552.4,884.1 514.8,932.1 								"/>
								<polyline class="st11" points="455.3,927.2 514.8,932.1 435.3,894.4 								"/>
								<polyline class="st11" points="552.4,884.1 551.8,950.3 514.8,932.1 								"/>
							</g>
						</g>
					</g>
				</g>
				<g>
					<g>
						<circle class="st12" cx="458.1" cy="417.2" r="3.8"/>
					</g>
					<g>
						<circle class="st12" cx="530" cy="393.5" r="6.2"/>
					</g>
					<g>
						<circle class="st12" cx="552.4" cy="314.6" r="6.2"/>
					</g>
					<g>
						<circle class="st12" cx="435.3" cy="309.8" r="4.8"/>
					</g>
					<g>
						<circle class="st12" cx="388" cy="199" r="4.1"/>
					</g>
					<g>
						<circle class="st12" cx="293.9" cy="257.9" r="4.6"/>
					</g>
					<g>
						<circle class="st12" cx="341.3" cy="403.1" r="4"/>
					</g>
					<g>
						<circle class="st12" cx="339.4" cy="443" r="4.9"/>
					</g>
					<g>
						<circle class="st12" cx="435.3" cy="520" r="5.2"/>
					</g>
					<g>
						<circle class="st12" cx="564.6" cy="485.3" r="5.4"/>
					</g>
					<g>
						<circle class="st12" cx="633.4" cy="421.7" r="4.6"/>
					</g>
					<g>
						<circle class="st12" cx="528.9" cy="578.3" r="5.2"/>
					</g>
					<g>
						<circle class="st12" cx="394.2" cy="606.2" r="4.9"/>
					</g>
					<g>
						<circle class="st12" cx="415.9" cy="675.9" r="5.2"/>
					</g>
					<g>
						<circle class="st12" cx="664.7" cy="637.2" r="5.2"/>
					</g>
					<g>
						<circle class="st12" cx="583.4" cy="665.7" r="5.2"/>
					</g>
					<g>
						<circle class="st12" cx="504.5" cy="665.7" r="5.2"/>
					</g>
					<g>
						<circle class="st12" cx="522.7" cy="737.6" r="5.2"/>
					</g>
					<g>
						<circle class="st12" cx="374.3" cy="762.7" r="5.2"/>
					</g>
					<g>
						<circle class="st12" cx="374" cy="805.8" r="5.2"/>
					</g>
					<g>
						<circle class="st12" cx="580.9" cy="782.2" r="5.2"/>
					</g>
					<g>
						<circle class="st12" cx="679.8" cy="665.7" r="5.2"/>
					</g>
					<g>
						<circle class="st12" cx="719.3" cy="808.9" r="5.2"/>
					</g>
					<g>
						<circle class="st12" cx="591.4" cy="834.5" r="5.2"/>
					</g>
					<g>
						<circle class="st12" cx="388.6" cy="872" r="5.2"/>
					</g>
					<g>
						<circle class="st12" cx="515.9" cy="881.4" r="5.2"/>
					</g>
					<g>
						<circle class="st12" cx="514.8" cy="932" r="5.2"/>
					</g>
					<g>
						<circle class="st12" cx="653.8" cy="890.2" r="5.2"/>
					</g>
					<g>
						<circle class="st12" cx="758.2" cy="871" r="5.2"/>
					</g>
					<g>
						<g>
							<g>
								<circle cx="792.7" cy="945.1" r="3.6"/>
							</g>
						</g>
					</g>
					<g>
						<g>
							<g>
								<circle cx="812.1" cy="921.7" r="3"/>
							</g>
						</g>
					</g>
					<g>
						<g>
							<g>
								<circle cx="540.9" cy="980.6" r="3.4"/>
							</g>
						</g>
					</g>
					<g>
						<g>
							<g>
								<circle cx="620.1" cy="1002.4" r="3.6"/>
							</g>
						</g>
					</g>
					<g>
						<g>
							<g>
								<circle cx="706.4" cy="932" r="3.6"/>
							</g>
						</g>
					</g>
					<g>
						<g>
							<g>
								<circle cx="732.5" cy="997.4" r="3.9"/>
							</g>
						</g>
					</g>
					<g>
						<g>
							<g>
								<circle cx="504.9" cy="1023.1" r="3.7"/>
							</g>
						</g>
					</g>
					<g>
						<g>
							<g>
								<circle cx="596.2" cy="938.8" r="3.2"/>
							</g>
						</g>
					</g>
					<g>
						<circle class="st12" cx="669.5" cy="555.2" r="8.2"/>
					</g>
				</g>
			</g>
		</g>
	</g>
</g>
</svg>
