<svg xmlns="http://www.w3.org/2000/svg" viewBox="0 0 558.57 558.57"><defs><style>.cls-1{fill:#318cf5;}.cls-2{fill:none;stroke:#000;stroke-linecap:round;stroke-linejoin:round;stroke-width:4px;}</style></defs><title>Asset 3</title><g id="Layer_2" data-name="Layer 2"><g id="Layer_1-2" data-name="Layer 1"><path class="cls-1" d="M556.57,263.45v31.67A29.93,29.93,0,0,1,526.65,325,30,30,0,0,0,498,346.33a226.1,226.1,0,0,1-16.87,40.23,29.79,29.79,0,0,0,5.29,35.15l.13.13a29.92,29.92,0,0,1,0,42.32l-22.39,22.39a29.92,29.92,0,0,1-42.32,0l-.79-.79a29.81,29.81,0,0,0-34.83-5.46,225.69,225.69,0,0,1-39.88,16.23A30,30,0,0,0,325,525.37v1.28a29.92,29.92,0,0,1-29.92,29.92H263.45a29.92,29.92,0,0,1-29.92-29.92V523.7a29.75,29.75,0,0,0-20.89-28.31,225.29,225.29,0,0,1-38.52-16.29,29.86,29.86,0,0,0-35.2,5.26l-2.19,2.19a29.92,29.92,0,0,1-42.32,0L72,464.16a29.92,29.92,0,0,1,0-42.32L74.86,419a29.86,29.86,0,0,0,5.41-34.91A225.23,225.23,0,0,1,64.56,346,29.81,29.81,0,0,0,36,325h-4.1A29.92,29.92,0,0,1,2,295.12V263.45a29.92,29.92,0,0,1,29.93-29.92H36a29.81,29.81,0,0,0,28.53-20.92,225.23,225.23,0,0,1,15.71-38.13,29.86,29.86,0,0,0-5.41-34.91L72,136.73a29.92,29.92,0,0,1,0-42.32L94.41,72a29.92,29.92,0,0,1,42.32,0l2.19,2.19a29.84,29.84,0,0,0,35.2,5.26,225.29,225.29,0,0,1,38.52-16.29,29.75,29.75,0,0,0,20.89-28.31V31.92A29.92,29.92,0,0,1,263.45,2h31.67A29.92,29.92,0,0,1,325,31.92V33.2A30,30,0,0,0,346.34,62a225.69,225.69,0,0,1,39.88,16.23,29.81,29.81,0,0,0,34.83-5.46l.79-.79a29.92,29.92,0,0,1,42.32,0l22.39,22.39a29.92,29.92,0,0,1,0,42.32l-.13.13A29.79,29.79,0,0,0,481.13,172,226.1,226.1,0,0,1,498,212.24a30.24,30.24,0,0,0,10.84,15.37,29.7,29.7,0,0,0,17.81,5.92A29.92,29.92,0,0,1,556.57,263.45ZM430.18,276.87c3.66-8.74,2.09-14.59-17.37-25.71,0-46.16-21.58-77.07-45.63-97.16a5.39,5.39,0,0,0-8.86,4.12v38.19A13.67,13.67,0,0,1,345,210,13.9,13.9,0,0,1,331,196V141.64a16.11,16.11,0,0,0-10.05-15,143.58,143.58,0,0,0-18.15-6.14V114.2a9.81,9.81,0,0,0-9.8-9.81H265.58a9.81,9.81,0,0,0-9.8,9.81v6.34a144.2,144.2,0,0,0-18.15,6.14,16.11,16.11,0,0,0-10,15V196a13.9,13.9,0,0,1-13.94,14,13.68,13.68,0,0,1-13.38-13.67V158.12A5.39,5.39,0,0,0,191.4,154c-24.05,20.09-45.63,51-45.63,97.16-19.46,11.12-21,17-17.38,25.71,2.43,5.83,12.3,18.42,51.42,27.87v50a99.48,99.48,0,1,0,199,0v-50C417.89,295.29,427.75,282.7,430.18,276.87Z"/><path class="cls-2" d="M556.57,295.12V263.45a29.92,29.92,0,0,0-29.92-29.92,29.7,29.7,0,0,1-17.81-5.92A30.24,30.24,0,0,1,498,212.24,226.1,226.1,0,0,0,481.13,172a29.79,29.79,0,0,1,5.29-35.15l.13-.13a29.92,29.92,0,0,0,0-42.32L464.16,72a29.92,29.92,0,0,0-42.32,0l-.79.79a29.81,29.81,0,0,1-34.83,5.46A225.69,225.69,0,0,0,346.34,62,30,30,0,0,1,325,33.2V31.92A29.92,29.92,0,0,0,295.12,2H263.45a29.92,29.92,0,0,0-29.92,29.92v2.95a29.75,29.75,0,0,1-20.89,28.31,225.29,225.29,0,0,0-38.52,16.29,29.84,29.84,0,0,1-35.2-5.26L136.73,72a29.92,29.92,0,0,0-42.32,0L72,94.41a29.92,29.92,0,0,0,0,42.32l2.84,2.84a29.86,29.86,0,0,1,5.41,34.91,225.23,225.23,0,0,0-15.71,38.13A29.81,29.81,0,0,1,36,233.53h-4.1A29.92,29.92,0,0,0,2,263.45v31.67A29.92,29.92,0,0,0,31.93,325H36A29.81,29.81,0,0,1,64.56,346a225.23,225.23,0,0,0,15.71,38.13A29.86,29.86,0,0,1,74.86,419L72,421.84a29.92,29.92,0,0,0,0,42.32l22.39,22.39a29.92,29.92,0,0,0,42.32,0l2.19-2.19a29.86,29.86,0,0,1,35.2-5.26,225.29,225.29,0,0,0,38.52,16.29,29.75,29.75,0,0,1,20.89,28.31v2.95a29.92,29.92,0,0,0,29.92,29.92h31.67A29.92,29.92,0,0,0,325,526.65v-1.28a30,30,0,0,1,21.3-28.84,225.69,225.69,0,0,0,39.88-16.23,29.81,29.81,0,0,1,34.83,5.46l.79.79a29.92,29.92,0,0,0,42.32,0l22.39-22.39a29.92,29.92,0,0,0,0-42.32l-.13-.13a29.79,29.79,0,0,1-5.29-35.15A226.1,226.1,0,0,0,498,346.33,30,30,0,0,1,526.65,325a29.93,29.93,0,0,0,29.92-29.92Z"/><path class="cls-2" d="M378.76,304.74v50a99.48,99.48,0,1,1-198.95,0v-50"/><path class="cls-2" d="M179.81,304.74c-39.12-9.45-49-22-51.42-27.87-3.66-8.74-2.08-14.59,17.38-25.71,0-46.16,21.58-77.07,45.63-97.16a5.39,5.39,0,0,1,8.86,4.12v38.19A13.68,13.68,0,0,0,213.64,210a13.9,13.9,0,0,0,13.94-14V141.64a16.11,16.11,0,0,1,10-15,144.2,144.2,0,0,1,18.15-6.14V114.2a9.81,9.81,0,0,1,9.8-9.81H293a9.81,9.81,0,0,1,9.8,9.81v6.34A143.58,143.58,0,0,1,321,126.68a16.11,16.11,0,0,1,10.05,15V196A13.9,13.9,0,0,0,345,210a13.67,13.67,0,0,0,13.37-13.67V158.12a5.39,5.39,0,0,1,8.86-4.12c24.05,20.09,45.63,51,45.63,97.16,19.46,11.12,21,17,17.37,25.71-2.43,5.83-12.29,18.42-51.42,27.87-22.3,5.39-54.11,9.76-99.47,11.27C233.92,314.5,202.11,310.13,179.81,304.74Z"/></g></g></svg>