<svg xmlns="http://www.w3.org/2000/svg" viewBox="0 0 569.06 470.48"><defs><style>.cls-1,.cls-2{fill:none;stroke-linecap:round;stroke-linejoin:round;}.cls-1{stroke:#318cf5;stroke-width:21px;}.cls-2{stroke:#000;stroke-width:4px;}.cls-3{fill:#318cf5;}</style></defs><title>Asset 1</title><g id="Layer_2" data-name="Layer 2"><g id="Layer_1-2" data-name="Layer 1"><line class="cls-1" x1="63.13" y1="420.38" x2="50.06" y2="420.38"/><line class="cls-1" x1="112.22" y1="420.38" x2="99.15" y2="420.38"/><line class="cls-1" x1="161.31" y1="420.38" x2="148.24" y2="420.38"/><line class="cls-1" x1="505.86" y1="420.38" x2="518.93" y2="420.38"/><line class="cls-1" x1="456.77" y1="420.38" x2="469.84" y2="420.38"/><line class="cls-1" x1="407.68" y1="420.38" x2="420.75" y2="420.38"/><polyline class="cls-2" points="445.98 389.69 445.98 340.88 445.98 292.1 118.35 292.1 118.35 340.88 118.35 389.69"/><rect class="cls-2" x="324.9" y="370.88" width="242.16" height="97.59" rx="27.74"/><rect class="cls-2" x="2" y="370.88" width="242.16" height="97.59" rx="27.74"/><rect class="cls-3" x="163.45" y="340.89" width="242.16" height="97.59" rx="27.74"/><line class="cls-2" x1="374.4" y1="389.69" x2="328.37" y2="389.69"/><line class="cls-2" x1="247.84" y1="389.69" x2="201.81" y2="389.69"/><line class="cls-2" x1="297.04" y1="389.69" x2="279.18" y2="389.69"/><path class="cls-3" d="M474.69,127.74a78.09,78.09,0,0,0-55.42-23H390.45A74,74,0,1,0,253.1,50.31a70.68,70.68,0,0,0-108,60,71.11,71.11,0,0,0,1.19,13H120.41a69.14,69.14,0,1,0,0,138.27H419.27a78.38,78.38,0,0,0,55.42-133.8ZM241.28,214.68a16.85,16.85,0,1,1,4.94-11.92A16.73,16.73,0,0,1,241.28,214.68Zm55.14,0a16.85,16.85,0,1,1,4.92-11.9A16.82,16.82,0,0,1,296.42,214.66Zm55.11,0a16.85,16.85,0,1,1,4.92-11.9A16.75,16.75,0,0,1,351.53,214.66Z"/><path class="cls-2" d="M229.38,185.9a16.87,16.87,0,1,0,11.9,4.94A16.8,16.8,0,0,0,229.38,185.9Z"/><path class="cls-2" d="M284.48,185.9a16.87,16.87,0,1,0,11.91,4.93A16.82,16.82,0,0,0,284.48,185.9Z"/><path class="cls-2" d="M351.51,190.84a16.85,16.85,0,1,0,4.94,11.92A16.74,16.74,0,0,0,351.51,190.84Z"/><line class="cls-2" x1="282.16" y1="249.13" x2="282.16" y2="342.34"/></g></g></svg>