<?xml version="1.0" encoding="utf-8"?>
<!-- Generator: Adobe Illustrator 23.0.1, SVG Export Plug-In . SVG Version: 6.00 Build 0)  -->
<svg version="1.1" id="Layer_1" xmlns="http://www.w3.org/2000/svg" xmlns:xlink="http://www.w3.org/1999/xlink" x="0px" y="0px"
	 viewBox="0 0 152 30" style="enable-background:new 0 0 152 30;" xml:space="preserve">
<style type="text/css">
	.st0{fill:#FFFFFF;}
</style>
<g>
	<path class="st0" d="M133.8,11.1c0.9,0,1.7,0,2.5,0c0.1,0,0.2,0.2,0.3,0.3c0.2,1.3,0.4,2.6,0.6,3.9c0.2,1.6,0.5,3.2,0.7,4.8
		c0,0.1,0,0.2,0,0.3c0,0.2-0.1,0.5,0.3,0.5c0.3,0.1,0.4-0.1,0.5-0.4c0.4-1.1,0.7-2.2,1.1-3.4c0.2-0.7,0.4-1.3,0.6-2
		c0.1-0.3,0.2-0.4,0.5-0.4c0.8,0,1.6,0,2.4,0c0.4,0,0.5,0.1,0.6,0.4c0.5,1.8,1.1,3.5,1.7,5.3c0.1,0.2,0.2,0.4,0.5,0.4
		s0.3-0.3,0.3-0.4c0.4-3,0.8-6,1.3-9.1c0-0.1,0.2-0.3,0.2-0.3c0.8,0,1.6,0,2.6,0c-0.6,4.5-1.3,8.8-1.9,13.3c-0.9,0-1.9,0-2.8,0
		c-1.1,0-1.1,0-1.5-1.1c-0.6-1.7-1.2-3.5-1.7-5.2c-0.1-0.2-0.1-0.4-0.4-0.4c-0.3,0-0.3,0.2-0.4,0.4c-0.7,2-1.3,4-2,6
		c-0.1,0.3-0.2,0.4-0.6,0.4c-1,0-2.1,0-3.1,0c-0.3,0-0.4-0.1-0.4-0.4c-0.6-4.2-1.2-8.4-1.8-12.5C133.8,11.4,133.8,11.3,133.8,11.1z"
		/>
	<path class="st0" d="M108.9,13.8c0,0.9,0,1.7,0,2.5c0,0.3-0.2,0.2-0.4,0.2c-1.3,0-2.7,0-4,0c-1.1,0-2.2,0-3.2,0c-0.2,0-0.3,0-0.5,0
		c0,0.2,0,0.4,0,0.6c0,2.3,0,4.6,0,6.9c0,0.4-0.1,0.5-0.5,0.5c-0.7,0-1.4,0-2.2,0c-0.3,0-0.4-0.1-0.4-0.4c0-6,0-11.9,0-17.9
		c0-0.3,0.1-0.4,0.4-0.4c4.2,0,8.4,0,12.6,0c0.3,0,0.4,0.1,0.4,0.4c0,0.6,0,1.3,0,1.9c0,0.4-0.1,0.5-0.5,0.5c-3.1,0-6.1,0-9.2,0
		c-0.7,0-0.6-0.1-0.6,0.6c0,1.4,0,2.7,0,4.1c0,0.4,0.1,0.5,0.5,0.5c2.4,0,4.7,0,7.1,0C108.5,13.8,108.7,13.8,108.9,13.8z"/>
	<path class="st0" d="M82.9,14.9c0-3,0-6,0-9c0-0.4,0.1-0.6,0.5-0.5c0.6,0,1.3,0,1.9,0c0.4,0,0.5,0.1,0.5,0.5c0,2,0,4,0,6
		c0,0.2,0.1,0.3,0.1,0.5c0.2-0.1,0.5-0.1,0.6-0.2c1.2-1.2,2.6-1.6,4.2-1.4c2.7,0.3,4.3,2.1,4.4,4.9s0,5.5,0,8.3
		c0,0.3-0.1,0.4-0.4,0.4c-0.7,0-1.4,0-2.1,0c-0.4,0-0.4-0.1-0.4-0.5c0-2.4,0-4.8,0-7.3c0-0.6-0.1-1.2-0.3-1.7
		c-0.4-1.2-1.7-1.8-3.2-1.6c-1.7,0.3-2.8,1.7-2.9,3.5c0,2.3,0,4.6,0,6.9c0,0.6,0,0.6-0.6,0.6s-1.2,0-1.8,0c-0.4,0-0.5-0.1-0.5-0.5
		C82.9,20.9,82.9,17.9,82.9,14.9z"/>
	<path class="st0" d="M65.8,20.6c-0.4,1.8-1.4,3-3,3.6c-2.1,0.8-4.3,0.8-6.3-0.3C54.9,23,54,21.7,53.6,20c-0.4-1.6-0.4-3.2,0.1-4.8
		c0.8-2.5,2.9-4.1,5.6-4.3c1.5-0.1,3,0.2,4.3,1.1c1.8,1.2,2.4,3,2.5,5.1c0,1,0,1-0.9,1c-2.8,0-5.5,0-8.3,0c-0.2,0-0.3,0-0.5,0
		c-0.2,2.1,0.9,4.2,3.4,4.3c0.7,0,1.5,0,2.1-0.4c0.4-0.2,0.7-0.7,1-1c0.1-0.1,0.2-0.3,0.3-0.3C64,20.6,64.9,20.6,65.8,20.6z
		 M63,15.8c0-1.7-1.5-2.9-3.7-2.7c-1.5,0.1-3.1,1.5-2.9,2.7C58.6,15.8,60.8,15.8,63,15.8z"/>
	<path class="st0" d="M132.3,17.8c0,2-0.5,3.8-2,5.2c-1.1,1.1-2.5,1.6-4.1,1.8c-1.7,0.1-3.3-0.2-4.7-1.2c-1.2-0.9-2-2.1-2.3-3.6
		c-0.4-1.7-0.4-3.4,0.3-5c0.8-2.2,2.4-3.5,4.6-3.9c2.5-0.5,4.7,0,6.5,1.9C131.9,14.3,132.3,16,132.3,17.8z M125.6,13.3
		c-1.4,0-2.5,0.6-3.2,1.9c-0.9,1.8-0.9,3.6,0,5.3c1.3,2.5,4.9,2.5,6.3,0.1c0.9-1.6,0.9-3.4,0.2-5.1C128.4,14,127.2,13.3,125.6,13.3z
		"/>
	<path class="st0" d="M46.2,8.5c-1.8,0-3.6,0-5.3,0c-0.7,0-0.7,0-0.7-0.6s0-1.1,0-1.7c0-0.3,0.1-0.4,0.4-0.4c2.1,0,4.2,0,6.3,0
		c2.6,0,5.2,0,7.8,0c0.4,0,0.5,0.1,0.5,0.5c0,0.7,0,1.5,0,2.2c-2,0-3.9,0-5.9,0c0,5.3,0,10.6,0,15.9c-0.2,0-0.4,0-0.6,0
		c-0.8,0-1.6,0-2.4,0c0-0.8-0.1-1.6-0.1-2.4c0-4.3,0-8.6,0-12.9C46.2,8.9,46.2,8.7,46.2,8.5z"/>
	<path class="st0" d="M80.3,15.1c-0.9,0-1.8,0-2.6,0c-0.1,0-0.2-0.1-0.3-0.2c-0.5-1.2-1.5-1.7-2.8-1.7c-1.4,0-2.5,0.5-3,1.8
		c-0.9,2-0.9,4,0.3,5.9c0.9,1.4,3.3,1.8,4.7,0.9c0.5-0.3,0.8-0.8,1-1.3c0-0.1,0.2-0.3,0.3-0.3c0.9,0,1.7,0,2.6,0
		c-0.1,0.8-0.4,1.5-0.8,2.2c-1,1.5-2.4,2.2-4.2,2.4c-1.3,0.1-2.5,0-3.7-0.5c-1.6-0.7-2.7-1.9-3.2-3.6c-0.6-1.8-0.6-3.6-0.1-5.4
		c0.8-2.6,2.9-4.3,5.7-4.4c1.4-0.1,2.8,0.1,4,0.9C79.3,12.5,80,13.6,80.3,15.1z"/>
	<path class="st0" d="M113.6,5.4c0.9,0,1.8,0,2.6,0c0.1,0,0.2,0.1,0.2,0.2s0,0.2,0,0.3c0,6,0,12,0,18c0,0.1,0,0.3,0,0.5
		c-1,0-1.9,0-2.9,0C113.6,18.1,113.6,11.8,113.6,5.4z"/>
</g>
<path class="st0" d="M15,19.9c0.4-0.4,0.8-0.7,1.1-1.1c1.2-1.2,2.5-2.5,3.7-3.7C19.9,15,19.9,15,20,15c1,0,2,0,3,0.1
	c0.8,0,1.6,0,2.4,0.1c0.1,0,0.1,0,0.2,0.1c0.6,0.8,1.3,1.1,2.2,1c1-0.1,1.6-0.7,1.9-1.6c0.4-1.3-0.5-2.7-1.8-2.9
	c-1-0.2-1.9,0.3-2.4,1.1c0,0.1-0.1,0.1-0.2,0.1c-1.1,0-2.1-0.1-3.2-0.1c0,0,0,0-0.1,0l0.1-0.1c0.8-0.8,1.5-1.5,2.3-2.3
	C25,10,25.1,9.4,24.8,9c-0.3-0.7-1.3-0.9-1.8-0.3c-0.4,0.4-0.9,0.9-1.3,1.3c-0.3,0.3-0.6,0.6-0.9,0.9L20.7,11v-0.1c0-1,0-2.1,0-3.1
	c0-0.1,0-0.1,0.1-0.2c0.8-0.5,1.2-1.3,1.1-2.2c-0.1-1-0.7-1.7-1.6-2C19,3,17.6,3.9,17.4,5.2c-0.2,1,0.2,1.8,1,2.3
	c0.1,0.1,0.1,0.1,0.1,0.2c0,1.8,0,3.6,0,5.4c0,0.1,0,0.1-0.1,0.2c-2.8,2.8-5.6,5.6-8.4,8.4c-2.6,2.6-5.2,5.2-7.7,7.8
	c-0.6,0.6-1.5,0.5-1.9-0.2c-0.2-0.5-0.2-1,0.2-1.4c0.5-0.5,1-1,1.5-1.5c1-1,2-2,3-3c0.1-0.1,0.1-0.1,0.1-0.2c0-3,0-6,0-9
	c0-0.1,0-0.2,0.1-0.3c4-3.9,8-7.9,12-11.8c1-1,2.2-1.7,3.6-2c0.4,0,1-0.1,1.6-0.1c3.6,0,7.3,0,10.9,0c0.1,0,0.1,0,0.1,0.1
	c0,3.5,0,7.1,0,10.6c0,2.1-0.8,3.9-2.3,5.5c-2.8,2.8-5.6,5.6-8.3,8.4c-1.1,1.1-2.2,2.2-3.3,3.3c0,0.1-0.1,0.1-0.2,0.1
	c-4.1,0-8.2,0-12.4,0H6.9C7,28,7,28,7.1,27.9c1.8-1.8,3.6-3.6,5.4-5.5c0.2-0.2,0.4-0.3,0.7-0.3c1.3,0,2.6,0,3.9,0
	c0.1,0,0.2,0,0.2,0.1c0.5,0.8,1.3,1.2,2.3,1c1.2-0.1,2.1-1.3,2-2.5c-0.1-1-0.8-1.8-1.7-2c-1-0.2-2,0.2-2.5,1
	c-0.1,0.1-0.1,0.2-0.3,0.2C16.4,19.9,15.8,19.9,15,19.9C15.1,19.9,15.1,19.9,15,19.9C15.1,19.9,15,19.9,15,19.9z"/>
</svg>
