<?xml version="1.0" encoding="utf-8"?>
<!-- Generator: Adobe Illustrator 23.0.1, SVG Export Plug-In . SVG Version: 6.00 Build 0)  -->
<svg version="1.1" id="Layer_1" xmlns="http://www.w3.org/2000/svg" xmlns:xlink="http://www.w3.org/1999/xlink" x="0px" y="0px"
	 viewBox="0 0 1794.5 358" style="enable-background:new 0 0 1794.5 358;" xml:space="preserve">
<style type="text/css">
	.st0{fill:#FFFFFF;}
	.st1{fill:#0276FE;}
</style>
<g>
	<path class="st0" d="M1595.9,133.1c10.4,0,20.2-0.1,30.1,0.2c1.1,0,2.9,2.3,3.1,3.8c2.5,15.5,4.7,31,6.9,46.5
		c2.8,19.3,5.6,38.6,8.4,57.9c0.2,1,0.2,2.1,0.4,3.1c0.5,2.4-0.8,5.5,3.3,6.2c4,0.6,5.1-1.8,6.1-4.9c4.3-13.4,8.6-26.8,12.9-40.2
		c2.5-7.9,5.2-15.7,7.6-23.6c1-3.2,2.5-4.4,6-4.3c9.5,0.3,19,0.3,28.5,0c4.3-0.2,6.1,1.2,7.4,5.3c6.6,21.2,13.5,42.2,20.2,63.3
		c0.9,2.9,2,4.6,5.4,4.4c3.8-0.2,3.4-3,3.7-5.3c5.1-36,10.1-72.1,15.2-108.1c0.2-1.5,1.9-4,2.9-4c9.8-0.3,19.6-0.2,30.6-0.2
		c-7.7,53.2-15.4,105.6-23.1,158.5c-11.3,0-22.2,0-33.1,0c-13.6,0-13.6,0-17.9-13.1c-6.9-20.9-13.8-41.7-20.6-62.6
		c-0.8-2.5-1.4-4.4-4.8-4.4c-3.4-0.1-4.1,1.9-4.9,4.3c-7.8,23.7-15.7,47.4-23.4,71.1c-1.2,3.6-2.9,4.9-6.7,4.8
		c-12.5-0.3-25-0.2-37.5,0c-3.2,0-4.7-0.7-5.2-4.2c-7-50-14.2-99.9-21.3-149.9C1595.9,136.4,1596,135.2,1595.9,133.1z"/>
	<path class="st0" d="M1298.4,164.5c0,10.5,0,20.1,0,29.8c0,3.8-2.9,2.8-5,2.8c-15.8,0.1-31.7,0-47.5,0c-12.8,0-25.7,0-38.5,0
		c-1.9,0-3.8,0-6.5,0c0,2.6,0,4.6,0,6.6c0,27.3-0.1,54.6,0.1,81.9c0,5-1.6,6.3-6.3,6.1c-8.6-0.3-17.3-0.2-25.9,0
		c-3.6,0.1-4.9-0.8-4.9-4.7c0.1-71.1,0.1-142.2,0-213.3c0-3.3,0.8-4.7,4.4-4.6c50.2,0.1,100.3,0.1,150.5,0c3.8,0,4.9,1.3,4.8,4.9
		c-0.2,7.6-0.3,15.1,0,22.7c0.2,4.6-1.2,6-5.9,6c-36.4-0.2-72.9-0.1-109.3-0.1c-8.6,0-7.5-0.7-7.5,7.7c0,16.2,0.1,32.4-0.1,48.6
		c-0.1,4.4,1.2,5.7,5.6,5.7c28.3-0.2,56.7-0.1,85-0.1C1293.4,164.5,1295.5,164.5,1298.4,164.5z"/>
	<path class="st0" d="M987.3,178.3c0-35.7,0.1-71.5-0.1-107.2c0-4.6,0.9-6.6,6.1-6.3c7.5,0.5,15.1,0.4,22.7,0c4.6-0.2,6.1,1.2,6,5.9
		c-0.2,23.9-0.1,47.9,0,71.8c0,2.1,0.9,4.2,1.4,6.3c2.5-0.9,5.7-1.1,7.3-2.8c13.8-14.6,31.2-18.6,50.2-16.3
		c32.4,3.8,51.6,25,52.2,58.8c0.6,32.9,0.1,65.8,0.3,98.8c0,3.5-1.2,4.5-4.6,4.4c-8.3-0.2-16.6-0.3-24.8,0c-4.4,0.2-5.3-1.5-5.3-5.5
		c0.1-28.9,0.3-57.8-0.1-86.6c-0.1-6.9-1.1-14.1-3.5-20.6c-5.3-14.5-20.9-21.6-38.5-18.6c-19.8,3.3-34,20-34.5,42.1
		c-0.6,27.3-0.2,54.6-0.3,81.9c0,7.3,0,7.3-7.5,7.3c-7.2,0-14.5-0.3-21.7,0.1c-4.5,0.2-5.6-1.4-5.6-5.7
		C987.3,250.1,987.3,214.2,987.3,178.3z"/>
	<path class="st0" d="M784,245.8c-5,21.3-16.5,36.1-35.7,43.5c-25.6,9.9-51.3,9.5-75.8-4.1c-18.6-10.3-29.5-26.8-34.6-47.1
		c-4.7-19.2-4.6-38.4,1.2-57.4c9.2-30.3,34.2-49.5,66.4-51.4c18.4-1.1,35.8,2,51.2,12.9c20.9,14.8,28.4,36.3,29.3,60.8
		c0.5,11.8,0.3,11.8-11.3,11.8c-33.1,0-66.2,0-99.3,0c-1.9,0-3.8,0-5.6,0c-1.9,24.6,10.4,50,40.2,51.4c8.9,0.4,17.9,0.1,25.5-4.8
		c4.5-2.9,7.8-7.8,11.7-11.8c1.3-1.3,2.5-3.6,3.9-3.7C761.8,245.6,772.5,245.8,784,245.8z M750.1,189.2c0-20.9-18.1-34.1-43.6-32.5
		c-18.5,1.2-36.5,18.1-34.5,32.5C697.8,189.2,723.8,189.2,750.1,189.2z"/>
	<path class="st0" d="M1578.2,212.2c-0.5,23.8-6.3,45.3-23.8,62.1c-13.5,13.1-30,19.5-48.8,20.9c-20.6,1.6-39.4-2.8-56.2-14.9
		c-14.8-10.7-23.6-25.5-27.8-42.9c-4.8-20.1-4.4-40.2,3-59.7c9.8-25.8,28.6-41.6,55.5-46.6c29.6-5.6,56.6-0.1,77.8,22.9
		C1573,170.4,1577.8,190.7,1578.2,212.2z M1498.3,158.5c-17.1-0.1-30.3,7-37.9,22.2c-10.6,21.1-10.8,43.1,0.3,63.9
		c15.6,29.4,58.2,29.8,74.6,0.9c11.1-19.5,11.1-40.5,2.6-61C1530.8,167,1517.1,158.5,1498.3,158.5z"/>
	<path class="st0" d="M549.2,101.7c-21.9,0-42.9,0-63.8,0c-7.8,0-7.8,0-7.8-7.6c0-6.7,0.2-13.4-0.1-20.1c-0.2-4,1.3-5,5.2-5
		c25.2,0.1,50.3,0.1,75.5,0.1c31,0,62,0.1,92.9-0.1c4.6,0,6.2,1,6,5.8c-0.4,8.7-0.1,17.5-0.1,26.8c-23.8,0-46.9,0-70.8,0
		c0,63.4,0,126.3,0,190.1c-2.9,0-5.1,0-7.3,0c-9.6-0.2-19.3-0.4-28.9-0.6c-0.3-9.6-0.7-19.2-0.7-28.8c-0.1-51.2,0-102.5,0-153.7
		C549.2,106.5,549.2,104.4,549.2,101.7z"/>
	<path class="st0" d="M956.4,180.9c-11,0-21.2,0.1-31.4-0.1c-1.2,0-3-1.2-3.4-2.3c-6.4-14.6-18-20.2-33.4-20.1
		c-16.2,0.1-29.5,6.3-36.3,21c-11.1,23.7-10.9,48,3.3,70.6c10.7,17,39,21.7,55.8,10.6c5.8-3.8,9.3-9.4,11.9-15.7
		c0.6-1.5,2.3-3.5,3.5-3.6c10.2-0.3,20.4-0.2,31.1-0.2c-0.9,9.9-4.5,18.2-9.6,25.8c-11.9,17.4-29.1,25.8-49.7,28.1
		c-15.2,1.7-29.8-0.2-43.7-6.3c-19.4-8.5-32.2-23.1-38.8-42.9c-7.1-21.1-7.4-42.6-0.9-63.9c9.6-31.5,34.9-51,67.8-52.5
		c16.8-0.8,33.1,1.2,47.6,10.6C944.7,149.4,953.6,162.7,956.4,180.9z"/>
	<path class="st0" d="M1354,64.9c10.7,0,21-0.1,31.4,0.1c0.9,0,2.1,1.7,2.7,2.9c0.4,0.8,0.1,2.1,0.1,3.1c0,71.5,0,142.9,0,214.4
		c0,1.7,0,3.5,0,5.7c-11.5,0-22.6,0-34.1,0C1354,215.9,1354,140.7,1354,64.9z"/>
</g>
<path class="st1" d="M177.3,237.7c4.5-4.5,9.1-8.9,13.6-13.4c14.9-14.9,29.7-29.8,44.6-44.8c0.8-0.8,1.5-1.1,2.7-1.1
	c12,0.3,24,0.6,36.1,0.9c9.7,0.2,19.3,0.5,29,0.7c0.9,0,1.5,0.3,2,1.1c6.6,9,15.6,13.1,26.5,11.5c11.4-1.6,19.1-8.4,22.6-19.5
	c4.9-15.5-5.5-32.1-21.6-34.9c-11.5-2-22.8,3.2-28.7,13.3c-0.5,0.9-1,1.2-2,1.2c-12.6-0.3-25.2-0.6-37.8-0.9c-0.2,0-0.5,0-1-0.1
	c0.5-0.5,0.8-0.9,1.2-1.3c9.1-9.1,18.1-18.2,27.2-27.3c4.2-4.3,5.2-10.3,2.8-15.5c-4-8.5-15.1-10.5-21.9-3.9
	c-5.3,5.2-10.5,10.5-15.7,15.7c-3.7,3.7-7.3,7.4-11,11c-0.3,0.3-0.7,0.6-1,0.9c-0.4-0.5-0.2-1-0.2-1.4c0-12.3,0-24.6,0-36.8
	c0-1.1,0.4-1.6,1.2-2.2c9.5-6.2,14.2-15,13-26.3c-1.3-11.9-8.2-20-19.6-23.6c-15.5-4.9-32.4,5.6-34.9,21.6
	c-1.8,11.6,2.3,21,11.9,27.8c0.9,0.6,1.3,1.2,1.3,2.3c0,21.6,0,43.3,0,64.9c0,1-0.3,1.7-1,2.4c-33.4,33.5-66.7,67-100.1,100.5
	c-30.8,30.9-61.7,61.8-92.4,92.9c-6.9,7-18,5.5-22.3-2.7c-2.9-5.4-1.9-11.6,2.7-16.3c5.9-6,11.9-11.9,17.8-17.9
	c11.7-11.8,23.5-23.6,35.2-35.4c0.8-0.8,1.2-1.6,1.2-2.8c0-35.9,0-71.8-0.1-107.8c0-1.3,0.4-2.2,1.3-3.1
	c47.6-46.9,95.2-93.8,142.8-140.8c12.1-12,26.5-20,43-24.2C252.4,1,259.4,0,266.5,0c43.4,0,86.8,0,130.3,0c1.3,0,1.6,0.4,1.6,1.6
	c0,42.2,0.1,84.4-0.1,126.6c-0.1,25.3-9.3,47.1-27.1,65.1c-33.2,33.6-66.5,67.2-99.7,100.8c-13.1,13.3-26.2,26.5-39.3,39.8
	c-0.7,0.7-1.3,1-2.3,1c-49.2,0-98.4,0-147.5,0c-0.3,0-0.6,0-1,0c0.1-0.7,0.6-1,1-1.3c21.7-21.8,43.4-43.5,64.9-65.4
	c2.5-2.6,5-3.6,8.5-3.6c15.4,0.1,30.7-0.1,46.1-0.2c1.4,0,2.1,0.4,2.9,1.6c6.4,9.6,15.5,13.9,26.9,12.5
	c14.9-1.8,25.4-15.5,23.7-30.4c-1.3-11.4-9.8-21.1-20.8-23.7c-11.6-2.7-23.4,2-29.7,11.8c-0.9,1.4-1.8,1.9-3.4,1.8
	c-7.7,0-15.4,0.1-23.1,0.1c-0.2,0-0.5,0-0.7,0C177.5,237.9,177.4,237.8,177.3,237.7z"/>
</svg>
