<?xml version="1.0" encoding="utf-8"?>
<!-- Generator: Adobe Illustrator 24.0.1, SVG Export Plug-In . SVG Version: 6.00 Build 0)  -->
<svg version="1.1" id="Layer_1" xmlns="http://www.w3.org/2000/svg" xmlns:xlink="http://www.w3.org/1999/xlink" x="0px" y="0px"
	 viewBox="0 0 1299.3 1077.7" style="enable-background:new 0 0 1299.3 1077.7;" xml:space="preserve">
<style type="text/css">
	.st0{fill:#13365D;}
	.st1{fill:#0061FF;}
	.st2{fill:#F5F5F5;}
	.st3{clip-path:url(#SVGID_2_);}
	.st4{fill:#8BAFFD;}
	.st5{fill:#D5E2FD;}
	.st6{fill:#575757;}
	.st7{fill:#B1B1B1;}
	.st8{fill:#DBDBDB;}
	.st9{fill:none;stroke:#000000;stroke-width:2.1743;stroke-linecap:round;stroke-linejoin:round;stroke-miterlimit:10;}
	.st10{fill:none;stroke:#000000;stroke-width:3.6239;stroke-linecap:round;stroke-linejoin:round;stroke-miterlimit:10;}
	.st11{fill:none;stroke:#000000;stroke-width:2.1752;stroke-linecap:round;stroke-linejoin:round;stroke-miterlimit:10;}
	.st12{fill:none;stroke:#005EFD;stroke-width:3.6239;stroke-linecap:round;stroke-linejoin:round;stroke-miterlimit:10;}
	.st13{fill:none;stroke:#005EFD;stroke-width:2.1743;stroke-linecap:round;stroke-linejoin:round;stroke-miterlimit:10;}
	.st14{fill:#005EFD;}
</style>
<title>Asset 2</title>
<g id="Layer_2_1_">
	<g id="Layer_1-2">
		<path class="st0" d="M590.7,1064.7c-16.1-0.3-32.4-1.4-48.3-3.2c-3.6-0.4-6.8,2.2-7.2,5.8s2.2,6.8,5.8,7.2l0,0
			c16.3,1.8,33,2.9,49.5,3.3h0.2c3.6,0,6.6-2.9,6.6-6.5S594.3,1064.7,590.7,1064.7L590.7,1064.7z"/>
		<path class="st0" d="M687.2,1057.8c-15.8,2.6-32,4.5-48.1,5.7c-3.6,0.3-6.3,3.4-6,7c0.3,3.4,3.1,6,6.5,6c0.2,0,0.3,0,0.5,0
			c16.5-1.2,33-3.1,49.3-5.8c3.6-0.6,6-3.9,5.4-7.5S690.7,1057.2,687.2,1057.8L687.2,1057.8L687.2,1057.8z"/>
		<path class="st0" d="M316.5,980.5c-13.5-8.8-26.7-18.3-39.3-28.2c-2.7-2.3-6.9-2-9.2,0.7c-2.3,2.7-2,6.9,0.7,9.2
			c0.1,0.1,0.3,0.2,0.4,0.3c12.9,10.2,26.5,20,40.3,29c3,2,7.1,1.1,9.1-1.9S319.6,982.5,316.5,980.5L316.5,980.5L316.5,980.5z"/>
		<path class="st0" d="M402.1,1025.5c-14.9-6.1-29.6-13-43.9-20.5c-3.3-1.6-7.2-0.2-8.7,3.1c-1.5,3.1-0.3,6.8,2.6,8.5
			c14.6,7.7,29.7,14.8,45,21c0.8,0.3,1.6,0.5,2.5,0.5c3.6,0,6.5-3,6.5-6.6C406.2,1028.8,404.6,1026.5,402.1,1025.5L402.1,1025.5z"/>
		<path class="st0" d="M109.4,719.7c-1.2-3.4-5-5.2-8.4-3.9s-5.2,5-3.9,8.4c5.6,15.5,12,30.9,19,45.8c1.5,3.3,5.4,4.7,8.7,3.1
			c0,0,0,0,0.1,0c3.3-1.5,4.7-5.4,3.1-8.7c0,0,0,0,0,0C121.1,749.8,114.9,734.8,109.4,719.7z"/>
		<path class="st0" d="M150.6,807.1c-1.8-3.1-5.9-4.1-9-2.3c-3.1,1.8-4.1,5.9-2.3,9l0,0c8.4,14.2,17.5,28.1,27.1,41.5
			c2.1,2.9,6.2,3.6,9.1,1.5s3.6-6.2,1.5-9.1C167.7,834.6,158.8,821,150.6,807.1z"/>
		<path class="st0" d="M207.2,885.5c-2.4-2.7-6.6-2.8-9.2-0.4c-2.6,2.4-2.8,6.3-0.6,9c10.8,12.4,22.4,24.5,34.3,35.8
			c2.8,2.3,6.9,2,9.2-0.8c2.1-2.5,2-6.3-0.2-8.7C229,909.4,217.8,897.6,207.2,885.5z"/>
		<path class="st0" d="M494.6,1053.9c-15.8-3.3-31.5-7.3-46.9-12c-3.5-1-7.1,1-8.1,4.5c-1,3.4,0.9,7,4.3,8.1
			c15.8,4.8,32,9,48.1,12.3c0.4,0.1,0.9,0.1,1.3,0.1c3.6,0,6.5-2.9,6.5-6.6C499.8,1057.2,497.6,1054.5,494.6,1053.9L494.6,1053.9z"
			/>
		<path class="st0" d="M1110.2,689.8c-3.5-1-7.1,0.9-8.2,4.4c-4.7,15.4-10.1,30.7-16.2,45.6c-1.4,3.3,0.2,7.1,3.5,8.5c0,0,0,0,0,0
			c0.8,0.3,1.6,0.5,2.5,0.5c2.7,0,5.1-1.6,6.1-4.1c6.2-15.3,11.8-31,16.6-46.8C1115.6,694.5,1113.6,690.8,1110.2,689.8z"/>
		<path class="st0" d="M1074.3,780.9c-3.2-1.7-7.1-0.4-8.8,2.8c-2.4,4.5-4.8,9.1-7.3,13.6l-5.9,9.6c-3.7,6.2-7.5,12.4-11.4,18.5
			c-2,3-1.1,7.1,1.9,9c3,2,7.1,1.1,9.1-2l0,0c4-6.2,8-12.6,11.6-18.8l5.9-9.6l0.1-0.2c2.6-4.6,5.1-9.3,7.6-14
			C1078.8,786.6,1077.6,782.6,1074.3,780.9C1074.3,780.9,1074.3,780.9,1074.3,780.9z"/>
		<path class="st0" d="M1128.5,593.5c-3.6-0.4-6.8,2.2-7.2,5.8c-1.7,16-4.2,32.1-7.4,47.8c-0.7,3.5,1.6,7,5.1,7.7
			c0.4,0.1,0.9,0.1,1.3,0.1c3.1,0,5.8-2.2,6.4-5.2c3.3-16.1,5.8-32.6,7.6-49C1134.7,597.2,1132.1,594,1128.5,593.5
			C1128.5,593.5,1128.5,593.5,1128.5,593.5z"/>
		<path class="st0" d="M780.7,1033.2c-15.1,5.5-30.6,10.4-46.2,14.4c-3.5,0.9-5.6,4.5-4.6,8c0.8,2.9,3.3,4.8,6.3,4.9
			c0.6,0,1.1-0.1,1.7-0.2c15.9-4.2,31.9-9.2,47.3-14.8c3.4-1.2,5.2-4.9,4-8.3c-1.2-3.4-4.9-5.2-8.3-4
			C780.8,1033.2,780.7,1033.2,780.7,1033.2L780.7,1033.2z"/>
		<path class="st0" d="M1021.9,863.7c-2.8-2.2-6.9-1.8-9.2,1.1c0,0,0,0,0,0c-9.9,12.7-20.6,25-31.6,36.7c-2.5,2.6-2.4,6.8,0.3,9.3
			s6.8,2.4,9.3-0.3c11.3-12,22.2-24.6,32.4-37.6C1025.3,870,1024.8,865.9,1021.9,863.7C1021.9,863.7,1021.9,863.7,1021.9,863.7z"/>
		<path class="st0" d="M868,991.8c-13.8,8.2-28.2,15.9-42.7,22.8c-3.3,1.5-4.6,5.4-3.1,8.7c1.1,2.3,3.4,3.7,5.9,3.7
			c1,0,1.9-0.2,2.8-0.6c14.9-7.1,29.6-14.9,43.8-23.3c3.1-1.8,4.1-5.9,2.3-9C875.1,991,871.1,989.9,868,991.8z"/>
		<path class="st0" d="M946.2,935c-12.1,10.6-24.8,20.8-37.8,30.2c-2.9,2.1-3.6,6.2-1.5,9.1c2.1,2.9,6.2,3.6,9.1,1.5
			c0,0,0.1,0,0.1-0.1c13.3-9.7,26.4-20.1,38.8-31c2.7-2.4,3-6.5,0.6-9.2C953.1,932.9,948.9,932.6,946.2,935L946.2,935z"/>
		<path class="st1" d="M1299.3,542.6l-122.6-120.1v107.7H1143c-1.8-90.1-26.2-178.4-71-256.6c-0.2-0.7-0.5-1.4-0.9-2
			C922.2,12.3,591.2-77.3,331.9,71.7c-24.3,14-47.5,29.8-69.4,47.3c-94.2,75.6-161.2,181.6-188.6,298.5c-1,4.2,0.3,8.5,3.3,11.5
			l113.8,112.1L77,653.4c-4.8,4.7-4.9,12.5-0.1,17.3s12.5,4.9,17.3,0.1l123-121c4.8-4.7,4.9-12.5,0.1-17.3c0,0-0.1-0.1-0.1-0.1
			l-117.8-116C156.5,186.6,360,26.3,597.5,24.6c1.2,0.4,2.6,0.6,3.9,0.6c285.2,0,517.3,232,517.3,517.3c0,6.8,5.5,12.3,12.2,12.3
			c0,0,0,0,0,0h45.8v108L1299.3,542.6z"/>
		<path class="st2" d="M598.1,77.6c-213.5,0-393.4,143.6-448.5,339.5l133,126.4l-133.9,123c54,197.6,234.7,342.8,449.4,342.8
			c257.3,0,465.8-208.5,465.8-465.8S855.4,77.6,598.1,77.6z"/>
		<g>
			<defs>
				<path id="SVGID_1_" d="M598.1,77.6c-213.5,0-393.4,143.6-448.5,339.5l133,126.4l-133.9,123c54,197.6,234.7,342.8,449.4,342.8
					c257.3,0,465.8-208.5,465.8-465.8S855.4,77.6,598.1,77.6z"/>
			</defs>
			<clipPath id="SVGID_2_">
				<use xlink:href="#SVGID_1_"  style="overflow:visible;"/>
			</clipPath>
			<g class="st3">
				<g>
					<g>
						<g>
							<g id="XMLID_13_">
								<g>
									<polygon class="st4" points="812.9,600.2 786.9,641 786.7,604.2 									"/>
									<polygon class="st5" points="774.7,551.8 809.9,480.3 817.2,525.2 									"/>
									<polygon class="st5" points="809.9,480.3 774.7,551.8 744.5,411.3 753.8,415.9 783.4,435.5 									"/>
									<polygon class="st4" points="727.6,577.7 689.6,568.3 774.7,551.8 776.9,585.5 									"/>
									<polygon class="st4" points="744.5,411.3 706.7,514.8 700,388.9 									"/>
									<polygon class="st4" points="673,441.2 691,428.2 695.4,441 									"/>
									<polygon class="st6" points="689.6,568.3 688.4,636.3 681.5,639.1 654.9,596.5 									"/>
									<polygon class="st4" points="673,441.2 636.4,403.4 700,388.9 									"/>
									<polygon class="st5" points="673,441.2 649.5,451.3 649.4,443.1 									"/>
									<polygon class="st7" points="675.6,991.6 635.5,921.4 665.6,897.1 									"/>
									<polygon class="st6" points="652.8,667.1 681.5,639.1 672.1,677.7 									"/>
									<polygon class="st4" points="689.6,568.3 654.9,596.5 648.3,562.3 									"/>
									<polygon class="st4" points="648.3,562.3 669.7,545.6 689.6,568.3 									"/>
									<polygon class="st7" points="652.8,667.1 648.3,724.4 632.2,715.4 									"/>
									<polygon class="st6" points="651.2,751.7 640.2,797.2 636.6,735.7 									"/>
									<path class="st7" d="M640.2,797.2l41.1,55.4c0,0-31.3,0.5-32.1,1.3L640.2,797.2z"/>
									<path class="st6" d="M635.5,921.4l3.8-18.5l9.8-48.6c0.2,3.5,8.3,33,8.3,33l8.2,9.8L635.5,921.4z"/>
									<polygon class="st7" points="621.3,868.7 640.2,797.2 649.2,853.9 									"/>
									<path class="st7" d="M639.3,903l-18-34.3l27.9-14.7c0,0-0.1,0.2-0.1,0.4L639.3,903z"/>
									<polygon class="st7" points="621.3,648.4 654.9,596.5 681.5,639.1 652.8,667.1 									"/>
									<polygon class="st7" points="652.8,667.1 632.2,715.4 621.3,648.4 									"/>
									<polygon class="st7" points="572.1,385.7 641.6,292.9 678.8,308.4 683.2,327.5 707.9,380.2 700,388.9 636.4,403.4 
																			"/>
									<polygon class="st8" points="621.3,868.7 573,802.9 640.2,797.2 									"/>
									<polygon class="st6" points="632.4,941.8 608.1,903.2 639.3,903 635.5,921.4 									"/>
									<polygon class="st5" points="591.6,562.7 616.8,523.1 669.7,545.6 648.3,562.3 									"/>
									<polygon class="st7" points="608.1,903.2 621.3,868.7 639.3,903 									"/>
									<polygon class="st7" points="594.2,877.7 621.3,868.7 608.1,903.2 									"/>
									<polygon class="st6" points="587.2,902 608.1,903.2 602.5,942 									"/>
									<polygon class="st8" points="594.2,877.7 573,802.9 621.3,868.7 									"/>
									<polygon class="st7" points="587.2,902 594.2,877.7 608.1,903.2 									"/>
									<polygon class="st7" points="641.6,292.9 527.7,278.7 625.8,268.7 									"/>
									<polygon class="st7" points="625.8,268.7 527.7,278.7 569.2,247 577.8,237.6 									"/>
									<polygon class="st7" points="587.2,902 551,881.9 594.2,877.7 									"/>
									<polygon class="st6" points="582.1,979.9 551,881.9 587.2,902 									"/>
									<polygon class="st8" points="654.9,596.5 534.9,567.8 591.6,562.7 648.3,562.3 									"/>
									<polygon class="st8" points="551,881.9 573,802.9 594.2,877.7 									"/>
									<polygon class="st8" points="621.3,648.4 534.9,567.8 654.9,596.5 									"/>
									<polygon class="st8" points="540.5,455.4 572.1,385.7 636.4,403.4 									"/>
									<polygon class="st6" points="527.7,278.7 521.3,222.3 569.2,247 									"/>
									<polygon class="st8" points="551,881.9 504.7,811.8 573,802.9 									"/>
									<polygon class="st4" points="636.4,403.4 555.3,500.8 540.5,455.4 									"/>
									<polygon class="st7" points="636.6,735.7 534.9,567.8 621.3,648.4 632.2,715.4 									"/>
									<polygon class="st6" points="534.9,567.8 636.6,735.7 640.2,797.2 									"/>
									<polygon class="st8" points="640.2,797.2 497.6,600.8 534.9,567.8 									"/>
									<polygon class="st7" points="569.2,247 521.3,222.3 526.8,209.5 									"/>
									<polygon class="st4" points="517.2,564.3 542.6,526 591.6,562.7 534.9,567.8 									"/>
									<polygon class="st5" points="555.3,500.8 509.8,501.1 529,472.5 540.5,455.4 									"/>
									<polygon class="st8" points="506.7,437.4 572.1,385.7 540.5,455.4 529,472.5 									"/>
									<polygon class="st7" points="512.3,418.4 492.4,394.5 505.5,379.1 531.9,407.6 									"/>
									<polygon class="st7" points="497.6,436.4 512.3,418.4 531.9,407.6 572.1,385.7 506.7,437.4 									"/>
									<polygon class="st8" points="497,223.3 493.3,204.8 521.3,222.3 527.7,278.7 									"/>
									<polygon class="st6" points="488,577.2 534.9,567.8 497.6,600.8 									"/>
									<path class="st6" d="M508.1,870.7c0,0.8-25-22.4-25-22.4l21.7-36.5C504.7,811.8,508.1,869.9,508.1,870.7z"/>
									<polygon class="st7" points="529,472.5 478,472.4 506.7,437.4 									"/>
									<polygon class="st8" points="527.7,278.7 454.8,290.1 497,223.3 									"/>
									<polygon class="st7" points="482.1,440.6 468.4,429.7 496.4,423.3 									"/>
									<polygon class="st4" points="509.8,501.1 478,472.4 529,472.5 									"/>
									<polygon class="st7" points="473.4,419.7 491.5,404.4 496.4,423.3 									"/>
									<polygon class="st5" points="517.2,564.3 440.9,526.7 511.1,526.3 542.6,526 									"/>
									<polygon class="st4" points="509.8,501.1 453.1,501.5 478,472.4 									"/>
									<path class="st6" d="M473,939.9c0,0-51.3-90-52.4-90l62.4-1.6L473,939.9z"/>
									<polygon class="st7" points="496.4,423.3 468.4,429.7 473.4,419.7 									"/>
									<polygon class="st7" points="478,472.4 453.1,501.5 469.4,465.6 									"/>
									<polygon class="st7" points="455.6,404.6 477,384.3 471.7,409.1 									"/>
									<polygon class="st6" points="497.6,600.8 416.4,547.3 488,577.2 									"/>
									<polygon class="st8" points="454.8,290.1 452.6,209.2 497,223.3 									"/>
									<polygon class="st6" points="454.8,290.1 392.9,224 452.6,209.2 									"/>
									<polygon class="st5" points="440.9,526.7 453.1,501.5 511.1,526.3 									"/>
									<polygon class="st7" points="525.6,748.3 416.4,547.3 640.2,797.2 									"/>
									<polygon class="st6" points="458,431.9 449.6,429.8 444.9,414.8 455.6,404.6 471.7,409.1 473.4,419.7 468.4,429.7 
																			"/>
									<polygon class="st7" points="455.6,404.6 444.9,414.8 448,381.4 									"/>
									<polygon class="st7" points="442.2,449.1 449.6,429.8 465.3,450.8 									"/>
									<polygon class="st7" points="442.2,449.1 419.5,421.8 449.6,429.8 									"/>
									<polygon class="st4" points="422.6,516.7 453.1,501.5 440.9,526.7 									"/>
									<polygon class="st6" points="442.4,486.9 436.2,465.8 461.3,458.6 469.4,465.6 453.1,501.5 									"/>
									<polygon class="st6" points="415.9,477.2 436.2,465.8 442.4,486.9 									"/>
									<polygon class="st6" points="422.6,516.7 415.9,477.2 442.4,486.9 									"/>
									<polygon class="st7" points="389.3,414.1 410.5,366.4 462.3,371.9 464.7,372.1 464.7,372.2 448,381.4 447.9,381.4 
																			"/>
									<polygon class="st7" points="436.2,465.8 415.9,477.2 411.1,453.6 									"/>
									<polygon class="st7" points="420.6,849.9 397.3,857.8 458.5,748.7 483,848.3 									"/>
									<polygon class="st7" points="411.1,453.6 389.3,414.1 447.9,381.4 426.8,401.8 419.5,421.8 									"/>
									<path class="st7" d="M420.5,850.1c-1,2.7-0.3,41.3-0.3,41.3l-17.9-9.2L420.5,850.1z"/>
									<path class="st6" d="M402.3,882.2l-58.2-8.9l53.2-15.5l23.4-7.9c0,0-0.1,0.1-0.1,0.2L402.3,882.2z"/>
									<polygon class="st7" points="400.4,953.6 344.1,873.3 402.3,882.2 									"/>
									<polygon class="st7" points="389.3,414.1 411.1,453.6 368.7,443.9 									"/>
									<polygon class="st7" points="415.9,477.2 368.7,443.9 411.1,453.6 									"/>
									<polygon class="st7" points="454.8,290.1 326.5,225.8 392.9,224 									"/>
									<polygon class="st7" points="410.2,327.3 292.8,302.4 454.8,290.1 									"/>
									<polygon class="st7" points="326.5,225.8 454.8,290.1 367.5,272.6 320.1,235.1 									"/>
									<polygon class="st8" points="258.3,478.2 279.8,450.2 422.6,516.7 									"/>
									<polygon class="st7" points="322.2,971.3 278.6,896.1 344.1,873.3 									"/>
									<polygon class="st6" points="322.2,971.3 319,1015.2 298.8,979.6 									"/>
									<polygon class="st8" points="416.4,547.3 258.3,478.2 422.6,516.7 									"/>
									<polygon class="st8" points="422.6,516.7 279.8,450.2 415.9,477.2 									"/>
									<polygon class="st7" points="367.5,272.6 292.8,302.4 292.7,302.4 281.8,268.9 320.1,235.1 									"/>
									<polygon class="st7" points="278.6,896.1 322.2,971.3 298.8,979.6 									"/>
									<polygon class="st7" points="289.8,1022.8 278.6,896.1 298.8,979.6 									"/>
									<polygon class="st6" points="278.6,896.1 289.8,1022.8 271.3,989.4 									"/>
									<polygon class="st8" points="410.2,327.3 265.6,408.6 249.2,362.1 									"/>
									<polygon class="st8" points="278.6,896.1 228.2,668.3 344.1,873.3 									"/>
									<polygon class="st6" points="292.7,302.4 221.2,269.3 268.1,238.4 297.3,239.6 297.3,235.3 320.1,235.1 281.8,268.9 
																			"/>
									<polygon class="st7" points="249.2,362.1 237.4,323.2 221.2,269.3 292.7,302.4 									"/>
									<polygon class="st8" points="228.2,668.3 278.6,896.1 221.4,898.9 									"/>
									<polygon class="st6" points="271.3,989.4 221.4,898.9 278.6,896.1 									"/>
									<polygon class="st8" points="237.4,323.2 186.2,273.9 221.2,269.3 									"/>
									<polygon class="st8" points="228.2,668.3 221.4,898.9 208.6,913.9 									"/>
									<polygon class="st7" points="237.4,323.2 174.3,399.6 184.3,323.5 									"/>
									<polygon class="st8" points="258.3,478.2 174.5,431.7 174.3,399.6 									"/>
									<polygon class="st8" points="208.6,913.9 183.1,861.9 228.2,668.3 									"/>
									<polygon class="st8" points="237.4,323.2 184.3,323.5 186.3,291 186.2,273.9 									"/>
									<polygon class="st7" points="265.6,408.6 174.3,399.6 249.2,362.1 									"/>
									<polygon class="st7" points="208.6,913.9 221.5,924.1 195.1,940.8 183.1,861.9 									"/>
									<polygon class="st7" points="183.1,861.9 195.1,940.8 183.9,986.4 									"/>
									<polygon class="st7" points="169,941.2 183.1,861.9 183.9,986.4 175,957.6 									"/>
									<polygon class="st8" points="174.3,399.6 162.9,304.8 186.3,291 184.3,323.5 									"/>
									<polygon class="st7" points="169,941.2 175,957.6 142.8,990.7 									"/>
									<polygon class="st6" points="169,941.2 142.8,990.7 140.5,896 172.4,871.7 183.1,861.9 									"/>
									<polygon class="st8" points="174.3,399.6 138.7,324.2 131.5,305.7 162.9,304.8 									"/>
									<polygon class="st8" points="172.4,871.7 150.9,852.2 166.3,770.1 228.2,668.3 183.1,861.9 									"/>
									<polygon class="st7" points="174.5,431.7 147.9,417.9 174.3,399.6 									"/>
									<polygon class="st6" points="147.9,417.9 138.7,324.2 174.3,399.6 									"/>
									<polygon class="st7" points="138.7,324.2 147.9,417.9 107.7,388.8 									"/>
									<polygon class="st8" points="140.3,866.5 150.9,852.2 172.4,871.7 140.5,896 127.9,897.6 									"/>
									<polygon class="st8" points="108,879.9 127.9,897.6 111.2,927.8 									"/>
									<polygon class="st8" points="107.4,856.8 163.3,775 166.3,770.1 150.9,852.2 140.3,866.5 									"/>
									<polygon class="st7" points="127.9,897.6 108,879.9 140.3,866.5 									"/>
									<polygon class="st8" points="258.3,478.2 99.7,445.8 147.9,417.9 174.5,431.7 									"/>
									<polygon class="st7" points="147.9,417.9 99.7,445.8 91.3,380.9 107.7,388.8 									"/>
									<polygon class="st7" points="140.3,866.5 108,879.9 107.4,856.8 									"/>
									<polygon class="st6" points="107.4,856.8 63.2,856.3 102.2,812.5 									"/>
									<polygon class="st6" points="63.2,856.3 107.4,856.8 76,888.6 									"/>
									<polygon class="st8" points="107.4,856.8 108,879.9 77.3,928 76,888.6 									"/>
									<polygon class="st7" points="102.2,812.5 63.2,856.3 49.9,801.5 									"/>
									<polygon class="st7" points="99.7,445.8 30,491.2 27.7,462.6 									"/>
									<polygon class="st7" points="99.7,445.8 27.7,462.6 70.9,418.8 									"/>
									<polygon class="st6" points="91.3,380.9 72,371.7 138.7,324.2 107.7,388.8 									"/>
									<polygon class="st8" points="45.3,538.2 228.2,668.3 36.4,590.4 									"/>
									<polygon class="st8" points="266.5,536.7 45.3,538.2 174.9,488.8 244.5,525.2 									"/>
									<polygon class="st8" points="228.2,668.3 45.3,538.2 266.5,536.7 									"/>
									<polygon class="st8" points="63.2,856.3 76,888.6 53.6,912.1 									"/>
									<polygon class="st8" points="72.4,635.8 228.2,668.3 166.3,770.1 163.3,775 107.4,856.8 102.2,812.5 									"/>
									<polygon class="st8" points="72.4,635.8 102.2,812.5 49.9,801.5 44.2,801.5 									"/>
									<polygon class="st6" points="53.6,408.2 91.3,380.9 99.7,445.8 70.9,418.8 									"/>
									<polygon class="st7" points="72.4,635.8 39.2,690.9 19.4,722.5 38.6,605.3 									"/>
									<polygon class="st7" points="72.4,635.8 44.2,801.5 39.2,690.9 									"/>
									<polygon class="st7" points="49.9,801.5 63.2,856.3 42.7,882.2 									"/>
									<polygon class="st7" points="99.7,445.8 18.2,546.9 30,491.2 									"/>
									<polygon class="st7" points="174.9,488.8 45.3,538.2 18.2,546.9 99.7,445.8 									"/>
									<polygon class="st8" points="228.2,668.3 72.4,635.8 38.6,605.3 36.4,590.4 									"/>
									<polygon class="st7" points="36.4,590.4 38.6,605.3 6.8,651.9 27.1,593.3 									"/>
									<polygon class="st7" points="36.4,590.4 27.1,593.3 6.4,583.5 45.3,538.2 									"/>
									<polygon class="st6" points="27.7,462.6 30,491.2 13.6,504.2 									"/>
								</g>
								<g>
									<polyline class="st9" points="410.5,366.4 355.8,380.1 410.2,327.3 572.1,385.7 540.5,455.4 636.4,403.4 572.1,385.7 
																			"/>
									<polyline class="st9" points="454.8,290.1 552.5,331.7 410.2,327.3 									"/>
									<polyline class="st9" points="292.8,302.4 410.2,327.3 454.8,290.1 292.8,302.4 									"/>
									<polygon class="st9" points="355.8,380.1 318.2,416.8 389.3,414.1 									"/>
									<polygon class="st9" points="249.2,362.1 292.7,302.4 221.2,269.3 237.4,323.2 									"/>
									<polyline class="st9" points="186.2,273.9 237.4,323.2 184.3,323.5 186.3,291 									"/>
									<polyline class="st9" points="237.4,323.2 174.3,399.6 249.2,362.1 									"/>
									<polyline class="st9" points="162.9,304.8 174.3,399.6 147.9,417.9 107.7,388.8 138.7,324.2 174.3,399.6 184.3,323.5 
																			"/>
									<polyline class="st9" points="138.7,324.2 147.9,417.9 99.7,445.8 91.3,380.9 107.7,388.8 									"/>
									<polyline class="st9" points="70.9,418.8 99.7,445.8 27.7,462.6 30,491.2 99.7,445.8 18.2,546.9 									"/>
									<polyline class="st9" points="39.2,690.9 72.4,635.8 38.6,605.3 36.4,590.4 228.2,668.3 72.4,635.8 									"/>
									<polygon class="st9" points="45.3,538.2 228.2,668.3 266.5,536.7 									"/>
									<polyline class="st9" points="27.1,593.3 36.4,590.4 45.3,538.2 174.9,488.8 99.7,445.8 258.3,478.2 244.5,525.2 									
										"/>
									<polyline class="st9" points="147.9,417.9 174.5,431.7 174.3,399.6 258.3,478.2 174.5,431.7 									"/>
									<polygon class="st9" points="411.1,453.6 368.7,443.9 415.9,477.2 									"/>
									<polygon class="st9" points="442.4,486.9 436.2,465.8 415.9,477.2 									"/>
									<polygon class="st9" points="469.4,465.6 453.1,501.5 478,472.4 									"/>
									<polygon class="st9" points="529,472.5 506.7,437.4 478,472.4 									"/>
									<polygon class="st9" points="552.5,331.7 572.1,385.7 641.6,292.9 527.7,278.7 									"/>
									<line class="st9" x1="641.6" y1="292.9" x2="552.5" y2="331.7"/>
									<polyline class="st9" points="625.8,268.7 527.7,278.7 454.8,290.1 326.5,225.8 									"/>
									<polygon class="st9" points="320.1,235.1 281.8,268.9 292.7,302.4 292.8,302.4 367.5,272.6 									"/>
									<polyline class="st9" points="367.5,272.6 454.8,290.1 392.9,224 									"/>
									<polyline class="st9" points="452.6,209.2 454.8,290.1 497,223.3 527.7,278.7 521.3,222.3 569.2,247 527.7,278.7 									
										"/>
									<polyline class="st9" points="368.7,443.9 279.8,450.2 258.3,478.2 265.6,408.6 174.3,399.6 									"/>
									<polyline class="st9" points="174.9,488.8 244.5,525.2 266.5,536.7 351.5,594.7 258.3,478.2 416.4,547.3 369.8,613.9 
										351.5,594.7 									"/>
									<polyline class="st9" points="351.5,594.7 293.2,689.2 458.5,748.7 369.8,613.9 									"/>
									<polyline class="st9" points="266.5,536.7 293.2,689.2 228.2,668.3 344.1,873.3 397.3,857.8 228.2,668.3 									"/>
									<polyline class="st9" points="278.6,896.1 228.2,668.3 183.1,861.9 183.9,986.4 									"/>
									<polyline class="st9" points="195.1,940.8 183.1,861.9 208.6,913.9 228.2,668.3 221.4,898.9 278.6,896.1 289.8,1022.8 
																			"/>
									<polyline class="st9" points="228.2,668.3 166.3,770.1 163.3,775 107.4,856.8 108,879.9 127.9,897.6 140.3,866.5 
										108,879.9 									"/>
									<polygon class="st9" points="107.4,856.8 76,888.6 63.2,856.3 									"/>
									<polyline class="st9" points="44.2,801.5 72.4,635.8 102.2,812.5 49.9,801.5 63.2,856.3 102.2,812.5 107.4,856.8 
										140.3,866.5 150.9,852.2 166.3,770.1 									"/>
									<polyline class="st9" points="150.9,852.2 172.4,871.7 183.1,861.9 169,941.2 175,957.6 									"/>
									<line class="st9" x1="172.4" y1="871.7" x2="140.5" y2="896"/>
									<line class="st9" x1="169" y1="941.2" x2="142.8" y2="990.7"/>
									<line class="st9" x1="422.6" y1="516.7" x2="258.3" y2="478.2"/>
									<polyline class="st9" points="453.1,501.5 442.4,486.9 422.6,516.7 									"/>
									<polygon class="st9" points="422.6,516.7 279.8,450.2 415.9,477.2 									"/>
									<polyline class="st9" points="422.6,516.7 416.4,547.3 440.9,526.7 517.2,564.3 416.4,547.3 									"/>
									<polyline class="st9" points="420.6,849.9 397.3,857.8 458.5,748.7 525.6,748.3 416.4,547.3 458.5,748.7 									"/>
									<polyline class="st9" points="271.3,989.4 278.6,896.1 322.2,971.3 298.8,979.6 278.6,896.1 344.1,873.3 402.3,882.2 
										420.5,850.1 									"/>
									<polyline class="st9" points="652.8,667.1 621.3,648.4 632.2,715.4 652.8,667.1 681.5,639.1 654.9,596.5 534.9,567.8 
										488,577.2 416.4,547.3 640.2,797.2 525.6,748.3 504.7,811.8 483,848.3 									"/>
									<polyline class="st9" points="654.9,596.5 621.3,648.4 534.9,567.8 497.6,600.8 488,577.2 									"/>
									<polyline class="st9" points="420.6,849.9 483,848.3 458.5,748.7 									"/>
									<polyline class="st9" points="525.6,748.3 573,802.9 640.2,797.2 534.9,567.8 636.6,735.7 640.2,797.2 497.6,600.8 
										416.4,547.3 									"/>
									<polygon class="st9" points="649.2,853.9 640.2,797.2 621.3,868.7 									"/>
									<polyline class="st9" points="665.6,897.1 635.5,921.4 639.3,903 649.1,854.3 									"/>
									<polygon class="st9" points="621.3,868.7 594.2,877.7 608.1,903.2 639.3,903 									"/>
									<polyline class="st9" points="504.7,811.8 573,802.9 551,881.9 594.2,877.7 573,802.9 621.3,868.7 608.1,903.2 587.2,902 
																			"/>
									<polyline class="st9" points="551,881.9 587.2,902 594.2,877.7 									"/>
									<polyline class="st9" points="447.9,381.4 389.3,414.1 368.7,443.9 318.2,416.8 279.8,450.2 265.6,408.6 410.2,327.3 
										249.2,362.1 265.6,408.6 									"/>
									<polyline class="st9" points="505.5,379.1 492.4,394.5 477,384.3 464.7,372.2 448,381.4 									"/>
									<polygon class="st9" points="492.4,394.5 512.3,418.4 496.4,423.3 									"/>
									<polyline class="st9" points="419.5,421.8 411.1,453.6 442.2,449.1 436.2,465.8 									"/>
									<polyline class="st9" points="465.3,450.8 461.3,458.6 497.6,436.4 512.3,418.4 531.9,407.6 572.1,385.7 505.5,379.1 
										531.9,407.6 									"/>
									<line class="st9" x1="482.1" y1="440.6" x2="497.6" y2="436.4"/>
									<path class="st10" d="M700,388.9l7.8-8.6l-24.6-52.7l-4.4-19.2l-37.2-15.5l-15.9-24.2l-48-31.1l-8.5,9.3l-42.4-37.5
										l-5.6,12.8l-28-17.6l3.7,18.5l-44.4-14L392.9,224l-66.4,1.8l-6.4,9.3l-22.8,0.2l0,4.3l-29.3-1.2l-46.9,31l-35,4.5l0.1,17.2
										l-23.4,13.7l-31.4,0.9l7.2,18.5L72,371.7l19.3,9.1l-37.7,27.4l17.2,10.6l-43.2,43.8l-14.1,41.6l16.4-13l-11.8,55.7
										l27.1-8.7L6.4,583.5l20.7,9.8L6.8,651.9l31.8-46.6L19.4,722.5l19.8-31.5l5,110.6l5.7,0l-7.3,80.7l20.5-25.9l-9.6,55.8
										L76,888.6l1.3,39.4l30.7-48.1l3.3,47.9l16.7-30.2l12.6-1.6l2.3,94.7l32.2-33.1l9,28.8l11.2-45.5l26.4-16.8l-12.9-10.2
										l12.8-15l50,90.5l18.5,33.4l9-43.2l20.2,35.6l3.2-43.9l21.9-98l56.2,80.3l1.9-71.4l17.9,9.2c0,0-0.7-38.5,0.3-41.3
										c0-0.1,0.1-0.2,0.1-0.2c1.1,0,52.4,90,52.4,90l10-91.6c0,0,25,23.1,25,22.4s-3.3-58.9-3.3-58.9l46.2,70.1l31.1,98l5.1-78
										l15.3,40.1l5.6-38.9l24.4,38.7l3.1-20.4l40.1,70.2l-10-94.5l-8.2-9.8c0,0-8.1-29.5-8.3-33c0-0.2,0.1-0.4,0.1-0.4
										c0.8-0.8,32.1-1.3,32.1-1.3l-41.1-55.4l11-45.5l-14.6-16l-4.3-20.3l16.1,9l4.5-57.3l19.3,10.6l9.4-38.6l6.9-2.8l1.2-68"/>
									<polygon class="st10" points="572.1,385.7 503.6,375.4 464.7,372.1 462.3,371.9 410.5,366.4 389.3,414.1 411.1,453.6 
										436.2,465.8 461.3,458.6 469.4,465.6 497.6,436.4 506.7,437.4 									"/>
									<polyline class="st10" points="448,381.4 477,384.3 491.5,404.4 496.4,423.3 482.1,440.6 465.3,450.8 442.2,449.1 
										419.5,421.8 426.8,401.8 447.9,381.4 									"/>
									<line class="st9" x1="447.9" y1="381.4" x2="448" y2="381.4"/>
									<polygon class="st11" points="471.7,409.1 455.6,404.6 444.9,414.8 449.6,429.8 458,431.9 468.4,429.7 473.4,419.7 
																			"/>
									<polyline class="st11" points="442.2,449.1 449.6,429.8 465.3,450.8 458,431.9 482.1,440.6 468.4,429.7 496.4,423.3 
										473.4,419.7 491.5,404.4 471.7,409.1 477,384.3 455.6,404.6 448,381.4 444.9,414.8 426.8,401.8 449.6,429.8 419.5,421.8 
																			"/>
									<polyline class="st12" points="689.6,568.3 727.6,577.7 776.9,585.5 786.7,604.2 786.9,641 812.9,600.2 817.2,525.2 
										809.9,480.3 783.4,435.5 753.8,415.9 744.5,411.3 700,388.9 									"/>
									<polyline class="st13" points="478,472.4 509.8,501.1 555.3,500.8 									"/>
									<polyline class="st13" points="611,500.4 555.3,500.8 511.1,526.3 453.1,501.5 									"/>
									<line class="st13" x1="636.4" y1="403.4" x2="637.1" y2="500.2"/>
									<line class="st13" x1="440.9" y1="526.7" x2="453.1" y2="501.5"/>
									<polygon class="st13" points="637.1,500.2 669.7,545.6 616.8,523.1 611,500.4 									"/>
									<polyline class="st13" points="611,500.4 669.7,545.6 648.3,562.3 									"/>
									<polygon class="st13" points="616.8,523.1 591.6,562.7 542.6,526 									"/>
									<line class="st13" x1="555.3" y1="500.8" x2="616.8" y2="523.1"/>
									<polyline class="st13" points="648.3,562.3 689.6,568.3 774.7,551.8 776.9,585.5 									"/>
									<line class="st13" x1="649.4" y1="443.1" x2="636.4" y2="403.4"/>
									<polyline class="st13" points="817.2,525.2 774.7,551.8 744.5,411.3 706.7,514.8 649.5,451.3 									"/>
									<polyline class="st13" points="637.1,500.2 706.7,514.8 700,388.9 636.4,403.4 555.3,500.8 540.5,455.4 529,472.5 
										509.8,501.1 453.1,501.5 422.6,516.7 440.9,526.7 511.1,526.3 542.6,526 517.2,564.3 534.9,567.8 591.6,562.7 648.3,562.3 
										654.9,596.5 689.6,568.3 669.7,545.6 774.7,551.8 706.7,514.8 669.7,545.6 									"/>
									<polyline class="st13" points="809.9,480.3 774.7,551.8 812.9,600.2 786.7,604.2 774.7,551.8 									"/>
									<polygon class="st13" points="673,441.2 691,428.2 695.4,441 									"/>
									<polygon class="st13" points="649.5,451.3 649.4,443.1 673,441.2 									"/>
									<polyline class="st13" points="700,388.9 673,441.2 706.7,514.8 									"/>
									<line class="st13" x1="673" y1="441.2" x2="636.4" y2="403.4"/>
								</g>
							</g>
						</g>
					</g>
				</g>
				<g>
					<circle cx="642.8" cy="294.5" r="5.8"/>
				</g>
				<g>
					<circle cx="532.6" cy="279.5" r="5.8"/>
				</g>
				<g>
					<circle cx="396.7" cy="225.3" r="13.4"/>
				</g>
				<g>
					<circle cx="457" cy="404.9" r="10.2"/>
				</g>
				<g>
					<circle cx="443.3" cy="449.3" r="5.8"/>
				</g>
				<g>
					<circle cx="412.2" cy="366.4" r="5.8"/>
				</g>
				<g>
					<circle cx="412.2" cy="327.3" r="5.8"/>
				</g>
				<g>
					<circle cx="294.9" cy="301.6" r="5.8"/>
				</g>
				<g>
					<circle cx="251" cy="361" r="5.8"/>
				</g>
				<g>
					<circle cx="266.9" cy="406.1" r="5.8"/>
				</g>
				<g>
					<circle cx="259.2" cy="476.5" r="5.8"/>
				</g>
				<g>
					<circle cx="280.9" cy="447.9" r="8.1"/>
				</g>
				<g>
					<circle cx="350.3" cy="594.4" r="5.8"/>
				</g>
				<g>
					<circle cx="457" cy="747.7" r="5.8"/>
				</g>
				<g>
					<circle cx="395.5" cy="855.6" r="5.8"/>
				</g>
				<g>
					<circle cx="396.7" cy="950.1" r="5.8"/>
				</g>
				<g>
					<circle cx="287" cy="1019.4" r="5.8"/>
				</g>
				<g>
					<circle cx="276.7" cy="895.7" r="5.8"/>
				</g>
				<g>
					<circle cx="181.4" cy="864.6" r="5.8"/>
				</g>
				<g>
					<circle cx="571.7" cy="804" r="5.8"/>
				</g>
				<g>
					<circle cx="607.1" cy="904.5" r="5.8"/>
				</g>
				<g>
					<circle cx="639" cy="798.8" r="5.8"/>
				</g>
				<g>
					<circle cx="524.6" cy="749.1" r="10.2"/>
				</g>
				<g>
					<circle cx="497.7" cy="601.3" r="5.8"/>
				</g>
				<g>
					<circle class="st14" cx="543.2" cy="526.9" r="5.8"/>
				</g>
				<g>
					<circle class="st14" cx="556" cy="502" r="5.8"/>
				</g>
				<g>
					<circle class="st14" cx="611.7" cy="501.8" r="10.2"/>
				</g>
				<g>
					<circle class="st14" cx="543.2" cy="455.7" r="5.8"/>
				</g>
				<g>
					<circle class="st14" cx="454.7" cy="502" r="5.8"/>
				</g>
				<g>
					<circle class="st14" cx="674.1" cy="442.3" r="10.6"/>
				</g>
				<g>
					<circle class="st14" cx="701.6" cy="391.8" r="5.8"/>
				</g>
				<g>
					<circle class="st14" cx="784.5" cy="437.9" r="9.5"/>
				</g>
				<g>
					<circle class="st14" cx="637.9" cy="404.9" r="5.8"/>
				</g>
				<g>
					<circle class="st14" cx="707.3" cy="517.2" r="5.8"/>
				</g>
				<g>
					<circle class="st14" cx="775.1" cy="553.1" r="8.9"/>
				</g>
				<g>
					<circle class="st14" cx="786.8" cy="606.7" r="10.4"/>
				</g>
				<g>
					<circle class="st14" cx="648.6" cy="563.9" r="5.8"/>
				</g>
				<g>
					<circle cx="416.9" cy="547.3" r="5.8"/>
				</g>
				<g>
					<circle cx="45.8" cy="535.7" r="5.8"/>
				</g>
				<g>
					<circle cx="29.6" cy="487.2" r="9"/>
				</g>
				<g>
					<circle cx="28.7" cy="460.4" r="5.8"/>
				</g>
				<g>
					<circle cx="100.8" cy="443.6" r="5.8"/>
				</g>
				<g>
					<circle cx="71.8" cy="416.2" r="5.8"/>
				</g>
				<g>
					<circle cx="140.3" cy="322" r="11.2"/>
				</g>
				<g>
					<circle cx="175.7" cy="395.1" r="5.8"/>
				</g>
				<g>
					<circle cx="73.4" cy="634.2" r="5.8"/>
				</g>
				<g>
					<circle cx="44.2" cy="799.8" r="5.8"/>
				</g>
				<g>
					<circle cx="99.9" cy="809.9" r="12.5"/>
				</g>
				<g>
					<circle cx="227.8" cy="667" r="5.8"/>
				</g>
				<g>
					<circle cx="265" cy="535.7" r="5.8"/>
				</g>
				<g>
					<circle cx="175.7" cy="487.2" r="13.1"/>
				</g>
			</g>
		</g>
	</g>
</g>
</svg>
