<?xml version="1.0" encoding="utf-8"?>
<!-- Generator: Adobe Illustrator 23.0.1, SVG Export Plug-In . SVG Version: 6.00 Build 0)  -->
<svg version="1.1" id="Layer_1" xmlns="http://www.w3.org/2000/svg" xmlns:xlink="http://www.w3.org/1999/xlink" x="0px" y="0px"
	 viewBox="0 0 1299.3 1077.7" style="enable-background:new 0 0 1299.3 1077.7;" xml:space="preserve">
<style type="text/css">
	.st0{fill:#13365D;}
	.st1{fill:#0061FF;}
	.st2{clip-path:url(#SVGID_2_);}
	.st3{fill:#C5C5C5;}
	.st4{fill:#797979;}
	.st5{fill:#D5E2FD;}
	.st6{fill:#8BAFFD;}
	.st7{fill:none;stroke:#000000;stroke-width:2.1758;stroke-linecap:round;stroke-linejoin:round;stroke-miterlimit:10;}
	.st8{fill:none;stroke:#000000;stroke-width:1.3055;stroke-linecap:round;stroke-linejoin:round;stroke-miterlimit:10;}
	.st9{fill:none;stroke:#005EFD;stroke-width:1.3055;stroke-linecap:round;stroke-linejoin:round;stroke-miterlimit:10;}
	.st10{fill:none;stroke:#005EFD;stroke-width:2.1786;stroke-linecap:round;stroke-linejoin:round;stroke-miterlimit:10;}
	.st11{fill:#005EFD;}
</style>
<title>Asset 2</title>
<g id="Layer_2_1_">
	<g id="Layer_1-2">
		<path class="st0" d="M590.7,12.8c3.6,0,6.6-3,6.6-6.6s-3-6.5-6.6-6.5h-0.2C574,0.1,557.3,1.2,541,3l0,0c-3.6,0.4-6.2,3.6-5.8,7.2
			s3.6,6.2,7.2,5.8C558.3,14.2,574.6,13.1,590.7,12.8L590.7,12.8z"/>
		<path class="st0" d="M687.2,19.7L687.2,19.7c3.5,0.6,7-1.8,7.6-5.4s-1.8-6.9-5.4-7.5c-16.3-2.7-32.8-4.6-49.3-5.8
			c-0.2,0-0.3,0-0.5,0c-3.4,0-6.2,2.6-6.5,6c-0.3,3.6,2.4,6.7,6,7C655.2,15.2,671.4,17.1,687.2,19.7L687.2,19.7z"/>
		<path class="st0" d="M316.5,97L316.5,97c3.1-2,4-6.1,2-9.1s-6.1-3.9-9.1-1.9c-13.8,9-27.4,18.8-40.3,29c-0.1,0.1-0.3,0.2-0.4,0.3
			c-2.7,2.3-3,6.5-0.7,9.2s6.5,3,9.2,0.7C289.8,115.3,303,105.8,316.5,97L316.5,97z"/>
		<path class="st0" d="M402.1,52c2.5-1,4.1-3.3,4-6c0-3.6-2.9-6.6-6.5-6.6c-0.9,0-1.7,0.2-2.5,0.5c-15.3,6.2-30.4,13.3-45,21
			c-2.9,1.7-4.1,5.4-2.6,8.5c1.5,3.3,5.4,4.7,8.7,3.1C372.5,65,387.2,58.1,402.1,52L402.1,52z"/>
		<path class="st0" d="M128,313.1L128,313.1c1.6-3.3,0.2-7.2-3.1-8.7c-0.1,0-0.1,0-0.1,0c-3.3-1.6-7.2-0.2-8.7,3.1
			c-7,14.9-13.4,30.3-19,45.8c-1.3,3.4,0.5,7.1,3.9,8.4s7.2-0.5,8.4-3.9C114.9,342.7,121.1,327.7,128,313.1z"/>
		<path class="st0" d="M177,229.8c2.1-2.9,1.4-7-1.5-9.1s-7-1.4-9.1,1.5c-9.6,13.4-18.7,27.3-27.1,41.5l0,0c-1.8,3.1-0.8,7.2,2.3,9
			s7.2,0.8,9-2.3C158.8,256.5,167.7,242.9,177,229.8z"/>
		<path class="st0" d="M240.7,157.1c2.2-2.4,2.3-6.2,0.2-8.7c-2.3-2.8-6.4-3.1-9.2-0.8c-11.9,11.3-23.5,23.4-34.3,35.8
			c-2.2,2.7-2,6.6,0.6,9s6.8,2.3,9.2-0.4C217.8,179.9,229,168.1,240.7,157.1z"/>
		<path class="st0" d="M494.6,23.6c3-0.6,5.2-3.3,5.2-6.4c0-3.7-2.9-6.6-6.5-6.6c-0.4,0-0.9,0-1.3,0.1c-16.1,3.3-32.3,7.5-48.1,12.3
			c-3.4,1.1-5.3,4.7-4.3,8.1c1,3.5,4.6,5.5,8.1,4.5C463.1,30.9,478.8,26.9,494.6,23.6L494.6,23.6z"/>
		<path class="st0" d="M1114.5,379.6c-4.8-15.8-10.4-31.5-16.6-46.8c-1-2.5-3.4-4.1-6.1-4.1c-0.9,0-1.7,0.2-2.5,0.5l0,0
			c-3.3,1.4-4.9,5.2-3.5,8.5c6.1,14.9,11.5,30.2,16.2,45.6c1.1,3.5,4.7,5.4,8.2,4.4C1113.6,386.7,1115.6,383,1114.5,379.6z"/>
		<path class="st0" d="M1074.3,296.6c3.3-1.7,4.5-5.7,2.8-8.9c-2.5-4.7-5-9.4-7.6-14l-0.1-0.2l-5.9-9.6c-3.6-6.2-7.6-12.6-11.6-18.8
			l0,0c-2-3.1-6.1-4-9.1-2c-3,1.9-3.9,6-1.9,9c3.9,6.1,7.7,12.3,11.4,18.5l5.9,9.6c2.5,4.5,4.9,9.1,7.3,13.6
			C1067.2,297,1071.1,298.3,1074.3,296.6L1074.3,296.6z"/>
		<path class="st0" d="M1128.5,484c3.6-0.5,6.2-3.7,5.8-7.2c-1.8-16.4-4.3-32.9-7.6-49c-0.6-3-3.3-5.2-6.4-5.2c-0.4,0-0.9,0-1.3,0.1
			c-3.5,0.7-5.8,4.2-5.1,7.7c3.2,15.7,5.7,31.8,7.4,47.8C1121.7,481.8,1124.9,484.4,1128.5,484L1128.5,484z"/>
		<path class="st0" d="M780.7,44.3c0,0,0.1,0,0.2,0c3.4,1.2,7.1-0.6,8.3-4s-0.6-7.1-4-8.3c-15.4-5.6-31.4-10.6-47.3-14.8
			c-0.6-0.1-1.1-0.2-1.7-0.2c-3,0.1-5.5,2-6.3,4.9c-1,3.5,1.1,7.1,4.6,8C750.1,33.9,765.6,38.8,780.7,44.3L780.7,44.3z"/>
		<path class="st0" d="M1021.9,213.8c2.9-2.2,3.4-6.3,1.2-9.2c-10.2-13-21.1-25.6-32.4-37.6c-2.5-2.7-6.6-2.8-9.3-0.3
			s-2.8,6.7-0.3,9.3c11,11.7,21.7,24,31.6,36.7l0,0C1015,215.6,1019.1,216,1021.9,213.8L1021.9,213.8z"/>
		<path class="st0" d="M877,83.4c1.8-3.1,0.8-7.2-2.3-9c-14.2-8.4-28.9-16.2-43.8-23.3c-0.9-0.4-1.8-0.6-2.8-0.6
			c-2.5,0-4.8,1.4-5.9,3.7c-1.5,3.3-0.2,7.2,3.1,8.7c14.5,6.9,28.9,14.6,42.7,22.8C871.1,87.6,875.1,86.5,877,83.4z"/>
		<path class="st0" d="M946.2,142.5c2.7,2.4,6.9,2.1,9.3-0.5c2.4-2.7,2.1-6.8-0.6-9.2c-12.4-10.9-25.5-21.3-38.8-31
			c0-0.1-0.1-0.1-0.1-0.1c-2.9-2.1-7-1.4-9.1,1.5s-1.4,7,1.5,9.1C921.4,121.7,934.1,131.9,946.2,142.5L946.2,142.5z"/>
		<path class="st1" d="M1176.7,414.7v108h-45.8l0,0c-6.7,0-12.2,5.5-12.2,12.3c0,285.3-232.1,517.3-517.3,517.3
			c-1.3,0-2.7,0.2-3.9,0.6c-237.5-1.7-441-162-498.1-391.8l117.8-116l0.1-0.1c4.8-4.8,4.7-12.6-0.1-17.3l-123-121
			c-4.8-4.8-12.5-4.7-17.3,0.1s-4.7,12.6,0.1,17.3l114,112.3L77.2,648.5c-3,3-4.3,7.3-3.3,11.5c27.4,116.9,94.4,222.9,188.6,298.5
			c21.9,17.5,45.1,33.3,69.4,47.3c259.3,149,590.3,59.4,739.2-199.9c0.4-0.6,0.7-1.3,0.9-2c44.8-78.2,69.2-166.5,71-256.6h33.7V655
			l122.6-120.1L1176.7,414.7z"/>
		<g>
			<g>
				<defs>
					<path id="SVGID_1_" d="M600.8,73.6c-213.5,0-393.4,143.6-448.5,339.5l133,126.4l-133.9,123c54,197.6,234.7,342.8,449.4,342.8
						c257.3,0,465.8-208.5,465.8-465.8S858.1,73.6,600.8,73.6z"/>
				</defs>
				<use xlink:href="#SVGID_1_"  style="overflow:visible;fill:#F5F5F5;"/>
				<clipPath id="SVGID_2_">
					<use xlink:href="#SVGID_1_"  style="overflow:visible;"/>
				</clipPath>
				<g class="st2">
					<g>
						<g>
							<g id="XMLID_22_">
								<g>
									<polygon class="st3" points="924.4,560.6 869.6,676.7 821.1,614.2 									"/>
									<polygon class="st3" points="924.4,560.6 821.1,614.2 744.7,621.9 832.4,586.9 									"/>
									<polygon class="st4" points="904.6,542 854.3,551.8 705.3,571.5 854.3,516.8 									"/>
									<polygon class="st3" points="821.1,614.2 869.6,676.7 744.7,621.9 									"/>
									<polygon class="st3" points="869.6,676.7 834.5,788.4 792.9,709.5 									"/>
									<polygon class="st3" points="869.6,676.7 792.9,709.5 767.2,672.8 									"/>
									<polygon class="st3" points="869.6,676.7 767.2,672.8 744.7,621.9 									"/>
									<polygon class="st4" points="854.3,516.8 705.3,571.5 736,521.2 									"/>
									<polygon class="st4" points="823.6,420.4 705.3,442.3 696.6,402.9 									"/>
									<polygon class="st3" points="777.6,492.6 736,521.2 633,532.1 633,494.9 683.4,494.9 									"/>
									<polygon class="st4" points="744.7,621.9 767.2,672.8 676.8,768.7 707.5,696.4 									"/>
									<polygon class="st5" points="744.7,621.9 705.3,672.8 720.6,608.8 									"/>
									<polygon class="st6" points="705.3,571.5 720.6,608.8 644,571.5 									"/>
									<polygon class="st5" points="720.6,608.8 705.3,672.8 664.8,657 705.3,625.2 									"/>
									<polygon class="st6" points="720.6,608.8 653.9,608.8 644,571.5 									"/>
									<polygon class="st5" points="705.3,672.8 744.7,621.9 707.5,696.4 									"/>
									<polygon class="st5" points="705.3,672.8 707.5,696.4 637.4,716.1 									"/>
									<polygon class="st3" points="707.5,696.4 676.8,768.7 637.4,716.1 									"/>
									<polygon class="st6" points="705.3,625.2 664.8,657 653.9,608.8 720.6,608.8 									"/>
									<polygon class="st3" points="696.6,402.9 705.3,442.3 633,494.9 									"/>
									<polygon class="st6" points="705.3,571.5 644,571.5 633,532.1 									"/>
									<polygon class="st5" points="705.3,672.8 637.4,716.1 644,676.7 									"/>
									<polygon class="st5" points="705.3,672.8 644,676.7 664.8,657 									"/>
									<polygon class="st3" points="696.6,402.9 633,494.9 569.5,416 									"/>
									<polygon class="st4" points="637.4,716.1 676.8,768.7 608.9,788.4 									"/>
									<polygon class="st6" points="653.9,608.8 664.8,657 587,608.8 									"/>
									<polygon class="st5" points="664.8,657 644,676.7 628.6,657 									"/>
									<polygon class="st6" points="644,571.5 653.9,608.8 587,608.8 									"/>
									<polygon class="st6" points="633,532.1 644,571.5 592.5,558.4 									"/>
									<polygon class="st5" points="628.6,657 644,676.7 538.8,667.9 									"/>
									<polygon class="st5" points="644,676.7 637.4,716.1 538.8,667.9 									"/>
									<polygon class="st6" points="644,571.5 587,608.8 592.5,558.4 									"/>
									<polygon class="st5" points="628.6,657 538.8,667.9 568,639.1 									"/>
									<polygon class="st3" points="538.8,667.9 608.9,788.4 490.6,755.5 									"/>
									<polygon class="st3" points="569.5,416 523.5,501.4 490.6,516.8 368,508 									"/>
									<polygon class="st3" points="569.5,416 368,508 508.1,370 									"/>
									<polygon class="st5" points="529,558.4 568,639.1 538.8,667.9 									"/>
									<polygon class="st5" points="529,558.4 538.8,667.9 490.6,600 									"/>
									<polygon class="st3" points="490.6,600 538.8,667.9 446.8,600 									"/>
									<polygon class="st3" points="538.8,667.9 490.6,755.5 407.4,639.4 									"/>
									<polygon class="st3" points="538.8,667.9 407.4,639.4 446.8,600 									"/>
									<polygon class="st5" points="529,518.9 523.5,501.4 633,532.1 									"/>
									<polygon class="st5" points="529,518.9 490.6,600 490.6,516.8 									"/>
									<polygon class="st5" points="529,558.4 490.6,600 529,518.9 									"/>
									<polygon class="st6" points="523.5,501.4 529,518.9 490.6,516.8 									"/>
									<polygon class="st3" points="508.1,370 368,508 418.4,372.2 									"/>
									<polygon class="st4" points="506,295.5 440.3,330.6 418.4,372.2 368,308.7 									"/>
									<polygon class="st3" points="490.6,516.8 490.6,600 446.8,600 									"/>
									<polygon class="st3" points="368,508 446.8,600 407.4,639.4 									"/>
									<polygon class="st3" points="368,308.7 418.4,372.2 332.9,370 									"/>
									<polygon class="st3" points="418.4,372.2 368,508 350.4,442.3 									"/>
									<polygon class="st3" points="368,308.7 332.9,370 278.2,324 									"/>
									<polygon class="st4" points="350.4,442.3 368,508 260.6,442.3 									"/>
									<polygon class="st3" points="332.9,370 350.4,442.3 278.2,394.1 									"/>
								</g>
								<g>
									<polygon class="st7" points="418.4,372.2 440.3,330.6 506,295.5 368,308.7 278.2,324 332.9,370 278.2,394.1 350.4,442.3 
										260.6,442.3 368,508 407.4,639.4 490.6,755.5 608.9,788.4 676.8,768.7 792.9,709.5 834.5,788.4 869.6,676.7 924.4,560.6 
										832.4,586.9 854.3,551.8 904.6,542 854.3,516.8 736,521.2 777.6,492.6 683.4,494.9 633,494.9 705.3,442.3 823.6,420.4 
										696.6,402.9 569.5,416 617.7,367.8 508.1,370 									"/>
									<polyline class="st8" points="832.4,586.9 744.7,621.9 767.2,672.8 869.6,676.7 744.7,621.9 									"/>
									<polyline class="st8" points="707.5,696.4 676.8,768.7 637.4,716.1 608.9,788.4 538.8,667.9 490.6,755.5 									"/>
									<polyline class="st8" points="490.6,600 446.8,600 538.8,667.9 407.4,639.4 446.8,600 									"/>
									<polygon class="st8" points="368,508 446.8,600 490.6,516.8 									"/>
									<polygon class="st8" points="350.4,442.3 368,508 418.4,372.2 									"/>
									<polygon class="st8" points="332.9,370 368,308.7 418.4,372.2 									"/>
									<line class="st8" x1="350.4" y1="442.3" x2="332.9" y2="370"/>
									<polygon class="st8" points="569.5,416 508.1,370 368,508 									"/>
									<polyline class="st8" points="705.3,442.3 696.6,402.9 633,494.9 									"/>
									<polyline class="st8" points="676.8,768.7 767.2,672.8 792.9,709.5 869.6,676.7 821.1,614.2 924.4,560.6 									"/>
									<polyline class="st9" points="633,532.1 592.5,558.4 587,608.8 628.6,657 664.8,657 705.3,625.2 720.6,608.8 705.3,571.5 
																			"/>
									<polyline class="st8" points="523.5,501.4 569.5,416 633,494.9 633,532.1 736,521.2 705.3,571.5 854.3,551.8 744.7,621.9 
										821.1,614.2 									"/>
									<polygon class="st10" points="490.6,516.8 523.5,501.4 633,532.1 705.3,571.5 744.7,621.9 707.5,696.4 637.4,716.1 
										538.8,667.9 490.6,600 									"/>
									<polygon class="st9" points="633,532.1 529,518.9 592.5,558.4 644,571.5 									"/>
									<polyline class="st9" points="490.6,516.8 529,518.9 523.5,501.4 									"/>
									<polyline class="st9" points="529,518.9 529,558.4 587,608.8 529,518.9 490.6,600 529,558.4 538.8,667.9 568,639.1 
										529,558.4 									"/>
									<polyline class="st9" points="707.5,696.4 705.3,672.8 644,676.7 664.8,657 705.3,672.8 									"/>
									<line class="st9" x1="628.6" y1="657" x2="644" y2="676.7"/>
									<polygon class="st9" points="653.9,608.8 644,571.5 587,608.8 									"/>
									<polyline class="st9" points="705.3,571.5 644,571.5 720.6,608.8 653.9,608.8 664.8,657 587,608.8 568,639.1 628.6,657 
										538.8,667.9 644,676.7 637.4,716.1 705.3,672.8 720.6,608.8 744.7,621.9 705.3,672.8 									"/>
									<line class="st8" x1="854.3" y1="516.8" x2="705.3" y2="571.5"/>
								</g>
							</g>
						</g>
						<g>
							<circle class="st11" cx="644" cy="571.5" r="11.3"/>
						</g>
						<g>
							<circle class="st11" cx="664.8" cy="656.9" r="6.9"/>
						</g>
						<g>
							
								<ellipse transform="matrix(0.9239 -0.3827 0.3827 0.9239 -188.2949 270.9771)" class="st11" cx="587" cy="608.8" rx="6.9" ry="6.9"/>
						</g>
						<g>
							<circle class="st11" cx="529" cy="521.4" r="7.3"/>
						</g>
						<g>
							<g>
								<g>
									<circle cx="569.5" cy="416" r="8.4"/>
								</g>
							</g>
						</g>
						<g>
							<g>
								<g>
									<circle cx="509.8" cy="369.5" r="5"/>
								</g>
							</g>
						</g>
						<g>
							<g>
								<g>
									<circle cx="418.4" cy="372.2" r="7.7"/>
								</g>
							</g>
						</g>
						<g>
							<g>
								<g>
									<circle cx="407.4" cy="638" r="7.7"/>
								</g>
							</g>
						</g>
						<g>
							<g>
								<g>
									<circle cx="368" cy="508" r="6.1"/>
								</g>
							</g>
						</g>
						<g>
							<g>
								<g>
									<circle cx="705.3" cy="444.9" r="11.3"/>
								</g>
							</g>
						</g>
						<g>
							<circle class="st11" cx="540.2" cy="668.6" r="7.1"/>
						</g>
						<g>
							<g>
								<g>
									<circle cx="609.5" cy="788.4" r="8.2"/>
								</g>
							</g>
						</g>
						<g>
							<g>
								<g>
									<circle cx="869.6" cy="679.8" r="7.8"/>
								</g>
							</g>
						</g>
						<g>
							<g>
								<g>
									<circle cx="854.3" cy="554" r="11.3"/>
								</g>
							</g>
						</g>
						<g>
							<g>
								<g>
									<circle cx="774.5" cy="492.1" r="5.9"/>
								</g>
							</g>
						</g>
						<g>
							<g>
								<g>
									<circle cx="332.9" cy="370" r="7"/>
								</g>
							</g>
						</g>
						<g>
							<g>
								<g>
									<circle cx="260.6" cy="440.1" r="8.8"/>
								</g>
							</g>
						</g>
						<g>
							<g>
								<g>
									<circle cx="632.7" cy="496.7" r="6.6"/>
								</g>
							</g>
						</g>
					</g>
				</g>
			</g>
		</g>
	</g>
</g>
</svg>
